<svg clip-rule="evenodd" fill-rule="evenodd" stroke-linejoin="round" stroke-miterlimit="2" viewBox="0 0 568 385" xmlns="http://www.w3.org/2000/svg"><g transform="scale(1.81644)"><path d="m0 0h312.7v211.674h-312.7z" fill="none"/><path d="m242.087 178.183h16.878v62.85h-16.878z" fill="#d2d3d5" transform="matrix(.32207349839 .0000001625 -.00000025934 .51401242373 -63.66059125903 42.09209679153)"/><path d="m258.966 178.183h-16.879v62.85h16.879zm-5.342 3.347v56.156h-6.195v-56.156z" transform="matrix(.32207349839 .0000001625 -.00000025934 .51401242373 -63.66059125903 42.09209679153)"/><path d="m242.087 178.183h16.878v62.85h-16.878z" fill="#d2d3d5" transform="matrix(.36324739024 .00000018327 -.00000033434 .66267043861 -80.30687450171 13.54423725996)"/><path d="m258.966 178.183h-16.879v62.85h16.879zm-4.737 2.596v57.658h-7.406v-57.658z" transform="matrix(.36324739024 .00000018327 -.00000033434 .66267043861 -80.30687450171 13.54423725996)"/><path d="m242.087 178.183h16.878v62.85h-16.878z" fill="#d2d3d5" transform="matrix(.32207349839 .0000001625 -.00000025934 .51401242373 -36.60568713548 42.09211044158)"/><path d="m258.966 178.183h-16.879v62.85h16.879zm-5.342 3.347v56.156h-6.195v-56.156z" transform="matrix(.32207349839 .0000001625 -.00000025934 .51401242373 -36.60568713548 42.09211044158)"/><path d="m242.087 178.183h16.878v62.85h-16.878z" fill="#d2d3d5" transform="matrix(.36324739024 .00000018327 -.00000033434 .66267043861 -53.25203581352 13.54425090998)"/><path d="m258.966 178.183h-16.879v62.85h16.879zm-4.737 2.596v57.658h-7.406v-57.658z" transform="matrix(.36324739024 .00000018327 -.00000033434 .66267043861 -53.25203581352 13.54425090998)"/><path d="m41.708 142.952h64.286v9.925h-64.286z" fill="#f68634" transform="matrix(.66910927808 .00000033759 -.00000039128 .77553334829 -24.12137416932 18.72439048043)"/><path d="m105.994 142.952h-64.286v9.925h64.286zm-2.4 2.07v5.784h-59.487v-5.784z" transform="matrix(.66910927808 .00000033759 -.00000039128 .77553334829 -24.12137416932 18.72439048043)"/><g transform="matrix(.31251514531 -.57490157087 .57490157087 .31251514531 5.14391714701 107.06187293114)"><path d="m23.278 190.268s-4.281-1.804-8.839-.412c-2.747.839-5.245 2.644-5.245 2.644s-3.888.286-6.763 3.211c-1.576 1.604-.117 6.119 2.202 9.439s5.991 7.202 7.488 9.799c1.573 2.732 2.406 5.296 3.944 7.755 1.867 2.981 4.954 7.253 7.254 10.136 2.268 2.842 5.984 6.369 8.056 5.696 5.446-1.769 4.099-6.388 3.262-9.37-.724-2.582-1.959-5.056-2.424-7.709-.546-3.118-.977-5.647-.853-10.999.115-5.017-.21-8.514-.21-8.514z" fill="#4b4b4d"/><path d="m23.278 190.268s-4.281-1.804-8.839-.412c-2.747.839-5.245 2.644-5.245 2.644s-3.888.286-6.763 3.211c-1.576 1.604-.117 6.119 2.202 9.439s5.991 7.202 7.488 9.799c1.573 2.732 2.406 5.296 3.944 7.755 1.867 2.981 4.954 7.253 7.254 10.136 2.268 2.842 5.984 6.369 8.056 5.696 5.446-1.769 4.099-6.388 3.262-9.37-.724-2.582-1.959-5.056-2.424-7.709-.546-3.118-.977-5.647-.853-10.999.115-5.017-.21-8.514-.21-8.514zm7.498 45.693c-.191-.079-.707-.302-1.032-.516-1.529-1.007-3.171-2.743-4.37-4.245-2.244-2.813-5.259-6.981-7.08-9.891-1.522-2.431-2.339-4.971-3.895-7.672-1.524-2.645-5.249-6.611-7.611-9.992-.979-1.403-1.787-3.052-2.173-4.525-.154-.586-.174-1.469-.176-1.696 2.147-2.08 4.948-2.302 4.948-2.302.485-.036.952-.206 1.347-.491 0 0 2.129-1.545 4.473-2.261 2.662-.813 5.205-.263 6.377.09h.001l6.998 10.379c.082 1.204.23 3.981.148 7.558-.129 5.603.321 8.25.893 11.514.479 2.739 1.734 5.3 2.482 7.965.221.79.491 1.707.62 2.65.112.824.181 1.697-.332 2.395-.325.442-.86.772-1.618 1.04z"/><path d="m9.17 192.602s-8.296 7.495-1.124 16.916c.439.577 1.265.689 1.842.25.577-.44.689-1.265.25-1.843-5.67-7.447.8-13.378.8-13.378.537-.488.577-1.32.089-1.857-.488-.536-1.32-.576-1.857-.088z"/></g><path d="m171.999 198.259c2.321-.711 4.455-1.28 6.268-1.643 5.126-1.027 11.34-1.391 15.597 1.643 4.817 3.433 9.517 12.229 13.303 18.957 7.241 12.865 17.16 41.687 30.145 58.234 3.226 4.111 1.432 10.276-2.996 13.051-4.429 2.775-10.245 1.413-13.052-2.996-20.216-31.752-27.853-29.672-37.589-44.539-2.549-3.892-3.332-6.225-3.6-8.516-4.15 5.757-16.935 13.103-29.333 17.986l-26.764-31.042s16.076-8.083 24.756-12.093c4.777-2.207 10.705-4.665 16.34-6.708l.019-.007c.142-.052.283-.103.425-.154l.021-.007.085-.031.242-.087.077-.027.058-.021.09-.032.149-.053.135-.047.086-.031.063-.022.089-.032.214-.075.092-.032.029-.01c.139-.049.279-.098.418-.146l.357-.124.061-.02.046-.016.092-.032.169-.058.113-.038.077-.027.071-.024.104-.035.181-.061.093-.032.039-.012.051-.018.338-.113.021-.007c.136-.045.271-.09.407-.134l.034-.012.091-.029.189-.062.094-.031.066-.022.077-.025.118-.038.153-.049.089-.029.048-.015.064-.021.254-.081.068-.022.013-.004c.132-.042.263-.083.394-.124l.023-.007.082-.026.212-.066.076-.023.056-.018.08-.024z" fill="#feefe7" transform="matrix(.55052715495 -.00000044942 .00000044942 .55052715495 .00014522592 -.00031574436)"/><path d="m171.999 198.259c2.321-.711 4.455-1.28 6.268-1.643 5.126-1.027 11.34-1.391 15.597 1.643 4.817 3.433 9.517 12.229 13.303 18.957 7.241 12.865 17.16 41.687 30.145 58.234 3.226 4.111 1.432 10.276-2.996 13.051-4.429 2.775-10.245 1.413-13.052-2.996-20.216-31.752-27.853-29.672-37.589-44.539-2.549-3.892-3.332-6.225-3.6-8.516-4.15 5.757-16.935 13.103-29.333 17.986l-26.764-31.042s16.076-8.083 24.756-12.093c4.777-2.207 10.705-4.665 16.34-6.708l.019-.007c.142-.052.283-.103.425-.154l.021-.007.085-.031.242-.087.077-.027.058-.021.09-.032.149-.053.135-.047.086-.031.063-.022.089-.032.214-.075.092-.032.029-.01c.139-.049.279-.098.418-.146l.357-.124.061-.02.046-.016.092-.032.169-.058.113-.038.077-.027.071-.024.104-.035.181-.061.093-.032.039-.012.051-.018.338-.113.021-.007c.136-.045.271-.09.407-.134l.034-.012.091-.029.189-.062.094-.031.066-.022.077-.025.118-.038.153-.049.089-.029.048-.015.064-.021.254-.081.068-.022.013-.004c.132-.042.263-.083.394-.124l.023-.007.082-.026.212-.066.076-.023.056-.018.08-.024zm10.558 24.887c.065-.947.517-3.505.517-3.505-2.059 5.333-3.594 7.839-5.196 10.475-1.256 2.066-3.954 4.337-7.398 6.684-5.164 3.521-11.98 7.058-18.833 9.899 0 0-22.681-26.306-22.681-26.306 5.227-2.607 14.983-7.439 21.079-10.255 4.569-2.111 10.21-4.457 15.615-6.434l.001.001 3.055-1.087.195-.067c.611-.209 1.216-.413 1.812-.608l3.106-.97-.002-.003c1.855-.549 3.566-.992 5.054-1.29 4.32-.865 9.582-1.433 13.169 1.124 4.536 3.233 8.828 11.609 12.394 17.944 7.293 12.959 17.331 41.964 30.409 58.631 2.109 2.688.698 6.66-2.197 8.474-2.972 1.863-6.872.933-8.756-2.026-12.377-19.439-20.14-26.444-26.511-32.22-3.972-3.602-7.383-6.677-11.1-12.353-2.679-4.09-3.512-6.667-3.732-9.138-.269-3.013-.147-4.823 0-6.97z" transform="matrix(.55052715495 -.00000044942 .00000044942 .55052715495 .00014522592 -.00031574436)"/><path d="m170.446 121.315c-1.31 5.277-15.983 24.65-23.518 25.602 0 0-25.46-18.117-29.364-27.592-3.091-7.502-2.308-24.03 7.018-31.558 7.173-5.791 15.117-8.025 15.117-8.025l21.483 26.579s.257.38-2.473 3.689c-.074.09 11.737 11.305 11.737 11.305z" fill="#aaabaf" transform="matrix(.24722564448 -.60263743364 .60263743364 .24722564448 -34.12222309355 186.94993252078)"/><path d="m147.359 207.483c5.189 3.803 19.806 28.565 17.464 37.241 0 0-31.265 19.735-43.39 19.753-9.6.014-27.341-8.265-31.394-21.854-3.117-10.452-1.995-20.151-1.995-20.151l38.742-11.581s.531-.112 2.928 4.363c6.111-2.684 17.645-7.771 17.645-7.771zm-20.474 9.109c-3.898 1.942-9.239 4.903-14.673 8.017l1.421 2.778c6.796-3.896 13.447-7.553 17.26-9.238.156-.051.329-.115.519-.193 2.259-.928 11.392-5.009 15.365-6.788 3.153 3.361 8.119 11.415 11.553 19.073 1.57 3.5 2.811 6.925 3.351 9.81.192 1.023.307 1.959.277 2.773-3.819 2.352-16.107 9.751-27.052 14.513-5.25 2.283-10.14 4.01-13.477 4.015-4.364.006-10.556-1.941-16.139-5.365-5.491-3.367-10.445-8.183-12.256-14.257-2.092-7.014-2.156-13.666-2.023-16.884l34.652-10.357c.334.531.754 1.237 1.222 2.103z" transform="matrix(.55052715495 -.00000044942 .00000044942 .55052715495 .00014522592 -.00031574436)"/><g transform="matrix(.56869273303 -.31761666156 .31761666156 .56869273303 -83.88347427894 110.12766643662)"><path d="m212.579 29.938c3.653-5.264-1.156-9.271 8.601-20.522 9.756-11.251 23.955 1.53 26.372 7.823.811 2.113.927 6.673.464 9.614-.464 2.941-2.031 2.822-2.631 5.188-.599 2.366 2.492 7.515 1.238 8.769s-3.82 1.022-3.82 1.022c-1.059 3.032-3.474 4.042-3.474 4.042.482 6.557-4.408 6.032-5.712 5.735s-7.563-4.619-7.563-4.619c-7.542 10.322-8.551 12.716-8.551 12.716l-11.637-21.34s2.998-3.074 6.713-8.428z" fill="#feefe7" transform="matrix(.999258 -.0385184 .0385184 .999258 -1.64277 10.0664)"/><path d="m212.579 29.938c3.653-5.264-1.156-9.271 8.601-20.522 9.756-11.251 23.955 1.53 26.372 7.823.811 2.113.927 6.673.464 9.614-.464 2.941-2.031 2.822-2.631 5.188-.599 2.366 2.492 7.515 1.238 8.769s-3.82 1.022-3.82 1.022c-1.059 3.032-3.474 4.042-3.474 4.042.482 6.557-4.408 6.032-5.712 5.735s-7.563-4.619-7.563-4.619c-7.542 10.322-8.551 12.716-8.551 12.716l-11.637-21.34s2.998-3.074 6.713-8.428zm31.547 9.213-.207.019c-.487.06-.878.031-.878.031-1.207-.109-2.332.617-2.732 1.76-.632 1.81-1.999 2.476-1.999 2.476-1.048.438-1.698 1.497-1.615 2.63.105 1.427-.003 2.298-.521 2.746-.596.516-1.456.34-1.869.244-.129-.066-.927-.475-1.538-.842-2.227-1.336-5.212-3.399-5.212-3.399-1.177-.813-2.789-.54-3.633.615-2.977 4.075-4.97 6.965-6.296 8.983 0 0-8.541-15.663-8.541-15.663 1.27-1.451 3.332-3.947 5.664-7.307 1.379-1.987 1.832-3.82 2.076-5.811.414-3.365.127-7.31 6.35-14.487 3.897-4.494 8.696-4.1 12.747-2.043 4.423 2.246 8.11 6.339 9.164 9.083.697 1.813.719 5.731.321 8.256-.227 1.437-.931 1.771-1.417 2.443-.465.643-.884 1.4-1.165 2.507-.387 1.528.204 3.988.902 6.235.144.46.292 1.062.399 1.524z" transform="matrix(.999258 -.0385184 .0385184 .999258 -1.64277 10.0664)"/><path d="m247.373 24.104s4.032-3.731 1.32-8.659c-1.787-3.246-8.059-8.143-13.009-10.249-4.951-2.106-10.35-2.547-14.757-.395-5.973 2.916-8.699 8.036-10.762 15.29-1.078 3.788-1.835 12.046 2.125 14.258 1.747.975 4.954-6.208 7.231-7.382 1.763-.91 3.64.33 5.941 1.188 2.682 1 5.252-1.78 5.252-1.78s2.27-3.572 4.185-4.691c1.916-1.119 4.007-.79 5.872-.192 2.113.677 6.602 2.612 6.602 2.612z" fill="#996533"/><path d="m247.373 24.104s4.032-3.731 1.32-8.659c-1.787-3.246-8.059-8.143-13.009-10.249-4.951-2.106-10.35-2.547-14.757-.395-5.973 2.916-8.699 8.036-10.762 15.29-1.078 3.788-1.835 12.046 2.125 14.258 1.747.975 4.954-6.208 7.231-7.382 1.763-.91 3.64.33 5.941 1.188 2.682 1 5.252-1.78 5.252-1.78s2.27-3.572 4.185-4.691c1.916-1.119 4.007-.79 5.872-.192 2.113.677 6.602 2.612 6.602 2.612zm-.877-3.234c-1.54-.638-3.646-1.485-4.919-1.893-2.546-.817-5.394-1.102-8.01.426-1.939 1.133-4.23 4.318-4.894 5.278-.157.146-.484.429-.91.677-.377.22-.861.515-1.378.322-1.514-.564-2.871-1.252-4.125-1.518-1.375-.293-2.676-.2-3.95.458-.981.506-2.178 1.753-3.309 3.29-.665.903-1.661 2.194-2.348 3.077-.266-.56-.409-1.246-.526-1.953-.468-2.824.011-6.227.578-8.22 1.827-6.422 4.093-11.058 9.381-13.64 3.753-1.832 8.347-1.341 12.564.452 4.436 1.888 10.128 6.184 11.729 9.093.933 1.695.605 3.166.117 4.151z"/></g><path d="m139.008 92.362c6.304 10.378 15.238 17.23 26.061 21.55 0 0 7.287-6.411 15.059-12.013 6.658-4.799 22.383-10.746 30.611-21.091 4.075-5.123 8.222-16.776 7.339-21.096-2.903-14.193-8.131-19.793-8.131-19.793-7.671-1.25-21.654 5.628-30.885 13.237-8.135 6.706-14.915 12.389-21.591 18.923-6.534 6.395-18.463 20.283-18.463 20.283z" fill="#4b6097" transform="matrix(.35469944892 -.54633354057 .54633354057 .35469944892 -50.76546012402 167.4970572605)"/><path d="m139.008 92.362c6.304 10.378 15.238 17.23 26.061 21.55 0 0 7.287-6.411 15.059-12.013 6.658-4.799 22.383-10.746 30.611-21.091 4.075-5.123 8.222-16.776 7.339-21.096-2.903-14.193-8.131-19.793-8.131-19.793-7.671-1.25-21.654 5.628-30.885 13.237-8.135 6.706-14.915 12.389-21.591 18.923-6.534 6.395-18.463 20.283-18.463 20.283zm3.28.243c3.231-3.724 11.844-13.562 17.03-18.638 6.624-6.483 13.353-12.12 21.424-18.773 5.322-4.387 12.285-8.525 18.598-10.871 3.436-1.277 6.65-2.05 9.227-1.901 1.333 1.823 4.775 7.314 6.923 17.819.297 1.451-.195 3.872-.976 6.548-1.298 4.45-3.566 9.514-5.842 12.375-3.917 4.925-9.644 8.77-15.158 11.988-5.879 3.43-11.551 6.169-14.93 8.604-5.929 4.274-11.58 9.012-14.011 11.093-9.063-3.888-16.666-9.736-22.285-18.243z" transform="matrix(.35469944892 -.54633354057 .54633354057 .35469944892 -50.76546012402 167.4970572605)"/><path d="m92.484 110.333c-.453-2.623-5.89-21.12-5.023-27.523.805-5.944 17.075-16.17 17.779-10.858.536 4.047 3.7 10.298 3.725 10.435.763 4.057.649 10.92.953 16.324.228 4.051.387 7.377.199 12.376-.141 3.774-.921 6.911-.165 11.225.885 5.05 4.436 12.381 5.927 18.629 0 0 4.079 2.483 4.801 3.102 2.254 1.933 3.599 3.93 4.259 8.287.425 2.799-1.425 8.202-5.475 6.429-3.208-9.047-7.254-7.293-9.125-6.629-2.198.779-3.673-5.699-3.997-6.487-1.885-4.585-7.621-14.552-9.19-19.111-1.266-3.675-3.597-9.993-4.668-16.199z" fill="#feefe7" transform="matrix(.61671957128 .21871367988 -.21871367988 .61671957128 6.16094561016 13.24655634734)"/><path d="m92.484 110.333c-.453-2.623-5.89-21.12-5.023-27.523.805-5.944 17.075-16.17 17.779-10.858.536 4.047 3.7 10.298 3.725 10.435.763 4.057.649 10.92.953 16.324.228 4.051.387 7.377.199 12.376-.141 3.774-.921 6.911-.165 11.225.885 5.05 4.436 12.381 5.927 18.629 0 0 4.079 2.483 4.801 3.102 2.254 1.933 3.599 3.93 4.259 8.287.425 2.799-1.425 8.202-5.475 6.429-3.208-9.047-7.254-7.293-9.125-6.629-2.198.779-3.673-5.699-3.997-6.487-1.885-4.585-7.621-14.552-9.19-19.111-1.266-3.675-3.597-9.993-4.668-16.199zm10.309-37.098c.749 3.732 3.02 8.606 3.641 9.934.688 4.005.568 10.528.859 15.69.224 3.971.381 7.23.197 12.129-.149 3.96-.921 7.252-.128 11.778.893 5.091 4.457 12.487 5.96 18.785.163.682.591 1.271 1.19 1.635 0 0 3.788 2.28 4.457 2.853 1.811 1.553 2.84 3.184 3.371 6.685.136.896-.11 2.204-.696 3.151-.097.156-.189.319-.309.437-1.902-4.514-4.156-6.284-6.022-6.975-1.824-.675-3.511-.407-4.805-.029-.177-.312-.389-.708-.516-1.02-.64-1.572-1.062-3.266-1.218-3.645-1.872-4.552-7.578-14.441-9.136-18.967-1.234-3.583-3.519-9.739-4.563-15.79-.273-1.582-2.346-8.907-3.775-15.903-.878-4.296-1.555-8.45-1.234-10.82.138-1.015 1.034-2.128 2.134-3.299 2.11-2.246 5.167-4.435 7.851-5.728.888-.428 2.05-.739 2.742-.901z" transform="matrix(.61671957128 .21871367988 -.21871367988 .61671957128 6.16094561016 13.24655634734)"/><path d="m267.027 62.199c1.197-7.341 4.886-10.905 10.905-10.905s10.209 3.746 10.906 10.905c.719 6.171 1 18.779 1 18.779-7.843-1.482-15.776-1.538-23.811 0 0 0 .142-13.518 1-18.779z" fill="#4b6097" transform="matrix(.63988249614 .13685796932 -.13685796932 .63988249614 -118.68360351833 -1.19888104716)"/><path d="m104.336 144.874-.044.34c-1.017 7.734-3.124 18.781-3.124 18.781-8.747-3.672-17.955-5.709-27.676-5.919 0 0 3.526-15.677 5.831-21.579 3.217-8.234 8.391-11.46 15.387-9.964 6.995 1.496 10.934 6.893 9.964 15.387-.085.89-.2 1.888-.338 2.954zm-12.811-15.363h.022c.784.001 1.607.098 2.465.282 2.571.549 4.619 1.753 5.896 3.663 1.356 2.027 1.831 4.754 1.456 8.066l-.002.019c-.462 4.861-1.867 13.053-2.739 17.882-6.729-2.436-13.716-3.957-20.981-4.488 1.171-4.935 3.251-13.296 4.786-17.225 1.525-3.905 3.449-6.513 6.065-7.616.937-.395 1.948-.581 3.032-.583z" transform="matrix(.55052717324 .00000001849 -.00000001849 .55052717324 .00026818905 .00031834547)"/><path d="m-33.491 198.616v-9.238h100.655v-8.577l26.672 13.196-26.672 13.196v-8.577z" fill="#ec3237" transform="matrix(.00000026692 .3333474453 -.33308982645 -.00000001408 95.8786208562 73.474970665)"/><path d="m242.087 178.183h16.878v62.85h-16.878z" fill="#d2d3d5" transform="matrix(.32207349839 .0000001625 -.00000025934 .51401242373 94.38437005897 42.09234553073)"/><path d="m258.966 178.183h-16.879v62.85h16.879zm-5.342 3.347v56.156h-6.195v-56.156z" transform="matrix(.32207349839 .0000001625 -.00000025934 .51401242373 94.38437005897 42.09234553073)"/><path d="m242.087 178.183h16.878v62.85h-16.878z" fill="#d2d3d5" transform="matrix(.36324739024 .00000018327 -.00000033434 .66267043861 77.73808681629 13.54448599916)"/><path d="m258.966 178.183h-16.879v62.85h16.879zm-4.737 2.596v57.658h-7.406v-57.658z" transform="matrix(.36324739024 .00000018327 -.00000033434 .66267043861 77.73808681629 13.54448599916)"/><path d="m242.087 178.183h16.878v62.85h-16.878z" fill="#d2d3d5" transform="matrix(.32207349839 .0000001625 -.00000025934 .51401242373 121.43927418252 42.09235918078)"/><path d="m258.966 178.183h-16.879v62.85h16.879zm-5.342 3.347v56.156h-6.195v-56.156z" transform="matrix(.32207349839 .0000001625 -.00000025934 .51401242373 121.43927418252 42.09235918078)"/><path d="m242.087 178.183h16.878v62.85h-16.878z" fill="#d2d3d5" transform="matrix(.36324739024 .00000018327 -.00000033434 .66267043861 104.79292550448 13.54449964918)"/><path d="m258.966 178.183h-16.879v62.85h16.879zm-4.737 2.596v57.658h-7.406v-57.658z" transform="matrix(.36324739024 .00000018327 -.00000033434 .66267043861 104.79292550448 13.54449964918)"/><path d="m41.708 142.952h64.286v9.925h-64.286z" fill="#f68634" transform="matrix(.66910927808 .00000033759 -.00000039128 .77553334829 133.92358714868 18.72463921963)"/><path d="m105.994 142.952h-64.286v9.925h64.286zm-2.4 2.07v5.784h-59.487v-5.784z" transform="matrix(.66910927808 .00000033759 -.00000039128 .77553334829 133.92358714868 18.72463921963)"/><g transform="matrix(.31251514531 -.57490157087 .57490157087 .31251514531 161.049078273 107.24320619432)"><path d="m23.278 190.268s-4.281-1.804-8.839-.412c-2.747.839-5.245 2.644-5.245 2.644s-3.888.286-6.763 3.211c-1.576 1.604-.117 6.119 2.202 9.439s5.991 7.202 7.488 9.799c1.573 2.732 2.406 5.296 3.944 7.755 1.867 2.981 4.954 7.253 7.254 10.136 2.268 2.842 5.984 6.369 8.056 5.696 5.446-1.769 4.099-6.388 3.262-9.37-.724-2.582-1.959-5.056-2.424-7.709-.546-3.118-.977-5.647-.853-10.999.115-5.017-.932-10.07-.932-10.07z" fill="#4b4b4d"/><path d="m23.278 190.268s-4.281-1.804-8.839-.412c-2.747.839-5.245 2.644-5.245 2.644s-3.888.286-6.763 3.211c-1.576 1.604-.117 6.119 2.202 9.439s5.991 7.202 7.488 9.799c1.573 2.732 2.406 5.296 3.944 7.755 1.867 2.981 4.954 7.253 7.254 10.136 2.268 2.842 5.984 6.369 8.056 5.696 5.446-1.769 4.099-6.388 3.262-9.37-.724-2.582-1.959-5.056-2.424-7.709-.546-3.118-.977-5.647-.853-10.999.115-5.017-.932-10.07-.932-10.07zm7.498 45.693c-.191-.079-.707-.302-1.032-.516-1.529-1.007-3.171-2.743-4.37-4.245-2.244-2.813-5.259-6.981-7.08-9.891-1.522-2.431-2.339-4.971-3.895-7.672-1.524-2.645-5.249-6.611-7.611-9.992-.979-1.403-1.787-3.052-2.173-4.525-.154-.586-.174-1.469-.176-1.696 2.147-2.08 4.948-2.302 4.948-2.302.485-.036.952-.206 1.347-.491 0 0 2.129-1.545 4.473-2.261 2.684-.82 5.248-.254 6.405.098l.001.001 6.34 8.972c.248 1.361.865 5.17.778 8.956-.129 5.603.321 8.25.893 11.514.479 2.739 1.734 5.3 2.482 7.965.221.79.491 1.707.62 2.65.112.824.181 1.697-.332 2.395-.325.442-.86.772-1.618 1.04z"/><path d="m9.17 192.602s-8.296 7.495-1.124 16.916c.439.577 1.265.689 1.842.25.577-.44.689-1.265.25-1.843-5.67-7.447.8-13.378.8-13.378.537-.488.577-1.32.089-1.857-.488-.536-1.32-.576-1.857-.088z"/></g><path d="m442.876 212.999s3.649-3.746 5.415-4.718c4.58-2.521 9.783-2.74 14.756-1.128 6.748 2.188 11.406 10.489 16.252 16.499 9.267 11.492 23.811 38.279 39.351 52.454 3.861 3.522 3.11 9.898-.799 13.367-3.909 3.468-9.87 3.085-13.367-.799-25.184-27.976-33.171-23.968-44.431-37.717-.236-.288-.47-.584-.703-.886l-8.78 13.237-26.974-28.791z" fill="#feefe7" transform="matrix(.55052715495 -.00000044942 .00000044942 .55052715495 .00014504716 .00043819226)"/><path d="m442.876 212.999s3.649-3.746 5.415-4.718c4.58-2.521 9.783-2.74 14.756-1.128 6.748 2.188 11.406 10.489 16.252 16.499 9.267 11.492 23.811 38.279 39.351 52.454 3.861 3.522 3.11 9.898-.799 13.367-3.909 3.468-9.87 3.085-13.367-.799-25.184-27.976-33.171-23.968-44.431-37.717-.237-.29-.473-.588-.708-.892l-10.571 15.867-25.178-31.415zm18.43 34.123c-1.037-1.785-1.914-10.234-1.914-10.234s-.664 7.086-2.108 10.268c-1.721 3.793-8.218 12.491-8.218 12.491l-21.998-23.879 15.489-17.419 2.773-3.094c.459-.48 3.175-3.287 4.569-4.054 3.76-2.07 8.036-2.201 12.12-.877 2.822.915 5.133 3.202 7.319 5.794 2.598 3.082 4.958 6.639 7.366 9.626 9.339 11.581 24.04 38.54 39.699 52.824 2.436 2.222 1.701 6.224-.764 8.411-2.538 2.252-6.407 1.987-8.677-.535-15.449-17.161-24.572-22.547-31.882-27.149-4.472-2.815-8.222-5.29-12.448-10.45-.449-.548-.87-.938-1.326-1.723z" transform="matrix(.55052715495 -.00000044942 .00000044942 .55052715495 .00014504716 .00043819226)"/><g transform="matrix(.56869273303 -.31761666156 .31761666156 .56869273303 76.44205665463 130.01196391471)"><path d="m212.579 29.938c3.653-5.264-1.156-9.271 8.601-20.522 9.756-11.251 23.955 1.53 26.372 7.823.811 2.113.927 6.673.464 9.614-.464 2.941-2.031 2.822-2.631 5.188-.599 2.366 2.492 7.515 1.238 8.769s-3.82 1.022-3.82 1.022c-1.059 3.032-3.474 4.042-3.474 4.042.482 6.557-4.408 6.032-5.712 5.735s-7.563-4.619-7.563-4.619c-7.542 10.322-8.551 12.716-8.551 12.716l-11.637-21.34s2.998-3.074 6.713-8.428z" fill="#feefe7" transform="matrix(.999258 -.0385184 .0385184 .999258 -1.64277 10.0664)"/><path d="m212.579 29.938c3.653-5.264-1.156-9.271 8.601-20.522 9.756-11.251 23.955 1.53 26.372 7.823.811 2.113.927 6.673.464 9.614-.464 2.941-2.031 2.822-2.631 5.188-.599 2.366 2.492 7.515 1.238 8.769s-3.82 1.022-3.82 1.022c-1.059 3.032-3.474 4.042-3.474 4.042.482 6.557-4.408 6.032-5.712 5.735s-7.563-4.619-7.563-4.619c-7.542 10.322-8.551 12.716-8.551 12.716l-11.637-21.34s2.998-3.074 6.713-8.428zm31.547 9.213-.207.019c-.487.06-.878.031-.878.031-1.207-.109-2.332.617-2.732 1.76-.632 1.81-1.999 2.476-1.999 2.476-1.048.438-1.698 1.497-1.615 2.63.105 1.427-.003 2.298-.521 2.746-.596.516-1.456.34-1.869.244-.129-.066-.927-.475-1.538-.842-2.227-1.336-5.212-3.399-5.212-3.399-1.177-.813-2.789-.54-3.633.615-2.977 4.075-4.97 6.965-6.296 8.983 0 0-8.541-15.663-8.541-15.663 1.27-1.451 3.332-3.947 5.664-7.307 1.379-1.987 1.832-3.82 2.076-5.811.414-3.365.127-7.31 6.35-14.487 3.897-4.494 8.696-4.1 12.747-2.043 4.423 2.246 8.11 6.339 9.164 9.083.697 1.813.719 5.731.321 8.256-.227 1.437-.931 1.771-1.417 2.443-.465.643-.884 1.4-1.165 2.507-.387 1.528.204 3.988.902 6.235.144.46.292 1.062.399 1.524z" transform="matrix(.999258 -.0385184 .0385184 .999258 -1.64277 10.0664)"/><path d="m247.373 24.104s4.032-3.731 1.32-8.659c-1.787-3.246-8.059-8.143-13.009-10.249-4.951-2.106-10.35-2.547-14.757-.395-5.973 2.916-8.699 8.036-10.762 15.29-1.078 3.788-1.835 12.046 2.125 14.258 1.747.975 4.954-6.208 7.231-7.382 1.763-.91 3.64.33 5.941 1.188 2.682 1 5.252-1.78 5.252-1.78s2.27-3.572 4.185-4.691c1.916-1.119 4.007-.79 5.872-.192 2.113.677 6.602 2.612 6.602 2.612z" fill="#996533"/><path d="m247.373 24.104s4.032-3.731 1.32-8.659c-1.787-3.246-8.059-8.143-13.009-10.249-4.951-2.106-10.35-2.547-14.757-.395-5.973 2.916-8.699 8.036-10.762 15.29-1.078 3.788-1.835 12.046 2.125 14.258 1.747.975 4.954-6.208 7.231-7.382 1.763-.91 3.64.33 5.941 1.188 2.682 1 5.252-1.78 5.252-1.78s2.27-3.572 4.185-4.691c1.916-1.119 4.007-.79 5.872-.192 2.113.677 6.602 2.612 6.602 2.612zm-.877-3.234c-1.54-.638-3.646-1.485-4.919-1.893-2.546-.817-5.394-1.102-8.01.426-1.939 1.133-4.23 4.318-4.894 5.278-.157.146-.484.429-.91.677-.377.22-.861.515-1.378.322-1.514-.564-2.871-1.252-4.125-1.518-1.375-.293-2.676-.2-3.95.458-.981.506-2.178 1.753-3.309 3.29-.665.903-1.661 2.194-2.348 3.077-.266-.56-.409-1.246-.526-1.953-.468-2.824.011-6.227.578-8.22 1.827-6.422 4.093-11.058 9.381-13.64 3.753-1.832 8.347-1.341 12.564.452 4.436 1.888 10.128 6.184 11.729 9.093.933 1.695.605 3.166.117 4.151z"/></g><path d="m345.827 170.227s12.582-4.011 21.215-6.077l8.933-.789 5.056 25.318-10.861 3.178s-7.763.929-13.088 1.068c-.173 5.212-.498 18.726.555 23.727.952 4.522 4.975 9.339 8.052 11.565 2.31 1.672 6.645 4.17 7.208 5.15 1.757 3.061 2.47 5.832 1.479 10.976-.636 3.303-4.855 8.621-8.687 5.027 0-11.411-5.229-11.053-7.59-11.053-2.771 0-4.696-1.927-5.043-2.879-3.098-8.502-13.558-20.773-17.344-28.036-2.537-4.868-3.854-10.807-4.65-15.545-.699-4.164-.69-10.218 0-13.015.467-1.889 2.384-3.148 4.068-4.123 2.581-1.494 10.697-4.492 10.697-4.492z" fill="#feefe7" transform="matrix(.55052715495 -.00000044942 .00000044942 .55052715495 2.34943372507 .00040495157)"/><path d="m345.827 170.227s12.582-4.011 21.215-6.077l7.784.526 4.623 24.466-9.279 2.715s-7.763.929-13.088 1.068c-.173 5.212-.498 18.726.555 23.727.952 4.522 4.975 9.339 8.052 11.565 2.31 1.672 6.645 4.17 7.208 5.15 1.757 3.061 2.47 5.832 1.479 10.976-.636 3.303-4.855 8.621-8.687 5.027 0-11.411-5.229-11.053-7.59-11.053-2.771 0-4.696-1.927-5.043-2.879-3.098-8.502-13.558-20.773-17.344-28.036-2.537-4.868-3.854-10.807-4.65-15.545-.699-4.164-.69-10.218 0-13.015.467-1.889 2.384-3.148 4.068-4.123 2.581-1.494 10.697-4.492 10.697-4.492zm11.167 19.366c-2.023.021-5.525-4.721-5.525-4.721s2.325 4.152 2.535 6.714c.263 3.211-.612 20.075.575 25.71 1.104 5.243 5.709 10.871 9.278 13.453 1.807 1.308 5.865 4.029 6.476 4.438 1.3 2.358 1.743 4.579.975 8.564-.204 1.057-.999 2.426-2.032 3.253-.17.137-.338.283-.519.367-.338-5.812-2.159-8.69-3.976-10.206-2.305-1.923-4.984-1.973-6.682-1.973-1.002 0-2.013-.859-2.174-1.002-3.214-8.6-13.636-20.93-17.441-28.232-2.385-4.575-3.592-10.166-4.34-14.619-.631-3.758-.671-9.223-.048-11.748.085-.342.361-.585.633-.829.588-.529 1.305-.955 1.967-1.338 1.552-.899 5.07-2.368 7.697-3.317 5.339-1.93 16.097-4.946 23.185-6.658.004 0 5.669-1.189 5.669-1.189s3.691 21.515 3.691 21.515l-7.437.804c-1.401.163-7.89.967-12.507 1.014z" transform="matrix(.55052715495 -.00000044942 .00000044942 .55052715495 2.34943372507 .00040495157)"/><path d="m130.912 94.818s13.219 15.281 28.48 17.45c0 0 10.797-7.918 18.768-13.306 11.85-8.01 23.137-7.944 31.365-18.289 4.074-5.123 9.436-16.641 8.553-20.961-2.903-14.193-8.131-19.793-8.131-19.793-7.671-1.25-23.158 4.624-32.742 11.785-8.247 6.162-15.205 11.799-21.591 17.851-8.371 7.932-20.862 20.839-24.702 25.263z" fill="#4b6097" transform="matrix(.35469944892 -.54633354057 .54633354057 .35469944892 109.56008365257 187.38137084291)"/><path d="m130.912 94.818s13.219 15.281 28.48 17.45c0 0 10.797-7.918 18.768-13.306 11.85-8.01 23.137-7.944 31.365-18.289 4.074-5.123 9.436-16.641 8.553-20.961-2.903-14.193-8.131-19.793-8.131-19.793-7.671-1.25-23.158 4.624-32.742 11.785-8.247 6.162-15.205 11.799-21.591 17.851-8.371 7.932-20.862 20.839-24.702 25.263zm3.571-.032c4.949-5.422 15.563-16.317 22.947-23.314 6.317-5.985 13.2-11.558 21.356-17.653 5.521-4.124 13.084-7.799 19.841-9.824 3.767-1.129 7.26-1.769 9.936-1.579 1.329 1.816 4.776 7.307 6.927 17.825.289 1.415-.395 3.741-1.347 6.328-1.646 4.477-4.378 9.559-6.685 12.46-3.81 4.79-8.358 7.126-13.295 9.236-5.473 2.338-11.4 4.398-17.482 8.509-6.627 4.479-15.199 10.7-17.955 12.71-10.94-2.013-20.576-10.925-24.242-14.698z" transform="matrix(.35469944892 -.54633354057 .54633354057 .35469944892 109.56008365257 187.38137084291)"/><path d="m171.576 120.182c-1.309 5.278-17.349 21.493-25.103 22.931 0 0-25.005-14.313-28.909-23.788-3.091-7.502-2.308-24.03 7.018-31.558 7.173-5.791 17.15-8.004 17.15-8.004 4.54 13.004 10.393 22.93 17.37 30.223-.074.09 12.474 10.196 12.474 10.196z" fill="#aaabaf" transform="matrix(-.00177688778 -.65137483563 .65137483563 -.00177688778 155.62115586177 240.24656920099)"/><path d="m424.319 233c6.249 1.532 25.486 20.457 27.213 29.627 0 0-16.854 29.632-28.052 34.281-8.867 3.682-28.425 2.808-37.362-8.201-6.874-8.468-9.526-20.266-9.526-20.266 15.372-5.414 27.098-12.371 35.704-20.649.107.087 12.023-14.792 12.023-14.792zm-15.548 22.252c-7.513 5.881-16.822 11.011-28.155 15.272 1.158 3.785 3.693 10.666 8.09 16.082 3.963 4.882 10.334 7.413 16.644 8.419 6.425 1.024 12.848.467 16.852-1.195 3-1.246 6.373-4.595 9.74-8.541 7.142-8.368 13.918-19.577 16.023-23.16-1.346-4.131-5.911-9.815-10.752-14.875-3.331-3.482-6.852-6.641-9.785-8.765-.763-.553-1.467-1.038-2.1-1.419-.404.503-.868 1.081-1.37 1.705l-18.398 26.722-2.709-1.942z" transform="matrix(.55052715495 -.00000044942 .00000044942 .55052715495 .00014504716 .00043819226)"/><path d="m345.827 170.227s12.582-4.011 21.215-6.077l8.933-.789 5.056 25.318-10.861 3.178s-7.763.929-13.088 1.068c-.173 5.212-.498 18.726.555 23.727.952 4.522 4.975 9.339 8.052 11.565 2.31 1.672 6.645 4.17 7.208 5.15 1.757 3.061 2.47 5.832 1.479 10.976-.636 3.303-4.855 8.621-8.687 5.027 0-11.411-5.229-11.053-7.59-11.053-2.771 0-4.696-1.927-5.043-2.879-3.098-8.502-13.558-20.773-17.344-28.036-2.537-4.868-3.854-10.807-4.65-15.545-.699-4.164-.69-10.218 0-13.015.467-1.889 2.384-3.148 4.068-4.123 2.581-1.494 10.697-4.492 10.697-4.492z" fill="#feefe7" transform="matrix(.55052717324 .00000001849 -.00000001849 .55052717324 .00033786308 .00047214842)"/><path d="m371.931 164.48v2.056l-4.353.913c-7.088 1.712-17.846 4.728-23.185 6.658-2.627.949-6.145 2.418-7.697 3.317-.662.383-1.379.809-1.967 1.338-.272.244-.548.487-.633.829-.623 2.525-.583 7.99.048 11.748.748 4.453 1.955 10.044 4.34 14.619 3.805 7.302 14.227 19.632 17.441 28.232.161.143 1.172 1.002 2.174 1.002 1.698 0 4.377.05 6.682 1.973 1.817 1.516 3.638 4.394 3.976 10.206.181-.084.349-.23.519-.367 1.033-.827 1.828-2.196 2.032-3.253.768-3.985.325-6.206-.975-8.564-.611-.409-4.669-3.13-6.476-4.438-3.569-2.582-8.174-8.21-9.278-13.453-1.187-5.635-.312-22.499-.575-25.71-.21-2.562-2.535-6.714-2.535-6.714s3.502 4.742 5.525 4.721c4.617-.047 11.106-.851 12.507-1.014l2.43-.263v3.026l-1.761.515s-7.763.929-13.088 1.068c-.173 5.212-.498 18.726.555 23.727.952 4.522 4.975 9.339 8.052 11.565 2.31 1.672 6.645 4.17 7.208 5.15 1.757 3.061 2.47 5.832 1.479 10.976-.636 3.303-4.855 8.621-8.687 5.027 0-11.411-5.229-11.053-7.59-11.053-2.771 0-4.696-1.927-5.043-2.879-3.098-8.502-13.558-20.773-17.344-28.036-2.537-4.868-3.854-10.807-4.65-15.545-.699-4.164-.69-10.218 0-13.015.467-1.889 2.384-3.148 4.068-4.123 2.581-1.494 10.697-4.492 10.697-4.492s12.582-4.011 21.215-6.077z" transform="matrix(.55052717324 .00000001849 -.00000001849 .55052717324 .00033786308 .00047214842)"/><path d="m267.027 62.199c1.714-7.214 4.886-10.905 10.905-10.905s10.209 3.746 10.906 10.905c.719 6.171 1 18.779 1 18.779-7.843-1.482-15.424-1.604-23.459-.067 0 0-.833-12.48.648-18.712z" fill="#4b6097" transform="matrix(.07505969642 .65003422465 -.58753244294 .06784271431 229.6110954314 -88.27500440459)"/><path d="m383.351 162.382c1.361.001 2.639.068 3.75.227 7.933 1.135 12.305 4.426 13.125 11.533.821 7.106-2.606 12.515-10.151 14.22l-3.255.72c-6.895 1.404-16.65 2.775-16.65 2.775.512-9.443-.391-18.41-3.128-27.707 0 0 9.25-1.766 16.284-1.768zm5.989 22.729c-4.165 1.033-11.302 2.195-15.706 2.866.084-7.148-.664-14.091-2.417-21.163 4.187-.654 11.118-1.52 15.412-.905 3.781.541 6.619 1.527 8.365 3.586 1.078 1.271 1.679 2.937 1.921 5.029.307 2.66-.098 5.02-1.369 6.857-1.272 1.84-3.378 3.091-6.206 3.73z" transform="matrix(.55052717324 .00000001849 -.00000001849 .55052717324 .00033786308 .00047214842)"/><path d="m-33.491 198.616v-9.238h100.655v-8.577l26.672 13.196-26.672 13.196v-8.577z" fill="#ec3237" transform="matrix(-.00000026692 -.3333474453 .33308982645 .00000001408 112.4076635739 93.5913290971)"/></g></svg>