<svg clip-rule="evenodd" fill-rule="evenodd" stroke-linejoin="round" stroke-miterlimit="2" viewBox="0 0 568 385" xmlns="http://www.w3.org/2000/svg"><g transform="scale(1.70259 1.70014)"><path d="m0 0h333.609v226.056h-333.609z" fill="none"/><path d="m93.99 114.564c-5.989-16.481-7.536-25.079-6.669-31.483.805-5.943 17.215-16.441 17.919-11.129.536 4.047 8.446 9.888 8.51 10.011 1.98 3.778 4.524 12.565 1.778 20.26 0 0 4.615-.159 9.193.75 4.592.912 10.194 3.315 13.629 4.039 2.279.48 4.651.278 6.98.303 2.447.026 5.728-.242 7.708-.146 1.409.068 2.811.344 4.17.722 4.295 1.194 5.225 4.612 5.225 4.612l-16.239 10.848c-2.428-2.552-3.488-5.391-3.488-5.391s-5.148-.227-7.849-.166c-2.089.047-3.46.367-6.217.796-3.347.521-8.525 2.218-13.92 1.971-5.808-.266-18.579-.078-20.73-5.997z" fill="#feefe7" transform="matrix(.52395679192 .45573914022 -.45508160862 .5247135952 38.83039098952 -34.78377054568)"/><path d="m93.99 114.564c-5.989-16.481-7.536-25.079-6.669-31.483.805-5.943 17.215-16.441 17.919-11.129.536 4.047 8.446 9.888 8.51 10.011 1.98 3.778 4.524 12.565 1.778 20.26 0 0 4.615-.159 9.193.75 4.592.912 10.194 3.315 13.629 4.039 2.279.48 4.651.278 6.98.303 2.447.026 5.728-.242 7.708-.146 1.409.068 2.811.344 4.17.722 4.295 1.194 5.225 4.612 5.225 4.612l-16.239 10.848c-2.428-2.552-3.488-5.391-3.488-5.391s-5.148-.227-7.849-.166c-2.089.047-3.46.367-6.217.796-3.347.521-8.525 2.218-13.92 1.971-5.808-.266-18.579-.078-20.73-5.997zm8.843-41.284c.359 1.216 1.081 2.527 2.051 3.799 2.155 2.825 5.517 5.575 6.752 6.569 1.734 3.595 3.756 11.087 1.401 17.686-.294.825-.161 1.742.356 2.449.517.708 1.35 1.113 2.226 1.083 0 0 4.311-.148 8.587.701 4.582.91 10.171 3.311 13.599 4.033 2.448.516 4.995.333 7.496.36 2.417.025 5.654-.245 7.608-.15 1.214.059 2.42.304 3.591.629 1.068.297 1.821.793 2.341 1.283 0 0-12.12 8.096-12.12 8.096-1.055-1.516-1.537-2.783-1.537-2.783-.372-.994-1.301-1.67-2.362-1.717 0 0-5.262-.23-8.024-.168-2.205.05-3.654.374-6.565.827-3.222.502-8.2 2.179-13.392 1.942-3.347-.153-9.104-.119-13.618-1.319-2.187-.582-4.147-1.287-4.748-2.939-5.754-15.837-7.366-24.072-6.533-30.225.138-1.018 1.044-2.144 2.156-3.335 2.132-2.284 5.221-4.527 7.933-5.866.91-.45 2.103-.783 2.802-.955z" transform="matrix(.52395679192 .45573914022 -.45508160862 .5247135952 38.83039098952 -34.78377054568)"/><path d="m242.087 178.183h16.878v62.85h-16.878z" fill="#d2d3d5" transform="matrix(.44109931343 -.00000020194 .00000054377 .79256870957 -18.39899323525 -41.92627557553)"/><path d="m258.966 178.183h-16.879v62.85h16.879zm-4.161 2.319v58.212h-8.557v-58.212z" transform="matrix(.44109931343 -.00000020194 .00000054377 .79256870957 -18.39899323525 -41.92627557553)"/><path d="m242.087 178.183h16.878v62.85h-16.878z" fill="#d2d3d5" transform="matrix(.38525350344 -.00000017637 .000000619 .90223243574 -1.47363858288 -61.46622012346)"/><path d="m258.966 178.183h-16.879v62.85h16.879zm-4.765 2.038v58.775h-7.35v-58.775z" transform="matrix(.38525350344 -.00000017637 .000000619 .90223243574 -1.47363858288 -61.46622012346)"/><path d="m242.087 178.183h16.878v62.85h-16.878z" fill="#d2d3d5" transform="matrix(5.83502311914 -.00000267135 .00000008508 .12400431382 -1408.21138368373 77.20152641987)"/><path d="m258.966 178.183h-16.879v62.85h16.879zm-.315 14.823v33.204s-13.964 0-16.249 0v-33.204z" transform="matrix(5.83502311914 -.00000267135 .00000008508 .12400431382 -1408.21138368373 77.20152641987)"/><path d="m41.708 142.952h64.286v9.925h-64.286z" fill="#f68634" transform="matrix(1.7895434831 -.00000081928 .00000045607 .66474885702 -70.26255816285 1.86168381411)"/><path d="m105.994 142.952h-64.286v9.925h64.286zm-.958 2.581v4.763c-7.37 0-55.001 0-62.371 0v-4.763z" transform="matrix(1.7895434831 -.00000081928 .00000045607 .66474885702 -70.26255816285 1.86168381411)"/><path d="m59.651 286.429c.614-6.176 1.217-9.245 1.217-9.245s16.388-19.821 17.034-16.697c1.081 5.231-1.339 16.067-3.165 26.008-3.149 17.139-4.73 24.604-2.772 31.049-1.709 3.891-4.207 5.333-6.719 5.231-2.511-.103-8.854-1.479-8.349-5.846 0 0-.012-1.95-1.303-4.158-2.657-4.545 3.252-18.241 4.057-26.342z" fill="#feefe7" transform="matrix(.13013251574 -.68267038498 .68168565174 .13032066215 -73.26217256005 46.84599062257)"/><path d="m59.651 286.429c.614-6.176 1.217-9.245 1.217-9.245s16.388-19.821 17.034-16.697c1.081 5.231-1.339 16.067-3.165 26.008-3.149 17.139-4.73 24.604-2.772 31.049-1.709 3.891-4.207 5.333-6.719 5.231-2.511-.103-8.854-1.479-8.349-5.846 0 0-.012-1.95-1.303-4.158-2.657-4.545 3.252-18.241 4.057-26.342zm15.89-21.588c-.19 5.54-2.017 13.622-3.405 21.176-3.109 16.921-4.585 24.786-2.983 31.274-1.052 1.98-2.345 2.901-3.799 2.841-1.004-.041-2.777-.332-4.247-1.054-.819-.403-1.695-.872-1.583-1.845.012-.106.018-.213.018-.32 0 0 .032-2.575-1.665-5.477-.327-.559-.342-1.358-.315-2.295.04-1.386.302-2.996.668-4.726 1.224-5.795 3.562-12.785 4.053-17.724.437-4.399.867-7.178 1.066-8.352 1.701-2.039 7.939-9.435 12.192-13.498z" transform="matrix(.13013251574 -.68267038498 .68168565174 .13032066215 -73.26217256005 46.84599062257)"/><path d="m52.975 289.567c.614-6.177 1.217-9.246 1.217-9.246s-14.546 7.39-26.318 7.271l-2.851-37.573s15.089 1.565 22.614 2.515c7.707.973 18.584 1.997 23.628 3.323 2.609.685 5.991 1.506 6.637 4.63 1.081 5.231-1.339 16.067-3.165 26.008-2.683 14.599-6.147 18.777-7.105 29.407 0 0-1.38 2.985-3.166 5.048-1.191 1.619.739 8.578-4.541 8.918 0 0-5.566-5.296-5.744-9.14 2.328-16.004-2.403-19.124-1.206-31.161z" fill="#feefe7" transform="matrix(.25324422761 -.64707350126 .64614014541 .25361021304 -72.51293511526 11.19996351027)"/><path d="m52.975 289.567c.614-6.177 1.217-9.246 1.217-9.246s-14.546 7.39-26.318 7.271l-2.851-37.573s15.089 1.565 22.614 2.515c7.707.973 18.584 1.997 23.628 3.323 2.609.685 5.991 1.506 6.637 4.63 1.081 5.231-1.339 16.067-3.165 26.008-2.683 14.599-6.147 18.777-7.105 29.407 0 0-1.38 2.985-3.166 5.048-1.191 1.619.739 8.578-4.541 8.918 0 0-5.566-5.296-5.744-9.14 2.328-16.004-2.403-19.124-1.206-31.161zm2.632.261c.597-6.01.683-5.995 1.18-8.997.497-3.001 3.328-6.389 3.328-6.389s-6.219 3.063-7.121 3.521c0 0-11.969 6.129-22.674 6.906 0-.001-2.42-31.889-2.42-31.889 4.823.51 14.042 1.501 19.406 2.178 7.595.959 18.316 1.951 23.287 3.257.925.243 1.963.495 2.909.9.808.345 1.614.761 1.81 1.708 1.039 5.03-1.42 15.434-3.176 24.994-2.663 14.493-6.067 18.802-7.092 29.165-.397.797-1.381 2.655-2.578 4.037-.045.053-.089.108-.13.164-.328.446-.604 1.048-.767 1.8-.184.85-.222 2.039-.33 3.278-.049.556-.114 1.128-.261 1.658-.07.255-.17.499-.332.693-.637-.697-1.457-1.658-2.196-2.718-.744-1.067-1.478-2.22-1.609-3.278 1.163-8.217.536-13.166-.233-17.608-.705-4.069-1.57-7.665-1.001-13.38z" transform="matrix(.25324422761 -.64707350126 .64614014541 .25361021304 -72.51293511526 11.19996351027)"/><g transform="matrix(-.17966823648 -.67130350876 .67033510119 -.1799276309 23.96586652699 103.66791617932)"><path d="m20.558 191.066s1.031-2.94-3.527-1.547c-2.748.839-6.89 6.708-11.495 14.254 0 0 2.9 5.318 4.094 8.339 1.159 2.931 2.138 8.995 11.128 13.231 2.215 1.043 9.685-9.958 9.808-15.31.072-3.115-8.132-7.191-10.285-11.95-1.315-2.904.277-7.017.277-7.017z" fill="#4b4b4d"/><path d="m20.558 191.066s1.031-2.94-3.527-1.547c-2.748.839-6.89 6.708-11.495 14.254 0 0 2.9 5.318 4.094 8.339 1.159 2.931 2.138 8.995 11.128 13.231 2.215 1.043 9.685-9.958 9.808-15.31.072-3.115-8.132-7.191-10.285-11.95-1.315-2.904.277-7.017.277-7.017zm.388 31.416c-7.104-3.73-7.869-8.847-8.856-11.342-.852-2.155-2.54-5.44-3.507-7.274 2.379-3.84 4.604-7.154 6.548-9.418.938-1.092 1.702-1.949 2.408-2.294-.396 1.891-.698 4.743.332 7.02 1.423 3.142 5.144 6.106 7.954 8.641.593.534 1.131 1.046 1.559 1.541.206.239.452.63.531.757-.068 1.297-.686 2.953-1.492 4.649-1.374 2.891-4.49 6.585-5.477 7.72z"/></g><g transform="matrix(.22522619948 -.65738005081 .65643182115 .22555171242 21.91018010902 11.40822077362)"><path d="m22.299 188.942c-.884-.702-3.467 5.508-7.921 2.786 0 0-1.223-2.542-2.141-3.437s-3.367-1.933-3.367-1.933-8.884 11.215-9.205 13.371c-.321 2.159 2.602 5.908 4.725 8.268 3.463 3.85 12.111 11.789 16.056 14.83 2.203 1.698 5.411 2.849 7.613 3.414 1.807.465 4.199.475 5.599-.022 1.278-.453 2.303-1.693 2.797-2.957.505-1.294.462-3.294.236-4.805-.225-1.5-.839-2.947-1.597-4.261-.832-1.442-2.613-2.715-3.395-4.393-1.035-2.219-1.798-6.216-2.813-8.925-.938-2.506-2.175-5.341-3.273-7.33-.914-1.656-2.023-3.582-3.314-4.606z" fill="#4b4b4d"/><path d="m35.719 224.593c.064-.086-.473-2.116-2.582-4.656-2.255-2.717-3.806-4.131-7.939-6.844-3.078-2.019-6.024-4.06-8.602-7.78-1.871-2.698-3.691-6.62-7.074-8.587-4.631-2.694-9.548 1.191-9.874 3.154-.358 2.154 2.709 5.867 4.846 8.225 3.467 3.824 12.025 11.699 15.952 14.722 2.204 1.696 5.411 2.849 7.613 3.414 1.807.465 4.199.475 5.599-.022.814-.289 1.525-.896 2.061-1.626z" fill="#e6e7e9"/><path d="m260.562 96.437c1.988 1.073 6.32-.33 9.685-1.692.42-.166.824-.333 1.206-.495 4.228-1.798 12.154-5.979 17.919-9.323 1.913-1.109 3.589-2.126 4.812-2.935 2.742-1.811 5.259-4.955 6.735-7.199 1.212-1.842 2.141-4.512 2.123-6.266l-.001-.048-.001-.027v-.007c-.001-.022-.002-.044-.003-.066l-.002-.043-.002-.034v-.005c-.002-.022-.004-.044-.005-.066l-.004-.039-.004-.043c-.002-.022-.005-.044-.007-.066l-.005-.034-.006-.048c-.003-.022-.006-.044-.01-.067l-.002-.015c-.004-.022-.007-.043-.011-.065l-.008-.044-.006-.033-.001-.005c-.004-.022-.008-.044-.013-.065l-.008-.039-.01-.043c-.004-.022-.009-.044-.015-.065l-.008-.034-.012-.047c-.006-.022-.011-.044-.017-.066l-.004-.015c-.006-.022-.012-.043-.019-.065l-.012-.043-.005-.013-.005-.02-.014-.044-.007-.022c-.009-.028-.019-.057-.028-.085l-.024-.069-.006-.016-.004-.011-.006-.017-.011-.028-.011-.031-.007-.016-.009-.026-.022-.054-.006-.015c-.011-.028-.023-.055-.034-.083l-.003-.006-.007-.017-.017-.041-.009-.02-.006-.013-.007-.015-.01-.023-.017-.036-.007-.017-.004-.007c-.013-.028-.026-.055-.039-.082l-.034-.07-.01-.02-.009-.017-.017-.033-.012-.024-.008-.015-.007-.012-.009-.018-.023-.042-.011-.021c-.015-.027-.029-.053-.044-.079l-.037-.064-.009-.016-.006-.01-.009-.016-.016-.026-.017-.029-.009-.016-.015-.023-.038-.062-.001-.002c-.017-.026-.033-.051-.05-.077l-.038-.058-.012-.019-.009-.012-.009-.013-.014-.021-.022-.033-.011-.016-.001-.001c-.347-.501-.761-.955-1.205-1.331-1.252-1.061-3.504-1.78-5.28-2.107-1.762-.323-3.615-.192-5.374.151-1.931.377-4.037 1.88-6.212 2.11-2.877.305-7.637-.374-11.054-.279-3.16.087-6.803.383-9.447.848-2.201.386-4.779.887-6.419 1.937-1.122.719 4.828 5.987.077 9.921 0 0-3.311.392-4.663 1.075s-3.451 3.022-3.451 3.022 9.128 14.229 11.414 15.415c.052.027.106.052.162.077zm38.591-24.919-.003.008-.026.057-.007.015-.024.052-.009.02-.023.049-.01.022-.022.047-.012.025-.022.044-.012.027-.022.043-.013.027-.021.042-.035.069-.035.069-.035.067-.036.068-.037.068-.037.068-.017.031-.02.036-.017.03-.021.037-.017.03-.021.036-.017.03-.021.035-.018.03-.021.035-.017.029-.022.036-.017.028-.022.036-.017.027-.039.062-.04.062-.039.061c-1.289 1.958-3.456 4.727-5.848 6.309-1.197.79-2.835 1.785-4.706 2.871-5.597 3.243-13.267 7.282-17.376 9.047-.394.17-.816.348-1.255.527-1.68.669-3.642 1.342-5.376 1.644-.489.086-.944.201-1.326.215-.094-.004-.194-.012-.277-.019-.176-.301-.586-1.038-.74-1.626-.44-1.676-.353-3.918 1.463-5.49 3.139-2.717 7.764-3.02 11.116-3.968 5.593-1.581 9.323-4.27 13.059-7.168 4.271-3.312 6.275-4.428 9.885-5.796 1.07-.406 2.144-.643 2.979-.78-.052.785-.344 1.756-.754 2.676zm-1.339-5.462c-.876-.401-1.955-.658-2.849-.822-1.382-.254-2.833-.125-4.211.144-.763.149-1.547.552-2.368.909-1.334.579-2.719 1.094-4.113 1.242-2.941.312-7.805-.36-11.297-.264-3.009.084-6.476.361-8.994.803-.976.171-2.051.343-3.043.602.361.803.723 1.712.903 2.47.629 2.641.342 5.555-2.749 8.115-.463.384-1.028.626-1.625.697 0 0-2.577.233-3.623.761-.268.135-.572.362-.875.622 1.283 1.95 3.293 4.953 5.203 7.598.272-1.681 1.063-3.368 2.65-4.742 3.497-3.026 8.577-3.556 12.311-4.612 5.145-1.455 8.556-3.965 11.994-6.63 4.616-3.58 6.791-4.771 10.693-6.249.712-.27 1.379-.481 1.993-.644z" transform="matrix(.274661 .800508 -.800508 .274661 5.2803 -35.1897)"/></g><g transform="matrix(.56787233806 -.39398754035 .39341933746 .56869277712 -85.74398512928 96.17856489075)"><path d="m212.579 29.938c1.622-6.199-1.156-9.271 8.601-20.522 9.756-11.251 23.955 1.53 26.372 7.823.811 2.113.927 6.673.464 9.614-.464 2.941-2.031 2.822-2.631 5.188-.599 2.366 2.492 7.515 1.238 8.769s-3.82 1.022-3.82 1.022c-1.059 3.032-3.474 4.042-3.474 4.042.482 6.557-4.408 6.032-5.712 5.735s-7.563-4.619-7.563-4.619c-7.542 10.322-8.551 12.716-8.551 12.716l-11.923-14.968s4.701-6.018 6.999-14.8z" fill="#feefe7" transform="matrix(.999258 -.0385184 .0385184 .999258 -1.64277 10.0664)"/><path d="m212.579 29.938c1.622-6.199-1.156-9.271 8.601-20.522 9.756-11.251 23.955 1.53 26.372 7.823.811 2.113.927 6.673.464 9.614-.464 2.941-2.031 2.822-2.631 5.188-.599 2.366 2.492 7.515 1.238 8.769s-3.82 1.022-3.82 1.022c-1.059 3.032-3.474 4.042-3.474 4.042.482 6.557-4.408 6.032-5.712 5.735s-7.563-4.619-7.563-4.619c-7.542 10.322-8.551 12.716-8.551 12.716l-11.923-14.968s4.701-6.018 6.999-14.8zm31.528 9.199-.19.017c-.485.06-.875.032-.875.032-1.213-.11-2.346.62-2.747 1.77-.63 1.803-1.991 2.466-1.991 2.466-1.054.441-1.709 1.507-1.625 2.646.104 1.42 0 2.287-.515 2.733-.591.512-1.443.336-1.854.241-.13-.066-.925-.474-1.535-.84-2.226-1.336-5.211-3.399-5.211-3.399-1.185-.818-2.805-.543-3.655.619-3.31 4.53-5.403 7.597-6.717 9.629 0 0-8.298-10.417-8.298-10.417 1.645-2.509 4.565-7.562 6.255-14.023.528-2.016.639-3.725.804-5.462.321-3.391 1.04-6.85 7.234-13.993 3.891-4.487 8.683-4.093 12.728-2.039 4.419 2.244 8.104 6.333 9.157 9.074.696 1.812.717 5.726.319 8.248-.225 1.434-.929 1.767-1.413 2.437-.466.644-.887 1.403-1.168 2.512-.388 1.53.203 3.994.902 6.244.142.454.289 1.046.395 1.505z" transform="matrix(.999258 -.0385184 .0385184 .999258 -1.64277 10.0664)"/><path d="m247.373 24.104s4.032-3.731 1.32-8.659c-1.787-3.246-8.059-8.143-13.009-10.249-4.951-2.106-10.35-2.547-14.757-.395-5.973 2.916-8.699 8.036-10.762 15.29-1.078 3.788-1.596 12.933 2.736 14.851 2.059.911 4.343-6.801 6.62-7.975 1.763-.91 3.64.33 5.941 1.188 2.682 1 5.252-1.78 5.252-1.78s2.27-3.572 4.185-4.691c1.916-1.119 4.007-.79 5.872-.192 2.113.677 6.602 2.612 6.602 2.612z" fill="#996533"/><path d="m247.373 24.104s4.032-3.731 1.32-8.659c-1.787-3.246-8.059-8.143-13.009-10.249-4.951-2.106-10.35-2.547-14.757-.395-5.973 2.916-8.699 8.036-10.762 15.29-1.078 3.788-1.596 12.933 2.736 14.851 2.059.911 4.343-6.801 6.62-7.975 1.763-.91 3.64.33 5.941 1.188 2.682 1 5.252-1.78 5.252-1.78s2.27-3.572 4.185-4.691c1.916-1.119 4.007-.79 5.872-.192 2.113.677 6.602 2.612 6.602 2.612zm-34.32 7.533c-.346-.591-.53-1.374-.692-2.182-.597-2.981-.206-6.651.359-8.637 1.825-6.417 4.088-11.05 9.372-13.63 3.75-1.83 8.34-1.339 12.552.453 4.433 1.886 10.121 6.179 11.721 9.085.926 1.682.606 3.143.123 4.124-1.538-.637-3.636-1.481-4.906-1.888-2.55-.818-5.403-1.103-8.023.428-1.939 1.133-4.232 4.318-4.898 5.281-.157.146-.482.427-.906.674-.374.218-.852.512-1.365.321-1.515-.565-2.873-1.253-4.126-1.52-1.38-.293-2.684-.199-3.962.46-.61.315-1.257.853-1.866 1.603-.874 1.074-1.762 2.709-2.617 4.216-.213.375-.502.822-.766 1.212z"/></g><path d="m139.008 92.362c5.131 8.448 19.834 16.796 31.244 17.273l8.344-10.715s4.774-1.999 13.035-7.983c6.648-4.815 13.218-1.52 21.446-11.865 4.075-5.123 6.4-12.597 7.783-23.004-7.39-4.886-10.913-16.149-10.913-16.149-7.671-1.25-21.014 5.06-30.836 11.889-9.059 6.298-15.336 11.301-22.006 18.046-6.684 6.759-18.097 22.508-18.097 22.508z" fill="#4b6097" transform="matrix(.07282628298 -.68798184373 .68698943544 .07293164602 6.62150212881 182.25773160317)"/><path d="m139.008 92.362c5.131 8.448 19.834 16.796 31.244 17.273l8.344-10.715s4.774-1.999 13.035-7.983c6.648-4.815 13.218-1.52 21.446-11.865 4.075-5.123 6.4-12.597 7.783-23.004-7.39-4.886-10.913-16.149-10.913-16.149-7.671-1.25-21.014 5.06-30.836 11.889-9.059 6.298-15.336 11.301-22.006 18.046-6.684 6.759-18.097 22.508-18.097 22.508zm3.246.062c2.985-4.052 11.394-15.296 16.74-20.702 6.556-6.63 12.73-11.542 21.633-17.732 5.697-3.961 12.613-7.75 18.84-9.879 3.151-1.077 6.099-1.749 8.565-1.7 1.287 3.279 4.586 10.533 9.978 14.861-1.316 9-3.38 15.58-7.012 20.146-4.417 5.553-8.308 6.702-11.992 7.672-3.053.804-5.976 1.553-8.933 3.695-7.932 5.745-12.503 7.684-12.503 7.684-.421.176-.789.458-1.07.818l-7.476 9.601c-9.73-.929-21.547-7.459-26.769-14.464z" transform="matrix(.07282628298 -.68798184373 .68698943544 .07293164602 6.62150212881 182.25773160317)"/><path d="m174.061 116.989c-3.264 10.435-15.788 27.709-21.594 33.665 0 0-10.138-8.795-16.734-14.656-5.59-4.965-13.075-7.071-18.169-16.673-4.162-7.845-2.689-21.016 4.384-30.69 3.714-5.079 9.731-9.012 9.731-9.012s10.845 11.706 15.188 15.374c6.761 5.711 12.034 8.847 12.034 8.847z" fill="#aaabaf" transform="matrix(-.19471722304 -.66378728519 .66282971643 -.19499835895 51.77532732759 195.11985786025)"/><path d="m174.061 116.989c-3.264 10.435-15.788 27.709-21.594 33.665 0 0-10.138-8.795-16.734-14.656-5.59-4.965-13.075-7.071-18.169-16.673-4.162-7.845-2.689-21.016 4.384-30.69 3.714-5.079 9.731-9.012 9.731-9.012s10.845 11.706 15.188 15.374c6.761 5.711 12.034 8.847 12.034 8.847zm-3.098.831c-3.474 9.21-12.968 22.6-18.703 29.134-3.264-2.839-9.955-8.671-14.763-12.942-2.323-2.064-4.953-3.663-7.621-5.464-3.537-2.389-7.158-5.178-9.965-10.468-3.784-7.134-2.25-19.08 4.182-27.877 2.209-3.021 5.299-5.602 7.234-7.066 3.217 3.424 10.454 11.041 13.826 13.889 6.16 5.204 11.124 8.327 12.181 8.975-.004-.002 13.629 11.818 13.629 11.818z" transform="matrix(-.19471722304 -.66378728519 .66282971643 -.19499835895 51.77532732759 195.11985786025)"/><path d="m93.99 114.564c-5.989-16.481-7.536-25.079-6.669-31.483.805-5.943 17.215-16.441 17.919-11.129.536 4.047 6.24 10.341 6.304 10.464 1.98 3.779 1.996 11.431-.75 19.126 0 0 9.349.522 13.927 1.431 4.592.912 10.194 3.315 13.629 4.039 2.279.48 4.651.278 6.98.303 2.447.026 5.728-.242 7.708-.146 1.409.068 2.876.16 4.17.722 1.302.566.907 2.587.907 2.587s5.034 2.247 5.819 3.651c.746 1.333-.189 3.04-1.067 4.357-1.119 1.677-3.795 4.382-5.507 5.713-1.38 1.073-3.022 2.395-4.766 2.273-1.861-.129-4.721-1.666-6.4-3.121-1.618-1.402-3.488-5.391-3.488-5.391s-5.148-.227-7.849-.166c-2.089.047-3.46.367-6.217.796-3.347.521-8.525 2.218-13.92 1.971-5.808-.266-18.579-.078-20.73-5.997z" fill="#feefe7" transform="matrix(.52344915319 .45529680511 -.45383343716 .52327491718 37.14323783356 -32.44467434492)"/><path d="m83.52 120.937s7.929 7.702 11.307 12.053c3.388 4.366 6.523 10.841 9.025 14.144 1.66 2.191 3.93 3.847 5.987 5.672 2.161 1.918 5.292 4.218 6.982 5.836 1.203 1.152 2.44 2.369 3.159 3.871.723 1.512-1.191 3.004-1.191 3.004s2.751 5.896 2.365 7.752c-.365 1.763-2.517 2.558-4.317 3.05-2.293.626-6.768.961-9.322.82-2.06-.114-4.545-.209-6.005-1.667-1.559-1.556-2.919-5.137-3.292-7.731-.358-2.499 1.057-7.496 1.057-7.496s-4.412-4.186-6.867-6.223c-1.897-1.575-3.366-2.352-6.155-4.104-3.386-2.127-9.312-4.627-13.929-9.022-4.971-4.732-16.498-14.451-13.842-21.382 7.398-19.298 12.663-28.144 18.384-33.17 5.309-4.664 28.046-1.301 24.569 3.969-2.65 4.016-2.43 14.031-2.467 14.19-1.151 4.875-7.009 11.66-15.349 16.379zm-2.106-2.309c.173-.158.366-.297.574-.415 7.299-4.105 12.667-9.814 13.862-14.134.011-1.202.052-4.805.606-8.322.354-2.246.943-4.445 1.781-6.129-.76-.389-2.067-1.008-3.214-1.31-3.452-.908-7.938-1.304-11.602-.922-1.909.199-3.585.498-4.493 1.296-5.496 4.828-10.421 13.401-17.528 31.941-.741 1.933.463 4.076 1.961 6.284 3.096 4.562 8.253 8.989 11.118 11.715 4.444 4.231 10.177 6.592 13.436 8.64 2.944 1.849 4.486 2.683 6.489 4.345 2.509 2.083 7.022 6.361 7.022 6.361.843.8 1.172 2.001.856 3.119 0 0-1.268 4.128-.97 6.2.285 1.985 1.213 4.773 2.406 5.963.308.308.757.397 1.204.49.909.188 1.883.22 2.765.268 2.281.126 6.279-.154 8.326-.714.543-.148 1.132-.324 1.656-.577.096-.047.223-.125.328-.195-.097-.442-.285-1.247-.469-1.794-.655-1.939-1.571-3.9-1.571-3.9-.593-1.273-.263-2.778.791-3.687-.571-.839-1.353-1.548-2.088-2.251-1.668-1.597-4.762-3.863-6.896-5.757-2.208-1.96-4.62-3.769-6.403-6.122-2.496-3.296-5.622-9.758-9.003-14.115-3.288-4.236-11.015-11.727-11.015-11.727-.029-.028-.057-.057-.084-.086h-.001l-4.267-4.37c-.643-.658-.631-1.714.027-2.357s1.714-.631 2.357.027z" transform="matrix(.58734049044 -.00000097427 .0000011079 .5881889626 -.00006488699 .00013829697)"/><path d="m267.027 62.199c1.197-7.341 4.886-10.905 10.905-10.905s10.209 3.746 10.906 10.905c.719 6.171 1 18.779 1 18.779-7.843-1.482-15.776-1.538-23.811 0 0 0 .142-13.518 1-18.779z" fill="#4b6097" transform="matrix(.62835469284 .41684449917 -.38326281155 .57940377325 -93.71611648773 -104.17377411497)"/><path d="m289.105 65.004c.523 6.541.733 15.974.733 15.974-7.843-1.482-15.776-1.538-23.811 0 0 0 .142-13.518 1-18.779 1.197-7.341 4.886-10.905 10.905-10.905s10.209 3.746 10.906 10.905c.097.833.186 1.784.267 2.805zm-2.835-2.388c.475 4.077.745 10.945.877 15.064-6.101-.863-12.254-.886-18.466.001.094-4.257.333-11.493.904-14.99.479-2.94 1.377-5.165 2.838-6.614 1.378-1.367 3.236-1.962 5.509-1.962 2.302 0 4.275.649 5.718 2.05 1.46 1.417 2.335 3.561 2.605 6.331z" transform="matrix(.62835469284 .41684449917 -.38326281155 .57940377325 -93.71611648773 -104.17377411497)"/><path d="m129.274 19.938c7.559-5.224 19.317-10.952 34.497-10.952 15.256 0 27.21 5.788 34.901 11.033l2.974-3.381 5.325 13.115-13.686-3.609 2.613-2.971c-7.187-4.815-18.174-10.021-32.127-10.021-13.847 0-24.633 5.129-31.687 9.912l2.637 2.934-13.647 3.755 5.184-13.171z" fill="#ec3237" transform="matrix(.69399540182 -.00000031772 .00000047682 .6949979477 -12.63848473746 4.66381324516)"/><path d="m93.99 114.564c-5.989-16.481-7.536-25.079-6.669-31.483.805-5.943 17.215-16.441 17.919-11.129.536 4.047 6.24 10.341 6.304 10.464 1.98 3.779 2.725 6.786 1.984 15.178 0 0 4.812-.375 7.804-.451 4.081-.103 11.05 1.052 15.136-.061 3.261-.889 6.945-1.91 9.616-2.14 2.702-.232 6.623-.061 8.62.405 1.373.321 2.539.688 3.833 1.25 1.302.566 1.931 2.223 1.931 2.223s4.347 2.084 5.132 3.488c.746 1.333-.189 3.039-1.067 4.356-1.119 1.678-3.795 4.382-5.507 5.714-1.38 1.073-3.022 2.395-4.766 2.273-1.861-.129-4.721-1.667-6.4-3.121-1.618-1.402-4.676-3.123-4.676-3.123s-4.528-.169-7.178.754c-1.973.687-5.577 2.06-7.983 3.472-3.265 1.915-9 4.325-14.287 5.426-6.58 1.37-17.595 2.424-19.746-3.495z" fill="#feefe7" transform="matrix(.52395679192 .45573914022 -.45508160862 .5247135952 172.29466675588 38.84009289165)"/><path d="m93.99 114.564c-5.989-16.481-7.536-25.079-6.669-31.483.805-5.943 17.215-16.441 17.919-11.129.536 4.047 6.24 10.341 6.304 10.464 1.98 3.779 2.725 6.786 1.984 15.178 0 0 4.812-.375 7.804-.451 4.081-.103 11.05 1.052 15.136-.061 3.261-.889 6.945-1.91 9.616-2.14 2.702-.232 6.623-.061 8.62.405 1.373.321 2.539.688 3.833 1.25 1.302.566 1.931 2.223 1.931 2.223s4.347 2.084 5.132 3.488c.746 1.333-.189 3.039-1.067 4.356-1.119 1.678-3.795 4.382-5.507 5.714-1.38 1.073-3.022 2.395-4.766 2.273-1.861-.129-4.721-1.667-6.4-3.121-1.618-1.402-4.676-3.123-4.676-3.123s-4.528-.169-7.178.754c-1.973.687-5.577 2.06-7.983 3.472-3.265 1.915-9 4.325-14.287 5.426-6.58 1.37-17.595 2.424-19.746-3.495zm8.825-41.279c.399 1.546 1.244 3.283 2.266 4.92 1.609 2.576 3.598 4.921 4.246 5.682 1.689 3.301 2.22 6.077 1.567 13.474-.068.775.208 1.54.755 2.093s1.309.837 2.085.776c0 0 4.726-.368 7.665-.443 4.25-.108 11.509 1.006 15.765-.154 3.103-.845 6.605-1.837 9.147-2.056 2.442-.21 5.986-.076 7.791.346 1.211.283 2.24.604 3.381 1.1.396.172.512.734.512.734.241.636.717 1.154 1.329 1.447 0 0 1.421.681 2.712 1.502.371.236.884.641 1.148.853-.03.111-.072.252-.112.345-.195.455-.474.896-.74 1.293-.999 1.499-3.4 3.904-4.929 5.093-.591.459-1.232.981-1.918 1.366-.338.19-.674.383-1.041.357-1.425-.099-3.567-1.369-4.852-2.482-1.771-1.534-5.111-3.429-5.111-3.429-.366-.206-.777-.322-1.198-.338 0 0-5.137-.149-8.147.9-2.09.728-5.902 2.192-8.452 3.688-3.081 1.808-8.497 4.078-13.487 5.117-3.647.76-8.767 1.461-12.71.682-1.84-.363-3.455-.959-4.012-2.49-5.754-15.837-7.366-24.072-6.533-30.225.138-1.018 1.044-2.144 2.156-3.335 2.132-2.284 5.221-4.527 7.933-5.866.902-.446 2.082-.777 2.784-.95z" transform="matrix(.52395679192 .45573914022 -.45508160862 .5247135952 172.29466675588 38.84009289165)"/><path d="m242.087 178.183h16.878v62.85h-16.878z" fill="#d2d3d5" transform="matrix(.44109931343 -.00000020194 .00000054377 .79256870957 119.71230661787 23.78267738415)"/><path d="m258.966 178.183h-16.879v62.85h16.879zm-4.161 2.319v58.212h-8.557v-58.212z" transform="matrix(.44109931343 -.00000020194 .00000054377 .79256870957 119.71230661787 23.78267738415)"/><path d="m242.087 178.183h16.878v62.85h-16.878z" fill="#d2d3d5" transform="matrix(.38525350344 -.00000017637 .000000619 .90223243574 136.63766127024 4.24273283622)"/><path d="m258.966 178.183h-16.879v62.85h16.879zm-4.765 2.038v58.775h-7.35v-58.775z" transform="matrix(.38525350344 -.00000017637 .000000619 .90223243574 136.63766127024 4.24273283622)"/><path d="m242.087 178.183h16.878v62.85h-16.878z" fill="#d2d3d5" transform="matrix(5.83502311914 -.00000267135 .00000008508 .12400431382 -1270.10008383061 142.91047937955)"/><path d="m258.966 178.183h-16.879v62.85h16.879zm-.315 14.823v33.204h-16.249v-33.204z" transform="matrix(5.83502311914 -.00000267135 .00000008508 .12400431382 -1270.10008383061 142.91047937955)"/><path d="m41.708 142.952h64.286v9.925h-64.286z" fill="#f68634" transform="matrix(1.7895434831 -.00000081928 .00000045607 .66474885702 67.84874169027 67.57063677379)"/><path d="m105.994 142.952h-64.286v9.925h64.286zm-.958 2.581v4.763s-54.447 0-62.371 0v-4.763z" transform="matrix(1.7895434831 -.00000081928 .00000045607 .66474885702 67.84874169027 67.57063677379)"/><path d="m59.651 286.429c.614-6.176 1.217-9.245 1.217-9.245s16.388-19.821 17.034-16.697c1.081 5.231-1.339 16.067-3.165 26.008-3.149 17.139-4.73 24.604-2.772 31.049-1.709 3.891-4.207 5.333-6.719 5.231-2.511-.103-8.854-1.479-8.349-5.846 0 0-.012-1.95-1.303-4.158-2.657-4.545 3.252-18.241 4.057-26.342z" fill="#feefe7" transform="matrix(.46805808017 -.51313815844 .5123980559 .46873435493 109.82804183522 32.92325578907)"/><path d="m59.651 286.429c.614-6.176 1.217-9.245 1.217-9.245s16.388-19.821 17.034-16.697c1.081 5.231-1.339 16.067-3.165 26.008-3.149 17.139-4.73 24.604-2.772 31.049-1.709 3.891-4.207 5.333-6.719 5.231-2.511-.103-8.854-1.479-8.349-5.846 0 0-.012-1.95-1.303-4.158-2.657-4.545 3.252-18.241 4.057-26.342zm15.89-21.588c-.19 5.54-2.017 13.622-3.405 21.176-3.109 16.921-4.585 24.786-2.983 31.274-1.052 1.98-2.345 2.901-3.799 2.841-1.004-.041-2.777-.332-4.247-1.054-.819-.403-1.695-.872-1.583-1.845.012-.106.018-.213.018-.32 0 0 .032-2.575-1.665-5.477-.327-.559-.342-1.358-.315-2.295.04-1.386.302-2.996.668-4.726 1.224-5.795 3.562-12.785 4.053-17.724.437-4.399.867-7.178 1.066-8.352 1.701-2.039 7.939-9.435 12.192-13.498z" transform="matrix(.46805808017 -.51313815844 .5123980559 .46873435493 109.82804183522 32.92325578907)"/><path d="m52.975 289.567c.614-6.177 1.217-9.246 1.217-9.246s-14.546 7.39-26.318 7.271l-2.851-37.573s15.089 1.565 22.614 2.515c7.707.973 18.584 1.997 23.628 3.323 2.609.685 5.991 1.506 6.637 4.63 1.081 5.231-1.339 16.067-3.165 26.008-2.683 14.599-6.147 18.777-7.105 29.407 0 0-1.38 2.985-3.166 5.048-1.191 1.619.739 8.578-4.541 8.918 0 0-5.566-5.296-5.744-9.14 2.328-16.004-2.403-19.124-1.206-31.161z" fill="#feefe7" transform="matrix(.55428543579 -.41821315761 .41761000575 .55508625278 129.11943607071 2.95662097574)"/><path d="m470.28 231.07c-.384.777-8.721 17.481-19.653 25.546l-29.406-33.432s15.353-9.251 23.13-13.705c7.965-4.562 18.958-11.329 24.66-13.664 2.95-1.208 6.725-2.839 9.556-.349 4.739 4.167 10.16 16.113 15.505 26.794 7.849 15.685 7.55 22.09 14.204 32.804 0 0 .82 3.798.601 7.015.027 2.375 6.797 7.569 2.056 11.644 0 0-9.019-1.04-11.919-4.541-9.182-16.759-15.867-16.339-23.295-28.55-3.621-5.952-5.258-9.25-5.413-9.566zm3.023-1c.525 1.03 2.125 4.072 5.085 8.938h.001c3.526 5.797 6.9 8.576 10.458 11.915 3.884 3.644 7.994 7.869 12.739 16.451.876.905 2.388 1.471 3.849 1.949 1.451.476 2.908.799 4.006 1.003.014-.298-.065-.598-.18-.889-.239-.605-.583-1.191-.933-1.751-.779-1.246-1.588-2.395-2.018-3.328-.381-.825-.55-1.589-.557-2.244-.001-.082.001-.165.007-.247.146-2.156-.247-4.609-.439-5.642-6.4-10.509-6.252-16.996-14.044-32.567-5.139-10.271-10.216-21.838-14.774-25.845-.858-.755-1.914-.574-2.922-.326-1.18.291-2.339.791-3.385 1.22-5.62 2.301-16.443 8.988-24.292 13.484-5.544 3.175-14.948 8.794-19.863 11.742 0 0 24.957 28.373 24.957 28.373 9.55-8.344 16.489-22.638 16.489-22.638.06-.124.129-.243.204-.356 5.226-9.358 5.382-9.27 5.382-9.27.464-.724-1.154 5.727.23 10.028z" transform="matrix(.58734021284 -.00000053141 .00000066569 .58818868461 -.00039287531 -.00004371948)"/><g transform="matrix(.19825274606 -.66603678948 .66507606613 .19853929514 162.90422172324 132.34211122186)"><path d="m20.558 191.066s1.031-2.94-3.527-1.547c-2.748.839-6.89 6.708-11.495 14.254 0 0 2.9 5.318 4.094 8.339 1.159 2.931 2.138 8.995 11.128 13.231 2.215 1.043 9.685-9.958 9.808-15.31.072-3.115-8.132-7.191-10.285-11.95-1.315-2.904.277-7.017.277-7.017z" fill="#4b4b4d"/><path d="m20.558 191.066s1.031-2.94-3.527-1.547c-2.748.839-6.89 6.708-11.495 14.254 0 0 2.9 5.318 4.094 8.339 1.159 2.931 2.138 8.995 11.128 13.231 2.215 1.043 9.685-9.958 9.808-15.31.072-3.115-8.132-7.191-10.285-11.95-1.315-2.904.277-7.017.277-7.017zm7.357 19.047c-.068 1.297-.686 2.953-1.492 4.649-1.374 2.891-4.49 6.585-5.477 7.72-7.104-3.73-7.869-8.847-8.856-11.342-.852-2.155-2.54-5.44-3.507-7.274 2.379-3.84 4.604-7.154 6.548-9.418.938-1.092 1.702-1.949 2.408-2.294-.396 1.891-.698 4.743.332 7.02 1.423 3.142 5.144 6.106 7.954 8.641.593.534 1.131 1.046 1.559 1.541.206.239.452.63.531.757z"/></g><g transform="matrix(.53581582187 -.44169441015 .44105738196 .53658996305 209.43041380746 52.6861460519)"><path d="m22.299 188.942c-.884-.702-3.467 5.508-7.921 2.786 0 0-1.223-2.542-2.141-3.437s-3.367-1.933-3.367-1.933-8.884 11.215-9.205 13.371c-.321 2.159 2.602 5.908 4.725 8.268 3.463 3.85 12.111 11.789 16.056 14.83 2.203 1.698 5.411 2.849 7.613 3.414 1.807.465 4.199.475 5.599-.022 1.278-.453 2.303-1.693 2.797-2.957.505-1.294.462-3.294.236-4.805-.225-1.5-.839-2.947-1.597-4.261-.832-1.442-2.613-2.715-3.395-4.393-1.035-2.219-1.798-6.216-2.813-8.925-.938-2.506-2.175-5.341-3.273-7.33-.914-1.656-2.023-3.582-3.314-4.606z" fill="#4b4b4d"/><path d="m22.299 188.942c-.884-.702-3.467 5.508-7.921 2.786 0 0-1.223-2.542-2.141-3.437s-3.367-1.933-3.367-1.933-8.884 11.215-9.205 13.371c-.321 2.159 2.602 5.908 4.725 8.268 3.463 3.85 12.111 11.789 16.056 14.83 2.203 1.698 5.411 2.849 7.613 3.414 1.807.465 4.199.475 5.599-.022 1.278-.453 2.303-1.693 2.797-2.957.505-1.294.462-3.294.236-4.805-.225-1.5-.839-2.947-1.597-4.261-.832-1.442-2.613-2.715-3.395-4.393-1.035-2.219-1.798-6.216-2.813-8.925-.938-2.506-2.175-5.341-3.273-7.33-.914-1.656-2.023-3.582-3.314-4.606zm-.32 3.613c.48.723.913 1.536 1.318 2.271 1.045 1.894 2.219 4.593 3.113 6.979 1.036 2.769 1.834 6.847 2.892 9.116.501 1.075 1.293 2.043 2.123 2.951.511.559 1.05 1.076 1.378 1.646.594 1.029 1.096 2.156 1.272 3.331.163 1.084.279 2.522-.084 3.45-.228.583-.628 1.219-1.218 1.428-1.014.36-2.747.289-4.057-.047-1.921-.493-4.734-1.466-6.655-2.948-3.859-2.974-12.317-10.738-15.705-14.504-1.153-1.281-2.578-3.007-3.461-4.611-.292-.531-.615-.987-.62-1.386.158-.291.949-1.73 1.713-2.862 1.75-2.596 4.188-5.805 5.664-7.714.291.17.556.352.739.529.71.693 1.604 2.691 1.604 2.691.221.459.569.844 1.004 1.11 2.898 1.771 5.309 1.2 7.251-.029.558-.352 1.186-.891 1.729-1.401z"/><path d="m35.719 224.593c.064-.086-.473-2.116-2.582-4.656-2.255-2.717-3.806-4.131-7.939-6.844-3.078-2.019-6.024-4.06-8.602-7.78-1.871-2.698-3.691-6.62-7.074-8.587-4.631-2.694-9.548 1.191-9.874 3.154-.358 2.154 2.709 5.867 4.846 8.225 3.467 3.824 12.025 11.699 15.952 14.722 2.204 1.696 5.411 2.849 7.613 3.414 1.807.465 4.199.475 5.599-.022.814-.289 1.525-.896 2.061-1.626z" fill="#e6e7e9"/><path d="m35.719 224.593c.064-.086-.473-2.116-2.582-4.656-2.255-2.717-3.806-4.131-7.939-6.844-3.078-2.019-6.024-4.06-8.602-7.78-1.871-2.698-3.691-6.62-7.074-8.587-4.631-2.694-9.548 1.191-9.874 3.154-.358 2.154 2.709 5.867 4.846 8.225 3.467 3.824 12.025 11.699 15.952 14.722 2.204 1.696 5.411 2.849 7.613 3.414 1.807.465 4.199.475 5.599-.022.814-.289 1.525-.896 2.061-1.626zm-3.174-.796c-1.032.278-2.613.195-3.829-.117-1.921-.494-4.734-1.468-6.657-2.949-3.842-2.957-12.214-10.661-15.605-14.402-1.169-1.29-2.655-3.014-3.577-4.619-.194-.34-.362-.67-.481-.987-.037-.095-.073-.232-.098-.336.192-.223.67-.755 1.098-1.039 1.221-.812 3.039-1.359 4.797-.336 3.037 1.766 4.55 5.385 6.229 7.808 2.802 4.043 5.979 6.29 9.325 8.485 3.824 2.509 5.268 3.807 7.355 6.321.619.745 1.104 1.54 1.443 2.171z"/></g><g transform="matrix(.50328272913 -.47393260018 .47324906039 .50400988041 52.31098448316 189.03856228017)"><path d="m212.579 29.938c1.622-6.199-1.156-9.271 8.601-20.522 9.756-11.251 23.955 1.53 26.372 7.823.811 2.113.927 6.673.464 9.614-.464 2.941-2.031 2.822-2.631 5.188-.599 2.366 2.492 7.515 1.238 8.769s-3.82 1.022-3.82 1.022c-1.059 3.032-3.474 4.042-3.474 4.042.482 6.557-4.408 6.032-5.712 5.735s-7.563-4.619-7.563-4.619c-7.542 10.322-8.551 12.716-8.551 12.716l-11.923-14.968s4.701-6.018 6.999-14.8z" fill="#feefe7" transform="matrix(.999258 -.0385184 .0385184 .999258 -1.64277 10.0664)"/><path d="m212.579 29.938c1.622-6.199-1.156-9.271 8.601-20.522 9.756-11.251 23.955 1.53 26.372 7.823.811 2.113.927 6.673.464 9.614-.464 2.941-2.031 2.822-2.631 5.188-.599 2.366 2.492 7.515 1.238 8.769s-3.82 1.022-3.82 1.022c-1.059 3.032-3.474 4.042-3.474 4.042.482 6.557-4.408 6.032-5.712 5.735s-7.563-4.619-7.563-4.619c-7.542 10.322-8.551 12.716-8.551 12.716l-11.923-14.968s4.701-6.018 6.999-14.8zm31.528 9.199-.19.017c-.485.06-.875.032-.875.032-1.213-.11-2.346.62-2.747 1.77-.63 1.803-1.991 2.466-1.991 2.466-1.054.441-1.709 1.507-1.625 2.646.104 1.42 0 2.287-.515 2.733-.591.512-1.443.336-1.854.241-.13-.066-.925-.474-1.535-.84-2.226-1.336-5.211-3.399-5.211-3.399-1.185-.818-2.805-.543-3.655.619-3.31 4.53-5.403 7.597-6.717 9.629 0 0-8.298-10.417-8.298-10.417 1.645-2.509 4.565-7.562 6.255-14.023.528-2.016.639-3.725.804-5.462.321-3.391 1.04-6.85 7.234-13.993 3.891-4.487 8.683-4.093 12.728-2.039 4.419 2.244 8.104 6.333 9.157 9.074.696 1.812.717 5.726.319 8.248-.225 1.434-.929 1.767-1.413 2.437-.466.644-.887 1.403-1.168 2.512-.388 1.53.203 3.994.902 6.244.142.454.289 1.046.395 1.505z" transform="matrix(.999258 -.0385184 .0385184 .999258 -1.64277 10.0664)"/><path d="m247.373 24.104s4.032-3.731 1.32-8.659c-1.787-3.246-8.059-8.143-13.009-10.249-4.951-2.106-10.35-2.547-14.757-.395-5.973 2.916-8.699 8.036-10.762 15.29-1.078 3.788-1.596 12.933 2.736 14.851 2.059.911 4.343-6.801 6.62-7.975 1.763-.91 3.64.33 5.941 1.188 2.682 1 5.252-1.78 5.252-1.78s2.27-3.572 4.185-4.691c1.916-1.119 4.007-.79 5.872-.192 2.113.677 6.602 2.612 6.602 2.612z" fill="#996533"/><path d="m247.373 24.104s4.032-3.731 1.32-8.659c-1.787-3.246-8.059-8.143-13.009-10.249-4.951-2.106-10.35-2.547-14.757-.395-5.973 2.916-8.699 8.036-10.762 15.29-1.078 3.788-1.596 12.933 2.736 14.851 2.059.911 4.343-6.801 6.62-7.975 1.763-.91 3.64.33 5.941 1.188 2.682 1 5.252-1.78 5.252-1.78s2.27-3.572 4.185-4.691c1.916-1.119 4.007-.79 5.872-.192 2.113.677 6.602 2.612 6.602 2.612zm-34.32 7.533c-.346-.591-.53-1.374-.692-2.182-.597-2.981-.206-6.651.359-8.637 1.825-6.417 4.088-11.05 9.372-13.63 3.75-1.83 8.34-1.339 12.552.453 4.433 1.886 10.121 6.179 11.721 9.085.926 1.682.606 3.143.123 4.124-1.538-.637-3.636-1.481-4.906-1.888-2.55-.818-5.403-1.103-8.023.428-1.939 1.133-4.232 4.318-4.898 5.281-.157.146-.482.427-.906.674-.374.218-.852.512-1.365.321-1.515-.565-2.873-1.253-4.126-1.52-1.38-.293-2.684-.199-3.962.46-.61.315-1.257.853-1.866 1.603-.874 1.074-1.762 2.709-2.617 4.216-.213.375-.502.822-.766 1.212z"/></g><path d="m137.481 93.956c5.132 8.448 21.361 15.202 32.771 15.679l8.344-10.715s4.774-1.999 13.035-7.983c6.648-4.815 13.218-1.52 21.446-11.865 4.075-5.123 6.4-12.597 7.783-23.004-7.39-4.886-10.913-16.149-10.913-16.149-7.671-1.25-21.014 5.06-30.836 11.889-9.059 6.298-15.34 11.297-22.006 18.046-6.938 7.025-19.624 24.102-19.624 24.102z" fill="#4b6097" transform="matrix(-.04251386662 -.69052547184 .68952936781 -.04257512339 159.38854253931 260.89823866164)"/><path d="m137.481 93.956c5.132 8.448 21.361 15.202 32.771 15.679l8.344-10.715s4.774-1.999 13.035-7.983c6.648-4.815 13.218-1.52 21.446-11.865 4.075-5.123 6.4-12.597 7.783-23.004-7.39-4.886-10.913-16.149-10.913-16.149-7.671-1.25-21.014 5.06-30.836 11.889-9.059 6.298-15.34 11.297-22.006 18.046-6.938 7.025-19.624 24.102-19.624 24.102zm3.278.055c3.247-4.311 12.635-16.619 18.236-22.29 6.552-6.633 12.729-11.542 21.632-17.731 5.697-3.961 12.613-7.75 18.84-9.879 3.151-1.077 6.099-1.749 8.565-1.7 1.287 3.279 4.586 10.533 9.978 14.861-1.315 9-3.38 15.58-7.012 20.146-4.417 5.553-8.308 6.702-11.992 7.672-3.053.804-5.976 1.553-8.933 3.695-7.932 5.745-12.503 7.684-12.503 7.684-.421.176-.789.458-1.07.818l-7.482 9.609c-6.239-.523-13.709-2.863-19.782-6.232-3.475-1.928-6.501-4.176-8.477-6.653z" transform="matrix(-.04251386662 -.69052547184 .68952936781 -.04257512339 159.38854253931 260.89823866164)"/><path d="m174.061 116.989c-3.264 10.435-15.788 27.709-21.594 33.665 0 0-10.138-8.795-16.734-14.656-3.027-2.689-6.535-4.477-9.993-7.133l-8.423-31.393c.115-4.43-.457-9.384 1.597-12.193 6.365-1.832 35.977 3.688 35.977 3.688s1.129 3.24 1.383 9.936z" fill="#aaabaf" transform="matrix(.18150185573 -.66753262512 .66656974015 .18176420682 138.73489722233 224.8261995828)"/><path d="m397.067 235.265 25.702-14.418c10.834 6.929 26.567 26.48 31.532 34.91 0 0-13.114 8.788-21.803 14.463-3.987 2.604-7.101 6.033-11.183 9.136l-38.231-.141c-4.992-1.501-10.791-2.382-13.345-5.581-.112-7.79 15.303-39.691 15.303-39.691s4.026-.28 11.704 1.501zm1.502 2.74-.007.004-.018.01-.268.151c-.054.03-.108.058-.162.085l-7.849 4.29c-.765.419-1.72.128-2.132-.65s-.102-1.59.662-2.008l3.78-2.112c-2.479-.442-4.345-.618-5.572-.685-2.087 4.409-7.542 16.139-11.08 25.627-1.469 3.942-2.652 7.441-2.973 9.717.938.729 2.196 1.21 3.547 1.666 2.221.75 4.709 1.312 7.045 1.991 0 0 36.707.136 36.707.136 3.752-2.974 6.764-6.158 10.54-8.623 6.333-4.136 15.019-9.928 19.25-12.755-5.672-8.571-18.03-23.591-27.426-30.331v-.001z" transform="matrix(.58734021284 -.00000053141 .00000066569 .58818868461 -.00039287531 -.00004371948)"/><path d="m93.99 114.564c-5.989-16.481-7.536-25.079-6.669-31.483.805-5.943 17.215-16.441 17.919-11.129.536 4.047 6.24 10.341 6.304 10.464 1.98 3.779 3.698 8.379.952 16.075 0 0 5.936-.876 8.929-.952 4.081-.103 11.334.656 15.557.33 3.204-.248 7.475-1.943 9.778-2.29 2.682-.403 5.964-.328 7.944-.232 1.409.069 2.876.16 4.17.723 1.302.566.907 2.587.907 2.587s5.034 2.247 5.819 3.651c.746 1.333-.189 3.039-1.067 4.356-1.119 1.678-3.795 4.382-5.507 5.714-1.38 1.073-3.022 2.395-4.766 2.273-1.861-.129-4.721-1.667-6.4-3.121-1.618-1.402-4.676-3.123-4.676-3.123s-4.528-.169-7.178.754c-1.973.687-5.577 2.06-7.983 3.472-3.265 1.915-9 4.325-14.287 5.426-6.58 1.37-17.595 2.424-19.746-3.495z" fill="#feefe7" transform="matrix(.52395708188 .45573909141 -.45508155987 .52471388559 168.87080073291 38.83998984182)"/><path d="m93.99 114.564c-5.989-16.481-7.536-25.079-6.669-31.483.805-5.943 17.215-16.441 17.919-11.129.536 4.047 6.24 10.341 6.304 10.464 1.98 3.779 3.698 8.379.952 16.075 0 0 5.936-.876 8.929-.952 4.081-.103 11.334.656 15.557.33 3.204-.248 7.475-1.943 9.778-2.29 2.682-.403 5.964-.328 7.944-.232 1.409.069 2.876.16 4.17.723 1.302.566.907 2.587.907 2.587s5.034 2.247 5.819 3.651c.746 1.333-.189 3.039-1.067 4.356-1.119 1.678-3.795 4.382-5.507 5.714-1.38 1.073-3.022 2.395-4.766 2.273-1.861-.129-4.721-1.667-6.4-3.121-1.618-1.402-4.676-3.123-4.676-3.123s-4.528-.169-7.178.754c-1.973.687-5.577 2.06-7.983 3.472-3.265 1.915-9 4.325-14.287 5.426-6.58 1.37-17.595 2.424-19.746-3.495zm8.825-41.279c.399 1.546 1.244 3.283 2.266 4.92 1.61 2.578 3.6 4.923 4.247 5.683 1.663 3.235 3.002 7.197.677 13.714-.312.874-.143 1.849.446 2.566.589.718 1.512 1.075 2.431.939 0 0 5.724-.851 8.61-.924 4.117-.104 11.434.652 15.694.323 3.264-.253 7.622-1.958 9.968-2.311 2.505-.378 5.572-.296 7.421-.206.862.042 1.758.061 2.59.282-.173 1.168.451 2.316 1.538 2.801 0 0 1.675.747 3.171 1.625.424.249.995.663 1.301.892-.029.105-.067.23-.103.315-.195.455-.474.896-.74 1.293-.999 1.499-3.4 3.904-4.929 5.093-.591.459-1.232.981-1.918 1.366-.338.19-.674.383-1.041.357-1.425-.099-3.567-1.369-4.852-2.482-1.771-1.534-5.111-3.429-5.111-3.429-.366-.206-.777-.322-1.198-.338 0 0-5.137-.149-8.147.9-2.09.728-5.902 2.192-8.452 3.688-3.081 1.808-8.497 4.078-13.487 5.117-3.647.76-8.767 1.461-12.71.682-1.84-.363-3.455-.959-4.012-2.49-5.754-15.837-7.366-24.072-6.533-30.225.138-1.018 1.044-2.144 2.156-3.335 2.132-2.284 5.221-4.527 7.933-5.866.902-.446 2.082-.777 2.784-.95z" transform="matrix(.52395708188 .45573909141 -.45508155987 .52471388559 168.87080073291 38.83998984182)"/><path d="m88.587 95.627-7.473-5.465c-.629-.459-1.512-.321-1.971.308s-.321 1.512.308 1.971l7.69 5.603c.628.459 1.957-.309 1.957-.309z" transform="matrix(.69399584525 -.00000059029 .000000749 .69499839176 121.40198016868 75.10747435234)"/><path d="m267.027 62.199c1.197-7.341 4.886-10.905 10.905-10.905s10.209 3.746 10.906 10.905c.719 6.171 1 18.779 1 18.779-7.843-1.482-15.776-1.538-23.811 0 0 0 .142-13.518 1-18.779z" fill="#4b6097" transform="matrix(.62835469284 .41684449917 -.38326281155 .57940377325 37.99125698764 -32.71488874667)"/><path d="m332.176 212.152-.617 1.148c-3.709 6.813-9.64 16.254-9.64 16.254-7.423-7.017-15.874-12.695-25.473-16.874 0 0 8.973-13.215 13.323-17.79 6.072-6.383 12.345-7.279 18.784-3.014 6.439 4.266 8.476 10.926 4.55 18.471-.277.562-.589 1.168-.927 1.805zm-11.432-19.563h.014c1.964.002 3.94.732 5.954 2.066 2.462 1.631 4.149 3.669 4.779 6.072.636 2.426.176 5.152-1.336 8.065l-.009.017c-2.152 4.353-6.407 11.438-8.954 15.59-5.963-5.173-12.531-9.558-19.755-13.086 2.878-4.126 7.856-11.085 10.748-14.125 2.431-2.557 4.843-4.113 7.352-4.504.402-.063.804-.094 1.207-.095z" transform="matrix(.58734049044 -.00000097427 .0000011079 .5881889626 -.00035554505 -.0001285328)"/><path d="m366.368 179.947-11.741 2.794 9.029 10.779 4.747-10.928c7.87-5.447 21.228-12.213 39.034-12.213s31.164 6.766 39.033 12.213l4.748 10.928 9.029-10.779-11.741-2.794c-8.234-5.728-22.293-12.902-41.069-12.902s-32.836 7.174-41.069 12.902z" fill="#ec3237" transform="matrix(.58734025254 -.00000002527 .00000016027 .58818872437 -.00013301934 .00000227132)"/></g></svg>