<svg clip-rule="evenodd" fill-rule="evenodd" stroke-linejoin="round" stroke-miterlimit="2" viewBox="0 0 569 385" xmlns="http://www.w3.org/2000/svg"><path d="m0 0h569v385h-569z" fill="none"/><g transform="matrix(-.50226042513 -.62219135316 -.62219135316 .50226042513 231.946805962 208.212646724)"><g transform="matrix(.995515 -.0946027 .0946027 .995515 -24.9968 -3.49992)"><path d="m23.278 190.268s-4.281-1.804-8.839-.412c-2.747.839-5.245 2.644-5.245 2.644s-3.888.286-6.763 3.211c-1.576 1.604-.117 6.119 2.202 9.439s5.991 7.202 7.488 9.799c1.573 2.732 2.406 5.296 3.944 7.755 1.867 2.981 4.954 7.253 7.254 10.136 2.268 2.842 5.984 6.369 8.056 5.696 5.446-1.769 4.099-6.388 3.262-9.37-.724-2.582-2.044-5.042-2.424-7.709-.441-3.093-.343-5.501-.22-10.853.115-5.017.109-7.142.109-7.142z" fill="#4b4b4d"/><path d="m23.278 190.268s-4.281-1.804-8.839-.412c-2.747.839-5.245 2.644-5.245 2.644s-3.888.286-6.763 3.211c-1.576 1.604-.117 6.119 2.202 9.439s5.991 7.202 7.488 9.799c1.573 2.732 2.406 5.296 3.944 7.755 1.867 2.981 4.954 7.253 7.254 10.136 2.268 2.842 5.984 6.369 8.056 5.696 5.446-1.769 4.099-6.388 3.262-9.37-.724-2.582-2.044-5.042-2.424-7.709-.441-3.093-.343-5.501-.22-10.853.115-5.017.109-7.142.109-7.142zm-17.546 7.714c.061.402.184 1.087.354 1.567.402 1.134 1.024 2.323 1.751 3.363 2.382 3.412 6.133 7.418 7.67 10.087 1.547 2.686 2.358 5.213 3.871 7.631 1.8 2.875 4.778 6.993 6.996 9.773 1.121 1.405 3.69 3.498 4.5 4.143.208-.104.374-.225.489-.382.312-.424.164-.965.096-1.465-.121-.882-.377-1.739-.585-2.477-.77-2.746-2.126-5.377-2.53-8.213-.467-3.277-.389-5.826-.258-11.495.066-2.866.091-4.775.102-5.874 0-.001-7.411-11.081-7.411-11.081l-.001-.001c-1.14-.291-3.127-.596-5.196.035-2.148.656-4.097 2.074-4.097 2.074-.587.425-1.28.677-2.003.731 0 0-2.017.168-3.748 1.584z"/><path d="m11.865 195.493s-4.953 5.967.456 13.072c.653.858.487 2.085-.371 2.739-.858.653-2.085.487-2.739-.372-7.433-9.763-.322-17.972-.322-17.972.698-.821 1.933-.921 2.754-.222s.921 1.934.222 2.755z"/></g><path d="m58.921 263.691c-1.446-8.477-2.812-12.103-2.939-21.114-.146-10.404.073-11.704-2.508-25.993-.18-.999 34.383 3.075 34.37 4.618-.126 14.985-4.159 41.264-5.664 48.504-1.354 6.515-4.5 12.175-4.5 12.175-.434 3.243-.524 8.361-1.043 12.515-1.308 10.476-6.966 32.642-6.806 50.337.04 4.396-4.321 7.585-8.697 7.161s-7.554-4.318-7.161-8.697c2.825-31.543-1.935-41.617-1.173-53.196.378-5.741 2.36-9.157 5.749-16.275.47-.989 1.002-6.342.372-10.035z" fill="#feefe7" transform="matrix(.628125 .778112 -.778112 .628125 249.395 -73.9049)"/><path d="m58.921 263.691c-1.446-8.477-2.812-12.103-2.939-21.114-.146-10.404.073-11.704-2.508-25.993-.18-.999 34.383 3.075 34.37 4.618-.126 14.985-4.159 41.264-5.664 48.504-1.354 6.515-4.5 12.175-4.5 12.175-.434 3.243-.524 8.361-1.043 12.515-1.308 10.476-6.966 32.642-6.806 50.337.04 4.396-4.321 7.585-8.697 7.161s-7.554-4.318-7.161-8.697c2.825-31.543-1.935-41.617-1.173-53.196.378-5.741 2.36-9.157 5.749-16.275.47-.989 1.002-6.342.372-10.035zm-.772-43.093c1.767 10.383 1.609 12.536 1.741 21.924.123 8.756 1.479 12.275 2.883 20.512.777 4.557-.115 11.151-.696 12.372-3.1 6.514-5.031 9.598-5.377 14.852-.764 11.599 3.995 21.691 1.165 53.288-.2 2.238 1.409 4.242 3.646 4.458 2.125.206 4.431-1.101 4.412-3.236-.162-17.876 5.515-40.274 6.836-50.856.52-4.165.613-9.297 1.048-12.549.065-.485.22-.953.457-1.381 0 0 2.859-5.147 4.09-11.072 1.386-6.669 4.959-29.757 5.512-44.778-5.023-.767-18.629-2.807-25.717-3.534z" transform="matrix(.628125 .778112 -.778112 .628125 249.395 -73.9049)"/><g transform="matrix(.81085 -.585254 .585254 .81085 -62.1793 101.527)"><path d="m23.278 190.268s-4.281-1.804-8.839-.412c-2.747.839-5.245 2.644-5.245 2.644s-3.888.286-6.763 3.211c-1.576 1.604-.117 6.119 2.202 9.439s5.991 7.202 7.488 9.799c1.573 2.732 2.406 5.296 3.944 7.755 1.867 2.981 4.954 7.253 7.254 10.136 2.268 2.842 5.984 6.369 8.056 5.696 5.446-1.769 4.099-6.388 3.262-9.37-.724-2.582-2.044-5.042-2.424-7.709-.441-3.093-.343-5.501-.22-10.853.115-5.017.109-7.142.109-7.142z" fill="#4b4b4d"/><path d="m23.278 190.268s-4.281-1.804-8.839-.412c-2.747.839-5.245 2.644-5.245 2.644s-3.888.286-6.763 3.211c-1.576 1.604-.117 6.119 2.202 9.439s5.991 7.202 7.488 9.799c1.573 2.732 2.406 5.296 3.944 7.755 1.867 2.981 4.954 7.253 7.254 10.136 2.268 2.842 5.984 6.369 8.056 5.696 5.446-1.769 4.099-6.388 3.262-9.37-.724-2.582-2.044-5.042-2.424-7.709-.441-3.093-.343-5.501-.22-10.853.115-5.017.109-7.142.109-7.142zm-17.546 7.714c.061.402.184 1.087.354 1.567.402 1.134 1.024 2.323 1.751 3.363 2.382 3.412 6.133 7.418 7.67 10.087 1.547 2.686 2.358 5.213 3.871 7.631 1.8 2.875 4.778 6.993 6.996 9.773 1.121 1.405 3.69 3.498 4.5 4.143.208-.104.374-.225.489-.382.312-.424.164-.965.096-1.465-.121-.882-.377-1.739-.585-2.477-.77-2.746-2.126-5.377-2.53-8.213-.467-3.277-.389-5.826-.258-11.495.066-2.866.091-4.775.102-5.874 0-.001-7.411-11.081-7.411-11.081l-.001-.001c-1.14-.291-3.127-.596-5.196.035-2.148.656-4.097 2.074-4.097 2.074-.587.425-1.28.677-2.003.731 0 0-2.017.168-3.748 1.584z"/><path d="m12.108 195.218s-5.278 6.198.141 13.316c.653.858.487 2.085-.371 2.739-.858.653-2.086.487-2.739-.372-7.422-9.75.014-18.24.014-18.24.705-.816 1.94-.905 2.756-.199.815.706.904 1.941.199 2.756z"/></g><path d="m63.128 264.17c.512-8.747-2.437-15.352-3.921-23.825-1.796-10.248-6.544-15.825-9.126-30.114-.18-.999-.285-2.011-.314-3.027-.077-1.058-.068-1.736.038-1.952h.001c.271-3.979.833-7.582 3.526-10.918 6.978-8.644 19.661-9.996 28.304-3.019 4.953 3.998-.194 10.199-.224 16.108l2.072 1.018c-.006 1.203 2.957 12.892 4.119 13.908 11.679 10.215-1.709 42.628-4.517 49.468-1.198 2.919-2.657 5.367-2.657 5.367-.766 3.304-.22 4.226-.927 12.267-.028.312-.087.617-.145.92-1.451 11.435-9.686 36.667-9.526 54.362.04 4.396-4.321 7.585-8.697 7.161s-7.637-4.326-7.161-8.697c3.197-29.381-1.098-45.001-.148-57.027.426-5.389 1.274-8.157 5.85-15.126.601-.916 3.402-6.014 3.453-6.874z" fill="#feefe7" transform="matrix(.935471 .353403 -.353403 .935471 138.887 -98.0236)"/><path d="m78.726 294.227v.001c-2.395 12.588-9.039 34.593-8.895 50.505.04 4.396-4.321 7.585-8.697 7.161s-7.66-4.329-7.161-8.697c3.092-27.077-1.098-45.001-.148-57.027.426-5.389 1.274-8.157 5.85-15.126.601-.916 3.402-6.014 3.453-6.874.512-8.747-2.437-15.352-3.921-23.825-1.796-10.248-6.544-15.825-9.126-30.114-.18-.999-.285-2.011-.314-3.027-.077-1.058-.068-1.736.038-1.952h.001c.271-3.979.833-7.582 3.526-10.918 6.978-8.644 19.661-9.996 28.304-3.019 4.953 3.998-.194 10.199-.224 16.108l2.072 1.018c-.006 1.203 2.957 12.892 4.119 13.908 11.679 10.215-1.709 42.628-4.517 49.468-1.198 2.919-2.657 5.367-2.657 5.367-.766 3.304-.22 4.226-.927 12.267-.028.312-.087.617-.145.92-.146 1.153-.361 2.446-.631 3.856zm-25.097-88.171c.004.188.014.562.036.866.004.057.007.114.008.171.024.82.109 1.637.254 2.443 2.583 14.298 7.333 19.88 9.129 30.135 1.54 8.788 4.505 15.655 3.973 24.727-.023.402-.186 1.235-.631 2.271-.84 1.956-2.926 5.712-3.456 6.52-4.029 6.135-4.846 8.545-5.221 13.289-.951 12.034 2.883 26.484.144 57.068-.2 2.238 1.409 4.242 3.646 4.458 2.125.206 4.431-1.101 4.412-3.236-.161-17.863 8.092-43.345 9.557-54.889l.129-.77c.739-8.399.213-9.358 1.013-12.808.092-.393.243-.77.45-1.117 0 0 1.316-2.214 2.399-4.851 1.63-3.97 6.971-16.838 8.521-28.637.479-3.64.6-7.17.049-10.247-.448-2.496-1.315-4.674-3.011-6.158-.459-.401-1.287-1.519-1.955-3.271-1.051-2.761-2.343-7.774-3.025-10.912 0 0-.362-.178-.362-.178-1.343-.66-2.191-2.03-2.184-3.526.014-2.721.899-5.51 1.677-8.155.254-.864.49-1.706.617-2.52.137-.877.187-1.724-.616-2.373-6.966-5.623-17.186-4.532-22.809 2.433-2.142 2.654-2.453 5.564-2.668 8.729-.013.182-.038.362-.076.538z" transform="matrix(.935471 .353403 -.353403 .935471 138.887 -98.0236)"/><path d="m109.078 150.026-19.993-24.766c1.701-1.586 15.081-10.224 19.471-18.46 3.817-7.16 11.81-12.902 15.466-14.894 3.655-1.993 10.948-5.849 13.532-6.896 0 0 7.885 12.307 20.194 25.849 0 0-7.888 6.266-10.618 9.576-.075.09-.149.18-.223.271-6.193 7.52-19.78 16.559-37.829 29.32z" fill="#aaabaf"/><path d="m109.078 150.026-19.993-24.766c1.701-1.586 15.081-10.224 19.471-18.46 3.817-7.16 11.81-12.902 15.466-14.894 3.655-1.993 10.948-5.849 13.532-6.896 0 0 7.885 12.307 20.194 25.849 0 0-7.888 6.266-10.618 9.576-.075.09-.149.18-.223.271-6.193 7.52-19.78 16.559-37.829 29.32zm.741-5.304c16.17-11.375 28.359-19.566 34.071-26.501.075-.091.15-.182.225-.273 1.715-2.079 5.348-5.271 8.014-7.52-7.574-8.659-13.199-16.463-15.961-20.472-3.201 1.579-7.681 3.967-10.276 5.381-3.274 1.785-10.469 6.889-13.887 13.302-3.546 6.651-12.608 13.64-17.387 17.252z"/><path d="m121.866 149.699-24.001-26.888c2.2-3.007 6.386-8.771 11.973-16.014 5.109-6.624 9.916-16.138 16.615-20.291 10.45-6.479 26.542-2.989 29.126-4.036 0 0 .566 15.861 4.408 33.346 0 0-4.379.391-7.172 2.276-.097.066-12.9 18.845-30.949 31.607z" fill="#aaabaf" transform="matrix(.86258 -.50592 .50592 .86258 -38.8469 91.8996)"/><path d="m121.866 149.699-24.001-26.888c2.2-3.007 6.386-8.771 11.973-16.014 5.109-6.624 9.916-16.138 16.615-20.291 10.45-6.479 26.542-2.989 29.126-4.036 0 0 .566 15.861 4.408 33.346 0 0-4.379.391-7.172 2.276-.097.066-12.9 18.845-30.949 31.607zm.548-5.255c14.327-10.951 24.723-25.156 26.827-28.079.766-1.064 1.359-1.492 1.388-1.512 1.42-.958 3.163-1.621 4.735-2.07-2.17-11.031-3.094-20.987-3.465-26.246-.607-.008-1.255-.025-1.937-.054-5.678-.234-14.831-.759-21.45 3.344-2.951 1.83-5.43 4.896-7.789 8.179-2.704 3.762-5.211 7.833-7.791 11.178-4.251 5.511-7.686 10.161-10.046 13.383z" transform="matrix(.86258 -.50592 .50592 .86258 -38.8469 91.8996)"/><g transform="matrix(.916636 .399724 -.399724 .916636 26.545 -82.9694)"><path d="m219.495 3.925s-9.089 4.542-13.711 14.095c-4.492 9.283-6.327 16.598-6.379 25.522-.046 7.945 8.074-2.125 8.074-2.125s3.044-7.849 7.012-14.315c5.57-9.079 5.004-23.177 5.004-23.177z" fill="#996533" transform="matrix(.984868 .173308 -.173308 .984868 4.1051 -37.974)"/><path d="m219.495 3.925s-9.089 4.542-13.711 14.095c-4.492 9.283-6.327 16.598-6.379 25.522-.046 7.945 8.074-2.125 8.074-2.125s3.044-7.849 7.012-14.315c5.57-9.079 5.004-23.177 5.004-23.177zm-4.269 7.887c-2.093 1.96-4.317 4.589-5.924 7.91-3.567 7.372-5.361 13.41-5.849 20.176l.686-.651c.886-2.177 3.632-8.666 7.021-14.189 2.455-4.001 3.569-9.086 4.066-13.246z" transform="matrix(.984868 .173308 -.173308 .984868 4.1051 -37.974)"/><path d="m215.507 28.791c4.095-4.929-4.084-8.124 5.673-19.375 9.756-11.251 23.955 1.53 26.372 7.823.811 2.113.927 6.673.464 9.614-.464 2.941-2.031 2.822-2.631 5.188-.599 2.366 2.492 7.515 1.238 8.769s-3.82 1.022-3.82 1.022c-1.059 3.032-3.474 4.042-3.474 4.042.482 6.557-4.408 6.032-5.712 5.735s-7.563-4.619-7.563-4.619c-9.663 8.96-10.329 17.535-10.329 17.535l-13.009-24.536s8.696-6.27 12.791-11.198z" fill="#feefe7" transform="translate(1.5486 .483777)"/><path d="m215.507 28.791c4.095-4.929-4.084-8.124 5.673-19.375 9.756-11.251 23.955 1.53 26.372 7.823.811 2.113.927 6.673.464 9.614-.464 2.941-2.031 2.822-2.631 5.188-.599 2.366 2.492 7.515 1.238 8.769s-3.82 1.022-3.82 1.022c-1.059 3.032-3.474 4.042-3.474 4.042.482 6.557-4.408 6.032-5.712 5.735s-7.563-4.619-7.563-4.619c-9.663 8.96-10.329 17.535-10.329 17.535l-13.009-24.536s8.696-6.27 12.791-11.198zm19.152 19.023.357.002.307-.009c.022-.065.047-.146.059-.21.081-.396.091-.871.049-1.437 0 0-.716-2.416 2.286-3.846.172-.082.988-.601 1.396-1.771.513-1.469 1.837-2.472 3.346-2.604-.195-.681-.4-1.413-.551-1.967-.504-1.859-.633-3.622-.311-4.891.329-1.298.822-2.185 1.367-2.939.385-.532 1.012-.757 1.191-1.898.367-2.324.39-5.934-.252-7.604-.979-2.551-4.443-6.319-8.555-8.407-3.562-1.809-7.789-2.208-11.216 1.743-2.213 2.552-3.355 4.552-3.827 6.255-.697 2.517.087 4.28.272 5.879.28 2.432.023 4.666-2.064 7.178-2.83 3.407-7.73 7.429-10.787 9.809 0-.001 7.265 13.7 7.265 13.7 1.714-3.196 4.351-6.913 8.406-10.673 1.343-1.246 3.371-1.391 4.878-.35z" transform="translate(1.5486 .483777)"/><path d="m249.726 20.913s2.19-2.766 1.402-5.564-7.59-9.565-12.541-11.671c-4.95-2.106-14.685-1.905-19.092.247-5.973 2.915-9.632 7.73-9.33 16.166.254 7.087-.033 10.537 3.291 13.712 3.802 3.632 7.175-3.393 8.701-4.624s4.979-.798 7.575-.859 3.579-2.391 3.579-2.391 2.647-.05 4.562-1.169c1.916-1.119 2.379-4.089 5.015-4.432 2.636-.344 6.838.585 6.838.585z" fill="#996533"/><path d="m249.726 20.913s2.19-2.766 1.402-5.564-7.59-9.565-12.541-11.671c-4.95-2.106-14.685-1.905-19.092.247-5.973 2.915-9.632 7.73-9.33 16.166.254 7.087-.033 10.537 3.291 13.712 3.802 3.632 7.175-3.393 8.701-4.624s4.979-.798 7.575-.859 3.579-2.391 3.579-2.391 2.647-.05 4.562-1.169c1.916-1.119 2.379-4.089 5.015-4.432 2.636-.344 6.838.585 6.838.585zm-33.954 9.66c.437-.426 1.11-1.106 1.465-1.563.986-1.27 1.865-2.388 2.466-2.872.914-.739 2.138-1.269 3.596-1.525 1.876-.329 4.339-.153 6.342-.2.04-.001.069-.024.09-.051.602-1.379 1.961-2.312 3.507-2.341 0 0 1.55.015 2.664-.635.223-.131.311-.402.467-.62.387-.541.77-1.093 1.197-1.592 1.197-1.401 2.68-2.443 4.817-2.722 1.497-.195 3.417-.059 5.022.137l-.039-.18c-.213-.76-1.229-1.839-2.407-3.085-2.245-2.375-5.342-4.96-7.902-6.049-4.109-1.749-12.189-1.624-15.847.162-4.611 2.25-7.373 6.003-7.14 12.514.098 2.729.106 4.898.293 6.713.165 1.597.455 2.811 1.409 3.909z"/></g><path d="m136.69 90.092s9.413 14.565 20.73 26.549c0 0 15.365-10.588 23.012-16.397 2.258-1.715 7.003-6.056 7.003-6.056 4.455 6.282 14.503 2.687 17.362-3.753 1.941-4.371 2.234-6.951 2.486-12.133.318-6.538 2.799-16.495 1.722-20.771-2.166-8.605-4.169-18.575-4.169-18.575-7.671-1.249-16.543 6.591-25.774 14.2-8.135 6.706-13.086 13.416-20.808 19.893-4.416 3.703-21.564 17.043-21.564 17.043z" fill="#f7acb0" transform="translate(-2.73359 -3.38633)"/><path d="m136.69 90.092s9.413 14.565 20.73 26.549c0 0 15.365-10.588 23.012-16.397 2.258-1.715 7.003-6.056 7.003-6.056 4.455 6.282 14.503 2.687 17.362-3.753 1.941-4.371 2.234-6.951 2.486-12.133.318-6.538 2.799-16.495 1.722-20.771-2.166-8.605-4.169-18.575-4.169-18.575-7.671-1.249-16.543 6.591-25.774 14.2-8.135 6.706-13.086 13.416-20.808 19.893-4.416 3.703-21.564 17.043-21.564 17.043zm5.274.844c2.978 4.334 8.998 12.735 16.027 20.556 4.763-3.31 14.492-10.117 20.077-14.36 2.171-1.649 6.73-5.828 6.73-5.828.827-.756 1.939-1.121 3.053-1.002 1.115.119 2.124.711 2.773 1.625 1.205 1.701 3.223 1.878 5.078 1.38 2.324-.622 4.554-2.274 5.523-4.458 1.716-3.865 1.931-6.155 2.154-10.737.195-3.998 1.173-9.252 1.695-13.756.276-2.378.489-4.491.142-5.871-1.432-5.686-2.793-11.962-3.563-15.622-1.518.275-3.083.943-4.706 1.809-4.9 2.613-10.076 7.112-15.399 11.5-8.126 6.698-13.069 13.402-20.783 19.871-3.305 2.772-13.703 10.914-18.801 14.893z" transform="translate(-2.73359 -3.38633)"/><path d="m504.967 195.208-.014.155c-1.134 13.246 3.947 19.019 8.166 19.147 2.805.085 5.367-.636 7.593-2.016 3.386-2.098 9.666-6.695 12.724-10.576 2.867-3.639 4.915-6.241 5.623-12.71 1.919-3.595 4.827-7.591 5.666-10.833.721-2.789.671-6.519-.633-8.619-1.303-2.1-4.731-3.884-7.188-3.98-2.456-.096-5.318 1.186-7.551 3.404-2.72 2.702-3.502 6.62-3.406 10.843-.937.799-3.593 3.308-4.451 4.522-.672.952-1.329 2.032-1.916 3.071-.524-1.43-1.08-2.859-1.327-4.345-1.218-7.363 1.37-10.738 1.055-16.026-.258-4.339-.853-9.297-8.112-8.808-5.175.348-7.868 5.406-7.61 9.745.384 6.438 4.919 6.638 3.84 13.958 0 0-1.879 6.523-2.459 13.068z" fill="#feefe7" transform="matrix(-.79568644654 -.98568414275 -.98568414275 .79568644654 793.167225432 445.889991922)"/><path d="m504.813 197.721c.024-.758.07-1.544.14-2.358.565-6.597 2.473-13.223 2.473-13.223 1.079-7.32-3.456-7.52-3.84-13.958-.258-4.339 2.435-9.397 7.61-9.745 7.259-.489 7.854 4.469 8.112 8.808.315 5.288-2.273 8.663-1.055 16.026.247 1.486.803 2.915 1.327 4.345.587-1.039 1.244-2.119 1.916-3.071.858-1.214 3.514-3.723 4.451-4.522-.096-4.223.686-8.141 3.406-10.843 2.233-2.218 5.095-3.5 7.551-3.404 2.457.096 5.885 1.88 7.188 3.98 1.304 2.1 1.354 5.83.633 8.619-.839 3.242-3.747 7.238-5.666 10.833-.708 6.469-2.756 9.071-5.623 12.71-3.058 3.881-9.338 8.478-12.724 10.576-2.226 1.38-4.788 2.101-7.593 2.016-2.086-.063-4.382-1.506-6.034-4.549l-.04-.073-.004-.008c-.06-.113-.119-.228-.178-.345l-.011-.023-.025-.049c-1.301-2.645-2.135-6.382-2.025-11.336l.001-.051.004-.145.004-.145zm15.91-5.573c.709-1.446 1.982-3.899 3.326-5.8.752-1.064 3.103-3.246 3.925-3.946.716-.61 1.119-1.51 1.097-2.45-.075-3.31.352-6.437 2.484-8.555 1.562-1.551 3.509-2.565 5.227-2.498 1.581.062 3.816 1.154 4.655 2.505.934 1.505.78 4.19.262 6.188-.788 3.048-3.593 6.766-5.397 10.145-.187.351-.306.736-.349 1.131-.62 5.668-2.46 7.928-4.972 11.116-2.857 3.626-8.751 7.893-11.915 9.854-1.715 1.063-3.691 1.614-5.852 1.549-1.253-.038-2.443-1.148-3.426-2.998-.351-.661-.662-1.406-.925-2.239l-.02-.064-.021-.067-.013-.044-.02-.067-.02-.067-.019-.065c-.006-.021-.012-.042-.018-.063l-.02-.069-.019-.069-.011-.041-.008-.029-.011-.04-.018-.07-.019-.07-.017-.066-.018-.072-.017-.067-.029-.12-.004-.016-.029-.125-.029-.127-.004-.014-.026-.123-.005-.02-.026-.124-.003-.014-.027-.132-.026-.127-.004-.022-.024-.124-.004-.022-.023-.13-.024-.133-.003-.02-.022-.127-.004-.026-.021-.128-.003-.019-.02-.128-.002-.012-.019-.132-.004-.026-.019-.13-.003-.026-.018-.135-.002-.011-.017-.13-.003-.024-.016-.133-.003-.029-.016-.134-.003-.024-.014-.13-.002-.016-.014-.138-.003-.031-.013-.135-.003-.031-.013-.14-.001-.016-.011-.132-.003-.029-.01-.138-.003-.035-.01-.138-.002-.03-.009-.132-.001-.021-.009-.142-.002-.036-.008-.14-.002-.037-.007-.144-.001-.024-.006-.131-.001-.035-.006-.142-.001-.041-.005-.142-.001-.038-.003-.13-.001-.029-.003-.145-.001-.044-.002-.142-.001-.045-.002-.146v-.034-.127l-.001-.044v-.143-.051l.001-.144.001-.048.001-.124.001-.051.002-.134.001-.055.002-.142.002-.057.004-.148.001-.046.004-.116.001-.057.005-.142.003-.064c.025-.635.066-1.293.124-1.972.539-6.298 2.362-12.624 2.362-12.624.039-.135.068-.271.088-.409.692-4.687-.432-7.091-1.773-9.357-.83-1.404-1.886-2.69-2.038-5.243-.167-2.798 1.362-6.217 4.699-6.441 1.699-.115 2.826.069 3.514.747.475.469.695 1.112.861 1.785.264 1.068.342 2.231.409 3.344.141 2.367-.411 4.301-.818 6.472-.512 2.725-.885 5.741-.201 9.878.279 1.681.887 3.304 1.48 4.921.425 1.16.856 2.314.946 3.526.325 4.366-1.524 7.388-1.524 7.388-.126.197-.227.405-.305.621 0 0 .149.863.883 1.304.84.505 1.911 0 1.911 0s2.517-3.971 2.162-9.393z" transform="matrix(-.79568644654 -.98568414275 -.98568414275 .79568644654 793.167225432 445.889991922)"/><path d="m170.381 304.335h12.004v72.188h-12.004z" fill="#d2d3d5" transform="matrix(-.554079 -.686385 -.686385 .554079 328.59113913 106.02496530593)"/><path d="m182.385 304.335h-12.004v72.188h12.004zm-4.726 4.726v62.736h-2.552v-62.736z" transform="matrix(-.554079 -.686385 -.686385 .554079 328.59113913 106.02496530593)"/><path d="m170.381 304.335h12.004v72.188h-12.004z" fill="#d2d3d5" transform="matrix(-.554079 -.686385 -.686385 .554079 285.871977907 53.105090205)"/><path d="m182.385 304.335h-12.004v72.188h12.004zm-4.726 4.726v62.736h-2.552v-62.736z" transform="matrix(-.554079 -.686385 -.686385 .554079 285.871977907 53.105090205)"/><path d="m170.381 304.335h12.004v72.188h-12.004z" fill="#d2d3d5" transform="matrix(-.42119257119 -.5217672263 -.29696378387 .23972172527 153.601192549 131.734260345)"/><path d="m170.381 304.335h12.004v72.188h-12.004z" transform="matrix(-.42119257119 -.5217672263 -.29696378387 .23972172527 153.601192549 131.734260345)"/><path d="m170.381 304.335h12.004v72.188h-12.004z" fill="#d2d3d5" transform="matrix(-.42119257119 -.5217672263 -.29696378387 .23972172527 176.954514241 160.664015325)"/><path d="m170.381 304.335h12.004v72.188h-12.004z" transform="matrix(-.42119257119 -.5217672263 -.29696378387 .23972172527 176.954514241 160.664015325)"/><path d="m265.016 295.482-15.988-114.795h-73.139l-11.869 114.795v54.929h100.996z" fill="#f68634" transform="matrix(-.5586224478 -.692013357 -.17375287167 .14026066622 177.86267773195 229.22372542125)"/><path d="m265.016 295.482-15.988-114.795h-73.139l-11.869 114.795v54.929h100.996zm-4.687 4.831v31.429h-91.622v-32.567s10.321-99.819 10.321-99.819h67.24z" transform="matrix(-.5586224478 -.692013357 -.17375287167 .14026066622 177.86267773195 229.22372542125)"/><g transform="matrix(-.5586224478 -.692013357 -.7148287944 .57704003376 337.73993343445 100.16404322775)"><path d="m164.02 295.482h100.996v13.352h-100.996z" fill="#f68634"/><path d="m265.016 295.482h-100.996v13.351h100.996zm-4.687 4.538v4.276h-91.622v-4.276z"/></g></g><g transform="matrix(-.4411468052 -.66691601726 -.66691601726 .4411468052 434.36896169575 222.00685444158)"><path d="m24.326 190.653s-5.329-2.189-9.887-.797c-2.747.839-5.245 2.644-5.245 2.644s-3.888.286-6.763 3.211c-1.576 1.604-.117 6.119 2.202 9.439s5.991 7.202 7.488 9.799c1.573 2.732 2.406 5.296 3.944 7.755 1.867 2.981 4.954 7.253 7.254 10.136 2.268 2.842 5.984 6.369 8.056 5.696 5.446-1.769 4.099-6.388 3.262-9.37-.724-2.582-2.044-5.042-2.424-7.709-.441-3.093-.343-5.501-.22-10.853.115-5.017.109-7.142.109-7.142z" fill="#4b4b4d"/><path d="m24.326 190.653s-5.329-2.189-9.887-.797c-2.747.839-5.245 2.644-5.245 2.644s-3.888.286-6.763 3.211c-1.576 1.604-.117 6.119 2.202 9.439s5.991 7.202 7.488 9.799c1.573 2.732 2.406 5.296 3.944 7.755 1.867 2.981 4.954 7.253 7.254 10.136 2.268 2.842 5.984 6.369 8.056 5.696 5.446-1.769 4.099-6.388 3.262-9.37-.724-2.582-2.044-5.042-2.424-7.709-.441-3.093-.343-5.501-.22-10.853.115-5.017.109-7.142.109-7.142zm-18.594 7.329c.061.402.184 1.087.354 1.567.402 1.134 1.024 2.323 1.751 3.363 2.382 3.412 6.133 7.418 7.67 10.087 1.547 2.686 2.358 5.213 3.871 7.631 1.8 2.875 4.778 6.993 6.996 9.773 1.121 1.405 3.69 3.498 4.5 4.143.208-.104.374-.225.489-.382.312-.424.164-.965.096-1.465-.121-.882-.377-1.739-.585-2.477-.77-2.746-2.126-5.377-2.53-8.213-.467-3.277-.389-5.826-.258-11.495.067-2.949.093-4.885.102-5.967 0-.001-6.484-10.681-6.484-10.681h-.001c-1.406-.427-3.889-.955-6.123-.273-2.148.656-4.097 2.074-4.097 2.074-.587.425-1.28.677-2.003.731 0 0-2.017.168-3.748 1.584z"/><path d="m11.768 195.414s-5.039 5.837.349 12.914c.653.859.487 2.086-.371 2.739s-2.085.487-2.738-.371c-7.454-9.792-.166-17.873-.166-17.873.715-.808 1.951-.883 2.759-.168.807.716.882 1.952.167 2.759z"/></g><path d="m40.774 269.705c-1.445-8.477.8-15.879 4.55-17.526 0 0 10.94 4.078 17.951 7.646 5.55 2.826 12.537 6.216 15.125 9.862 2.319 3.269.4 12.017.4 12.017.44 3.084-1.558 8.443-2.163 12.692-1.495 10.505-6.966 32.642-6.806 50.337.04 4.396-4.321 7.585-8.697 7.161s-7.554-4.318-7.161-8.697c2.825-31.543-1.935-41.617-1.173-53.196.378-5.741 2.36-9.157 5.749-16.275.47-.989-17.145-.328-17.775-4.021z" fill="#feefe7" transform="matrix(-.7843059137 .15573097966 .15573097966 .7843059137 285.319071732 11.66461210415)"/><path d="m40.774 269.705c-1.445-8.477.8-15.879 4.55-17.526 0 0 10.94 4.078 17.951 7.646 5.55 2.826 12.537 6.216 15.125 9.862 2.319 3.269.4 12.017.4 12.017.44 3.084-1.558 8.443-2.163 12.692-1.495 10.505-6.966 32.642-6.806 50.337.04 4.396-4.321 7.585-8.697 7.161s-7.554-4.318-7.161-8.697c2.825-31.543-1.935-41.617-1.173-53.196.378-5.741 2.36-9.157 5.749-16.275.47-.989-17.145-.328-17.775-4.021zm3.669-1.919c.662.198 1.732.497 2.599.636 4.626.744 10.558.866 12.114 1.266 1.586.408 2.332 1.314 2.663 1.822.804 1.235.908 2.531.258 3.896-3.1 6.514-5.031 9.598-5.377 14.852-.764 11.599 3.995 21.691 1.165 53.288-.2 2.238 1.409 4.242 3.646 4.458 2.125.206 4.431-1.101 4.412-3.236-.162-17.899 5.333-40.296 6.845-50.922.317-2.227.989-4.746 1.534-7.111.395-1.715.796-3.307.629-4.48-.066-.462-.048-.932.052-1.388 0 0 .607-2.767.652-5.6.02-1.25.117-2.559-.422-3.318-.802-1.13-2.196-2.175-3.799-3.227-2.991-1.96-6.703-3.78-9.912-5.414-5.007-2.549-12.066-5.36-15.503-6.689-.253.405-.467.907-.683 1.448-.996 2.494-1.347 5.942-.873 9.719z" transform="matrix(-.7843059137 .15573097966 .15573097966 .7843059137 285.319071732 11.66461210415)"/><g transform="matrix(.22414121121 -.76755988307 -.76755988307 -.22414121121 376.70003080916 360.16261916429)"><path d="m23.278 190.268s-4.281-1.804-8.839-.412c-2.747.839-5.245 2.644-5.245 2.644s-3.888.286-6.763 3.211c-1.576 1.604-.117 6.119 2.202 9.439s5.991 7.202 7.488 9.799c1.573 2.732 2.406 5.296 3.944 7.755 1.867 2.981 4.954 7.253 7.254 10.136 2.268 2.842 5.984 6.369 8.056 5.696 5.446-1.769 4.099-6.388 3.262-9.37-.724-2.582-2.044-5.042-2.424-7.709-.441-3.093-.343-5.501-.22-10.853.115-5.017.109-7.142.109-7.142z" fill="#4b4b4d"/><path d="m23.278 190.268s-4.281-1.804-8.839-.412c-2.747.839-5.245 2.644-5.245 2.644s-3.888.286-6.763 3.211c-1.576 1.604-.117 6.119 2.202 9.439s5.991 7.202 7.488 9.799c1.573 2.732 2.406 5.296 3.944 7.755 1.867 2.981 4.954 7.253 7.254 10.136 2.268 2.842 5.984 6.369 8.056 5.696 5.446-1.769 4.099-6.388 3.262-9.37-.724-2.582-2.044-5.042-2.424-7.709-.441-3.093-.343-5.501-.22-10.853.115-5.017.109-7.142.109-7.142zm-17.546 7.714c.061.402.184 1.087.354 1.567.402 1.134 1.024 2.323 1.751 3.363 2.382 3.412 6.133 7.418 7.67 10.087 1.547 2.686 2.358 5.213 3.871 7.631 1.8 2.875 4.778 6.993 6.996 9.773 1.121 1.405 3.69 3.498 4.5 4.143.208-.104.374-.225.489-.382.312-.424.164-.965.096-1.465-.121-.882-.377-1.739-.585-2.477-.77-2.746-2.126-5.377-2.53-8.213-.467-3.277-.389-5.826-.258-11.495.066-2.866.091-4.775.102-5.874 0-.001-7.411-11.081-7.411-11.081l-.001-.001c-1.14-.291-3.127-.596-5.196.035-2.148.656-4.097 2.074-4.097 2.074-.587.425-1.28.677-2.003.731 0 0-2.017.168-3.748 1.584z"/><path d="m12.375 195.146s-5.998 5.661-.678 12.649c.653.858.487 2.085-.371 2.738-.859.654-2.086.487-2.739-.371-7.521-9.88 1.122-17.874 1.122-17.874.789-.735 2.026-.692 2.762.096.736.789.692 2.027-.096 2.762z"/></g><path d="m61.103 263.469c.513-8.746-3.405-15.089-4.889-23.561-1.795-10.249-3.551-15.388-6.133-29.677-.18-.999-.285-2.011-.314-3.027-.077-1.058-.068-1.736.038-1.952h.001c.271-3.979.833-7.582 3.526-10.918 6.978-8.644 19.661-9.996 28.304-3.019 4.953 3.998-.194 10.199-.224 16.108l2.072 1.018c-.006 1.203 3.62 12.448 4.119 13.908 5.041 14.764-1.709 42.628-4.517 49.468-1.198 2.919-2.94 5.497-2.94 5.497-.537 3.053.063 4.096-.644 12.137-.028.312-.087.617-.145.92-1.451 11.435-9.686 36.667-9.526 54.362.04 4.396-4.321 7.585-8.697 7.161s-7.554-4.318-7.161-8.697c2.737-30.562-1.098-45.001-.148-57.027.426-5.389 1.274-8.157 5.85-15.126.601-.916 1.378-6.715 1.428-7.575z" fill="#feefe7" transform="matrix(-.51652090071 -.61040425846 -.61040425846 .51652090071 473.29301485809 155.27426888988)"/><path d="m61.103 263.469c.513-8.746-3.405-15.089-4.889-23.561-1.795-10.249-3.551-15.388-6.133-29.677-.18-.999-.285-2.011-.314-3.027-.077-1.058-.068-1.736.038-1.952h.001c.271-3.979.833-7.582 3.526-10.918 6.978-8.644 19.661-9.996 28.304-3.019 4.953 3.998-.194 10.199-.224 16.108l2.072 1.018c-.006 1.203 3.62 12.448 4.119 13.908 5.041 14.764-1.709 42.628-4.517 49.468-1.198 2.919-2.94 5.497-2.94 5.497-.537 3.053.063 4.096-.644 12.137-.028.312-.087.617-.145.92-1.451 11.435-9.686 36.667-9.526 54.362.04 4.396-4.321 7.585-8.697 7.161s-7.554-4.318-7.161-8.697c2.737-30.562-1.098-45.001-.148-57.027.426-5.389 1.274-8.157 5.85-15.126.601-.916 1.378-6.715 1.428-7.575zm-7.474-57.415c.004.188.014.563.036.868.004.057.007.114.008.171.024.82.109 1.637.254 2.443 2.583 14.299 4.34 19.442 6.137 29.698 1.539 8.787 5.472 15.392 4.941 24.464-.045.766-.604 5.054-1.17 7.26-.272 1.062-.635 1.839-.893 2.231-4.029 6.135-4.846 8.545-5.221 13.289-.951 12.034 2.883 26.484.144 57.068-.2 2.238 1.409 4.242 3.646 4.458 2.125.206 4.431-1.101 4.412-3.236-.161-17.863 8.092-43.345 9.557-54.889l.129-.77c.727-8.264.136-9.335.688-12.472.095-.541.303-1.056.611-1.511 0 0 1.518-2.248 2.563-4.793 2.653-6.462 9.196-32.772 4.433-46.721-.407-1.193-2.858-8.782-3.819-12.399-.009-.034-.018-.067-.026-.101 0 0-.371-.182-.371-.182-1.343-.66-2.191-2.03-2.184-3.526.014-2.721.899-5.51 1.677-8.155.254-.864.49-1.706.617-2.52.137-.877.187-1.724-.616-2.373-6.966-5.623-17.186-4.532-22.809 2.433-2.142 2.654-2.453 5.564-2.668 8.729-.013.182-.038.361-.076.536z" transform="matrix(-.51652090071 -.61040425846 -.61040425846 .51652090071 473.29301485809 155.27426888988)"/><path d="m121.424 146.541-22.491-30.726c2.909-3.479 5.16-5.724 10.726-12.358 5.377-6.409 11.747-13.385 16.794-16.951 3.865-2.731 7.029-5.133 13.485-4.444 5.966.637 16.345 4.836 22.408 7.274 0 0-6.201 8.995-2.359 26.48 0 0-5.623-.086-8.416 1.799-.097.066-12.098 16.165-30.147 28.926z" fill="#aaabaf" transform="matrix(.15052331343 -.78532227174 -.78532227174 -.15052331343 377.71417397635 340.00545079277)"/><path d="m121.424 146.541-22.491-30.726c2.909-3.479 5.16-5.724 10.726-12.358 5.377-6.409 11.747-13.385 16.794-16.951 3.865-2.731 7.029-5.133 13.485-4.444 5.966.637 16.345 4.836 22.408 7.274 0 0-6.201 8.995-2.359 26.48 0 0-5.623-.086-8.416 1.799-.097.066-12.098 16.165-30.147 28.926zm.846-5.461c14.132-10.696 23.872-22.884 25.848-25.398.718-.913 1.238-1.287 1.267-1.306 1.601-1.081 3.925-1.689 5.995-2.03-1.435-9.835.123-16.84 1.645-20.934-5.68-2.258-12.937-4.976-17.502-5.464-5.205-.555-7.699 1.548-10.815 3.75-4.834 3.416-10.904 10.131-16.055 16.271-4.26 5.078-6.578 7.583-8.735 10.039 0 0 18.352 25.072 18.352 25.072z" transform="matrix(.15052331343 -.78532227174 -.78532227174 -.15052331343 377.71417397635 340.00545079277)"/><g transform="matrix(-.76124946276 -.24471868711 -.24471868711 .76124946276 486.75261259892 157.18303942344)"><path d="m219.495 3.925s-9.089 4.542-13.711 14.095c-4.492 9.283-6.327 16.598-6.379 25.522-.046 7.945 8.074-2.125 8.074-2.125s3.044-7.849 7.012-14.315c5.57-9.079 5.004-23.177 5.004-23.177z" fill="#996533" transform="matrix(.984868 .173308 -.173308 .984868 4.1051 -37.974)"/><path d="m219.495 3.925s-9.089 4.542-13.711 14.095c-4.492 9.283-6.327 16.598-6.379 25.522-.046 7.945 8.074-2.125 8.074-2.125s3.044-7.849 7.012-14.315c5.57-9.079 5.004-23.177 5.004-23.177zm-4.269 7.887c-2.093 1.96-4.317 4.589-5.924 7.91-3.567 7.372-5.361 13.41-5.849 20.176l.686-.651c.886-2.177 3.632-8.666 7.021-14.189 2.455-4.001 3.569-9.086 4.066-13.246z" transform="matrix(.984868 .173308 -.173308 .984868 4.1051 -37.974)"/><path d="m215.808 28.534c4.095-4.928-4.385-7.867 5.372-19.118 9.756-11.251 23.955 1.53 26.372 7.823.811 2.113.927 6.673.464 9.614-.464 2.941-2.031 2.822-2.631 5.188-.599 2.366 2.492 7.515 1.238 8.769s-3.82 1.022-3.82 1.022c-1.059 3.032-3.474 4.042-3.474 4.042.482 6.557-4.408 6.032-5.712 5.735s-7.563-4.619-7.563-4.619c-9.663 8.96-10.329 17.535-10.329 17.535l-13.009-24.536s8.997-6.526 13.092-11.455z" fill="#feefe7" transform="translate(1.5486 .483777)"/><path d="m215.808 28.534c4.095-4.928-4.385-7.867 5.372-19.118 9.756-11.251 23.955 1.53 26.372 7.823.811 2.113.927 6.673.464 9.614-.464 2.941-2.031 2.822-2.631 5.188-.599 2.366 2.492 7.515 1.238 8.769s-3.82 1.022-3.82 1.022c-1.059 3.032-3.474 4.042-3.474 4.042.482 6.557-4.408 6.032-5.712 5.735s-7.563-4.619-7.563-4.619c-9.663 8.96-10.329 17.535-10.329 17.535l-13.009-24.536s8.997-6.526 13.092-11.455zm18.851 19.28.357.002.307-.009c.022-.065.047-.146.059-.21.081-.396.091-.871.049-1.437 0 0-.928-2.315 2.286-3.846.172-.082.988-.601 1.396-1.771.513-1.469 1.837-2.472 3.346-2.604-.195-.681-.4-1.413-.551-1.967-.504-1.859-.633-3.622-.311-4.891.329-1.298.822-2.185 1.367-2.939.385-.532 1.012-.757 1.191-1.898.367-2.324.39-5.934-.252-7.604-.979-2.551-4.443-6.319-8.555-8.407-3.562-1.809-7.789-2.208-11.216 1.743-2.195 2.532-3.316 4.496-3.757 6.162-.646 2.441.199 4.121.422 5.658.353 2.426.148 4.671-1.984 7.236-2.853 3.434-7.951 7.614-11.089 10.06 0 0 7.267 13.705 7.267 13.705 1.714-3.196 4.351-6.913 8.406-10.673 1.343-1.246 3.371-1.391 4.878-.35z" transform="translate(1.5486 .483777)"/><path d="m249.726 20.913s2.19-2.766 1.402-5.564-7.59-9.565-12.541-11.671c-4.95-2.106-14.685-1.905-19.092.247-5.973 2.915-9.632 7.73-9.33 16.166.254 7.087-.033 10.537 3.291 13.712 3.802 3.632 7.175-3.393 8.701-4.624s4.979-.798 7.575-.859 3.579-2.391 3.579-2.391 2.647-.05 4.562-1.169c1.916-1.119 2.379-4.089 5.015-4.432 2.636-.344 6.838.585 6.838.585z" fill="#996533"/><path d="m249.726 20.913s2.19-2.766 1.402-5.564-7.59-9.565-12.541-11.671c-4.95-2.106-14.685-1.905-19.092.247-5.973 2.915-9.632 7.73-9.33 16.166.254 7.087-.033 10.537 3.291 13.712 3.802 3.632 7.175-3.393 8.701-4.624s4.979-.798 7.575-.859 3.579-2.391 3.579-2.391 2.647-.05 4.562-1.169c1.916-1.119 2.379-4.089 5.015-4.432 2.636-.344 6.838.585 6.838.585zm-19.967 3.39.017-.039v.003l-.017.036-.028.058c.017-.021.028-.045.035-.064l.01-.03c.616-1.319 1.942-2.218 3.462-2.246 0 0 1.55.015 2.664-.635.223-.131.311-.402.467-.62.387-.541.77-1.093 1.197-1.592 1.197-1.401 2.68-2.443 4.817-2.722 1.497-.195 3.417-.059 5.022.137l-.039-.18c-.213-.76-1.229-1.839-2.407-3.085-2.245-2.375-5.342-4.96-7.902-6.049-4.109-1.749-12.189-1.624-15.847.162-4.611 2.25-7.373 6.003-7.14 12.514.098 2.729.106 4.898.293 6.713.165 1.597.455 2.811 1.409 3.909.437-.426 1.11-1.106 1.465-1.563.986-1.27 1.865-2.388 2.466-2.872.914-.739 2.138-1.269 3.596-1.525 1.876-.329 4.339-.153 6.342-.2.038-.001.067-.022.088-.048z"/></g><path d="m134.433 91.895s13.408 11.83 25.708 23.103c0 0 12.644-8.945 20.291-14.754 2.258-1.715 7.003-6.056 7.003-6.056 4.455 6.282 14.503 2.687 17.362-3.753 1.941-4.371 2.234-6.951 2.486-12.133.318-6.538 2.799-16.495 1.722-20.771-2.166-8.605-4.169-18.575-4.169-18.575-7.671-1.249-16.543 6.591-25.774 14.2-8.135 6.706-13.086 13.416-20.808 19.893-4.416 3.703-23.821 18.846-23.821 18.846z" fill="#f7acb0" transform="matrix(-.5999687984 -.52860721202 -.52860721202 .5999687984 462.25077995382 220.40712613846)"/><path d="m134.433 91.895s13.408 11.83 25.708 23.103c0 0 12.644-8.945 20.291-14.754 2.258-1.715 7.003-6.056 7.003-6.056 4.455 6.282 14.503 2.687 17.362-3.753 1.941-4.371 2.234-6.951 2.486-12.133.318-6.538 2.799-16.495 1.722-20.771-2.166-8.605-4.169-18.575-4.169-18.575-7.671-1.249-16.543 6.591-25.774 14.2-8.135 6.706-13.086 13.416-20.808 19.893-4.416 3.703-23.821 18.846-23.821 18.846zm6.105.188c4.363 3.876 12.176 10.846 19.911 17.901 4.078-2.907 12.139-8.689 17.619-12.852 2.171-1.649 6.73-5.828 6.73-5.828.827-.756 1.939-1.121 3.053-1.002 1.115.119 2.124.711 2.773 1.625 1.205 1.701 3.223 1.878 5.078 1.38 2.324-.622 4.554-2.274 5.523-4.458 1.716-3.865 1.931-6.155 2.154-10.737.195-3.998 1.173-9.252 1.695-13.756.276-2.378.489-4.491.142-5.871-1.432-5.686-2.793-11.962-3.563-15.622-1.518.275-3.083.943-4.706 1.809-4.9 2.613-10.076 7.112-15.399 11.5-8.126 6.698-13.069 13.402-20.783 19.871-3.216 2.698-14.35 11.439-20.227 16.04z" transform="matrix(-.5999687984 -.52860721202 -.52860721202 .5999687984 462.25077995382 220.40712613846)"/><path d="m504.967 195.208-.014.155c-1.134 13.246 3.947 19.019 8.166 19.147 2.805.085 5.367-.636 7.593-2.016 3.386-2.098 9.666-6.695 12.724-10.576 2.867-3.639 4.915-6.241 5.623-12.71 1.919-3.595 4.827-7.591 5.666-10.833.721-2.789.671-6.519-.633-8.619-1.303-2.1-4.731-3.884-7.188-3.98-2.456-.096-5.318 1.186-7.551 3.404-2.72 2.702-3.502 6.62-3.406 10.843-.937.799-3.593 3.308-4.451 4.522-.672.952-1.329 2.032-1.916 3.071-.524-1.43-1.08-2.859-1.327-4.345-1.218-7.363 1.37-10.738 1.055-16.026-.258-4.339-.853-9.297-8.112-8.808-5.175.348-7.868 5.406-7.61 9.745.384 6.438 4.919 6.638 3.84 13.958 0 0-1.879 6.523-2.459 13.068z" fill="#feefe7" transform="matrix(.99980176118 -.16252602936 .16252602936 .99980176118 -251.99206586637 64.67588344246)"/><path d="m504.813 197.721c.024-.758.07-1.544.14-2.358.565-6.597 2.473-13.223 2.473-13.223 1.079-7.32-3.456-7.52-3.84-13.958-.258-4.339 2.435-9.397 7.61-9.745 7.259-.489 7.854 4.469 8.112 8.808.315 5.288-2.273 8.663-1.055 16.026.247 1.486.803 2.915 1.327 4.345.587-1.039 1.244-2.119 1.916-3.071.858-1.214 3.514-3.723 4.451-4.522-.096-4.223.686-8.141 3.406-10.843 2.233-2.218 5.095-3.5 7.551-3.404 2.457.096 5.885 1.88 7.188 3.98 1.304 2.1 1.354 5.83.633 8.619-.839 3.242-3.747 7.238-5.666 10.833-.708 6.469-2.756 9.071-5.623 12.71-3.058 3.881-9.338 8.478-12.724 10.576-2.226 1.38-4.788 2.101-7.593 2.016-2.086-.063-4.382-1.506-6.034-4.549l-.04-.073-.004-.008c-.06-.113-.119-.228-.178-.345l-.011-.023-.025-.049c-1.301-2.645-2.135-6.382-2.025-11.336l.001-.051.004-.145.004-.145zm15.91-5.573c.709-1.446 1.982-3.899 3.326-5.8.752-1.064 3.103-3.246 3.925-3.946.716-.61 1.119-1.51 1.097-2.45-.075-3.31.352-6.437 2.484-8.555 1.562-1.551 3.509-2.565 5.227-2.498 1.581.062 3.816 1.154 4.655 2.505.934 1.505.78 4.19.262 6.188-.788 3.048-3.593 6.766-5.397 10.145-.187.351-.306.736-.349 1.131-.62 5.668-2.46 7.928-4.972 11.116-2.857 3.626-8.751 7.893-11.915 9.854-1.715 1.063-3.691 1.614-5.852 1.549-1.253-.038-2.443-1.148-3.426-2.998-.351-.661-.662-1.406-.925-2.239l-.02-.064-.021-.067-.013-.044-.02-.067-.02-.067-.019-.065c-.006-.021-.012-.042-.018-.063l-.02-.069-.019-.069-.011-.041-.008-.029-.011-.04-.018-.07-.019-.07-.017-.066-.018-.072-.017-.067-.029-.12-.004-.016-.029-.125-.029-.127-.004-.014-.026-.123-.005-.02-.026-.124-.003-.014-.027-.132-.026-.127-.004-.022-.024-.124-.004-.022-.023-.13-.024-.133-.003-.02-.022-.127-.004-.026-.021-.128-.003-.019-.02-.128-.002-.012-.019-.132-.004-.026-.019-.13-.003-.026-.018-.135-.002-.011-.017-.13-.003-.024-.016-.133-.003-.029-.016-.134-.003-.024-.014-.13-.002-.016-.014-.138-.003-.031-.013-.135-.003-.031-.013-.14-.001-.016-.011-.132-.003-.029-.01-.138-.003-.035-.01-.138-.002-.03-.009-.132-.001-.021-.009-.142-.002-.036-.008-.14-.002-.037-.007-.144-.001-.024-.006-.131-.001-.035-.006-.142-.001-.041-.005-.142-.001-.038-.003-.13-.001-.029-.003-.145-.001-.044-.002-.142-.001-.045-.002-.146v-.034-.127l-.001-.044v-.143-.051l.001-.144.001-.048.001-.124.001-.051.002-.134.001-.055.002-.142.002-.057.004-.148.001-.046.004-.116.001-.057.005-.142.003-.064c.025-.635.066-1.293.124-1.972.539-6.298 2.362-12.624 2.362-12.624.039-.135.068-.271.088-.409.692-4.687-.432-7.091-1.773-9.357-.83-1.404-1.886-2.69-2.038-5.243-.167-2.798 1.362-6.217 4.699-6.441 1.699-.115 2.826.069 3.514.747.475.469.695 1.112.861 1.785.264 1.068.342 2.231.409 3.344.141 2.367-.411 4.301-.818 6.472-.512 2.725-.885 5.741-.201 9.878.279 1.681.887 3.304 1.48 4.921.425 1.16.856 2.314.946 3.526.325 4.366-1.524 7.388-1.524 7.388-.126.197-.227.405-.305.621 0 0 .149.863.883 1.304.84.505 1.911 0 1.911 0s2.517-3.971 2.162-9.393z" transform="matrix(.99980176118 -.16252602936 .16252602936 .99980176118 -251.99206586637 64.67588344246)"/><path d="m170.381 304.335h12.004v72.188h-12.004z" fill="#d2d3d5" transform="matrix(.70535476604 -.00000085914 .00000085914 .70535476604 188.63029647266 57.01751158904)"/><path d="m182.385 304.335h-12.004v72.188h12.004zm-4.726 4.726v62.736h-2.552v-62.736z" transform="matrix(.70535476604 -.00000085914 .00000085914 .70535476604 188.63029647266 57.01751158904)"/><path d="m170.381 304.335h12.004v72.188h-12.004z" fill="#d2d3d5" transform="matrix(.70535476604 -.00000085914 .00000085914 .70535476604 243.01272924809 57.01744535009)"/><path d="m182.385 304.335h-12.004v72.188h12.004zm-4.726 4.726v62.736h-2.552v-62.736z" transform="matrix(.70535476604 -.00000085914 .00000085914 .70535476604 243.01272924809 57.01744535009)"/><path d="m170.381 304.335h12.004v72.188h-12.004z" fill="#d2d3d5" transform="matrix(.53618741643 -.00000065309 .0000003717 .30517103417 260.5247203674 178.80750469823)"/><path d="m170.381 304.335h12.004v72.188h-12.004z" transform="matrix(.53618741643 -.00000065309 .0000003717 .30517103417 260.5247203674 178.80750469823)"/><path d="m170.381 304.335h12.004v72.188h-12.004z" fill="#d2d3d5" transform="matrix(.53618741643 -.00000065309 .0000003717 .30517103417 230.79542768843 178.80754090914)"/><path d="m170.381 304.335h12.004v72.188h-12.004z" transform="matrix(.53618741643 -.00000065309 .0000003717 .30517103417 230.79542768843 178.80754090914)"/><path d="m265.016 295.482-15.988-114.795h-73.139l-11.869 114.795v54.929h100.996z" fill="#f68634" transform="matrix(.71113867512 -.00000086618 .00000021748 .17855491618 187.6820343102 212.67731857782)"/><path d="m265.016 295.482-15.988-114.795h-73.139l-11.869 114.795v54.929h100.996zm-4.687 4.831v31.429h-91.622v-32.567s10.321-99.819 10.321-99.819h67.24z" transform="matrix(.71113867512 -.00000086618 .00000021748 .17855491618 187.6820343102 212.67731857782)"/><path d="m164.02 295.482h100.996v13.352h-100.996z" fill="#f68634" transform="matrix(.71113867512 -.00000086618 .00000089474 .73458466754 187.68183419443 48.38150166629)"/><path d="m265.016 295.482h-100.996v13.351h100.996zm-4.687 4.538v4.276h-91.622v-4.276z" transform="matrix(.71113867512 -.00000086618 .00000089474 .73458466754 187.68183419443 48.38150166629)"/><path d="m170.381 304.335h12.004v72.188h-12.004z" fill="#d2d3d5" transform="matrix(.70535476604 -.00000085914 .00000085914 .70535476604 373.24511446666 57.01845497904)"/><path d="m182.385 304.335h-12.004v72.188h12.004zm-4.726 4.726v62.736h-2.552v-62.736z" transform="matrix(.70535476604 -.00000085914 .00000085914 .70535476604 373.24511446666 57.01845497904)"/><path d="m170.381 304.335h12.004v72.188h-12.004z" fill="#d2d3d5" transform="matrix(.70535476604 -.00000085914 .00000085914 .70535476604 427.62754724209 57.01838874009)"/><path d="m182.385 304.335h-12.004v72.188h12.004zm-4.726 4.726v62.736h-2.552v-62.736z" transform="matrix(.70535476604 -.00000085914 .00000085914 .70535476604 427.62754724209 57.01838874009)"/><path d="m170.381 304.335h12.004v72.188h-12.004z" fill="#d2d3d5" transform="matrix(.53618741643 -.00000065309 .0000003717 .30517103417 445.1395383614 178.80844808823)"/><path d="m170.381 304.335h12.004v72.188h-12.004z" transform="matrix(.53618741643 -.00000065309 .0000003717 .30517103417 445.1395383614 178.80844808823)"/><path d="m170.381 304.335h12.004v72.188h-12.004z" fill="#d2d3d5" transform="matrix(.53618741643 -.00000065309 .0000003717 .30517103417 415.41024568243 178.80848429914)"/><path d="m170.381 304.335h12.004v72.188h-12.004z" transform="matrix(.53618741643 -.00000065309 .0000003717 .30517103417 415.41024568243 178.80848429914)"/><path d="m265.016 295.482-15.988-114.795h-73.139l-11.869 114.795v54.929h100.996z" fill="#f68634" transform="matrix(.71113867512 -.00000086618 .00000021748 .17855491618 372.2968523042 212.67826196782)"/><path d="m265.016 295.482-15.988-114.795h-73.139l-11.869 114.795v54.929h100.996zm-4.687 4.831v31.429h-91.622v-32.567s10.321-99.819 10.321-99.819h67.24z" transform="matrix(.71113867512 -.00000086618 .00000021748 .17855491618 372.2968523042 212.67826196782)"/><path d="m164.02 295.482h100.996v13.352h-100.996z" fill="#f68634" transform="matrix(.71113867512 -.00000086618 .00000089474 .73458466754 372.29665218843 48.38244505629)"/><path d="m265.016 295.482h-100.996v13.351h100.996zm-4.687 4.538v4.276h-91.622v-4.276z" transform="matrix(.71113867512 -.00000086618 .00000089474 .73458466754 372.29665218843 48.38244505629)"/><g transform="matrix(-.4411468052 -.66691601726 -.66691601726 .4411468052 618.98377968975 222.00779783158)"><path d="m23.278 190.268s-4.281-1.804-8.839-.412c-2.747.839-5.245 2.644-5.245 2.644s-3.888.286-6.763 3.211c-1.576 1.604-.117 6.119 2.202 9.439s5.991 7.202 7.488 9.799c1.573 2.732 2.406 5.296 3.944 7.755 1.867 2.981 4.954 7.253 7.254 10.136 2.268 2.842 5.984 6.369 8.056 5.696 5.446-1.769 4.099-6.388 3.262-9.37-.724-2.582-2.044-5.042-2.424-7.709-.441-3.093-.343-5.501-.22-10.853.115-5.017.15-7.516.15-7.516z" fill="#4b4b4d"/><path d="m23.278 190.268s-4.281-1.804-8.839-.412c-2.747.839-5.245 2.644-5.245 2.644s-3.888.286-6.763 3.211c-1.576 1.604-.117 6.119 2.202 9.439s5.991 7.202 7.488 9.799c1.573 2.732 2.406 5.296 3.944 7.755 1.867 2.981 4.954 7.253 7.254 10.136 2.268 2.842 5.984 6.369 8.056 5.696 5.446-1.769 4.099-6.388 3.262-9.37-.724-2.582-2.044-5.042-2.424-7.709-.441-3.093-.343-5.501-.22-10.853.115-5.017.109-7.142.109-7.142zm-17.546 7.714c.061.402.184 1.087.354 1.567.402 1.134 1.024 2.323 1.751 3.363 2.382 3.412 6.133 7.418 7.67 10.087 1.547 2.686 2.358 5.213 3.871 7.631 1.8 2.875 4.778 6.993 6.996 9.773 1.121 1.405 3.69 3.498 4.5 4.143.208-.104.374-.225.489-.382.312-.424.164-.965.096-1.465-.121-.882-.377-1.739-.585-2.477-.77-2.746-2.126-5.377-2.53-8.213-.467-3.277-.389-5.826-.258-11.495.066-2.866.091-4.775.102-5.874 0-.001-7.411-11.081-7.411-11.081l-.001-.001c-1.14-.291-3.127-.596-5.196.035-2.148.656-4.097 2.074-4.097 2.074-.587.425-1.28.677-2.003.731 0 0-2.017.168-3.748 1.584z"/><path d="m12.018 195.297s-5.324 5.972.066 13.052c.653.858.487 2.085-.371 2.738-.859.654-2.086.487-2.739-.371-7.452-9.789.151-18.047.151-18.047.725-.798 1.962-.858 2.761-.133.798.726.857 1.962.132 2.761z"/></g><path d="m34.54 274.182c-1.445-8.477-2.487-16.018 1.738-17.638 4.746-1.819 24.511.624 31.594 2.129 4.466.949 8.229 1.534 12.046 6.52 2.711 3.541.667 17.824-1.692 28.661-2.33 10.704-6.944 19.647-8.395 50.879-.204 4.392-4.321 7.585-8.697 7.161s-7.554-4.318-7.161-8.697c2.825-31.543-.202-42.739-1.173-53.196-.327-3.524-.323-3.382-4.652-9.545-.629-.896-12.978-2.581-13.608-6.274z" fill="#feefe7" transform="matrix(-.79690977057 -.06574380859 -.06574380859 .79690977057 547.64487717215 20.90444633921)"/><path d="m34.54 274.182c-1.445-8.477-2.487-16.018 1.738-17.638 4.746-1.819 24.511.624 31.594 2.129 4.466.949 8.229 1.534 12.046 6.52 2.711 3.541.667 17.824-1.692 28.661-2.33 10.704-6.944 19.647-8.395 50.879-.204 4.392-4.321 7.585-8.697 7.161s-7.554-4.318-7.161-8.697c2.825-31.543-.202-42.739-1.173-53.196-.327-3.524-.323-3.382-4.652-9.545-.629-.896-12.978-2.581-13.608-6.274zm3.743-1.305c.253.162.679.424 1.012.58.956.447 2.077.832 3.195 1.174 2.71.831 5.415 1.444 6.559 1.889 1.314.512 1.996 1.26 2.298 1.69 5.143 7.324 4.956 7.242 5.345 11.43.983 10.596 4.036 21.942 1.173 53.906-.2 2.238 1.409 4.242 3.646 4.458 2.177.211 4.315-1.267 4.416-3.453 1.47-31.628 6.12-40.688 8.48-51.528 1.368-6.284 2.639-13.764 2.861-19.484.066-1.716.04-3.256-.131-4.52-.084-.622-.09-1.148-.322-1.451-3.064-4.002-6.17-4.31-9.755-5.072-4.81-1.022-15.648-2.488-23.297-2.672-2.709-.065-4.944-.068-6.086.369-.163.063-.129.276-.187.458-.202.638-.277 1.398-.301 2.248-.076 2.776.465 6.264 1.094 9.978z" transform="matrix(-.79690977057 -.06574380859 -.06574380859 .79690977057 547.64487717215 20.90444633921)"/><g transform="matrix(1.07118353599 -.58423453503 .60332232859 1.10618067807 -177.8281716277 260.78544222663)"><path d="m482.088 232.854c.745 2.583 2.565 4.283 2.565 4.283l-5.399.163s1.983-2.287 2.834-4.446z" fill="#d2d3d5"/><path d="m482.088 232.854c.745 2.583 2.565 4.283 2.565 4.283l-5.399.163s1.983-2.287 2.834-4.446z"/></g><g transform="matrix(.40400750933 -.69004720013 -.69004720013 -.40400750933 547.98202583267 387.35114960716)"><path d="m23.278 190.268s-4.281-1.804-8.839-.412c-2.747.839-5.245 2.644-5.245 2.644s-3.888.286-6.763 3.211c-1.576 1.604-.117 6.119 2.202 9.439s5.991 7.202 7.488 9.799c1.573 2.732 2.406 5.296 3.944 7.755 1.867 2.981 4.954 7.253 7.254 10.136 2.268 2.842 5.984 6.369 8.056 5.696 5.446-1.769 4.099-6.388 3.262-9.37-.724-2.582-2.044-5.042-2.424-7.709-.441-3.093-.343-5.501-.22-10.853.115-5.017.109-7.142.109-7.142z" fill="#4b4b4d"/><path d="m23.278 190.268s-4.281-1.804-8.839-.412c-2.747.839-5.245 2.644-5.245 2.644s-3.888.286-6.763 3.211c-1.576 1.604-.117 6.119 2.202 9.439s5.991 7.202 7.488 9.799c1.573 2.732 2.406 5.296 3.944 7.755 1.867 2.981 4.954 7.253 7.254 10.136 2.268 2.842 5.984 6.369 8.056 5.696 5.446-1.769 4.099-6.388 3.262-9.37-.724-2.582-2.044-5.042-2.424-7.709-.441-3.093-.343-5.501-.22-10.853.115-5.017.109-7.142.109-7.142zm-17.546 7.714c.061.402.184 1.087.354 1.567.402 1.134 1.024 2.323 1.751 3.363 2.382 3.412 6.133 7.418 7.67 10.087 1.547 2.686 2.358 5.213 3.871 7.631 1.8 2.875 4.778 6.993 6.996 9.773 1.121 1.405 3.69 3.498 4.5 4.143.208-.104.374-.225.489-.382.312-.424.164-.965.096-1.465-.121-.882-.377-1.739-.585-2.477-.77-2.746-2.126-5.377-2.53-8.213-.467-3.277-.389-5.826-.258-11.495.066-2.866.091-4.775.102-5.874 0-.001-7.411-11.081-7.411-11.081l-.001-.001c-1.14-.291-3.127-.596-5.196.035-2.148.656-4.097 2.074-4.097 2.074-.587.425-1.28.677-2.003.731 0 0-2.017.168-3.748 1.584z"/><path d="m12.283 195.336s-5.512 5.938-.136 13c.654.859.487 2.086-.371 2.739s-2.085.487-2.738-.371c-7.466-9.807.403-18.05.403-18.05.74-.785 1.977-.821 2.762-.081.784.741.82 1.978.08 2.763z"/></g><path d="m61.103 263.469c.513-8.746-2.748-14.718-4.232-23.191-1.795-10.248 31.608-19.048 32.107-17.588 5.042 14.764-3.084 42.287-5.892 49.127-1.198 2.919-2.421 5.269-2.421 5.269-1.188 1.612-.456 4.324-1.163 12.365-.028.312-.087.617-.145.92-1.451 11.435-9.686 36.667-9.526 54.362.04 4.396-4.321 7.585-8.697 7.161s-7.554-4.318-7.161-8.697c2.737-30.562-1.098-45.001-.148-57.027.426-5.389 1.274-8.157 5.85-15.126.601-.916 1.378-6.715 1.428-7.575z" fill="#feefe7" transform="matrix(-.32745842553 -.72949202932 -.72949202932 .32745842553 694.02661969991 221.56604822545)"/><path d="m61.103 263.469c.513-8.746-2.748-14.718-4.232-23.191-1.795-10.248 31.608-19.048 32.107-17.588 5.042 14.764-3.084 42.287-5.892 49.127-1.198 2.919-2.421 5.269-2.421 5.269-1.188 1.612-.456 4.324-1.163 12.365-.028.312-.087.617-.145.92-1.451 11.435-9.686 36.667-9.526 54.362.04 4.396-4.321 7.585-8.697 7.161s-7.554-4.318-7.161-8.697c2.737-30.562-1.098-45.001-.148-57.027.426-5.389 1.274-8.157 5.85-15.126.601-.916 1.378-6.715 1.428-7.575zm24.933-36.678c-4.42.906-12.565 3.45-18.718 6.821-2.233 1.222-4.199 2.536-5.513 3.967-.627.682-1.214 1.285-1.084 2.025 1.54 8.795 4.816 15.014 4.284 24.094-.045.766-.604 5.054-1.17 7.26-.272 1.062-.635 1.839-.893 2.231-4.029 6.135-4.846 8.545-5.221 13.289-.951 12.034 2.883 26.484.144 57.068-.2 2.238 1.409 4.242 3.646 4.458 2.125.206 4.431-1.101 4.412-3.236-.161-17.863 8.092-43.345 9.557-54.889l.001.006.037-.242c.033-.176.075-.353.091-.534.502-5.711.298-8.772.538-10.656.182-1.423.568-2.479 1.158-3.377.311-.617 1.246-2.502 2.166-4.743 1.624-3.956 5.078-15.094 6.544-26.443.777-6.016 1.035-12.099.021-17.099z" transform="matrix(-.32745842553 -.72949202932 -.72949202932 .32745842553 694.02661969991 221.56604822545)"/><g transform="matrix(-.7090948035 -.36955744702 -.36955744702 .7090948035 703.55863674805 208.86010398912)"><path d="m219.495 3.925s-9.089 4.542-13.711 14.095c-4.492 9.283-6.327 16.598-6.379 25.522-.046 7.945 8.074-2.125 8.074-2.125s3.044-7.849 7.012-14.315c5.57-9.079 5.004-23.177 5.004-23.177z" fill="#996533" transform="matrix(.984868 .173308 -.173308 .984868 4.1051 -37.974)"/><path d="m219.495 3.925s-9.089 4.542-13.711 14.095c-4.492 9.283-6.327 16.598-6.379 25.522-.046 7.945 8.074-2.125 8.074-2.125s3.044-7.849 7.012-14.315c5.57-9.079 5.004-23.177 5.004-23.177zm-4.269 7.887c-2.093 1.96-4.317 4.589-5.924 7.91-3.567 7.372-5.361 13.41-5.849 20.176l.686-.651c.886-2.177 3.632-8.666 7.021-14.189 2.455-4.001 3.569-9.086 4.066-13.246z" transform="matrix(.984868 .173308 -.173308 .984868 4.1051 -37.974)"/><path d="m215.834 28.42c4.095-4.928-4.411-7.753 5.346-19.004 9.756-11.251 23.955 1.53 26.372 7.823.811 2.113.927 6.673.464 9.614-.464 2.941-2.031 2.822-2.631 5.188-.599 2.366 2.492 7.515 1.238 8.769s-3.82 1.022-3.82 1.022c-1.059 3.032-3.474 4.042-3.474 4.042.482 6.557-4.408 6.032-5.712 5.735s-7.563-4.619-7.563-4.619c-9.663 8.96-10.329 17.535-10.329 17.535l-13.009-24.536s9.023-6.64 13.118-11.569z" fill="#feefe7" transform="translate(1.5486 .483777)"/><path d="m215.834 28.42c4.095-4.928-4.411-7.753 5.346-19.004 9.756-11.251 23.955 1.53 26.372 7.823.811 2.113.927 6.673.464 9.614-.464 2.941-2.031 2.822-2.631 5.188-.599 2.366 2.492 7.515 1.238 8.769s-3.82 1.022-3.82 1.022c-1.059 3.032-3.474 4.042-3.474 4.042.482 6.557-4.408 6.032-5.712 5.735s-7.563-4.619-7.563-4.619c-9.663 8.96-10.329 17.535-10.329 17.535l-13.009-24.536s9.023-6.64 13.118-11.569zm18.825 19.394.357.002.307-.009c.022-.065.047-.146.059-.21.081-.396.091-.871.049-1.437 0 0-.716-2.416 2.286-3.846.172-.082.988-.601 1.396-1.771.513-1.469 1.837-2.472 3.346-2.604-.195-.681-.4-1.413-.551-1.967-.504-1.859-.633-3.622-.311-4.891.329-1.298.822-2.185 1.367-2.939.385-.532 1.012-.757 1.191-1.898.367-2.324.39-5.934-.252-7.604-.979-2.551-4.443-6.319-8.555-8.407-3.562-1.809-7.789-2.208-11.216 1.743-2.194 2.531-3.314 4.486-3.752 6.141-.64 2.413.21 4.062.436 5.575.36 2.412.164 4.65-1.976 7.226-2.859 3.441-7.987 7.683-11.125 10.157 0-.001 7.276 13.722 7.276 13.722 1.714-3.196 4.351-6.913 8.406-10.673 1.343-1.246 3.371-1.391 4.878-.35z" transform="translate(1.5486 .483777)"/><path d="m249.726 20.913s2.19-2.766 1.402-5.564-7.59-9.565-12.541-11.671c-4.95-2.106-14.685-1.905-19.092.247-5.973 2.915-9.632 7.73-9.33 16.166.254 7.087-.033 10.537 3.291 13.712 3.802 3.632 7.175-3.393 8.701-4.624s4.979-.798 7.575-.859 3.579-2.391 3.579-2.391 2.647-.05 4.562-1.169c1.916-1.119 2.379-4.089 5.015-4.432 2.636-.344 6.838.585 6.838.585z" fill="#996533"/><path d="m249.726 20.913s2.19-2.766 1.402-5.564-7.59-9.565-12.541-11.671c-4.95-2.106-14.685-1.905-19.092.247-5.973 2.915-9.632 7.73-9.33 16.166.254 7.087-.033 10.537 3.291 13.712 3.802 3.632 7.175-3.393 8.701-4.624s4.979-.798 7.575-.859 3.579-2.391 3.579-2.391 2.647-.05 4.562-1.169c1.916-1.119 2.379-4.089 5.015-4.432 2.636-.344 6.838.585 6.838.585zm-33.954 9.66c.437-.426 1.11-1.106 1.465-1.563.986-1.27 1.865-2.388 2.466-2.872.914-.739 2.138-1.269 3.596-1.525 1.876-.329 4.339-.153 6.342-.2.04-.001.069-.024.09-.051.602-1.379 1.961-2.312 3.507-2.341 0 0 1.55.015 2.664-.635.223-.131.311-.402.467-.62.387-.541.77-1.093 1.197-1.592 1.197-1.401 2.68-2.443 4.817-2.722 1.497-.195 3.417-.059 5.022.137l-.039-.18c-.213-.76-1.229-1.839-2.407-3.085-2.245-2.375-5.342-4.96-7.902-6.049-4.109-1.749-12.189-1.624-15.847.162-4.611 2.25-7.373 6.003-7.14 12.514.098 2.729.106 4.898.293 6.713.165 1.597.455 2.811 1.409 3.909z"/></g><path d="m134.939 91.869s11.341 12.822 22.717 24.969c0 0 15.129-10.785 22.776-16.594 2.258-1.715 7.003-6.056 7.003-6.056 4.455 6.282 14.503 2.687 17.362-3.753 1.941-4.371 2.234-6.951 2.486-12.133.318-6.538 2.799-16.495 1.722-20.771-2.166-8.605-4.169-18.575-4.169-18.575-7.671-1.249-16.543 6.591-25.774 14.2-8.135 6.706-13.086 13.416-20.808 19.893-4.416 3.703-23.315 18.82-23.315 18.82z" fill="#f7acb0" transform="matrix(-.50226042513 -.62219135316 -.62219135316 .50226042513 668.74835283168 267.04862403869)"/><path d="m134.939 91.869s11.341 12.822 22.717 24.969c0 0 15.129-10.785 22.776-16.594 2.258-1.715 7.003-6.056 7.003-6.056 4.455 6.282 14.503 2.687 17.362-3.753 1.941-4.371 2.234-6.951 2.486-12.133.318-6.538 2.799-16.495 1.722-20.771-2.166-8.605-4.169-18.575-4.169-18.575-7.671-1.249-16.543 6.591-25.774 14.2-8.135 6.706-13.086 13.416-20.808 19.893-4.416 3.703-23.315 18.82-23.315 18.82zm5.657.477c3.636 4.071 10.444 11.644 17.577 19.317 4.718-3.381 14.31-10.288 19.895-14.531 2.171-1.649 6.73-5.828 6.73-5.828.827-.756 1.939-1.121 3.053-1.002 1.115.119 2.124.711 2.773 1.625 1.205 1.701 3.223 1.878 5.078 1.38 2.324-.622 4.554-2.274 5.523-4.458 1.716-3.865 1.931-6.155 2.154-10.737.195-3.998 1.173-9.252 1.695-13.756.276-2.378.489-4.491.142-5.871-1.432-5.686-2.793-11.962-3.563-15.622-1.518.275-3.083.943-4.706 1.809-4.9 2.613-10.076 7.112-15.399 11.5-8.126 6.698-13.069 13.402-20.783 19.871-3.285 2.756-14.564 11.811-20.169 16.303z" transform="matrix(-.50226042513 -.62219135316 -.62219135316 .50226042513 668.74835283168 267.04862403869)"/><path d="m504.967 195.208-.014.155c-1.134 13.246 3.947 19.019 8.166 19.147 2.805.085 5.367-.636 7.593-2.016 3.386-2.098 9.666-6.695 12.724-10.576 2.867-3.639 4.915-6.241 5.623-12.71 1.919-3.595 4.827-7.591 5.666-10.833.721-2.789.671-6.519-.633-8.619-1.303-2.1-4.731-3.884-7.188-3.98-2.456-.096-5.318 1.186-7.551 3.404-2.72 2.702-3.502 6.62-3.406 10.843-.937.799-3.593 3.308-4.451 4.522-.672.952-1.329 2.032-1.916 3.071-.524-1.43-1.08-2.859-1.327-4.345-1.218-7.363 1.37-10.738 1.055-16.026-.258-4.339-.853-9.297-8.112-8.808-5.175.348-7.868 5.406-7.61 9.745.384 6.438 4.919 6.638 3.84 13.958 0 0-1.879 6.523-2.459 13.068z" fill="#feefe7" transform="matrix(1.01292596348 -.00000090972 .00000090972 1.01292596348 -10.53729321072 -2.49981011565)"/><path d="m504.813 197.721c.024-.758.07-1.544.14-2.358.565-6.597 2.473-13.223 2.473-13.223 1.079-7.32-3.456-7.52-3.84-13.958-.258-4.339 2.435-9.397 7.61-9.745 7.259-.489 7.854 4.469 8.112 8.808.315 5.288-2.273 8.663-1.055 16.026.247 1.486.803 2.915 1.327 4.345.587-1.039 1.244-2.119 1.916-3.071.858-1.214 3.514-3.723 4.451-4.522-.096-4.223.686-8.141 3.406-10.843 2.233-2.218 5.095-3.5 7.551-3.404 2.457.096 5.885 1.88 7.188 3.98 1.304 2.1 1.354 5.83.633 8.619-.839 3.242-3.747 7.238-5.666 10.833-.708 6.469-2.756 9.071-5.623 12.71-3.058 3.881-9.338 8.478-12.724 10.576-2.226 1.38-4.788 2.101-7.593 2.016-2.086-.063-4.382-1.506-6.034-4.549l-.04-.073-.004-.008c-.06-.113-.119-.228-.178-.345l-.011-.023-.025-.049c-1.301-2.645-2.135-6.382-2.025-11.336l.001-.051.004-.145.004-.145zm15.91-5.573c.709-1.446 1.982-3.899 3.326-5.8.752-1.064 3.103-3.246 3.925-3.946.716-.61 1.119-1.51 1.097-2.45-.075-3.31.352-6.437 2.484-8.555 1.562-1.551 3.509-2.565 5.227-2.498 1.581.062 3.816 1.154 4.655 2.505.934 1.505.78 4.19.262 6.188-.788 3.048-3.593 6.766-5.397 10.145-.187.351-.306.736-.349 1.131-.62 5.668-2.46 7.928-4.972 11.116-2.857 3.626-8.751 7.893-11.915 9.854-1.715 1.063-3.691 1.614-5.852 1.549-1.253-.038-2.443-1.148-3.426-2.998-.351-.661-.662-1.406-.925-2.239l-.02-.064-.021-.067-.013-.044-.02-.067-.02-.067-.019-.065c-.006-.021-.012-.042-.018-.063l-.02-.069-.019-.069-.011-.041-.008-.029-.011-.04-.018-.07-.019-.07-.017-.066-.018-.072-.017-.067-.029-.12-.004-.016-.029-.125-.029-.127-.004-.014-.026-.123-.005-.02-.026-.124-.003-.014-.027-.132-.026-.127-.004-.022-.024-.124-.004-.022-.023-.13-.024-.133-.003-.02-.022-.127-.004-.026-.021-.128-.003-.019-.02-.128-.002-.012-.019-.132-.004-.026-.019-.13-.003-.026-.018-.135-.002-.011-.017-.13-.003-.024-.016-.133-.003-.029-.016-.134-.003-.024-.014-.13-.002-.016-.014-.138-.003-.031-.013-.135-.003-.031-.013-.14-.001-.016-.011-.132-.003-.029-.01-.138-.003-.035-.01-.138-.002-.03-.009-.132-.001-.021-.009-.142-.002-.036-.008-.14-.002-.037-.007-.144-.001-.024-.006-.131-.001-.035-.006-.142-.001-.041-.005-.142-.001-.038-.003-.13-.001-.029-.003-.145-.001-.044-.002-.142-.001-.045-.002-.146v-.034-.127l-.001-.044v-.143-.051l.001-.144.001-.048.001-.124.001-.051.002-.134.001-.055.002-.142.002-.057.004-.148.001-.046.004-.116.001-.057.005-.142.003-.064c.025-.635.066-1.293.124-1.972.539-6.298 2.362-12.624 2.362-12.624.039-.135.068-.271.088-.409.692-4.687-.432-7.091-1.773-9.357-.83-1.404-1.886-2.69-2.038-5.243-.167-2.798 1.362-6.217 4.699-6.441 1.699-.115 2.826.069 3.514.747.475.469.695 1.112.861 1.785.264 1.068.342 2.231.409 3.344.141 2.367-.411 4.301-.818 6.472-.512 2.725-.885 5.741-.201 9.878.279 1.681.887 3.304 1.48 4.921.425 1.16.856 2.314.946 3.526.325 4.366-1.524 7.388-1.524 7.388-.126.197-.227.405-.305.621 0 0 .149.863.883 1.304.84.505 1.911 0 1.911 0s2.517-3.971 2.162-9.393z" transform="matrix(1.01292596348 -.00000090972 .00000090972 1.01292596348 -10.53729321072 -2.49981011565)"/><g transform="matrix(.4592378501 -.65458986475 -.65458986475 -.4592378501 529.46725543332 376.82605161231)"><path d="m135.971 143.058-17.776-7.937 17.855-31.517 15.521 14.011c-.097.066-6.799 11.278-15.6 25.443z" fill="#aaabaf"/><path d="m135.971 143.058-17.776-7.937 17.855-31.517 15.521 14.011c-.097.066-6.799 11.278-15.6 25.443zm10.569-24.719-9.492-8.569s-13.333 23.535-13.333 23.535l10.733 4.792c5.384-8.699 9.798-15.982 12.092-19.758z"/><path d="m118.131 143.708-19.198-27.893c2.909-3.479 6.653-5.628 12.222-11.899 5.555-6.256 9.716-14.13 14.672-18.869 4.27-4.083 10.245-6.35 16.721-5.88 7.387.537 16.329 9.559 22.642 14.872l-13.619 23.576c-.097.066-15.261 17.705-33.44 26.093z" fill="#aaabaf"/><path d="m118.131 143.708-19.198-27.893c2.909-3.479 6.653-5.628 12.222-11.899 5.555-6.256 9.716-14.13 14.672-18.869 4.27-4.083 10.245-6.35 16.721-5.88 7.387.537 16.329 9.559 22.642 14.872l-13.619 23.576c-.097.066-15.261 17.705-33.44 26.093zm1.303-5.001c14.445-7.592 26.34-20.502 28.767-23.191.065-.071.127-.139.187-.203-.001.002 11.802-20.431 11.802-20.431-3.183-2.796-6.818-6.064-10.485-8.539-2.554-1.724-5.071-3.106-7.441-3.278-5.316-.386-10.23 1.454-13.736 4.807-4.891 4.676-8.969 12.466-14.451 18.639-4.329 4.874-7.552 7.237-10.133 9.69 0 0 15.49 22.506 15.49 22.506z"/></g><path d="m6.208 198.616v-9.238h60.956v-8.577l26.672 13.196-26.672 13.196v-8.577z" fill="#ec3237" transform="matrix(.1888285897 .4462499737 -.44590478134 .18868156488 203.963149062 140.985415234)"/><path d="m24.209 198.624v-9.238l42.955-.008v-8.577l26.672 13.196-26.672 13.196v-8.577z" fill="#ec3237" transform="matrix(-.20426725891 -.43939836295 .43905723481 -.20410914265 414.678770444 227.204344982)"/></svg>