<svg clip-rule="evenodd" fill-rule="evenodd" stroke-linejoin="round" stroke-miterlimit="2" viewBox="0 0 568 383" xmlns="http://www.w3.org/2000/svg"><g transform="scale(2.18462 2.18467)"><path d="m0 0h260v175h-260z" fill="none"/><g transform="matrix(.340812 -.422184 .422193 .340805 -36.7533 103.083)"><path d="m156.285 140.565h8.307v175.184h-8.307z" fill="#d4d3d5" transform="matrix(.68833019 .85269001 -.33931844 .27391329 82.261288 75.708031)"/><path d="m164.592 140.565h-8.307v175.184h8.307zm-2.566 6.449v162.286c0 .001-3.175.001-3.175.001v-162.287z" transform="matrix(.68833019 .85269001 -.33931844 .27391329 82.261288 75.708031)"/><path d="m156.285 140.565h8.307v175.184h-8.307z" fill="#d4d3d5" transform="matrix(.68833019 .85269001 -.33931844 .27391329 49.393669 34.992266)"/><path d="m164.592 140.565h-8.307v175.184h8.307zm-2.566 6.449v162.286c0 .001-3.175.001-3.175.001v-162.287z" transform="matrix(.68833019 .85269001 -.33931844 .27391329 49.393669 34.992266)"/><path d="m156.285 140.565h8.307v175.184h-8.307z" fill="#d4d3d5" transform="matrix(.68833019 .85269001 -.36581542 .29530286 89.160437 76.633976)"/><path d="m164.592 140.565h-8.307v175.184h8.307zm-2.566 5.982v163.221h-3.175v-163.221z" transform="matrix(.68833019 .85269001 -.36581542 .29530286 89.160437 76.633976)"/><path d="m156.285 140.565h8.307v175.184h-8.307z" fill="#d4d3d5" transform="matrix(-1.98025011 1.59854803 -.25650171 -.31774931 505.937556 45.765186)"/><path d="m164.592 140.565h-8.307v175.184h8.307zm-1.105 6.887v161.411h-6.097v-161.411z" transform="matrix(-1.98025011 1.59854803 -.25650171 -.31774931 505.937556 45.765186)"/><path d="m156.285 140.565h8.307v175.184h-8.307z" fill="#f58532" transform="matrix(-.83978 .67790864 -.26384323 -.32684385 330.018623 192.517722)"/><path d="m164.592 140.565h-8.307v175.184h8.307zm-2.606 6.695v161.794h-3.096v-161.794z" transform="matrix(-.83978 .67790864 -.26384323 -.32684385 330.018623 192.517722)"/><path d="m156.285 140.565h8.307v175.184h-8.307z" fill="#d4d3d5" transform="matrix(.68833019 .85269001 -.78166588 .63099628 181.248214 -77.941978)"/><path d="m164.592 140.565h-8.307v175.184h8.307zm-2.566 2.8v169.585h-3.175v-169.585z" transform="matrix(.68833019 .85269001 -.78166588 .63099628 181.248214 -77.941978)"/><g transform="matrix(.995515 -.0946027 .0946027 .995515 -18.3368 -9.71427)"><path d="m24.199 191.212s-5.202-2.748-9.76-1.356c-2.747.839-5.245 2.644-5.245 2.644s-3.888.286-6.763 3.211c-1.576 1.604-.117 6.119 2.202 9.439s5.991 7.202 7.488 9.799c1.573 2.732 2.406 5.296 3.944 7.755 1.867 2.981 4.954 7.253 7.254 10.136 2.268 2.842 5.984 6.369 8.056 5.696 5.446-1.769 4.099-6.388 3.262-9.37-.724-2.582-2.044-5.042-2.424-7.709-.441-3.093-.343-5.501-.22-10.853.115-5.017.109-7.142.109-7.142z" fill="#4b4b4d"/><path d="m24.199 191.212s-5.202-2.748-9.76-1.356c-2.747.839-5.245 2.644-5.245 2.644s-3.888.286-6.763 3.211c-1.576 1.604-.117 6.119 2.202 9.439s5.991 7.202 7.488 9.799c1.573 2.732 2.406 5.296 3.944 7.755 1.867 2.981 4.954 7.253 7.254 10.136 2.268 2.842 5.984 6.369 8.056 5.696 5.446-1.769 4.099-6.388 3.262-9.37-.724-2.582-2.044-5.042-2.424-7.709-.441-3.093-.343-5.501-.22-10.853.115-5.017.109-7.142.109-7.142zm6.576 44.742c-.19-.08-.703-.302-1.027-.515-1.529-1.007-3.17-2.742-4.368-4.243-2.245-2.813-5.259-6.981-7.08-9.891-1.522-2.431-2.339-4.971-3.895-7.672-1.524-2.645-5.249-6.611-7.611-9.993-.978-1.401-1.786-3.05-2.172-4.522-.153-.583-.174-1.462-.176-1.69 2.144-2.077 4.941-2.299 4.941-2.299.487-.036.955-.206 1.351-.492 0 0 2.128-1.544 4.471-2.26 2.802-.856 5.903.305 7.17.879h.001l7.083 10.978c-.007 1.006-.031 3.036-.106 6.309-.128 5.566-.212 8.069.246 11.286.396 2.781 1.74 5.357 2.496 8.049.221.789.491 1.706.62 2.649.112.823.181 1.693-.331 2.39-.324.44-.858.769-1.613 1.037z"/><path d="m8.894 193.062s-7.32 7.509-.174 16.895c.44.579 1.268.691 1.847.25.579-.44.691-1.268.25-1.847-5.696-7.483-.023-13.47-.023-13.47.504-.524.488-1.359-.036-1.864-.524-.504-1.359-.488-1.864.036z"/></g><g transform="matrix(.995515 -.0946027 .0946027 .995515 -24.9968 -3.49992)"><path d="m23.278 190.268s-4.281-1.804-8.839-.412c-2.747.839-5.245 2.644-5.245 2.644s-3.888.286-6.763 3.211c-1.576 1.604-.117 6.119 2.202 9.439s5.991 7.202 7.488 9.799c1.573 2.732 2.406 5.296 3.944 7.755 1.867 2.981 4.954 7.253 7.254 10.136 2.268 2.842 5.984 6.369 8.056 5.696 5.446-1.769 4.099-6.388 3.262-9.37-.724-2.582-2.044-5.042-2.424-7.709-.441-3.093-.343-5.501-.22-10.853.115-5.017.109-7.142.109-7.142z" fill="#4b4b4d"/><path d="m23.278 190.268s-4.281-1.804-8.839-.412c-2.747.839-5.245 2.644-5.245 2.644s-3.888.286-6.763 3.211c-1.576 1.604-.117 6.119 2.202 9.439s5.991 7.202 7.488 9.799c1.573 2.732 2.406 5.296 3.944 7.755 1.867 2.981 4.954 7.253 7.254 10.136 2.268 2.842 5.984 6.369 8.056 5.696 5.446-1.769 4.099-6.388 3.262-9.37-.724-2.582-2.044-5.042-2.424-7.709-.441-3.093-.343-5.501-.22-10.853.115-5.017.109-7.142.109-7.142zm7.497 45.686c-.19-.08-.703-.302-1.027-.515-1.529-1.007-3.17-2.742-4.368-4.243-2.245-2.813-5.259-6.981-7.08-9.891-1.522-2.431-2.339-4.971-3.895-7.672-1.524-2.645-5.249-6.611-7.611-9.993-.978-1.401-1.786-3.05-2.172-4.522-.153-.583-.174-1.462-.176-1.69 2.144-2.077 4.941-2.299 4.941-2.299.487-.036.955-.206 1.351-.492 0 0 2.128-1.544 4.471-2.26 2.655-.811 5.192-.265 6.365.087l.001.001 7.888 11.793c-.008 1.012-.031 3.037-.106 6.285-.128 5.566-.212 8.069.246 11.286.396 2.781 1.74 5.357 2.496 8.049.221.789.491 1.706.62 2.649.112.823.181 1.693-.331 2.39-.324.44-.858.769-1.613 1.037z"/><path d="m8.71 192.936s-7.236 7.869-.118 17.219c.44.579 1.268.691 1.847.25.579-.44.691-1.268.25-1.847-5.723-7.519-.029-13.847-.029-13.847.489-.538.45-1.373-.087-1.862-.538-.49-1.373-.451-1.863.087z"/></g><path d="m91.369 214.403c-.135-8.721-4.163-18.421-5.64-26.855-1.787-10.202 2.471-7.079-.099-21.303-.179-.994 27.454-5.531 28.61-4.519 11.627 10.168 1.039 53.809-2.83 58.601-.244.303-.536.581-.867.834.648 2.983.876 8.584-.138 16.713-.038.309-.086.614-.143.916-1.445 11.382-9.643 36.499-9.483 54.114.039 4.376-4.301 7.55-8.658 7.129-4.356-.422-7.519-4.299-7.129-8.658 2.812-31.399-2.204-48.527-1.669-55.625.011-.165.026-.33.043-.494.245-2.347 1.196-11.615 5.752-18.552.598-.911 1.365-1.678 2.251-2.301z" fill="#feefe7" transform="matrix(.630996 .781668 -.781668 .630996 190.38 -66.6297)"/><path d="m91.369 214.403c-.135-8.721-4.163-18.421-5.64-26.855-1.787-10.202 2.471-7.079-.099-21.303-.179-.994 27.454-5.531 28.61-4.519 11.627 10.168 1.039 53.809-2.83 58.601-.244.303-.536.581-.867.834.648 2.983.876 8.584-.138 16.713-.038.309-.086.614-.143.916-1.445 11.382-9.643 36.499-9.483 54.114.039 4.376-4.301 7.55-8.658 7.129-4.356-.422-7.519-4.299-7.129-8.658 2.812-31.399-2.204-48.527-1.669-55.625l.043-.494c.245-2.347 1.196-11.615 5.752-18.552.598-.911 1.365-1.678 2.251-2.301zm21.661-50.199c1.231 1.321 2.069 3.185 2.674 5.376 1.196 4.329 1.402 9.856 1.057 15.629-.622 10.417-3.076 21.617-5.273 28.363-.822 2.526-1.525 4.37-2.12 5.106-.117.146-.259.276-.418.397-.809.618-1.188 1.648-.972 2.643.614 2.826.784 8.131-.177 15.831-.031.253-.071.504-.118.752l-.025.158c-1.454 11.456-9.664 36.741-9.504 54.469.026 2.857-2.936 4.768-5.78 4.493-2.92-.283-5.029-2.89-4.768-5.812 2.814-31.42-2.201-48.559-1.666-55.662l.036-.418c.23-2.197 1.07-10.889 5.335-17.384.416-.634.952-1.163 1.568-1.595.71-.5 1.127-1.319 1.114-2.187-.137-8.852-4.179-18.708-5.679-27.268-.792-4.522-.244-6.09.217-8.105.509-2.223.975-4.889.044-11.038 5.493-1.364 20.191-3.711 24.455-3.748z" transform="matrix(.630996 .781668 -.781668 .630996 190.38 -66.6297)"/><path d="m115.84 149.226-23.254-28.653c1.701-1.586 10.41-7.993 16.154-15.532 4.918-6.454 4.97-9.629 14.295-17.157 7.173-5.79 17.328-7.559 17.328-7.559l21.783 27.231s-12.286 9.569-15.016 12.879c-.075.09-.149.18-.223.271-6.193 7.52-13.437 14.288-31.067 28.52z" fill="#aaabaf"/><path d="m115.84 149.226-23.254-28.653c1.701-1.586 10.41-7.993 16.154-15.532 4.918-6.454 4.97-9.629 14.295-17.157 7.173-5.79 17.328-7.559 17.328-7.559l21.783 27.231s-12.286 9.569-15.016 12.879c-.075.09-.149.18-.223.271-6.193 7.52-13.437 14.288-31.067 28.52zm.388-3.706-19.967-24.602c3.364-2.769 9.919-8.166 14.576-14.279 4.779-6.272 4.792-9.388 13.854-16.704 5.052-4.078 11.698-6.001 14.628-6.694 0 0 19.113 23.893 19.113 23.893-3.709 2.962-11.244 9.087-13.336 11.624-.075.09-.15.181-.224.272-5.87 7.127-12.708 13.557-28.644 26.49z"/><g transform="matrix(.916636 .399724 -.399724 .916636 33.3649 -81.6576)"><path d="m212.579 29.938c3.653-5.264-1.156-9.271 8.601-20.522 9.756-11.251 23.955 1.53 26.372 7.823.811 2.113.927 6.673.464 9.614-.464 2.941-2.031 2.822-2.631 5.188-.599 2.366 2.492 7.515 1.238 8.769s-3.82 1.022-3.82 1.022c-1.059 3.032-3.474 4.042-3.474 4.042.482 6.557-4.408 6.032-5.712 5.735s-7.563-4.619-7.563-4.619c-7.542 10.322-8.551 12.716-8.551 12.716l-11.637-21.34s2.998-3.074 6.713-8.428z" fill="#feefe7" transform="matrix(.999258 -.0385184 .0385184 .999258 -1.64277 10.0664)"/><path d="m212.579 29.938c3.653-5.264-1.156-9.271 8.601-20.522 9.756-11.251 23.955 1.53 26.372 7.823.811 2.113.927 6.673.464 9.614-.464 2.941-2.031 2.822-2.631 5.188-.599 2.366 2.492 7.515 1.238 8.769s-3.82 1.022-3.82 1.022c-1.059 3.032-3.474 4.042-3.474 4.042.482 6.557-4.408 6.032-5.712 5.735s-7.563-4.619-7.563-4.619c-7.542 10.322-8.551 12.716-8.551 12.716l-11.637-21.34s2.998-3.074 6.713-8.428zm31.553 9.217-.213.02c-.487.06-.879.031-.879.031-1.204-.109-2.327.615-2.726 1.757-.633 1.812-2.002 2.478-2.002 2.478-1.046.438-1.695 1.495-1.612 2.626.105 1.428-.004 2.301-.523 2.75-.598.517-1.46.34-1.874.245-.129-.066-.927-.476-1.538-.843-2.227-1.336-5.213-3.399-5.213-3.399-1.175-.812-2.783-.539-3.626.614-2.981 4.079-4.974 6.971-6.3 8.989-.001 0-8.547-15.672-8.547-15.672 1.27-1.451 3.333-3.948 5.666-7.31 1.378-1.986 1.831-3.819 2.076-5.809.413-3.365.126-7.311 6.35-14.489 3.899-4.496 8.7-4.103 12.753-2.044 4.424 2.246 8.113 6.34 9.167 9.085.697 1.814.718 5.733.321 8.258-.227 1.439-.932 1.774-1.418 2.446-.464.642-.884 1.399-1.164 2.505-.387 1.527.204 3.987.902 6.233.144.462.293 1.066.4 1.529z" transform="matrix(.999258 -.0385184 .0385184 .999258 -1.64277 10.0664)"/><path d="m247.373 24.104s4.032-3.731 1.32-8.659c-1.787-3.246-8.059-8.143-13.009-10.249-4.951-2.106-10.35-2.547-14.757-.395-5.973 2.916-8.699 8.036-10.762 15.29-1.078 3.788-1.163 12.445 2.791 14.883 1.895 1.169 4.288-6.833 6.565-8.007 1.763-.91 3.64.33 5.941 1.188 2.682 1 5.252-1.78 5.252-1.78s2.27-3.572 4.185-4.691c1.916-1.119 4.007-.79 5.872-.192 2.113.677 6.602 2.612 6.602 2.612z" fill="#996533"/><path d="m247.373 24.104s4.032-3.731 1.32-8.659c-1.787-3.246-8.059-8.143-13.009-10.249-4.951-2.106-10.35-2.547-14.757-.395-5.973 2.916-8.699 8.036-10.762 15.29-1.078 3.788-1.163 12.445 2.791 14.883 1.895 1.169 4.288-6.833 6.565-8.007 1.763-.91 3.64.33 5.941 1.188 2.682 1 5.252-1.78 5.252-1.78s2.27-3.572 4.185-4.691c1.916-1.119 4.007-.79 5.872-.192 2.113.677 6.602 2.612 6.602 2.612zm-34.16 7.282c-.309-.631-.513-1.385-.68-2.166-.631-2.938-.394-6.434.168-8.408 1.827-6.423 4.093-11.06 9.382-13.642 3.755-1.833 8.351-1.342 12.569.452 4.437 1.888 10.13 6.185 11.731 9.094.935 1.7.605 3.174.115 4.16-1.54-.638-3.648-1.486-4.922-1.895-2.545-.816-5.392-1.101-8.007.427-1.938 1.132-4.23 4.318-4.892 5.276-.158.147-.485.43-.911.679-.379.22-.864.515-1.383.322-1.514-.565-2.871-1.252-4.124-1.519-1.374-.292-2.674-.199-3.947.458-1.034.533-2.228 1.937-3.267 3.711-.518.884-1.262 2.115-1.832 3.051z"/></g><path d="m140.674 85.714 21.749 27.168s7.892-5.608 15.498-11.435c3.844-2.944 26.585-12.337 34.814-22.682 4.074-5.122 6.226-14.733 5.343-19.053-2.903-14.193-8.131-19.793-8.131-19.793-7.671-1.25-21.654 5.628-30.885 13.237-8.135 6.706-13.869 12.446-21.591 18.923-4.416 3.703-16.797 13.635-16.797 13.635z" fill="#4b6097" transform="translate(-2.73359 -3.38633)"/><path d="m140.674 85.714 21.749 27.168s7.892-5.608 15.498-11.435c3.844-2.944 26.585-12.337 34.814-22.682 4.074-5.122 6.226-14.733 5.343-19.053-2.903-14.193-8.131-19.793-8.131-19.793-7.671-1.25-21.654 5.628-30.885 13.237-8.135 6.706-13.869 12.446-21.591 18.923-4.416 3.703-16.797 13.635-16.797 13.635zm3.703.407c3.716-2.99 11.481-9.248 14.788-12.022 7.716-6.471 13.445-12.208 21.574-18.908 5.322-4.388 12.286-8.527 18.6-10.873 3.438-1.277 6.653-2.051 9.231-1.9 1.332 1.822 4.775 7.313 6.925 17.822.784 3.834-1.208 12.339-4.823 16.884-3.938 4.95-11.387 9.618-18.272 13.455-7.347 4.094-14.12 7.272-16.082 8.775-5.222 4-10.579 7.897-13.399 9.929z" transform="translate(-2.73359 -3.38633)"/><path d="m93.225 111.115c-.635-2.585-6.009-27.462-5.142-33.865.805-5.944 16.453-10.61 17.157-5.298.536 4.047 3.115 10.808 3.14 10.944.724 3.907 2.099 9.569 2.902 14.31.793 4.688 1.595 11.779 1.914 14.134 2.955 1.541 12.979 6.667 17.728 9.245 3.642 1.978 8.969 5.188 10.763 6.226 2.926 1.447 10.785 6.267 17.557 8.686 1.137.406 2.657 1.086 4.003 1.857h.001c.276.159.546.321.803.486 3.537 2.193 5.376 3.908 5.376 7.348 0 3.687-.932 7.659-7.158 7.582v-6.619c-3.46.159-9.901-.356-12.954-2.827-1.795-1.452-5.604-4.328-9.413-5.132-4.859-.37-10.633-2.207-15.222-3.706-14.717-4.809-22.23-8.161-26.249-11.522 0-.001 0-.002-.001-.003-.003-.008-.009-.031-.018-.043-1.679-2.02-3.51-4.981-5.187-11.803z" fill="#feefe7" transform="matrix(.63099503 .78166819 -.78166819 .63099503 190.379787 -66.62981)"/><path d="m165.464 138.759c2.613 1.8 3.963 3.481 3.963 6.429 0 3.687-.932 7.659-7.158 7.582v-6.619c-3.46.159-9.901-.356-12.954-2.827-1.795-1.452-5.604-4.328-9.413-5.132-4.859-.37-10.633-2.207-15.222-3.706-14.717-4.809-22.23-8.161-26.249-11.522 0-.001 0-.002-.001-.003-.003-.008 0-.001-.018-.043-1.679-2.02-3.51-4.981-5.187-11.803-.635-2.585-6.009-27.462-5.142-33.865.805-5.944 16.453-10.61 17.157-5.298.536 4.047 3.115 10.808 3.14 10.944.724 3.907 2.099 9.569 2.902 14.31.793 4.688 1.595 11.779 1.914 14.134 2.955 1.541 13.317 6.865 17.728 9.245 2.958 1.597 5.82 3.367 8.738 5.035l.259.153c.584.354 1.472.865 1.766 1.038 2.926 1.447 0 0 17.557 8.686 1.137.406 2.657 1.086 4.003 1.857h.001c.276.159.546.321.803.486l.068.043.748.475.134.088.03.02zm-62.8-66.281c.55 3.834 2.71 9.801 3.166 11.073l.007.02c.73 3.888 2.07 9.425 2.857 14.073.789 4.659 1.584 11.707 1.901 14.049 0 0-.095 1.276 1.387 1.974 3.277 1.543 12.951 6.652 17.689 9.225 3.622 1.966 8.918 5.159 10.702 6.19l.15.081c2.972 1.47 10.961 6.349 17.838 8.806 1.017.363 2.377.972 3.582 1.662.397.228.397.228 0 0 .239.137.471.277.693.419.011.007.021.013.032.02 2.556 1.585 4.135 2.632 4.135 5.118 0 1.478-.021 3.085-1.099 4.075-.226.207-.495.375-.81.507v-3.619c0-.717-.294-1.403-.812-1.898-.519-.495-1.217-.757-1.933-.724-1.892.087-4.76-.045-7.354-.652-1.48-.347-2.877-.822-3.829-1.593-1.99-1.61-6.231-4.73-10.453-5.644l-.069-.016.013.003c-.115-.025-.234-.043-.355-.052-4.665-.355-10.202-2.145-14.607-3.584-13.93-4.551-21.21-7.67-25.145-10.849-1.503-1.834-3.079-4.562-4.576-10.653-.617-2.512-5.933-26.666-5.09-32.887.113-.839.865-1.536 1.742-2.218 1.915-1.488 4.69-2.589 7.122-2.983.951-.154 1.842-.204 2.584-.081.169.028.4.108.532.158z" transform="matrix(.63099503 .78166819 -.78166819 .63099503 190.379787 -66.62981)"/><path d="m267.027 62.199c1.197-7.341 4.886-10.905 10.905-10.905s10.209 3.746 10.906 10.905c.719 6.171 1 18.779 1 18.779h-23.811s.142-13.518 1-18.779z" fill="#4b6097" transform="matrix(.72707 .69320377 -.69320377 .72707 38.67594 -185.844943)"/><path d="m289.103 64.986c.524 6.541.735 15.992.735 15.992h-23.811s.142-13.518 1-18.779c1.197-7.341 4.886-10.905 10.905-10.905s10.209 3.746 10.906 10.905c.078.67.151 1.416.218 2.213zm-3.051-2.516.005.053c.496 4.256.779 11.615.904 15.656h-18.089c.087-4.174.323-11.882.918-15.529.568-3.483 1.693-5.968 3.652-7.337 1.213-.848 2.721-1.22 4.49-1.22 2.213 0 4.112.631 5.499 1.978 1.476 1.432 2.348 3.599 2.621 6.399z" transform="matrix(.72707 .69320377 -.69320377 .72707 38.67594 -185.844943)"/><path d="m156.285 140.565h8.307v175.184h-8.307z" fill="#d4d3d5" transform="matrix(.68833019 .85269001 -.33931844 .27391329 197.527288 218.497731)"/><path d="m164.592 140.565h-8.307v175.184h8.307zm-2.566 6.449v162.286c0 .001-3.175.001-3.175.001v-162.287z" transform="matrix(.68833019 .85269001 -.33931844 .27391329 197.527288 218.497731)"/><path d="m156.285 140.565h8.307v175.184h-8.307z" fill="#d4d3d5" transform="matrix(.68833019 .85269001 -.33931844 .27391329 164.659669 177.781966)"/><path d="m164.592 140.565h-8.307v175.184h8.307zm-2.566 6.449v162.286c0 .001-3.175.001-3.175.001v-162.287z" transform="matrix(.68833019 .85269001 -.33931844 .27391329 164.659669 177.781966)"/><path d="m156.285 140.565h8.307v175.184h-8.307z" fill="#d4d3d5" transform="matrix(.68833019 .85269001 -.36581542 .29530286 204.426437 219.423676)"/><path d="m164.592 140.565h-8.307v175.184h8.307zm-2.566 5.982v163.221h-3.175v-163.221z" transform="matrix(.68833019 .85269001 -.36581542 .29530286 204.426437 219.423676)"/><path d="m156.285 140.565h8.307v175.184h-8.307z" fill="#d4d3d5" transform="matrix(-1.98025011 1.59854803 -.25650171 -.31774931 621.203556 188.554886)"/><path d="m164.592 140.565h-8.307v175.184h8.307zm-1.105 6.887v161.411h-6.097v-161.411z" transform="matrix(-1.98025011 1.59854803 -.25650171 -.31774931 621.203556 188.554886)"/><path d="m156.285 140.565h8.307v175.184h-8.307z" fill="#f58532" transform="matrix(-.83978 .67790864 -.26384323 -.32684385 445.284623 335.307422)"/><path d="m164.592 140.565h-8.307v175.184h8.307zm-2.606 6.695v161.794h-3.096v-161.794z" transform="matrix(-.83978 .67790864 -.26384323 -.32684385 445.284623 335.307422)"/><path d="m156.285 140.565h8.307v175.184h-8.307z" fill="#d4d3d5" transform="matrix(.68833019 .85269001 -.78166588 .63099628 296.514214 64.847722)"/><path d="m164.592 140.565h-8.307v175.184h8.307zm-2.566 2.8v169.585h-3.175v-169.585z" transform="matrix(.68833019 .85269001 -.78166588 .63099628 296.514214 64.847722)"/><g transform="matrix(.962892 .269886 -.269886 .962892 179.8141 130.2727)"><path d="m23.278 190.268s-4.281-1.804-8.839-.412c-2.747.839-5.245 2.644-5.245 2.644s-3.888.286-6.763 3.211c-1.576 1.604-.117 6.119 2.202 9.439s5.991 7.202 7.488 9.799c1.573 2.732 2.668 4.995 3.944 7.755 1.316 2.844 2.684 5.749 5.426 8.55 2.542 2.598 8.414 7.126 10.486 6.453 5.446-1.768 4.786-7.123 3.949-10.105-.724-2.581-2.758-4.917-3.385-7.627-.656-2.833-.671-4.019-.548-9.371.115-5.017.109-7.142.109-7.142z" fill="#4b4b4d"/><path d="m23.278 190.268s-4.281-1.804-8.839-.412c-2.747.839-5.245 2.644-5.245 2.644s-3.888.286-6.763 3.211c-1.576 1.604-.117 6.119 2.202 9.439s5.991 7.202 7.488 9.799c1.573 2.732 2.668 4.995 3.944 7.755 1.316 2.844 2.684 5.749 5.426 8.55 2.542 2.598 8.414 7.126 10.486 6.453 5.446-1.768 4.786-7.123 3.949-10.105-.724-2.581-2.758-4.917-3.385-7.627-.656-2.833-.671-4.019-.548-9.371.115-5.017.109-7.142.109-7.142zm8.154 44.836c-.303-.114-1.287-.497-1.968-.899-2.188-1.293-4.688-3.363-6.089-4.795-2.499-2.553-3.718-5.22-4.917-7.813-1.31-2.834-2.437-5.158-4.053-7.964-1.524-2.645-5.249-6.611-7.611-9.993-.978-1.401-1.786-3.05-2.172-4.522-.153-.583-.174-1.462-.176-1.69 2.144-2.077 4.941-2.299 4.941-2.299.487-.036.955-.206 1.351-.492 0 0 2.128-1.544 4.471-2.26 2.655-.811 5.192-.265 6.365.087l.001.001 7.888 11.793c-.008 1.012-.031 3.037-.106 6.285-.132 5.728-.086 6.995.615 10.026.367 1.584 1.117 3.071 1.909 4.528.581 1.068 1.196 2.111 1.507 3.218.544 1.938 1.364 5.517-1.956 6.789z"/><path d="m8.697 192.963s-7.107 7.628.023 16.994c.44.579 1.268.691 1.847.25.579-.44.691-1.268.25-1.847-5.711-7.503-.18-13.612-.18-13.612.493-.535.458-1.37-.077-1.862-.536-.493-1.37-.458-1.863.077z"/></g><g transform="matrix(.962892 .269886 -.269886 .962892 172.9251 135.83371)"><path d="m23.278 190.268s-4.281-1.804-8.839-.412c-2.747.839-5.245 2.644-5.245 2.644s-3.888.286-6.763 3.211c-1.576 1.604-.117 6.119 2.202 9.439s5.991 7.202 7.488 9.799c1.573 2.732 2.668 4.995 3.944 7.755 1.316 2.844 2.684 5.749 5.426 8.55 2.542 2.598 8.414 7.126 10.486 6.453 5.446-1.768 4.786-7.123 3.949-10.105-.724-2.581-2.758-4.917-3.385-7.627-.656-2.833-.671-4.019-.548-9.371.115-5.017.109-7.142.109-7.142z" fill="#4b4b4d"/><path d="m23.278 190.268s-4.281-1.804-8.839-.412c-2.747.839-5.245 2.644-5.245 2.644s-3.888.286-6.763 3.211c-1.576 1.604-.117 6.119 2.202 9.439s5.991 7.202 7.488 9.799c1.573 2.732 2.668 4.995 3.944 7.755 1.316 2.844 2.684 5.749 5.426 8.55 2.542 2.598 8.414 7.126 10.486 6.453 5.446-1.768 4.786-7.123 3.949-10.105-.724-2.581-2.758-4.917-3.385-7.627-.656-2.833-.671-4.019-.548-9.371.115-5.017.109-7.142.109-7.142zm8.154 44.836c-.303-.114-1.287-.497-1.968-.899-2.188-1.293-4.688-3.363-6.089-4.795-2.499-2.553-3.718-5.22-4.917-7.813-1.31-2.834-2.437-5.158-4.053-7.964-1.524-2.645-5.249-6.611-7.611-9.993-.978-1.401-1.786-3.05-2.172-4.522-.153-.583-.174-1.462-.176-1.69 2.144-2.077 4.941-2.299 4.941-2.299.487-.036.955-.206 1.351-.492 0 0 2.128-1.544 4.471-2.26 2.655-.811 5.192-.265 6.365.087l.001.001 7.888 11.793c-.008 1.012-.031 3.037-.106 6.285-.132 5.728-.086 6.995.615 10.026.367 1.584 1.117 3.071 1.909 4.528.581 1.068 1.196 2.111 1.507 3.218.544 1.938 1.364 5.517-1.956 6.789z"/><path d="m8.88 192.892s-7.725 7.6-.574 16.993c.441.579 1.268.691 1.847.251.579-.441.691-1.269.251-1.848-5.691-7.474.334-13.525.334-13.525.516-.513.519-1.348.007-1.865-.513-.516-1.348-.519-1.865-.006z"/></g><path d="m91.369 214.403c-.135-8.721-4.163-18.421-5.64-26.855-1.787-10.202 2.471-7.079-.099-21.303-.179-.994 27.454-5.531 28.61-4.519 11.627 10.168 1.039 53.809-2.83 58.601-.244.303-.536.581-.867.834.648 2.983.876 8.584-.138 16.713-.038.309-.086.614-.143.916-1.445 11.382-7.352 36.499-7.193 54.114.039 4.376-4.301 7.55-8.658 7.129-4.356-.422-7.519-4.299-7.128-8.658 2.812-31.399-4.495-48.527-3.96-55.625.011-.165.026-.33.043-.494.245-2.347 1.196-11.615 5.752-18.552.598-.911 1.365-1.678 2.251-2.301z" fill="#feefe7" transform="matrix(.661236 .756259 -.756259 .661236 303.402 67.75)"/><path d="m91.369 214.403c-.135-8.721-4.163-18.421-5.64-26.855-1.787-10.202 2.471-7.079-.099-21.303-.179-.994 27.454-5.531 28.61-4.519 11.627 10.168 1.039 53.809-2.83 58.601-.244.303-.536.581-.867.834.648 2.983.876 8.584-.138 16.713-.038.309-.086.614-.143.916-1.445 11.382-7.352 36.499-7.193 54.114.039 4.376-4.301 7.55-8.658 7.129-4.356-.422-7.519-4.299-7.128-8.658 2.812-31.399-4.495-48.527-3.96-55.625l.043-.494c.245-2.347 1.196-11.615 5.752-18.552.598-.911 1.365-1.678 2.251-2.301zm21.661-50.199c1.231 1.321 2.069 3.185 2.674 5.376 1.196 4.329 1.402 9.856 1.057 15.629-.622 10.417-3.076 21.617-5.273 28.363-.822 2.526-1.525 4.37-2.12 5.106-.117.146-.259.276-.418.397-.809.618-1.188 1.648-.972 2.643.614 2.826.784 8.131-.177 15.831-.031.253-.071.504-.118.752l-.025.158c-1.454 11.457-7.374 36.74-7.213 54.469.025 2.857-2.937 4.768-5.781 4.493-2.92-.283-5.029-2.89-4.768-5.812 2-22.321-1.028-37.541-2.843-47.136-.71-3.751-1.261-6.554-1.113-8.526l.036-.418c.23-2.197 1.07-10.889 5.335-17.384.416-.634.952-1.163 1.568-1.595.71-.5 1.127-1.319 1.114-2.187-.137-8.852-4.179-18.708-5.679-27.268-.792-4.522-.244-6.09.217-8.105.509-2.223.975-4.889.044-11.038 5.493-1.364 20.191-3.711 24.455-3.748z" transform="matrix(.661236 .756259 -.756259 .661236 303.402 67.75)"/><path d="m115.84 149.226-23.254-28.653c1.701-1.586 10.41-7.993 16.154-15.532 4.918-6.454 4.97-9.629 14.295-17.157 7.173-5.79 17.328-7.559 17.328-7.559l21.783 27.231s-12.286 9.569-15.016 12.879c-.075.09-.149.18-.223.271-6.193 7.52-13.437 14.288-31.067 28.52z" fill="#aaabaf" transform="translate(119.35383 139.49013)"/><path d="m115.84 149.226-23.254-28.653c1.701-1.586 10.41-7.993 16.154-15.532 4.918-6.454 4.97-9.629 14.295-17.157 7.173-5.79 17.328-7.559 17.328-7.559l21.783 27.231s-12.286 9.569-15.016 12.879c-.075.09-.149.18-.223.271-6.193 7.52-13.437 14.288-31.067 28.52zm.388-3.706-19.967-24.602c3.364-2.769 9.919-8.166 14.576-14.279 4.779-6.272 4.792-9.388 13.854-16.704 5.052-4.078 11.698-6.001 14.628-6.694 0 0 19.113 23.893 19.113 23.893-3.709 2.962-11.244 9.087-13.336 11.624-.075.09-.15.181-.224.272-5.87 7.127-12.708 13.557-28.644 26.49z" transform="translate(119.35383 139.49013)"/><g transform="matrix(.916636 .399724 -.399724 .916636 152.7188 57.8326)"><path d="m212.579 29.938c3.653-5.264-1.156-9.271 8.601-20.522 9.756-11.251 23.955 1.53 26.372 7.823.811 2.113.927 6.673.464 9.614-.464 2.941-2.031 2.822-2.631 5.188-.599 2.366 2.492 7.515 1.238 8.769s-3.82 1.022-3.82 1.022c-1.059 3.032-3.474 4.042-3.474 4.042.482 6.557-4.408 6.032-5.712 5.735s-7.563-4.619-7.563-4.619c-7.542 10.322-8.551 12.716-8.551 12.716l-11.637-21.34s2.998-3.074 6.713-8.428z" fill="#feefe7" transform="matrix(.999258 -.0385184 .0385184 .999258 -1.64277 10.0664)"/><path d="m212.579 29.938c3.653-5.264-1.156-9.271 8.601-20.522 9.756-11.251 23.955 1.53 26.372 7.823.811 2.113.927 6.673.464 9.614-.464 2.941-2.031 2.822-2.631 5.188-.599 2.366 2.492 7.515 1.238 8.769s-3.82 1.022-3.82 1.022c-1.059 3.032-3.474 4.042-3.474 4.042.482 6.557-4.408 6.032-5.712 5.735s-7.563-4.619-7.563-4.619c-7.542 10.322-8.551 12.716-8.551 12.716l-11.637-21.34s2.998-3.074 6.713-8.428zm31.553 9.217-.213.02c-.487.06-.879.031-.879.031-1.204-.109-2.327.615-2.726 1.757-.633 1.812-2.002 2.478-2.002 2.478-1.046.438-1.695 1.495-1.612 2.626.105 1.428-.004 2.301-.523 2.75-.598.517-1.46.34-1.874.245-.129-.066-.927-.476-1.538-.843-2.227-1.336-5.213-3.399-5.213-3.399-1.175-.812-2.783-.539-3.626.614-2.981 4.079-4.974 6.971-6.3 8.989-.001 0-8.547-15.672-8.547-15.672 1.27-1.451 3.333-3.948 5.666-7.31 1.378-1.986 1.831-3.819 2.076-5.809.413-3.365.126-7.311 6.35-14.489 3.899-4.496 8.7-4.103 12.753-2.044 4.424 2.246 8.113 6.34 9.167 9.085.697 1.814.718 5.733.321 8.258-.227 1.439-.932 1.774-1.418 2.446-.464.642-.884 1.399-1.164 2.505-.387 1.527.204 3.987.902 6.233.144.462.293 1.066.4 1.529z" transform="matrix(.999258 -.0385184 .0385184 .999258 -1.64277 10.0664)"/><path d="m247.373 24.104s4.032-3.731 1.32-8.659c-1.787-3.246-8.059-8.143-13.009-10.249-4.951-2.106-10.35-2.547-14.757-.395-5.973 2.916-8.699 8.036-10.762 15.29-1.078 3.788-1.286 12.518 3.238 15.199 1.858 1.1 3.841-7.149 6.118-8.323 1.763-.91 3.64.33 5.941 1.188 2.682 1 5.252-1.78 5.252-1.78s2.27-3.572 4.185-4.691c1.916-1.119 4.007-.79 5.872-.192 2.113.677 6.602 2.612 6.602 2.612z" fill="#996533"/><path d="m247.373 24.104s4.032-3.731 1.32-8.659c-1.787-3.246-8.059-8.143-13.009-10.249-4.951-2.106-10.35-2.547-14.757-.395-5.973 2.916-8.699 8.036-10.762 15.29-1.078 3.788-1.286 12.518 3.238 15.199 1.858 1.1 3.841-7.149 6.118-8.323 1.763-.91 3.64.33 5.941 1.188 2.682 1 5.252-1.78 5.252-1.78s2.27-3.572 4.185-4.691c1.916-1.119 4.007-.79 5.872-.192 2.113.677 6.602 2.612 6.602 2.612zm-33.941 7.529c-.4-.689-.666-1.511-.867-2.365-.704-2.988-.423-6.491.136-8.456 1.827-6.423 4.093-11.06 9.382-13.642 3.755-1.833 8.351-1.342 12.569.452 4.437 1.888 10.13 6.185 11.731 9.094.935 1.7.605 3.174.115 4.16-1.54-.638-3.648-1.486-4.922-1.895-2.545-.816-5.392-1.101-8.007.427-1.938 1.132-4.23 4.318-4.892 5.276-.158.147-.485.43-.911.679-.379.22-.864.515-1.383.322-1.514-.565-2.871-1.252-4.124-1.519-1.374-.292-2.674-.199-3.947.458-1.06.547-2.247 2.011-3.227 3.882-.472.9-1.135 2.153-1.653 3.127z"/></g><path d="m140.674 85.714 21.749 27.168s7.892-5.608 15.498-11.435c3.844-2.944 26.585-12.337 34.814-22.682 4.074-5.122 6.226-14.733 5.343-19.053-2.903-14.193-8.131-19.793-8.131-19.793-7.671-1.25-21.654 5.628-30.885 13.237-8.135 6.706-13.869 12.446-21.591 18.923-4.416 3.703-16.797 13.635-16.797 13.635z" fill="#4b6097" transform="translate(116.62024 136.1038)"/><path d="m140.674 85.714 21.749 27.168s7.892-5.608 15.498-11.435c3.844-2.944 26.585-12.337 34.814-22.682 4.074-5.122 6.226-14.733 5.343-19.053-2.903-14.193-8.131-19.793-8.131-19.793-7.671-1.25-21.654 5.628-30.885 13.237-8.135 6.706-13.869 12.446-21.591 18.923-4.416 3.703-16.797 13.635-16.797 13.635zm3.703.407c3.716-2.99 11.481-9.248 14.788-12.022 7.716-6.471 13.445-12.208 21.574-18.908 5.322-4.388 12.286-8.527 18.6-10.873 3.438-1.277 6.653-2.051 9.231-1.9 1.332 1.822 4.775 7.313 6.925 17.822.784 3.834-1.208 12.339-4.823 16.884-3.938 4.95-11.387 9.618-18.272 13.455-7.347 4.094-14.12 7.272-16.082 8.775-5.222 4-10.579 7.897-13.399 9.929z" transform="translate(116.62024 136.1038)"/><path d="m93.225 111.115c-.635-2.585-6.009-27.462-5.142-33.865.805-5.944 16.453-10.61 17.157-5.298.536 4.047 3.115 10.808 3.14 10.944.724 3.907 2.099 9.569 2.902 14.31.793 4.688 1.595 11.779 1.914 14.134 2.955 2.422 12.979 11.069 17.728 14.528 3.35 2.44 8.969 5.188 10.763 6.225 2.926 1.448 10.785 6.268 17.557 8.687 1.137.406 2.657 1.085 4.003 1.856l.001.001c.276.158.546.32.803.485 3.537 2.193 5.376 3.908 5.376 7.348 0 3.688-.909 7.659-7.135 7.582v-6.619c-3.46.16-10.451.214-14.504-1.823-2.062-1.037-5.306-4.275-8.362-5.706-3.907-1.829-10.62-3.418-15.077-5.271-14.645-6.087-22.664-11.82-25.918-15.669 0-.001 0-.002-.001-.003-.003-.008-.009-.031-.018-.043-1.679-2.02-3.51-4.981-5.187-11.803z" fill="#feefe7" transform="matrix(.63099503 .78166819 -.78166819 .63099503 309.733587 72.86019)"/><path d="m165.464 144.041c2.613 1.8 3.963 3.481 3.963 6.429 0 3.688-.909 7.659-7.135 7.582v-6.619c-3.46.16-10.451.214-14.504-1.823-2.062-1.037-5.306-4.275-8.362-5.706-3.907-1.829-2.1-1.556-15.077-5.271-14.645-6.087-22.664-11.82-25.918-15.669 0-.001 0-.002-.001-.003-.003-.008 0-.001-.018-.043-1.679-2.02-3.51-4.981-5.187-11.803-.635-2.585-6.009-27.462-5.142-33.865.805-5.944 16.453-10.61 17.157-5.298.536 4.047 3.115 10.808 3.14 10.944.724 3.907 2.099 9.569 2.902 14.31.793 4.688 1.595 11.779 1.914 14.134 2.955 2.422 13.324 11.256 17.728 14.528 2.697 2.004 5.818 3.365 8.695 5.104l.248.132c.625.298 1.517.824 1.82.989.303.161 1.818.964 1.818.964l.281.153c3.86 2.305 9.805 5.55 15.458 7.57 1.137.406 2.657 1.085 4.003 1.856l.001.001c.276.158.546.32.803.485l.068.043.748.476.134.087.03.02zm-62.8-71.563c.55 3.834 2.71 9.801 3.166 11.073l.007.02c.73 3.888 2.07 9.425 2.857 14.073.789 4.659 1.584 11.707 1.901 14.049-.068-.503-.008.903.938 1.677 2.973 2.437 13.066 11.138 17.846 14.619 3.424 2.494 9.16 5.315 10.994 6.376l.15.08c2.972 1.471 10.961 6.35 17.838 8.806 1.017.364 2.377.973 3.582 1.663.397.227.397.227 0 0 .239.137.471.276.693.419.011.006.021.013.032.02 2.556 1.584 4.135 2.631 4.135 5.117 0 1.48-.014 3.088-1.089 4.079-.222.205-.487.372-.798.502v-3.618c0-.717-.293-1.402-.812-1.898-.518-.495-1.217-.756-1.933-.723-3.147.145-9.518.306-13.204-1.547-2.077-1.044-5.35-4.296-8.428-5.738-3.935-1.842-10.693-3.451-15.183-5.317-13.929-5.79-21.665-11.155-24.838-14.846-.03-.048-.06-.09-.088-.124-1.526-1.835-3.133-4.551-4.656-10.751-.617-2.512-5.933-26.666-5.09-32.887.113-.839.865-1.536 1.742-2.218 1.915-1.488 4.69-2.589 7.122-2.983.951-.154 1.842-.204 2.584-.081.169.028.4.108.532.158z" transform="matrix(.63099503 .78166819 -.78166819 .63099503 309.733587 72.86019)"/><g transform="matrix(.72707 .69320377 -.69320377 .72707 158.02974 -46.354943)"><path d="m267.027 62.199c1.197-7.341 4.886-10.905 10.905-10.905s10.209 3.746 10.906 10.905c.719 6.171 1 18.779 1 18.779h-23.811s.142-13.518 1-18.779z" fill="#4b6097"/><path d="m267.027 62.199c1.197-7.341 4.886-10.905 10.905-10.905s10.209 3.746 10.906 10.905c.719 6.171 1 18.779 1 18.779h-23.811s.142-13.518 1-18.779zm19.025.271.005.053c.496 4.256.779 11.615.904 15.656h-18.089c.087-4.174.323-11.882.918-15.529.568-3.483 1.693-5.968 3.652-7.337 1.213-.848 2.721-1.22 4.49-1.22 2.213 0 4.112.631 5.499 1.978 1.476 1.432 2.348 3.599 2.621 6.399z"/></g></g><g fill="#ec3237"><path d="m49.871 198.616v-9.238h17.293v-8.577l26.672 13.196-26.672 13.196v-8.577z" transform="matrix(0 -.374435 .374154 0 -37.2161 184.752)"/><path d="m49.871 198.616v-9.238h17.293v-8.577l26.672 13.196-26.672 13.196v-8.577z" transform="matrix(0 .374435 -.374154 0 207.522 130.944)"/></g></g></svg>