<svg clip-rule="evenodd" fill-rule="evenodd" stroke-linejoin="round" stroke-miterlimit="2" viewBox="0 0 568 386" xmlns="http://www.w3.org/2000/svg"><path d="m0 0h568v386h-568z" fill="none"/><path d="m75.791 225.373h18.065v135.323h-18.065z" fill="#d2d3d5" transform="matrix(.63094711979 0 0 .59339720477 17.4112818928 -61.6005409936)"/><path d="m93.856 225.373h-18.065v135.323h18.065zm-5.283 5.617v124.088h-7.499v-124.088z" transform="matrix(.63094711979 0 0 .59339720477 17.4112818928 -61.6005409936)"/><path d="m75.791 225.373h18.065v135.323h-18.065z" fill="#d2d3d5" transform="matrix(0 -.55258824299 .59339720477 0 -102.9555 194.316203648)"/><path d="m93.856 225.373h-18.065v135.323h18.065zm-6.032 5.617v124.088h-6.001v-124.088z" transform="matrix(0 -.55258824299 .59339720477 0 -102.9555 194.316203648)"/><path d="m75.791 225.373h18.065v135.323h-18.065z" fill="#d2d3d5" transform="matrix(.69917250064 0 0 .65756485584 -9.30225674176 -40.25391667867)"/><path d="m93.856 225.373h-18.065v135.323h18.065zm-4.768 5.069v125.184h-8.53v-125.184z" transform="matrix(.69917250064 0 0 .65756485584 -9.30225674176 -40.25391667867)"/><path d="m75.791 225.373h18.065v135.323h-18.065z" fill="#d2d3d5" transform="matrix(0 -.61234377741 .65756485584 0 -142.684894336 243.33709696)"/><path d="m93.856 225.373h-18.065v135.323h18.065zm-5.444 5.069v125.184h-7.178v-125.184z" transform="matrix(0 -.61234377741 .65756485584 0 -142.684894336 243.33709696)"/><path d="m131.173 212.467h-53.957l-38.216 15.24v6.406h92.173z" fill="#f68634" transform="matrix(.6653285536 0 0 2.20196975344 -5.72285278178 -401.62405512)"/><path d="m131.173 212.467h-53.957l-38.216 15.24v6.406h92.173zm-5.027 1.519v18.608h-82.118v-4.376s35.686-14.232 35.686-14.232z" transform="matrix(.6653285536 0 0 2.20196975344 -5.72285278178 -401.62405512)"/><path d="m39 212.467h93.67v21.646h-93.67z" fill="#f68634" transform="matrix(.62602442352 0 0 .65166365802 -4.19008161792 -38.67684846736)"/><path d="m132.671 212.467h-93.671v21.646h93.671zm-5.331 5.121v11.404h-83.009v-11.404z" transform="matrix(.62602442352 0 0 .65166365802 -4.19008161792 -38.67684846736)"/><g transform="matrix(.11987201843 -1.1582872664 1.1279018728 .11672716301 7.8753215968 304.630932944)"><path d="m397.836 323.823c-1.751.611-2.515.989-2.893 2.804-.921 4.426-2.133 17.028-1.902 22.237.138 3.114.886 7.567 3.575 9.144 3.014 1.767 9.61 1.825 14.636 1.673 5.048-.153 11.441-.131 16.545.046 5.687.198 11.322 1.151 17.601 1.262 6.31.111 13.822.266 19.035-.665 4.338-.775 9.001-2.658 12.22-5.046 3.129-2.322 6.421-6.059 7.097-9.286.394-1.885-1.268-4.3-3.107-4.87-2.983-.923-10.298.092-15.105-1.022-4.826-1.119-9.448-3.617-13.851-5.689-4.167-1.962-8.705-3.608-12.247-6.395s-6.96-9.283-9.135-10.45c-1.567-.841-4.227-1.753-6.811-1.251-2.858.555-1.402 7.867-2.449 10.18-1.244 2.746-3.804 4.554-9.423 4.554-4.515 0-4.562-2.348-8.116-4.661-2.803-1.825-4.509-2.969-5.67-2.565z" fill="#4b4b4d" transform="matrix(.55421776216 -.1050429408 .10228706821 .56915086954 -115.9454087374 108.40837887991)"/><path d="m397.836 323.823c-1.751.611-2.515.989-2.893 2.804-.921 4.426-2.133 17.028-1.902 22.237.138 3.114.886 7.567 3.575 9.144 3.014 1.767 9.61 1.825 14.636 1.673 5.048-.153 11.441-.131 16.545.046 5.687.198 11.322 1.151 17.601 1.262 6.31.111 13.822.266 19.035-.665 4.338-.775 9.001-2.658 12.22-5.046 3.129-2.322 6.421-6.059 7.097-9.286.394-1.885-1.268-4.3-3.107-4.87-2.983-.923-10.298.092-15.105-1.022-4.826-1.119-9.448-3.617-13.851-5.689-4.167-1.962-8.705-3.608-12.247-6.395s-6.96-9.283-9.135-10.45c-1.567-.841-4.227-1.753-6.811-1.251-2.858.555-1.402 7.867-2.449 10.18-1.244 2.746-3.804 4.554-9.423 4.554-4.515 0-4.562-2.348-8.116-4.661-2.803-1.825-4.509-2.969-5.67-2.565zm80.658 22.012c-.837 1.968-2.984 3.966-4.867 5.364-2.654 1.969-6.512 3.486-10.088 4.125-4.943.883-12.068.692-18.052.586-6.248-.11-11.854-1.062-17.514-1.259-5.206-.181-11.726-.203-16.875-.047-2.767.084-6.054.113-8.838-.239-1.23-.156-2.341-.309-3.075-.739-.346-.203-.334-.716-.473-1.153-.402-1.264-.545-2.675-.597-3.834-.186-4.21.631-13.54 1.417-18.752.404.248.822.51 1.203.758 1.533.998 2.279 2.039 3.16 2.795 1.794 1.54 3.759 2.688 7.727 2.688 8.56 0 12.154-3.353 14.049-7.537.41-.904.714-2.198.83-3.72.064-.84.149-2.21.217-3.35.352.119.674.262.949.4.275.331 1.704 2.06 2.612 3.286 1.842 2.487 3.941 5.164 6.02 6.8 3.836 3.018 8.712 4.875 13.225 6.999 4.718 2.222 9.695 4.843 14.867 6.042 2.738.634 6.188.713 9.382.714 1.824 0 3.53-.103 4.721.073zm.151-.4c.013-.082.038-.167.065-.249.026-.083.053-.163.068-.235-.034.161-.078.322-.133.484z" transform="matrix(.55421776216 -.1050429408 .10228706821 .56915086954 -115.9454087374 108.40837887991)"/><path d="m412.634 350.155c-4.077-.379-8.608-.517-12.125-1.965-1.314-.541-7.412-4.079-7.412-4.079l-.056 4.753c.138 3.114.886 7.567 3.575 9.144 3.014 1.767 9.61 1.825 14.636 1.673 5.048-.153 11.441-.131 16.545.046 5.687.198 11.322 1.151 17.601 1.262 6.31.111 13.822.266 19.035-.665 4.338-.775 9.001-2.658 12.22-5.046 3.129-2.322 6.421-6.059 7.097-9.286.135-.648.028-1.359-.247-2.036l-2.153 1.572s-13.711 5.246-20.992 6.412c-7.358 1.178-15.54-.057-23.303-.347-7.954-.297-18.33-.87-24.421-1.438z" fill="#bebfc1" transform="matrix(.55421776216 -.1050429408 .10228706821 .56915086954 -115.9454087374 108.40837887991)"/><path d="m412.634 350.155c-4.077-.379-8.608-.517-12.125-1.965-1.314-.541-7.412-4.079-7.412-4.079l-.056 4.753c.138 3.114.886 7.567 3.575 9.144 3.014 1.767 9.61 1.825 14.636 1.673 5.048-.153 11.441-.131 16.545.046 5.687.198 11.322 1.151 17.601 1.262 6.31.111 13.822.266 19.035-.665 4.338-.775 9.001-2.658 12.22-5.046 3.129-2.322 6.421-6.059 7.097-9.286.135-.648.028-1.359-.247-2.036l-2.153 1.572s-13.711 5.246-20.992 6.412c-7.358 1.178-15.54-.057-23.303-.347-7.954-.297-18.33-.87-24.421-1.438zm62.181 1.735-.432.328c-2.795 2.074-6.854 3.683-10.62 4.356-5.011.895-12.233.713-18.298.606-6.256-.11-11.869-1.063-17.536-1.26-5.181-.18-11.669-.202-16.792-.047-2.83.086-6.19.112-9.036-.248-1.428-.181-2.707-.404-3.558-.903-.592-.348-.803-1.115-1.041-1.864-.224-.704-.376-1.449-.477-2.177.899.486 1.655.876 2.034 1.032 3.84 1.58 8.771 1.821 13.221 2.235 6.144.573 16.61 1.152 24.632 1.452 8.011.299 16.455 1.517 24.048.302 3.813-.611 9.331-2.295 13.855-3.812z" transform="matrix(.55421776216 -.1050429408 .10228706821 .56915086954 -115.9454087374 108.40837887991)"/><path d="m46.077 161.302c6.192-5.731 17.446-11.511 23.215-16.78 4.61-4.211 7.724-10.383 11.295-15.374 3.889-5.436 10.537-14.235 10.537-14.235l22.148-5.754-8.552 38.022s-5.756 3.65-8.741 5.815c-3.927 2.848-9.591 8.407-14.447 12.211-6.105 4.783-14.773 11.229-22.207 16.778-8.471 6.324-14.693 8.501-28.62 21.165-.732.665-2.934 3.975-4.007 4.501-3.685 1.805-7.511-.215-9.698-2.825-1.325-1.581-2.629-5.023-1.939-7.257.703-2.277 3.632-5.118 5.41-6.631 0 0 8.415-7.625 11.987-11.759 4.267-4.939 8.121-12.789 13.619-17.877z" fill="#feefe7" transform="matrix(.57827 -.837824 .794443 .57827 -25.434 153.796)"/><path d="m46.077 161.302c6.192-5.731 17.446-11.511 23.215-16.78 4.61-4.211 7.724-10.383 11.295-15.374 3.889-5.436 10.537-14.235 10.537-14.235l22.148-5.754-8.552 38.022s-5.756 3.65-8.741 5.815c-3.927 2.848-9.591 8.407-14.447 12.211-6.105 4.783-14.773 11.229-22.207 16.778-8.471 6.324-14.693 8.501-28.62 21.165-.732.665-2.934 3.975-4.007 4.501-3.685 1.805-7.511-.215-9.698-2.825-1.325-1.581-2.629-5.023-1.939-7.257.703-2.277 3.632-5.118 5.41-6.631 0 0 8.415-7.625 11.987-11.759 4.267-4.939 8.121-12.789 13.619-17.877zm-20.663 43.92c-2.455 1.111-4.923-.455-6.38-2.194-.566-.675-1.099-1.839-1.351-2.996-.126-.577-.211-1.154-.064-1.629.578-1.872 3.103-4.1 4.564-5.342.021-.018.043-.037.064-.056 0 0 8.576-7.782 12.218-11.997 4.21-4.873 7.984-12.639 13.408-17.659 6.189-5.727 17.437-11.502 23.202-16.768 4.748-4.337 7.997-10.661 11.674-15.802 3.191-4.46 8.248-11.193 9.93-13.427.001 0 16.989-4.414 16.989-4.414s-7.312 32.507-7.312 32.507c-1.783 1.144-5.648 3.648-7.925 5.299-3.948 2.864-9.645 8.448-14.527 12.272-6.091 4.773-14.739 11.203-22.157 16.74-8.533 6.37-14.792 8.574-28.821 21.33-.608.553-3.245 3.806-3.512 4.136z" transform="matrix(.57827 -.837824 .794443 .57827 -25.434 153.796)"/><g transform="matrix(.0580151 .575686 -.560584 .059578 293.182 -42.8713)"><path d="m397.836 323.823c-1.751.611-2.515.989-2.893 2.804-.921 4.426-2.133 17.028-1.902 22.237.138 3.114.886 7.567 3.575 9.144 3.014 1.767 9.61 1.825 14.636 1.673 5.048-.153 11.441-.131 16.545.046 5.687.198 11.322 1.151 17.601 1.262 6.31.111 13.822.266 19.035-.665 4.338-.775 9.001-2.658 12.22-5.046 3.129-2.322 6.421-6.059 7.097-9.286.394-1.885-1.268-4.3-3.107-4.87-2.983-.923-10.298.092-15.105-1.022-4.826-1.119-9.448-3.617-13.851-5.689-4.167-1.962-8.705-3.608-12.247-6.395s-7.756-8.844-9.93-10.011c-1.568-.841-4.753-2.022-7.337-1.52-2.857.555-.081 7.697-1.128 10.01-1.244 2.746-3.804 4.554-9.423 4.554-4.515 0-4.562-2.348-8.116-4.661-2.803-1.825-4.509-2.969-5.67-2.565z" fill="#4b4b4d"/><path d="m397.836 323.823c-1.751.611-2.515.989-2.893 2.804-.921 4.426-2.133 17.028-1.902 22.237.138 3.114.886 7.567 3.575 9.144 3.014 1.767 9.61 1.825 14.636 1.673 5.048-.153 11.441-.131 16.545.046 5.687.198 11.322 1.151 17.601 1.262 6.31.111 13.822.266 19.035-.665 4.338-.775 9.001-2.658 12.22-5.046 3.129-2.322 6.421-6.059 7.097-9.286.394-1.885-1.268-4.3-3.107-4.87-2.983-.923-10.298.092-15.105-1.022-4.826-1.119-9.448-3.617-13.851-5.689-4.167-1.962-8.705-3.608-12.247-6.395s-7.756-8.844-9.93-10.011c-1.568-.841-4.753-2.022-7.337-1.52-2.857.555-.081 7.697-1.128 10.01-1.244 2.746-3.804 4.554-9.423 4.554-4.515 0-4.562-2.348-8.116-4.661-2.803-1.825-4.509-2.969-5.67-2.565zm28.371-1.783c.299.13.567.264.789.382.167.161 1.348 1.305 2.141 2.193 2.214 2.477 4.837 5.563 7.162 7.392 3.836 3.018 8.712 4.875 13.225 6.999 4.718 2.222 9.695 4.843 14.867 6.042 2.738.634 6.188.713 9.382.714 1.824 0 3.53-.103 4.721.073-.837 1.968-2.984 3.966-4.867 5.364-2.654 1.969-6.512 3.486-10.088 4.125-4.943.883-12.068.692-18.052.586-6.248-.11-11.854-1.062-17.514-1.259-5.206-.181-11.726-.203-16.875-.047-2.767.084-6.054.113-8.838-.239-1.23-.156-2.341-.309-3.075-.739-.346-.203-.334-.716-.473-1.153-.402-1.264-.545-2.675-.597-3.834-.186-4.21.631-13.54 1.417-18.752.404.248.822.51 1.203.758 1.533.998 2.279 2.039 3.16 2.795 1.794 1.54 3.759 2.688 7.727 2.688 8.56 0 12.154-3.353 14.049-7.537.475-1.049.755-2.533.691-4.273-.022-.591-.082-1.434-.155-2.278zm52.438 23.395c.013-.082.038-.167.065-.249.026-.083.053-.163.068-.235-.034.161-.078.322-.133.484z"/><path d="m412.634 350.155c-4.077-.379-8.608-.517-12.125-1.965-1.314-.541-7.412-4.079-7.412-4.079l-.056 4.753c.138 3.114.886 7.567 3.575 9.144 3.014 1.767 9.61 1.825 14.636 1.673 5.048-.153 11.441-.131 16.545.046 5.687.198 11.322 1.151 17.601 1.262 6.31.111 13.822.266 19.035-.665 4.338-.775 9.001-2.658 12.22-5.046 3.129-2.322 6.421-6.059 7.097-9.286.135-.648.028-1.359-.247-2.036l-2.153 1.572s-13.711 5.246-20.992 6.412c-7.358 1.178-15.54-.057-23.303-.347-7.954-.297-18.33-.87-24.421-1.438z" fill="#bebfc1"/><path d="m412.634 350.155c-4.077-.379-8.608-.517-12.125-1.965-1.314-.541-7.412-4.079-7.412-4.079l-.056 4.753c.138 3.114.886 7.567 3.575 9.144 3.014 1.767 9.61 1.825 14.636 1.673 5.048-.153 11.441-.131 16.545.046 5.687.198 11.322 1.151 17.601 1.262 6.31.111 13.822.266 19.035-.665 4.338-.775 9.001-2.658 12.22-5.046 3.129-2.322 6.421-6.059 7.097-9.286.135-.648.028-1.359-.247-2.036l-2.153 1.572s-13.711 5.246-20.992 6.412c-7.358 1.178-15.54-.057-23.303-.347-7.954-.297-18.33-.87-24.421-1.438zm-15.609.526c.899.486 1.655.876 2.034 1.032 3.84 1.58 8.771 1.821 13.221 2.235 6.144.573 16.61 1.152 24.632 1.452 8.011.299 16.455 1.517 24.048.302 3.813-.611 9.331-2.295 13.855-3.812l-.432.328c-2.795 2.074-6.854 3.683-10.62 4.356-5.011.895-12.233.713-18.298.606-6.256-.11-11.869-1.063-17.536-1.26-5.181-.18-11.669-.202-16.792-.047-2.83.086-6.19.112-9.036-.248-1.428-.181-2.707-.404-3.558-.903-.592-.348-.803-1.115-1.041-1.864-.224-.704-.376-1.449-.477-2.177z"/><path d="m261.724 252.548s22.243-15.632 31.879-21.957c8.491-5.574 18.701-13.073 25.937-15.995 5.424-2.191 12.476-2.621 17.48-1.542 4.85 1.047 8.942 4.603 12.539 8.021 4.767 4.53 11.169 12.413 16.062 19.159 5.465 7.534 10.824 17.583 16.727 26.045 6.035 8.651 12.566 17.578 19.483 25.864 7.265 8.703 20.387 20.921 22.884 25.37 1.784 3.179 1.646 8.225.186 10.9-1.452 2.662-5.381 5.606-8.246 6.229s-10.052.725-12.458-1.5c-5.207-4.816-10.663-10.904-17.058-15.475-7.883-5.635-21.234-14.038-28.728-19.137-5.441-3.702-11.214-7.662-15.196-12.061-3.709-4.098-6.588-10.965-8.447-15.344-1.591-3.75-2.658-11.885-2.658-11.885s-.67.878-4.154 6.423c-3.904 6.215-11.059 15.594-12.987 18.2-3.061 4.136-6.878 11.989-9.257 15.727-2.104 3.306-8.297 8.285-8.297 8.285l-51.542-26.039z" fill="#feefe7"/><path d="m261.724 252.548s22.243-15.632 31.879-21.957c8.491-5.574 18.701-13.073 25.937-15.995 5.424-2.191 12.476-2.621 17.48-1.542 4.85 1.047 8.942 4.603 12.539 8.021 4.767 4.53 11.169 12.413 16.062 19.159 5.465 7.534 10.824 17.583 16.727 26.045 6.035 8.651 12.566 17.578 19.483 25.864 7.265 8.703 20.387 20.921 22.884 25.37 1.784 3.179 1.646 8.225.186 10.9-1.452 2.662-5.381 5.606-8.246 6.229s-10.052.725-12.458-1.5c-5.207-4.816-10.663-10.904-17.058-15.475-7.883-5.635-21.234-14.038-28.728-19.137-5.441-3.702-11.214-7.662-15.196-12.061-3.709-4.098-6.588-10.965-8.447-15.344-1.591-3.75-2.658-11.885-2.658-11.885s-.67.878-4.154 6.423c-3.904 6.215-11.059 15.594-12.987 18.2-3.061 4.136-6.878 11.989-9.257 15.727-2.104 3.306-8.297 8.285-8.297 8.285l-51.542-26.039zm145.787 76.739c-5.311-4.928-10.902-11.094-17.418-15.752-7.91-5.654-21.305-14.088-28.824-19.204-5.104-3.473-10.553-7.144-14.288-11.271-3.353-3.704-5.857-9.962-7.537-13.92-1.413-3.327-2.298-10.56-2.298-10.56-.267-2.04 0-9.987 0-9.987-4.86 1.654-6.727 4.613-9.073 7.565-.729.917-.723.922-4.418 6.803-3.836 6.107-10.874 15.32-12.77 17.882-3.119 4.216-7.032 12.209-9.458 16.02-.987 1.551-3.042 3.512-4.704 4.972 0 0-43.897-22.177-43.897-22.177s12.795-23.64 12.795-23.64l.001-.001c4.383-3.074 22.376-15.671 30.768-21.18 8.214-5.392 18.053-12.705 25.053-15.532 4.5-1.818 10.353-2.182 14.505-1.286 3.959.855 7.176 3.948 10.112 6.738 4.59 4.361 10.738 11.964 15.449 18.46 5.449 7.511 10.788 17.531 16.673 25.968 6.117 8.769 12.739 17.815 19.75 26.213 7.068 8.467 19.924 20.272 22.354 24.601.979 1.745.958 4.513.157 5.981-.859 1.575-3.172 3.33-4.867 3.699-1.333.29-3.871.403-6.091.099-.691-.094-1.756-.422-1.974-.491z"/></g><path d="m142.158 74.225c-2.708 1.438-6.759 1.717-8.938 2.167-2.926.605-3.841 1.745-3.841 1.745l6.456 15.282 11.004 9.213 9.131 5.833s5.466-3.103 8.317-4.448c2.797-1.319 5.779-2.219 8.739-3.112 3.02-.91 6.439-2.082 8.658-2.989 1.455-.595 3.469-1.984 4.929-2.784 2.125-1.164 5.153-.396 8.541-3.567 0 0 4.828 2.264 9.967-.327 2.725-1.373 7.52-6.736 9.652-14.551 1.782-6.528 3.619-11.092 3.489-15.717-.277-9.847-5.626-22.339-10.165-22.486-13.397-.435-24.76 6.391-32.543 11.594-5.976 3.996-11.557 8.909-15.318 11.972-4.469 3.639-13.575 9.785-18.078 12.175z" fill="#f7acb0"/><path d="m142.158 74.225c-2.708 1.438-6.759 1.717-8.938 2.167-2.926.605-3.841 1.745-3.841 1.745l6.456 15.282 11.004 9.213 9.131 5.833s5.466-3.103 8.317-4.448c2.797-1.319 5.779-2.219 8.739-3.112 3.02-.91 6.439-2.082 8.658-2.989 1.455-.595 3.469-1.984 4.929-2.784 2.125-1.164 5.153-.396 8.541-3.567 0 0 4.828 2.264 9.967-.327 2.725-1.373 7.52-6.736 9.652-14.551 1.782-6.528 3.619-11.092 3.489-15.717-.277-9.847-5.626-22.339-10.165-22.486-13.397-.435-24.76 6.391-32.543 11.594-5.976 3.996-11.557 8.909-15.318 11.972-4.469 3.639-13.575 9.785-18.078 12.175zm-9.342 5.121c.278-.094.59-.181.933-.252 2.355-.486 6.715-.867 9.641-2.421h.001c4.61-2.447 13.937-8.738 18.512-12.464 3.712-3.022 9.217-7.878 15.115-11.821 7.421-4.961 18.222-11.564 30.994-11.15.357.012.652.347 1.016.7.763.74 1.498 1.8 2.199 3.057 2.358 4.235 4.199 10.586 4.352 16.054.124 4.389-1.699 8.7-3.39 14.895-1.861 6.82-5.872 11.622-8.25 12.82-3.956 1.994-7.671.294-7.671.294-.978-.458-2.127-.273-2.922.47-1.558 1.459-3.033 1.798-4.303 2.055-1.389.28-2.624.532-3.694 1.118-1.382.757-3.279 2.091-4.658 2.654-2.158.883-5.484 2.02-8.421 2.906-3.085.931-6.189 1.877-9.103 3.252-2.002.944-5.264 2.734-7.11 3.762 0 0-7.655-4.89-7.655-4.89s-10.365-8.678-10.365-8.678z"/><path d="m252.993 350.822s11.471-2.557 17.156-4.035c6.018-1.565 18.95-5.354 18.95-5.354s3.072-6.721 2.833-13.384c-.299-8.33-3.989-20.174-3.989-20.174l-32.579 13.117z" fill="#aaabaf" transform="matrix(.0580151 .575686 -.560584 .059578 293.182 -42.8713)"/><path d="m252.993 350.822s11.471-2.557 17.156-4.035c6.018-1.565 18.95-5.354 18.95-5.354s3.072-6.721 2.833-13.384c-.299-8.33-3.989-20.174-3.989-20.174l-32.579 13.117zm5.61-6.483 1.575-19.81s24.399-9.823 24.399-9.823c.985 3.887 2.124 9.21 2.279 13.525.123 3.443-.83 6.903-1.566 9.021-3.998 1.162-12.048 3.482-16.419 4.619-2.726.709-6.796 1.668-10.268 2.469z" transform="matrix(.0580151 .575686 -.560584 .059578 293.182 -42.8713)"/><path d="m144.318 150.473s-9.693-10.709-19.055-19.572c-3.229-3.057-6.605-7.015-6.605-16.508 0-6.42.696-13.147 4.455-18.09 4.485-5.898 15.895-15.396 22.458-17.301 0 0 2.819 9.175 5.325 13.804 1.41 2.604 3.757 4.875 5.952 6.856 2.65 2.393 6.245 5.638 8.237 7.766 1.42 1.517 3.549 4.801 3.549 4.801l-2.053 1.726s2.233 2.63 3.224 4.036c3.182 4.511 6.487 10.404 6.487 10.404s-4.615 6.029-7.508 8.44c-3.264 2.72-7.998 5.608-12.076 7.881-3.978 2.218-12.39 5.757-12.39 5.757z" fill="#aaabaf" transform="matrix(.994687 -.105714 .10024 .994687 -21.4335 13.7695)"/><path d="m144.318 150.473s-9.693-10.709-19.055-19.572c-3.229-3.057-6.605-7.015-6.605-16.508 0-6.42.696-13.147 4.455-18.09 4.485-5.898 15.895-15.396 22.458-17.301 0 0 2.819 9.175 5.325 13.804 1.41 2.604 3.757 4.875 5.952 6.856 2.65 2.393 6.245 5.638 8.237 7.766 1.42 1.517 3.549 4.801 3.549 4.801l-2.053 1.726s2.233 2.63 3.224 4.036c3.182 4.511 6.487 10.404 6.487 10.404s-4.615 6.029-7.508 8.44c-3.264 2.72-7.998 5.608-12.076 7.881-3.978 2.218-12.39 5.757-12.39 5.757zm.684-3.277c-2.951-3.204-10.538-11.332-17.92-18.321-2.829-2.679-5.741-6.165-5.741-14.482 0-5.806.488-11.924 3.887-16.393 3.714-4.884 12.435-12.448 18.68-15.41 1.07 3.185 2.93 8.392 4.643 11.555 1.554 2.87 4.106 5.404 6.525 7.587 2.597 2.345 6.123 5.521 8.075 7.606.57.609 1.263 1.53 1.862 2.374 0 0-.132.111-.132.111-.562.473-.913 1.159-.974 1.902s.174 1.479.652 2.041c0 0 2.128 2.502 3.073 3.842 2.085 2.956 4.224 6.52 5.405 8.545-1.479 1.853-4.084 4.992-5.944 6.542-3.151 2.627-7.728 5.405-11.665 7.599-2.788 1.554-7.804 3.77-10.426 4.902z" transform="matrix(.994687 -.105714 .10024 .994687 -21.4335 13.7695)"/><g transform="matrix(.949033 .323667 -.306909 .949033 25.3901 -65.1177)"><path d="m214.221 8.561s-6.903 9.842-9.448 14.9c-2.474 4.916-5.016 11.608-5.823 15.449-.526 2.498-.357 7.131.978 7.596 1.336.464 5.39-2.259 7.035-4.809 1.852-2.869 3.184-8.409 4.212-12.493 1.203-4.783 3.525-16.483 3.525-16.483z" fill="#996533" transform="matrix(.687307 .745935 -.707312 .687307 74.3217 -156.46)"/><path d="m214.221 8.561s-6.903 9.842-9.448 14.9c-2.474 4.916-5.016 11.608-5.823 15.449-.526 2.498-.357 7.131.978 7.596 1.336.464 5.39-2.259 7.035-4.809 1.852-2.869 3.184-8.409 4.212-12.493 1.203-4.783 3.525-16.483 3.525-16.483zm-3.457 10.032c-.722 3.487-1.593 7.557-2.188 9.922-.957 3.803-2.126 8.988-3.85 11.659-.7 1.086-1.974 2.188-3.145 2.936l-.035.021c-.088-1.174-.155-2.772.027-3.639.772-3.673 3.218-10.065 5.584-14.765.85-1.69 2.198-3.925 3.607-6.134z" transform="matrix(.687307 .745935 -.707312 .687307 74.3217 -156.46)"/><path d="m216.272 28.893c4.095-4.929-4.849-8.226 4.908-19.477 9.756-11.251 23.955 1.53 26.372 7.823.811 2.113.927 6.673.464 9.614-.464 2.941-2.031 2.822-2.631 5.188-.599 2.366 2.492 7.515 1.238 8.769s-3.82 1.022-3.82 1.022c-1.059 3.032-3.474 4.042-3.474 4.042.482 6.557-4.408 6.032-5.712 5.735s-7.278-4.247-7.278-4.247c-6.271 6.19-6.511 13.082-8.208 15.984-.411.702-1.397 1.789-2.235 1.105-1.803-1.474-3.112-7.817-3.729-9.252-1.011-2.349-2.079-4.517-2.079-4.517l-4.95-7.353s7.039-9.508 11.134-14.436z" fill="#feefe7" transform="translate(1.5486 .483777)"/><path d="m216.272 28.893c4.095-4.929-4.849-8.226 4.908-19.477 9.756-11.251 23.955 1.53 26.372 7.823.811 2.113.927 6.673.464 9.614-.464 2.941-2.031 2.822-2.631 5.188-.599 2.366 2.492 7.515 1.238 8.769s-3.82 1.022-3.82 1.022c-1.059 3.032-3.474 4.042-3.474 4.042.482 6.557-4.408 6.032-5.712 5.735s-7.278-4.247-7.278-4.247c-6.271 6.19-6.511 13.082-8.208 15.984-.411.702-1.397 1.789-2.235 1.105-1.803-1.474-3.112-7.817-3.729-9.252-1.011-2.349-2.079-4.517-2.079-4.517l-4.95-7.353s7.039-9.508 11.134-14.436zm27.785 10.15-.135.012c-.49.061-.884.032-.884.032-1.215-.11-2.349.635-2.761 1.814-.618 1.77-1.96 2.42-1.96 2.42-1.079.451-1.752 1.567-1.664 2.76.1 1.359.014 2.195-.48 2.622-.607.525-1.486.33-1.893.234-.112-.054-.905-.441-1.502-.783-2.142-1.228-4.987-3.109-4.987-3.109-1.045-.691-2.416-.555-3.312.33-4.153 4.1-5.933 8.465-7.078 12.004-.333 1.028-.588 1.972-.849 2.786l-.054-.154c-.848-2.346-1.496-5.041-1.876-5.926-1.04-2.416-2.14-4.647-2.14-4.647-.055-.112-.117-.22-.187-.323l-3.839-5.705c2.165-2.896 6.825-9.079 9.857-12.728 1.894-2.28 2.022-4.322 1.619-6.547-.31-1.712-1.268-3.598-.638-6.283.424-1.801 1.561-3.918 3.89-6.603 3.896-4.493 8.694-4.087 12.744-2.03 4.402 2.235 8.078 6.3 9.127 9.031.689 1.793.705 5.667.312 8.163-.221 1.402-.917 1.721-1.391 2.376-.474.656-.901 1.428-1.188 2.558-.393 1.551.196 4.053.905 6.334.127.409.261.933.364 1.362z" transform="translate(1.5486 .483777)"/><path d="m249.726 20.913s2.19-2.766 1.402-5.564-7.59-9.565-12.541-11.671c-4.95-2.106-14.685-1.905-19.092.247-5.973 2.915-9.632 7.73-9.33 16.166.254 7.087-.033 10.537 3.291 13.712 3.802 3.632 7.175-3.393 8.701-4.624s4.979-.798 7.575-.859 3.579-2.391 3.579-2.391 2.647-.05 4.562-1.169c1.916-1.119 2.379-4.089 5.015-4.432 2.636-.344 6.838.585 6.838.585z" fill="#996533"/><path d="m249.726 20.913s2.19-2.766 1.402-5.564-7.59-9.565-12.541-11.671c-4.95-2.106-14.685-1.905-19.092.247-5.973 2.915-9.632 7.73-9.33 16.166.254 7.087-.033 10.537 3.291 13.712 3.802 3.632 7.175-3.393 8.701-4.624s4.979-.798 7.575-.859 3.579-2.391 3.579-2.391 2.647-.05 4.562-1.169c1.916-1.119 2.379-4.089 5.015-4.432 2.636-.344 6.838.585 6.838.585zm-18.85 3.857s-.41.776-1.205.795c-1.615.038-3.549-.1-5.18.053-1.639.153-3.038.624-3.992 1.394-.796.643-2.101 2.774-3.676 4.294-.369.356-.692.776-1.129.773-.147-.001-.254-.145-.41-.294-1.475-1.408-1.924-2.919-2.14-5.01-.189-1.835-.199-4.027-.297-6.785-.254-7.076 2.79-11.131 7.8-13.576 3.904-1.906 12.528-2.055 16.913-.19 2.688 1.144 5.956 3.841 8.314 6.334 1.341 1.419 2.433 2.693 2.676 3.557.178.631.063 1.253-.137 1.77-1.656-.254-4.078-.524-5.863-.291-1.793.234-3.026 1.126-4.031 2.302-.405.474-.767.999-1.134 1.512-.256.357-.474.743-.839.957-1.376.803-3.284.808-3.284.808-.902.017-1.736.498-2.219 1.281-.063.102-.118.208-.167.316z"/></g><path d="m140.721 147.103c5.242.014 9.592 3.179 12.902 4.795 2.36 1.152 5.586 1.806 7.852 3.308 6.082 4.03 8.795 8.592 8.795 17.86 0 10.74-5.067 21.876-12.957 29.663-5.276 5.207-11.795 9.32-18.978 9.32-17.922 0-29.802-10.825-29.802-28.747 0-7.166 2.515-17.958 6.481-23.425 5.952-8.207 14.95-12.801 25.707-12.774z" fill="#feefe7" transform="matrix(.05535620709 .53003917184 -.51613462347 .05684753543 284.27944175349 -34.39830208413)"/><path d="m140.721 147.103c5.242.014 9.592 3.179 12.902 4.795 2.36 1.152 5.586 1.806 7.852 3.308 6.082 4.03 8.795 8.592 8.795 17.86 0 10.74-5.067 21.876-12.957 29.663-5.276 5.207-11.795 9.32-18.978 9.32-17.922 0-29.802-10.825-29.802-28.747 0-7.166 2.515-17.958 6.481-23.425 5.952-8.207 14.95-12.801 25.707-12.774zm-.013 5.08c4.384.011 7.919 2.928 10.687 4.279 2.177 1.063 5.184 1.593 7.275 2.978 4.615 3.058 6.521 6.593 6.521 13.626 0 9.44-4.51 19.204-11.445 26.048-4.317 4.26-9.535 7.856-15.411 7.856-7.491 0-13.769-2.122-18.125-6.257-4.287-4.071-6.598-10.037-6.598-17.411 0-6.243 2.059-15.68 5.513-20.443 4.993-6.884 12.56-10.699 21.583-10.676z" transform="matrix(.05535620709 .53003917184 -.51613462347 .05684753543 284.27944175349 -34.39830208413)"/><path d="m123.027 208.772s11.741-6.147 14.992-9.845c3.023-3.438 2.322-9.993 3.694-13.173.991-2.297 2.769-4.097 4.159-6.178 1.442-2.159 4.857-10.573 4.857-10.573 6.989 9.665 17.522 16.115 17.522 16.115-2.178 6.569-6.007 12.744-10.938 17.611-5.276 5.207-11.795 9.32-18.978 9.32-5.802 0-10.97-1.135-15.308-3.277z" fill="#feefe7" transform="matrix(.05535620709 .53003917184 -.51613462347 .05684753543 284.27944175349 -34.39830208413)"/><path d="m123.027 208.772s11.741-6.147 14.992-9.845c3.023-3.438 2.322-9.993 3.694-13.173.991-2.297 2.769-4.097 4.159-6.178 1.442-2.159 4.857-10.573 4.857-10.573 6.989 9.665 17.522 16.115 17.522 16.115-2.178 6.569-6.007 12.744-10.938 17.611-5.276 5.207-11.795 9.32-18.978 9.32-5.802 0-10.97-1.135-15.308-3.277zm13.012-1.872c2.412-1.615 4.61-3.271 5.794-4.619 1.773-2.016 2.81-4.703 3.379-7.571.506-2.551.449-5.286 1.165-6.943.869-2.015 2.5-3.545 3.718-5.37.513-.768 1.261-2.259 2.035-3.92 3.631 3.717 7.336 6.661 9.938 8.559-1.993 4.488-4.849 8.65-8.322 12.078-4.317 4.26-9.535 7.856-15.411 7.856-.779 0-1.546-.023-2.299-.069z" transform="matrix(.05535620709 .53003917184 -.51613462347 .05684753543 284.27944175349 -34.39830208413)"/><path d="m128.191 173.96s-9.236 6.277-12.538 8.179c-2.019 1.163-5.33 2.057-6.947 3.734-2.791 2.893-8.107 9.135-9.748 14.222-1.637 5.074-.259 11.682-.022 16.209.195 3.733-.609 8.007.921 11.174 1.53 3.168 5.099 5.769 8.26 7.833s8.263 3.859 10.705 4.551c3.973 1.125 8.287-3.52 10.655-7.063 4.045-6.052 2.246-16.911 2.246-16.911s.895-3.408 1.318-4.711c.323-.993.643-1.997 1.223-2.865 1.186-1.776 4.736-5.401 5.824-9.736 1.226-4.877.411-11.186.411-11.186z" fill="#feefe7" transform="matrix(.06009985737 .57546036238 -.56036428142 .06171891853 292.83832973384 -43.28015629996)"/><path d="m278.317 270.155c-.561-1.264-1.357-2.961-2.689-4.101-1.11-.95-2.563-1.709-3.679-2.211l.424-3.434c1.341.553 3.715 1.652 5.422 3.112 2.229 1.907 3.322 5.052 4.018 6.268.036.061.072.121.11.18.194.189.432.457.643.798.186.198.38.388.574.578.586.575 2.089 1.893 2.346 2.118.035.016.07.035.105.054.718.231 6.976 2.336 9.213 6.242 1.389 2.426 2.858 6.319 1.035 8.324-1.12 1.233-3.666 3.706-5.802 4.961-2.137 1.254-4.708 2.591-7.017 2.564-2.308-.026-4.585-1.748-6.835-2.724-2.729-1.184-7.015-2.305-9.518-4.75-2.51-2.452-4.624-7.399-5.508-9.885-.513-1.44-.07-3.647-.164-5.174-.126-2.06-.822-7.372-1.061-9.16l2.785 1.191.963.579-.151.043c.305 2.383.699 5.625.792 7.144.052.859-.033 1.91-.072 2.948-.018.472-.083.944.048 1.312.767 2.156 2.521 6.491 4.697 8.617 2.222 2.17 6.093 3.026 8.516 4.077 1.169.507 2.347 1.203 3.531 1.78.675.33 1.332.661 2.016.669 1.76.02 3.662-1.15 5.29-2.106 1.824-1.071 3.975-3.182 4.972-4.272.01-.071.038-.271.035-.391-.006-.246-.043-.5-.095-.758-.003-.012-.006-.025-.008-.037-2.78 2.985-6.058 5.54-8.161 6.755-.597.346-1.362.141-1.707-.456-.346-.597-.141-1.363.456-1.708 2.173-1.256 5.69-4.058 8.424-7.233-.117-.229-.236-.448-.354-.654-.035-.062-.072-.122-.11-.182-6.378 7.222-11.099 9.059-11.099 9.059-.641.255-1.369-.058-1.624-.699-.256-.641.057-1.368.698-1.624 0 0 4.343-1.775 10.267-8.523-.406-.301-.831-.575-1.25-.827-.088-.052-.175-.104-.262-.154-4.611 5.828-11.144 8.613-11.144 8.613-.635.27-1.37-.025-1.64-.66-.271-.634.025-1.369.659-1.64 0 0 5.656-2.413 9.833-7.454-.996-.426-1.693-.641-1.693-.641l-.008-.002c-3.862 3.319-8.331 5.523-8.331 5.523-.178.088-.366.129-.552.129h-.005c-.186 0-.375-.042-.552-.131-.124-.061-.233-.14-.325-.233l-.008-.007c-.092-.093-.171-.203-.232-.326-.087-.178-.129-.367-.128-.552v-.006c0-.186.042-.374.13-.552l1.489-2.993c.073-.146.173-.276.295-.383 0 0 2.168-1.902 3.131-2.776.841-.763 1.171-1.352 1.14-1.856-.002-.024-.004-.047-.007-.07-.017-.114-.054-.234-.119-.356l-.877.278c-1.247.401-2.99.992-4.362 1.569-.711.299-1.547.788-1.644.845-1.422 1.994-3.016 6.526-3.016 6.526-.231.65-.947.99-1.597.759s-.99-.947-.758-1.597c0 0 1.809-5.034 3.378-7.199.313-.432 1.327-1.074 2.667-1.638 1.26-.53 2.819-1.072 4.062-1.48z" transform="matrix(-.7237365859 .47469279602 -.46224019232 -.74323440126 512.8429956825 113.58183539489)"/></g><path d="m13.627 198.616v-9.238h53.537v-8.577l26.672 13.196-26.672 13.196v-8.577z" fill="#ec3237" transform="matrix(0 -.46975030979 .4693867351 0 63.59977088 122.548922816)"/><path d="m75.791 225.373h18.065v135.323h-18.065z" fill="#d2d3d5" transform="matrix(.63094711979 0 0 .59339720477 216.2577602608 120.2458674864)"/><path d="m93.856 225.373h-18.065v135.323h18.065zm-5.283 5.617v124.088h-7.499v-124.088z" transform="matrix(.63094711979 0 0 .59339720477 216.2577602608 120.2458674864)"/><path d="m75.791 225.373h18.065v135.323h-18.065z" fill="#d2d3d5" transform="matrix(0 -.55258824299 .59339720477 0 95.890978368 376.162612128)"/><path d="m93.856 225.373h-18.065v135.323h18.065zm-6.032 5.617v124.088h-6.001v-124.088z" transform="matrix(0 -.55258824299 .59339720477 0 95.890978368 376.162612128)"/><path d="m75.791 225.373h18.065v135.323h-18.065z" fill="#d2d3d5" transform="matrix(.69917250064 0 0 .65756485584 189.54422162624 141.59249180133)"/><path d="m93.856 225.373h-18.065v135.323h18.065zm-4.768 5.069v125.184h-8.53v-125.184z" transform="matrix(.69917250064 0 0 .65756485584 189.54422162624 141.59249180133)"/><path d="m75.791 225.373h18.065v135.323h-18.065z" fill="#d2d3d5" transform="matrix(0 -.61234377741 .65756485584 0 56.161584032 425.18350544)"/><path d="m93.856 225.373h-18.065v135.323h18.065zm-5.444 5.069v125.184h-7.178v-125.184z" transform="matrix(0 -.61234377741 .65756485584 0 56.161584032 425.18350544)"/><path d="m131.173 212.467h-53.957l-38.216 15.24v6.406h92.173z" fill="#f68634" transform="matrix(.6653285536 0 0 2.20196975344 193.12362558622 -219.77764664)"/><path d="m131.173 212.467h-53.957l-38.216 15.24v6.406h92.173zm-5.027 1.519v18.608h-82.118v-4.376s35.686-14.232 35.686-14.232z" transform="matrix(.6653285536 0 0 2.20196975344 193.12362558622 -219.77764664)"/><path d="m39 212.467h93.67v21.646h-93.67z" fill="#f68634" transform="matrix(.62602442352 0 0 .65166365802 194.65639675008 143.16956001264)"/><path d="m132.671 212.467h-93.671v21.646h93.671zm-5.331 5.121v11.404h-83.009v-11.404z" transform="matrix(.62602442352 0 0 .65166365802 194.65639675008 143.16956001264)"/><g transform="matrix(-.05204292785 -.6542047412 .65420768898 -.0520424423 347.978962402 527.3621470897)"><path d="m397.836 323.823c-1.751.611-2.515.989-2.893 2.804-.921 4.426-2.133 17.028-1.902 22.237.138 3.114.886 7.567 3.575 9.144 3.014 1.767 9.61 1.825 14.636 1.673 5.048-.153 11.441-.131 16.545.046 5.687.198 11.322 1.151 17.601 1.262 6.31.111 13.822.266 19.035-.665 4.338-.775 9.001-2.658 12.22-5.046 3.129-2.322 6.421-6.059 7.097-9.286.394-1.885-1.268-4.3-3.107-4.87-2.983-.923-10.298.092-15.105-1.022-4.826-1.119-9.448-3.617-13.851-5.689-4.167-1.962-8.705-3.608-12.247-6.395s-6.96-9.283-9.135-10.45c-1.567-.841-4.227-1.753-6.811-1.251-2.858.555-24.497 7.104-25.658 7.508z" fill="#4b4b4d"/><path d="m397.836 323.823c-1.751.611-2.515.989-2.893 2.804-.921 4.426-2.133 17.028-1.902 22.237.138 3.114.886 7.567 3.575 9.144 3.014 1.767 9.61 1.825 14.636 1.673 5.048-.153 11.441-.131 16.545.046 5.687.198 11.322 1.151 17.601 1.262 6.31.111 13.822.266 19.035-.665 4.338-.775 9.001-2.658 12.22-5.046 3.129-2.322 6.421-6.059 7.097-9.286.394-1.885-1.268-4.3-3.107-4.87-2.983-.923-10.298.092-15.105-1.022-4.826-1.119-9.448-3.617-13.851-5.689-4.167-1.962-8.705-3.608-12.247-6.395s-6.96-9.283-9.135-10.45c-1.567-.841-4.227-1.753-6.811-1.251-2.858.555-24.497 7.104-25.658 7.508zm80.658 22.012c-.837 1.968-2.984 3.966-4.867 5.364-2.654 1.969-6.512 3.486-10.088 4.125-4.943.883-12.068.692-18.052.586-6.248-.11-11.854-1.062-17.514-1.259-5.206-.181-11.726-.203-16.875-.047-2.767.084-6.054.113-8.838-.239-1.23-.156-2.341-.309-3.075-.739-.346-.203-.334-.716-.473-1.153-.402-1.264-.545-2.675-.597-3.834-.204-4.603.792-15.325 1.633-20.095 2.596-.836 22.049-6.725 24.714-7.243 1.191-.231 2.398.215 3.205.62.275.331 1.704 2.06 2.612 3.286 1.842 2.487 3.941 5.164 6.02 6.8 3.836 3.018 8.712 4.875 13.225 6.999 4.718 2.222 9.695 4.843 14.867 6.042 2.738.634 6.188.713 9.382.714 1.824 0 3.53-.103 4.721.073z"/><path d="m412.634 350.155c-4.077-.379-8.608-.517-12.125-1.965-1.314-.541-7.412-4.079-7.412-4.079l-.056 4.753c.138 3.114.886 7.567 3.575 9.144 3.014 1.767 9.61 1.825 14.636 1.673 5.048-.153 11.441-.131 16.545.046 5.687.198 11.322 1.151 17.601 1.262 6.31.111 13.822.266 19.035-.665 4.338-.775 9.001-2.658 12.22-5.046 3.129-2.322 6.421-6.059 7.097-9.286.135-.648.028-1.359-.247-2.036l-2.153 1.572s-13.711 5.246-20.992 6.412c-7.358 1.178-15.54-.057-23.303-.347-7.954-.297-18.33-.87-24.421-1.438z" fill="#bebfc1"/><path d="m412.634 350.155c-4.077-.379-8.608-.517-12.125-1.965-1.314-.541-7.412-4.079-7.412-4.079l-.056 4.753c.138 3.114.886 7.567 3.575 9.144 3.014 1.767 9.61 1.825 14.636 1.673 5.048-.153 11.441-.131 16.545.046 5.687.198 11.322 1.151 17.601 1.262 6.31.111 13.822.266 19.035-.665 4.338-.775 9.001-2.658 12.22-5.046 3.129-2.322 6.421-6.059 7.097-9.286.135-.648.028-1.359-.247-2.036l-2.153 1.572s-13.711 5.246-20.992 6.412c-7.358 1.178-15.54-.057-23.303-.347-7.954-.297-18.33-.87-24.421-1.438zm62.181 1.735-.432.328c-2.795 2.074-6.854 3.683-10.62 4.356-5.011.895-12.233.713-18.298.606-6.256-.11-11.869-1.063-17.536-1.26-5.181-.18-11.669-.202-16.792-.047-2.83.086-6.19.112-9.036-.248-1.428-.181-2.707-.404-3.558-.903-.592-.348-.803-1.115-1.041-1.864-.224-.704-.376-1.449-.477-2.177.899.486 1.655.876 2.034 1.032 3.84 1.58 8.771 1.821 13.221 2.235h.001c6.143.573 16.609 1.152 24.631 1.452 8.011.299 16.455 1.517 24.048.302 3.813-.611 9.331-2.295 13.855-3.812z"/></g><path d="m398.685 322.905c-1.751.61-3.364 1.907-3.742 3.722-.921 4.426-2.133 17.028-1.902 22.237.138 3.114.886 7.567 3.575 9.144 3.014 1.767 9.61 1.825 14.636 1.673 5.048-.153 11.441-.131 16.545.046 5.687.198 11.322 1.151 17.601 1.262 6.31.111 13.822.266 19.035-.665 4.338-.775 9.001-2.658 12.22-5.046 3.129-2.322 6.421-6.059 7.097-9.286.394-1.885-1.268-4.3-3.107-4.87-2.983-.923-10.298.092-15.105-1.022-4.826-1.119-9.448-3.617-13.851-5.689-4.167-1.962-8.705-3.608-12.247-6.395s-7.756-8.844-9.93-10.011c-1.568-.841-4.753-2.022-7.337-1.52-2.857.555-22.327 6.015-23.488 6.42z" fill="#4b4b4d" transform="matrix(.65627170468 .00000004197 -.0000001978 .65627167987 193.51149851336 141.88411886285)"/><path d="m398.685 322.905c-1.751.61-3.364 1.907-3.742 3.722-.921 4.426-2.133 17.028-1.902 22.237.138 3.114.886 7.567 3.575 9.144 3.014 1.767 9.61 1.825 14.636 1.673 5.048-.153 11.441-.131 16.545.046 5.687.198 11.322 1.151 17.601 1.262 6.31.111 13.822.266 19.035-.665 4.338-.775 9.001-2.658 12.22-5.046 3.129-2.322 6.421-6.059 7.097-9.286.394-1.885-1.268-4.3-3.107-4.87-2.983-.923-10.298.092-15.105-1.022-4.826-1.119-9.448-3.617-13.851-5.689-4.167-1.962-8.705-3.608-12.247-6.395s-7.756-8.844-9.93-10.011c-1.568-.841-4.753-2.022-7.337-1.52-2.857.555-22.327 6.015-23.488 6.42zm28.311-.483c.167.161 1.348 1.305 2.141 2.193 2.214 2.477 4.837 5.563 7.162 7.392 3.836 3.018 8.712 4.875 13.225 6.999 4.718 2.222 9.695 4.843 14.867 6.042 2.738.634 6.188.713 9.382.714 1.824 0 3.53-.103 4.721.073-.837 1.968-2.984 3.966-4.867 5.364-2.654 1.969-6.512 3.486-10.088 4.125-4.943.883-12.068.692-18.052.586-6.248-.11-11.854-1.062-17.514-1.259-5.206-.181-11.726-.203-16.875-.047-2.767.084-6.054.113-8.838-.239-1.23-.156-2.341-.309-3.075-.739-.346-.203-.334-.716-.473-1.153-.402-1.264-.545-2.675-.597-3.834-.212-4.797.879-16.242 1.742-20.667.127-.083.351-.219.5-.271 1.126-.393 20.012-5.692 22.784-6.23 1.353-.262 2.969.483 3.855.951z" transform="matrix(.65627170468 .00000004197 -.0000001978 .65627167987 193.51149851336 141.88411886285)"/><path d="m412.634 350.155c-4.077-.379-8.608-.517-12.125-1.965-1.314-.541-7.412-4.079-7.412-4.079l-.056 4.753c.138 3.114.886 7.567 3.575 9.144 3.014 1.767 9.61 1.825 14.636 1.673 5.048-.153 11.441-.131 16.545.046 5.687.198 11.322 1.151 17.601 1.262 6.31.111 13.822.266 19.035-.665 4.338-.775 9.001-2.658 12.22-5.046 3.129-2.322 6.421-6.059 7.097-9.286.135-.648.028-1.359-.247-2.036l-2.153 1.572s-13.711 5.246-20.992 6.412c-7.358 1.178-15.54-.057-23.303-.347-7.954-.297-18.33-.87-24.421-1.438z" fill="#bebfc1" transform="matrix(.65627170468 .00000004197 -.0000001978 .65627167987 193.51149851336 141.88411886285)"/><path d="m412.634 350.155c-4.077-.379-8.608-.517-12.125-1.965-1.314-.541-7.412-4.079-7.412-4.079l-.056 4.753c.138 3.114.886 7.567 3.575 9.144 3.014 1.767 9.61 1.825 14.636 1.673 5.048-.153 11.441-.131 16.545.046 5.687.198 11.322 1.151 17.601 1.262 6.31.111 13.822.266 19.035-.665 4.338-.775 9.001-2.658 12.22-5.046 3.129-2.322 6.421-6.059 7.097-9.286.135-.648.028-1.359-.247-2.036l-2.153 1.572s-13.711 5.246-20.992 6.412c-7.358 1.178-15.54-.057-23.303-.347-7.954-.297-18.33-.87-24.421-1.438zm-15.609.526c.899.486 1.655.876 2.034 1.032 3.84 1.58 8.771 1.821 13.221 2.235 6.144.573 16.61 1.152 24.632 1.452 8.011.299 16.455 1.517 24.048.302 3.813-.611 9.331-2.295 13.855-3.812l-.432.328c-2.795 2.074-6.854 3.683-10.62 4.356-5.011.895-12.233.713-18.298.606-6.256-.11-11.869-1.063-17.536-1.26-5.181-.18-11.669-.202-16.792-.047-2.83.086-6.19.112-9.036-.248-1.428-.181-2.707-.404-3.558-.903-.592-.348-.803-1.115-1.041-1.864-.224-.704-.376-1.449-.477-2.177z" transform="matrix(.65627170468 .00000004197 -.0000001978 .65627167987 193.51149851336 141.88411886285)"/><path d="m46.077 161.302c6.192-5.731 17.446-11.511 23.215-16.78 4.61-4.211 7.724-10.383 11.295-15.374 3.889-5.436 10.537-14.235 10.537-14.235l22.148-5.754 6.659 20.204-6.528 10.565c-9.18 8.049-13.93 11.043-16.915 13.208-3.637 2.98-9.183 7.859-14.039 11.664-2.311 1.81-6.07 2.543-9.292 4.733-3.356 3.594-9.212 9.003-13.832 12.452-8.471 6.324-14.693 8.501-28.62 21.165-.732.665-2.934 3.975-4.007 4.501-3.685 1.805-7.511-.215-9.698-2.825-1.325-1.581-2.527-4.626-1.718-6.881.805-2.242 3.411-5.494 5.189-7.007 0 0 8.415-7.625 11.987-11.759 4.267-4.939 8.121-12.789 13.619-17.877z" fill="#feefe7" transform="matrix(-.87566486658 -.76759959616 .74746330192 -.85269339423 409.23958640473 427.94667006281)"/><path d="m46.077 161.302c6.192-5.731 17.446-11.511 23.215-16.78 4.61-4.211 7.724-10.383 11.295-15.374 3.889-5.436 10.537-14.235 10.537-14.235l28.807 14.45-6.528 10.565c-9.18 8.049-13.93 11.043-16.915 13.208-3.637 2.98-9.183 7.859-14.039 11.664-2.311 1.81-6.07 2.543-9.292 4.733-3.356 3.594-9.212 9.003-13.832 12.452-8.471 6.324-14.693 8.501-28.62 21.165-.732.665-2.934 3.975-4.007 4.501-3.685 1.805-7.511-.215-9.698-2.825-1.325-1.581-2.527-4.626-1.718-6.881.805-2.242 3.411-5.494 5.189-7.007 0 0 8.415-7.625 11.987-11.759 4.267-4.939 8.121-12.789 13.619-17.877zm-20.663 43.92c-2.455 1.111-4.923-.455-6.38-2.194-.453-.54-.874-1.338-1.124-2.187-.192-.654-.323-1.349-.11-1.943.674-1.877 2.894-4.571 4.383-5.837.021-.018.043-.037.064-.056 0 0 8.576-7.782 12.218-11.997 4.21-4.873 7.984-12.639 13.408-17.659 6.189-5.727 17.437-11.502 23.202-16.768 4.748-4.337 7.997-10.661 11.674-15.802 3.191-4.46 8.248-11.193 9.93-13.427.001 0 24.299 11.646 24.299 11.646s-5.624 9.102-5.624 9.102c-8.873 7.755-13.497 10.669-16.414 12.784-.043.031-.085.064-.126.097-3.625 2.972-9.153 7.835-13.993 11.628-.986.772-2.298 1.28-3.69 1.863-1.786.749-3.691 1.564-5.455 2.763-.165.113-.318.244-.455.391-3.27 3.5-8.973 8.771-13.474 12.13-8.533 6.37-14.792 8.574-28.821 21.33-.608.553-3.245 3.806-3.512 4.136z" transform="matrix(-.87566486658 -.76759959616 .74746330192 -.85269339423 409.23958640473 427.94667006281)"/><path d="m242.734 238.31s28.933-10.699 43.081-15.615c9.595-3.335 24.196-7.342 32.954-9.735 5.642-1.541 13.247-.985 18.251.094 4.85 1.047 8.942 4.603 12.539 8.021 4.767 4.53 11.169 12.413 16.062 19.159 5.465 7.534 10.824 17.583 16.727 26.045 6.035 8.651 12.566 17.578 19.483 25.864 7.265 8.703 20.387 20.921 22.884 25.37 1.784 3.179 1.646 8.225.186 10.9-1.452 2.662-5.502 5.195-8.246 6.229-5.235 1.975-10.052.725-12.458-1.5-5.207-4.816-10.663-10.904-17.058-15.475-7.883-5.635-21.234-14.038-28.728-19.137-5.441-3.702-11.214-7.662-15.196-12.061-3.709-4.098-7.781-11.421-9.494-16.052-2.668-7.217-3.06-16.744-3.06-16.744s-1.707 1.582-12.467 10.98c-4.297 3.754-17.134 14.776-25.672 20.653-10.378 7.142-27.128 13.202-27.128 13.202z" fill="#feefe7" transform="matrix(.51135163877 .41135440221 -.41135392068 .51135182768 385.77003582783 19.10089046887)"/><path d="m242.734 238.31s28.933-10.699 43.081-15.615c9.595-3.335 24.196-7.342 32.954-9.735 5.642-1.541 13.247-.985 18.251.094 4.85 1.047 8.942 4.603 12.539 8.021 4.767 4.53 11.169 12.413 16.062 19.159 5.465 7.534 10.824 17.583 16.727 26.045 6.035 8.651 12.566 17.578 19.483 25.864 7.265 8.703 20.387 20.921 22.884 25.37 1.784 3.179 1.646 8.225.186 10.9-1.452 2.662-5.502 5.195-8.246 6.229-5.235 1.975-10.052.725-12.458-1.5-5.207-4.816-10.663-10.904-17.058-15.475-7.883-5.635-21.234-14.038-28.728-19.137-5.441-3.702-11.214-7.662-15.196-12.061-3.709-4.098-7.781-11.421-9.494-16.052-2.668-7.217-3.06-16.744-3.06-16.744s-1.707 1.582-12.467 10.98c-4.297 3.754-17.134 14.776-25.672 20.653-10.378 7.142-27.128 13.202-27.128 13.202zm6.555 2.996c8.808-3.242 27.631-10.143 38.193-13.814 9.499-3.301 23.956-7.263 32.626-9.632 4.897-1.338 11.497-.778 15.84.159 3.959.855 7.176 3.948 10.112 6.738 4.59 4.361 10.738 11.964 15.449 18.46 5.449 7.511 10.788 17.531 16.673 25.968 6.117 8.769 12.739 17.815 19.75 26.213 7.068 8.467 19.924 20.272 22.354 24.601.979 1.745.958 4.513.157 5.981-.958 1.755-3.771 3.228-5.58 3.91-3.018 1.138-5.83.805-7.217-.477-5.352-4.949-10.982-11.18-17.553-15.878-7.91-5.654-21.305-14.088-28.824-19.204-5.104-3.473-10.553-7.144-14.288-11.271-3.327-3.675-6.96-10.252-8.496-14.405-2.42-6.545-3.475-15.198-3.475-15.198-.082-1.979-.368-6.779-.368-6.779s-.087-2.617-7.434 3.27c-1.799 1.442-1.692 1.566-12.355 10.88-4.221 3.687-16.824 14.521-25.211 20.294-6.562 4.516-15.792 8.569-21.3 10.799z" transform="matrix(.51135163877 .41135440221 -.41135392068 .51135182768 385.77003582783 19.10089046887)"/><path d="m145.393 74.976c-3.565 2.155-8.133 2.728-8.133 2.728l6.127 27.943 12.19 13.568s16.657-13.882 26.148-20.1c1.709-.775 3.842-1.354 5.475-2.192 1.883-.967 5.825-3.611 5.825-3.611s4.57 2.435 9.548-.469c5.117-2.986 6.856-7.772 9.795-15.305 2.558-6.556 6.382-11.529 5.894-16.568-.951-9.803-5.626-22.339-10.165-22.486-13.397-.435-23.531 7.035-31.315 12.239-5.976 3.995-11.812 9.21-15.382 12.505-5.012 4.628-10.381 8.346-16.007 11.748z" fill="#f7acb0" transform="matrix(-.94742489163 -.67704026761 .65927966037 -.92257116766 423.06797017799 440.26190953496)"/><path d="m145.393 74.976c-3.565 2.155-8.133 2.728-8.133 2.728l6.127 27.943 12.19 13.568s16.657-13.882 26.148-20.1c1.709-.775 3.842-1.354 5.475-2.192 1.883-.967 5.825-3.611 5.825-3.611s4.57 2.435 9.548-.469c5.117-2.986 6.856-7.772 9.795-15.305 2.558-6.556 6.382-11.529 5.894-16.568-.951-9.803-5.626-22.339-10.165-22.486-13.397-.435-23.531 7.035-31.315 12.239-5.976 3.995-11.812 9.21-15.382 12.505-5.012 4.628-10.381 8.346-16.007 11.748zm1.361 2.375c5.78-3.495 11.292-7.319 16.44-12.073 3.494-3.226 9.203-8.335 15.052-12.246 7.412-4.954 17.01-12.208 29.766-11.794.331.011.585.334.909.662.729.739 1.419 1.798 2.081 3.052 2.273 4.308 4.053 10.764 4.589 16.291.2 2.06-.575 4.082-1.569 6.283-1.232 2.733-2.847 5.66-4.145 8.987-2.65 6.793-4.016 11.242-8.63 13.934-3.644 2.126-6.986.419-6.986.419-.86-.458-1.892-.405-2.703.139 0 0-3.76 2.529-5.559 3.453-1.596.82-3.686 1.378-5.358 2.136-.125.057-.245.123-.36.198-7.588 4.971-19.717 14.794-24.432 18.663 0 0-10.002-11.134-10.002-11.134s-5.365-24.468-5.365-24.468c1.814-.463 4.194-1.246 6.272-2.502z" transform="matrix(-.94742489163 -.67704026761 .65927966037 -.92257116766 423.06797017799 440.26190953496)"/><path d="m416.866 240.498c1.488-3.37 2.111-7.345 1.843-10.575-.349-4.222-1.843-9.313-1.843-9.313s-16.581-1.362-24.259-1.196c-7.326.158-15.691 1.358-22.245 2.19-5.846.742-17 2.888-17 2.888s.212 13.418-.938 19.183c-1.077 5.401-4.546 10.475-5.963 15.408-1.328 4.619-2.544 14.192-2.544 14.192s8.309 5.239 14.392 6.194c10.451 1.643 18.471-.493 27.077-.691 10.328-.237 22.51 4.663 22.51 4.663s7.636-9.09 9.337-19.625c1.822-11.285 1.104-19.587-.367-23.318z" fill="#aaabaf" transform="matrix(.99999796863 -.00000010161 -.00000020715 .99999881691 -1.99944127676 1.00085237691)"/><path d="m417.471 242.479c.064-.462-.072-.918-.35-1.267-.082-.254-.167-.492-.255-.714 1.488-3.37 2.111-7.345 1.843-10.575-.349-4.222-1.843-9.313-1.843-9.313s-16.581-1.362-24.259-1.196c-7.326.158-15.691 1.358-22.245 2.19-5.846.742-17 2.888-17 2.888s.212 13.418-.938 19.183c-1.077 5.401-4.546 10.475-5.963 15.408-1.328 4.619-2.544 14.192-2.544 14.192s8.309 5.239 14.392 6.194c10.451 1.643 18.471-.493 27.077-.691 10.328-.237 22.51 4.663 22.51 4.663s7.636-9.09 9.337-19.625c1.549-9.592 1.262-17.029.238-21.337zm-3.074-2.373c.034-.211.094-.419.182-.618 1.317-2.983 1.876-6.5 1.639-9.359-.21-2.539-.86-5.409-1.306-7.165-4.429-.34-16.166-1.182-22.251-1.051-7.24.156-15.507 1.348-21.984 2.171-4.251.54-11.335 1.829-14.803 2.477.002 4.095-.102 13.11-.998 17.603-1.091 5.468-4.577 10.615-6.013 15.61-.96 3.34-1.854 9.342-2.251 12.208 2.476 1.446 7.852 4.353 12.085 5.018 10.279 1.615 18.167-.527 26.632-.721 8.341-.192 17.844 2.813 21.717 4.181 2.061-2.795 6.505-9.525 7.719-17.042 1.4-8.67 1.291-15.474.454-19.604-9.258-2.732-19.769-5.041-29.025-5.077-.92-.003-1.664-.753-1.661-1.673.004-.919.754-1.663 1.673-1.66 8.969.034 19.083 2.115 28.191 4.702z" transform="matrix(.99999796863 -.00000010161 -.00000020715 .99999881691 -1.99944127676 1.00085237691)"/><g transform="matrix(-.67984751221 -.9454120784 .92061128146 -.66201389824 354.65128217334 483.78138541956)"><path d="m214.221 8.561s-6.903 9.842-9.448 14.9c-2.474 4.916-5.016 11.608-5.823 15.449-.526 2.498-.357 7.131.978 7.596 1.336.464 5.39-2.259 7.035-4.809 1.852-2.869 3.184-8.409 4.212-12.493 1.203-4.783 4.073-17.165 4.073-17.165z" fill="#996533" transform="matrix(-.420518 .931726 -.883484 -.420518 312.666 -181.225)"/><path d="m214.221 8.561s-6.903 9.842-9.448 14.9c-2.474 4.916-5.016 11.608-5.823 15.449-.526 2.498-.357 7.131.978 7.596 1.336.464 5.39-2.259 7.035-4.809 1.852-2.869 3.184-8.409 4.212-12.493 1.203-4.783 4.073-17.165 4.073-17.165zm-3.153 9.554c-.866 3.694-1.889 8.003-2.492 10.4-.957 3.803-2.126 8.988-3.85 11.659-.7 1.086-1.974 2.188-3.145 2.936l-.035.021c-.088-1.174-.155-2.772.027-3.639.772-3.673 3.218-10.065 5.584-14.765.911-1.812 2.396-4.251 3.911-6.612z" transform="matrix(-.420518 .931726 -.883484 -.420518 312.666 -181.225)"/><path d="m216.272 28.893c4.095-4.929-4.849-8.226 4.908-19.477 9.756-11.251 23.955 1.53 26.372 7.823.811 2.113.927 6.673.464 9.614-.464 2.941-2.031 2.822-2.631 5.188-.599 2.366 2.492 7.515 1.238 8.769s-3.82 1.022-3.82 1.022c-1.059 3.032-3.474 4.042-3.474 4.042.482 6.557-4.408 6.032-5.712 5.735s-7.278-4.247-7.278-4.247c-6.271 6.19-6.511 13.082-8.208 15.984-.411.702-1.397 1.789-2.235 1.105-1.803-1.474-3.112-7.817-3.729-9.252-1.011-2.349-2.079-4.517-2.079-4.517l-4.95-7.353s7.039-9.508 11.134-14.436z" fill="#feefe7" transform="translate(1.5486 .483777)"/><path d="m216.272 28.893c4.095-4.929-4.849-8.226 4.908-19.477 9.756-11.251 23.955 1.53 26.372 7.823.811 2.113.927 6.673.464 9.614-.464 2.941-2.031 2.822-2.631 5.188-.599 2.366 2.492 7.515 1.238 8.769s-3.82 1.022-3.82 1.022c-1.059 3.032-3.474 4.042-3.474 4.042.482 6.557-4.408 6.032-5.712 5.735s-7.278-4.247-7.278-4.247c-6.271 6.19-6.511 13.082-8.208 15.984-.411.702-1.397 1.789-2.235 1.105-1.803-1.474-3.112-7.817-3.729-9.252-1.011-2.349-2.079-4.517-2.079-4.517l-4.95-7.353s7.039-9.508 11.134-14.436zm27.785 10.15-.135.012c-.49.061-.884.032-.884.032-1.215-.11-2.349.635-2.761 1.814-.618 1.77-1.96 2.42-1.96 2.42-1.079.451-1.752 1.567-1.664 2.76.1 1.359.014 2.195-.48 2.622-.607.525-1.486.33-1.893.234-.112-.054-.905-.441-1.502-.783-2.142-1.228-4.987-3.109-4.987-3.109-1.045-.691-2.416-.555-3.312.33-4.153 4.1-5.933 8.465-7.078 12.004-.333 1.028-.588 1.972-.849 2.786l-.054-.154c-.848-2.346-1.496-5.041-1.876-5.926-1.04-2.416-2.14-4.647-2.14-4.647-.055-.112-.117-.22-.187-.323l-3.839-5.705c2.165-2.896 6.825-9.079 9.857-12.728 1.894-2.28 2.022-4.322 1.619-6.547-.31-1.712-1.268-3.598-.638-6.283.424-1.801 1.561-3.918 3.89-6.603 3.896-4.493 8.694-4.087 12.744-2.03 4.402 2.235 8.078 6.3 9.127 9.031.689 1.793.705 5.667.312 8.163-.221 1.402-.917 1.721-1.391 2.376-.474.656-.901 1.428-1.188 2.558-.393 1.551.196 4.053.905 6.334.127.409.261.933.364 1.362z" transform="translate(1.5486 .483777)"/><path d="m249.726 20.913s2.19-2.766 1.402-5.564-7.59-9.565-12.541-11.671c-4.95-2.106-14.685-1.905-19.092.247-5.973 2.915-9.632 7.73-9.33 16.166.254 7.087-.033 10.537 3.291 13.712 3.802 3.632 7.175-3.393 8.701-4.624s4.979-.798 7.575-.859 3.579-2.391 3.579-2.391 2.647-.05 4.562-1.169c1.916-1.119 2.379-4.089 5.015-4.432 2.636-.344 6.838.585 6.838.585z" fill="#996533"/><path d="m249.726 20.913s2.19-2.766 1.402-5.564-7.59-9.565-12.541-11.671c-4.95-2.106-14.685-1.905-19.092.247-5.973 2.915-9.632 7.73-9.33 16.166.254 7.087-.033 10.537 3.291 13.712 3.802 3.632 7.175-3.393 8.701-4.624s4.979-.798 7.575-.859 3.579-2.391 3.579-2.391 2.647-.05 4.562-1.169c1.916-1.119 2.379-4.089 5.015-4.432 2.636-.344 6.838.585 6.838.585zm-1.313-3.028c-1.657-.254-4.078-.524-5.863-.291-1.793.234-3.026 1.126-4.031 2.302-.405.474-.767.999-1.134 1.512-.256.357-.474.743-.839.957-1.376.803-3.284.808-3.284.808-.846.016-1.636.441-2.13 1.147 0 0-.109.147-.256.45-.062.128-.41.776-1.205.795-1.615.038-3.549-.1-5.18.053-1.639.153-3.038.624-3.992 1.394-.796.643-2.101 2.774-3.676 4.294-.369.356-.692.776-1.129.773-.147-.001-.254-.145-.41-.294-1.475-1.408-1.924-2.919-2.14-5.01-.189-1.835-.199-4.027-.297-6.785-.254-7.076 2.79-11.131 7.8-13.576 3.904-1.906 12.528-2.055 16.913-.19 2.688 1.144 5.956 3.841 8.314 6.334 1.341 1.419 2.433 2.693 2.676 3.557.178.631.063 1.253-.137 1.77z"/></g><path d="m140.721 147.103c5.242.014 9.592 3.179 12.902 4.795 2.36 1.152 5.586 1.806 7.852 3.308 6.082 4.03 8.795 8.592 8.795 17.86 0 10.74-5.067 21.876-12.957 29.663-5.276 5.207-11.795 9.32-18.978 9.32-17.922 0-29.802-10.825-29.802-28.747 0-7.166 2.515-17.958 6.481-23.425 5.952-8.207 14.95-12.801 25.707-12.774z" fill="#feefe7" transform="matrix(.26918664795 -.54122569395 .54122550557 .26918643838 131.98963615881 285.67988438684)"/><path d="m140.721 147.103c5.242.014 9.592 3.179 12.902 4.795 2.36 1.152 5.586 1.806 7.852 3.308 6.082 4.03 8.795 8.592 8.795 17.86 0 10.74-5.067 21.876-12.957 29.663-5.276 5.207-11.795 9.32-18.978 9.32-17.922 0-29.802-10.825-29.802-28.747 0-7.166 2.515-17.958 6.481-23.425 5.952-8.207 14.95-12.801 25.707-12.774zm-.013 5.08c4.384.011 7.919 2.928 10.687 4.279 2.177 1.063 5.184 1.593 7.275 2.978 4.615 3.058 6.521 6.593 6.521 13.626 0 9.44-4.51 19.204-11.445 26.048-4.317 4.26-9.535 7.856-15.411 7.856-7.491 0-13.769-2.122-18.125-6.257-4.287-4.071-6.598-10.037-6.598-17.411 0-6.243 2.059-15.68 5.513-20.443 4.993-6.884 12.56-10.699 21.583-10.676z" transform="matrix(.26918664795 -.54122569395 .54122550557 .26918643838 131.98963615881 285.67988438684)"/><path d="m123.027 208.772s11.741-6.147 14.992-9.845c3.023-3.438 2.322-9.993 3.694-13.173.991-2.297 2.769-4.097 4.159-6.178 1.442-2.159 4.857-10.573 4.857-10.573 6.989 9.665 17.522 16.115 17.522 16.115-2.178 6.569-6.007 12.744-10.938 17.611-5.276 5.207-11.795 9.32-18.978 9.32-5.802 0-10.97-1.135-15.308-3.277z" fill="#feefe7" transform="matrix(.26918664795 -.54122569395 .54122550557 .26918643838 131.98963615881 285.67988438684)"/><path d="m123.027 208.772s11.741-6.147 14.992-9.845c3.023-3.438 2.322-9.993 3.694-13.173.991-2.297 2.769-4.097 4.159-6.178 1.442-2.159 4.857-10.573 4.857-10.573 6.989 9.665 17.522 16.115 17.522 16.115-2.178 6.569-6.007 12.744-10.938 17.611-5.276 5.207-11.795 9.32-18.978 9.32-5.802 0-10.97-1.135-15.308-3.277zm13.012-1.872c2.412-1.615 4.61-3.271 5.794-4.619 1.773-2.016 2.81-4.703 3.379-7.571.506-2.551.449-5.286 1.165-6.943.869-2.015 2.5-3.545 3.718-5.37.513-.768 1.261-2.259 2.035-3.92 3.631 3.717 7.336 6.661 9.938 8.559-1.993 4.488-4.849 8.65-8.322 12.078-4.317 4.26-9.535 7.856-15.411 7.856-.779 0-1.546-.023-2.299-.069z" transform="matrix(.26918664795 -.54122569395 .54122550557 .26918643838 131.98963615881 285.67988438684)"/><path d="m128.191 173.96s-9.236 6.277-12.538 8.179c-2.019 1.163-5.33 2.057-6.947 3.734-2.791 2.893-8.107 9.135-9.748 14.222-1.637 5.074-.259 11.682-.022 16.209.195 3.733-.609 8.007.921 11.174 1.53 3.168 5.099 5.769 8.26 7.833s8.263 3.859 10.705 4.551c3.973 1.125 8.287-3.52 10.655-7.063 4.045-6.052 2.246-16.911 2.246-16.911s.895-3.408 1.318-4.711c.323-.993.643-1.997 1.223-2.865 1.186-1.776 4.736-5.401 5.824-9.736 1.226-4.877.411-11.186.411-11.186z" fill="#feefe7" transform="matrix(.29225438066 -.5876054738 .58760523434 .29225421675 118.16895452963 288.80307259004)"/><path d="m278.317 270.155c-.561-1.264-1.357-2.961-2.689-4.101-1.11-.95-2.563-1.709-3.679-2.211l.424-3.434c1.341.553 3.715 1.652 5.422 3.112 2.229 1.907 3.322 5.052 4.018 6.268.036.061.072.121.11.18.194.189.432.457.643.798.186.198.38.388.574.578.586.575 2.089 1.893 2.346 2.118.035.016.07.035.105.054.718.231 6.976 2.336 9.213 6.242 1.389 2.426 2.858 6.319 1.035 8.324-1.12 1.233-3.666 3.706-5.802 4.961-2.137 1.254-4.708 2.591-7.017 2.564-2.308-.026-4.585-1.748-6.835-2.724-2.729-1.184-7.015-2.305-9.518-4.75-2.51-2.452-4.624-7.399-5.508-9.885-.513-1.44-.07-3.647-.164-5.174-.126-2.06-.822-7.372-1.061-9.16l2.785 1.191.963.579-.151.043c.305 2.383.699 5.625.792 7.144.052.859-.033 1.91-.072 2.948-.018.472-.083.944.048 1.312.767 2.156 2.521 6.491 4.697 8.617 2.222 2.17 6.093 3.026 8.516 4.077 1.169.507 2.347 1.203 3.531 1.78.675.33 1.332.661 2.016.669 1.76.02 3.662-1.15 5.29-2.106 1.824-1.071 3.975-3.182 4.972-4.272.01-.071.038-.271.035-.391-.006-.246-.043-.5-.095-.758-.003-.012-.006-.025-.008-.037-2.78 2.985-6.058 5.54-8.161 6.755-.597.346-1.362.141-1.707-.456-.346-.597-.141-1.363.456-1.708 2.173-1.256 5.69-4.058 8.424-7.233-.117-.229-.236-.448-.354-.654-.035-.062-.072-.122-.11-.182-6.378 7.222-11.099 9.059-11.099 9.059-.641.255-1.369-.058-1.624-.699-.256-.641.057-1.368.698-1.624 0 0 4.343-1.775 10.267-8.523-.406-.301-.831-.575-1.25-.827-.088-.052-.175-.104-.262-.154-4.611 5.828-11.144 8.613-11.144 8.613-.635.27-1.37-.025-1.64-.66-.271-.634.025-1.369.659-1.64 0 0 5.656-2.413 9.833-7.454-.996-.426-1.693-.641-1.693-.641l-.008-.002c-3.862 3.319-8.331 5.523-8.331 5.523-.178.088-.366.129-.552.129h-.005c-.186 0-.375-.042-.552-.131-.124-.061-.233-.14-.325-.233l-.008-.007c-.092-.093-.171-.203-.232-.326-.087-.178-.129-.367-.128-.552v-.006c0-.186.042-.374.13-.552l1.489-2.993c.073-.146.173-.276.295-.383 0 0 2.168-1.902 3.131-2.776.841-.763 1.171-1.352 1.14-1.856-.002-.024-.004-.047-.007-.07-.017-.114-.054-.234-.119-.356l-.877.278c-1.247.401-2.99.992-4.362 1.569-.711.299-1.547.788-1.644.845-1.422 1.994-3.016 6.526-3.016 6.526-.231.65-.947.99-1.597.759s-.99-.947-.758-1.597c0 0 1.809-5.034 3.378-7.199.313-.432 1.327-1.074 2.667-1.638 1.26-.53 2.819-1.072 4.062-1.48z" transform="matrix(.99999789858 -.00000007883 -.00000060387 .99999861514 -1.99931338569 1.00032620982)"/></svg>