<svg clip-rule="evenodd" fill-rule="evenodd" stroke-linejoin="round" stroke-miterlimit="2" viewBox="0 0 569 386" xmlns="http://www.w3.org/2000/svg"><path d="m0 0h569v386h-569z" fill="none"/><path d="m242.087 178.183h16.878v62.85h-16.878z" fill="#d2d3d5" transform="matrix(0 -.47027264755 .69746239295 0 102.22298099168 311.26026554261)"/><path d="m258.966 178.183h-16.879v62.85h16.879zm-6.646 4.481v53.889h-3.588v-53.889z" transform="matrix(0 -.47027264755 .69746239295 0 102.22298099168 311.26026554261)"/><path d="m242.087 178.183h16.878v62.85h-16.878z" fill="#d2d3d5" transform="matrix(.36229141844 0 0 .47379718432 176.51371895874 83.2121659477)"/><path d="m242.087 178.183h16.878v62.85h-16.878z" transform="matrix(.36229141844 0 0 .47379718432 176.51371895874 83.2121659477)"/><path d="m242.087 178.183h16.878v62.85h-16.878z" fill="#d2d3d5" transform="matrix(.36229141844 0 0 .47379718432 138.79316377548 83.2121659477)"/><path d="m242.087 178.183h16.878v62.85h-16.878z" transform="matrix(.36229141844 0 0 .47379718432 138.79316377548 83.2121659477)"/><path d="m242.087 178.183h16.878v62.85h-16.878z" fill="#d2d3d5" transform="matrix(0 -.70039034809 1.07620378491 0 36.02002940498 414.09922090628)"/><path d="m258.966 178.183h-16.879v62.85h16.879zm-4.462 2.904v57.042h-7.955v-57.042z" transform="matrix(0 -.70039034809 1.07620378491 0 36.02002940498 414.09922090628)"/><path d="m242.087 178.183h16.878v62.85h-16.878z" fill="#d2d3d5" transform="matrix(.46851567001 0 0 1.22369254358 114.36044006532 -50.40683034569)"/><path d="m258.966 178.183h-16.879v62.85h16.879zm-6.67 2.554v57.742h-3.539v-57.742z" transform="matrix(.46851567001 0 0 1.22369254358 114.36044006532 -50.40683034569)"/><path d="m242.087 178.183h16.878v62.85h-16.878z" fill="#d2d3d5" transform="matrix(.46851567001 0 0 1.22369254358 174.09235844295 -50.40683034569)"/><path d="m258.966 178.183h-16.879v62.85h16.879zm-6.67 2.554v57.742h-3.539v-57.742z" transform="matrix(.46851567001 0 0 1.22369254358 174.09235844295 -50.40683034569)"/><path d="m290.287 177.304-32.895-18.836h-41.619l-6.058 21.121 80.977 1.619z" fill="#f68634" transform="matrix(1.00332676366 0 0 1.07246339165 9.78790816402 -28.35474046446)"/><path d="m290.287 177.304-32.895-18.836h-41.619l-6.058 21.121 80.977 1.619zm-4.407.893-72.127-1.442s4.409-15.373 4.409-15.373h38.353z" transform="matrix(1.00332676366 0 0 1.07246339165 9.78790816402 -28.35474046446)"/><path d="m290.936 175.25c0-2.403-2.015-4.354-4.499-4.354h-71.648c-2.483 0-4.499 1.951-4.499 4.354v.072c0 2.402 2.016 4.353 4.499 4.353h71.648c2.484 0 4.499-1.951 4.499-4.353z" fill="#f68634" transform="matrix(1.03765701207 0 0 1.07246339165 1.67368884932 -22.00342928857)"/><path d="m303.566 165.945c0-2.577-2.092-4.669-4.668-4.669h-74.347c-2.576 0-4.668 2.092-4.668 4.669v.077c0 2.577 2.092 4.669 4.668 4.669h74.347c2.576 0 4.668-2.092 4.668-4.669zm-3.123.025c0-.866-.704-1.569-1.57-1.569h-74.297c-.866 0-1.569.703-1.569 1.569v.027c0 .866.703 1.569 1.569 1.569h74.297c.866 0 1.57-.703 1.57-1.569z" transform="matrix(.99999676475 0 0 .99999554873 .00000505967 -.00002323374)"/><g transform="matrix(1.06997874831 0 0 1.04191087764 7.4981658008 -3.20017327032)"><g transform="translate(6.61632 -7.46352)"><path d="m23.241 191.079s-4.139-2.712-8.802-1.223c-2.737.874-5.245 2.644-5.245 2.644s-3.888.286-6.763 3.211c-1.576 1.604-.117 6.119 2.202 9.439s6.202 7.091 7.488 9.799c1.285 2.708 1.302 6.8 2.678 9.134 1.51 2.564 5.73 5.84 8.824 6.823s8.263.971 10.752-.31c3.835-1.973 5.693-5.186 5.338-8.013-.358-2.855-2.113-2.451-4.127-3.122s-6.363-5.111-5.705-10.085c.658-4.975 1.047-6.456 1.047-6.456z" fill="#4b4b4d"/><path d="m23.241 191.079s-4.139-2.712-8.802-1.223c-2.737.874-5.245 2.644-5.245 2.644s-3.888.286-6.763 3.211c-1.576 1.604-.117 6.119 2.202 9.439s6.202 7.091 7.488 9.799c1.285 2.708 1.302 6.8 2.678 9.134 1.51 2.564 5.73 5.84 8.824 6.823s8.263.971 10.752-.31c3.835-1.973 5.693-5.186 5.338-8.013-.358-2.855-2.113-2.451-4.127-3.122s-6.363-5.111-5.705-10.085c.658-4.975 1.047-6.456 1.047-6.456zm13.559 31.786.016.102c.23 1.825-1.273 3.673-3.749 4.948-1.986 1.022-6.112.91-8.58.126-2.513-.798-5.963-3.429-7.19-5.511-.539-.914-.749-2.193-1.013-3.488-.387-1.903-.798-3.848-1.538-5.407-1.337-2.817-5.328-6.779-7.74-10.233-.951-1.363-1.739-2.964-2.114-4.395-.12-.456-.163-1.117-.176-1.388 2.063-1.922 4.686-2.127 4.686-2.127.519-.039 1.018-.218 1.446-.52 0 0 2.131-1.509 4.458-2.252 2.572-.822 4.923.127 5.894.623h.001l6.616 10.192c-.193 1.045-.477 2.765-.83 5.437-.516 3.896 1.216 7.578 3.336 10.06 1.517 1.775 3.233 2.906 4.361 3.281.501.167.988.284 1.452.387.193.043.464.113.664.165z"/><path d="m8.805 192.922s-7.445 7.627-.187 17.16c.496.652 1.415.768 2.05.258s.747-1.453.251-2.105c-5.584-7.335-.037-13.205-.037-13.205.567-.589.562-1.539-.011-2.121-.574-.582-1.499-.576-2.066.013z"/></g><path d="m22.087 189.894s-4.901-.877-7.648-.038-5.245 2.644-5.245 2.644-3.888.286-6.763 3.211c-1.576 1.604-.117 6.119 2.202 9.439s6.202 7.091 7.488 9.799c1.285 2.708 1.302 6.8 2.678 9.134 1.51 2.564 5.73 5.84 8.824 6.823s8.263.971 10.752-.31c3.835-1.973 5.693-5.186 5.338-8.013-.358-2.855-2.113-2.451-4.127-3.122s-6.363-5.111-5.705-10.085c.658-4.975 1.047-6.456 1.047-6.456z" fill="#4b4b4d"/><path d="m22.087 189.894s-4.901-.877-7.648-.038-5.245 2.644-5.245 2.644-3.888.286-6.763 3.211c-1.576 1.604-.117 6.119 2.202 9.439s6.202 7.091 7.488 9.799c1.285 2.708 1.302 6.8 2.678 9.134 1.51 2.564 5.73 5.84 8.824 6.823s8.263.971 10.752-.31c3.835-1.973 5.693-5.186 5.338-8.013-.358-2.855-2.113-2.451-4.127-3.122s-6.363-5.111-5.705-10.085c.658-4.975 1.047-6.456 1.047-6.456zm14.713 32.971.016.102c.23 1.825-1.273 3.673-3.749 4.948-1.986 1.022-6.112.91-8.58.126-2.513-.798-5.963-3.429-7.19-5.511-.539-.914-.749-2.193-1.013-3.488-.387-1.903-.798-3.848-1.538-5.407-1.337-2.817-5.328-6.779-7.74-10.233-.951-1.363-1.739-2.964-2.114-4.395-.12-.456-.163-1.117-.176-1.388 2.063-1.922 4.686-2.127 4.686-2.127.53-.039 1.039-.226 1.472-.539 0 0 2.093-1.519 4.397-2.222 1.494-.457 3.758-.261 5.131-.074l7.408 10.915c-.193 1.048-.474 2.759-.823 5.4-.516 3.896 1.216 7.578 3.336 10.06 1.517 1.775 3.233 2.906 4.361 3.281.501.167.988.284 1.452.387.193.043.464.113.664.165z"/><path d="m8.805 192.922s-7.445 7.627-.187 17.16c.496.652 1.415.768 2.05.258s.747-1.453.251-2.105c-5.584-7.335-.037-13.205-.037-13.205.567-.589.562-1.539-.011-2.121-.574-.582-1.499-.576-2.066.013z"/><path d="m83.225 137.227c3.456-3.37 8.866-11.885 14.649-18.503 6.847-7.834 10.253-5.678 19.75-16.662.664-.768 17.236 19.235 15.949 20.089-5.208 3.457-2.732 12.301-7.692 15.629-17.61 11.816-32.597 21.702-37.424 21.702-.253 0-.509-.022-.77-.065-1.855 2.613-5.504 6.467-11.334 11.085-.245.194-.495.379-.748.555-9.051 7.138-32.61 19.361-44.9 32.093-3.053 3.163-8.399 2.381-11.223-.989s-2.36-8.374.989-11.223c24.125-20.516 32.592-36.319 37.974-41.028.124-.11.25-.218.379-.324 1.828-1.508 9.398-7.71 17.547-9.473 1.324-.286 4.978-1.056 6.854-2.886z" fill="#feefe7" transform="matrix(.998521 .0558251 -.0529346 .998521 10.5435 -.97926)"/><path d="m83.225 137.227c3.456-3.37 8.866-11.885 14.649-18.503 6.847-7.834 10.253-5.678 19.75-16.662.664-.768 17.236 19.235 15.949 20.089-5.208 3.457-2.732 12.301-7.692 15.629-17.61 11.816-32.597 21.702-37.424 21.702-.253 0-.509-.022-.77-.065-1.855 2.613-5.504 6.467-11.334 11.085-.245.194-.495.379-.748.555-9.051 7.138-32.61 19.361-44.9 32.093-3.053 3.163-8.399 2.381-11.223-.989s-2.36-8.374.989-11.223c24.125-20.516 32.592-36.319 37.974-41.028l.379-.324c1.828-1.508 9.398-7.71 17.547-9.473 1.324-.286 4.978-1.056 6.854-2.886zm34.632-31.003c3.29 3.698 9.723 12.144 12.078 15.258-1.381 1.665-2.175 3.741-2.723 5.971-.425 1.731-.699 3.552-1.234 5.178-.344 1.047-.776 2.022-1.695 2.639-12.208 8.191-23.137 15.455-30.239 19.07-2.515 1.281-4.402 2.142-5.587 2.142-.103 0-.207-.01-.313-.027-1.083-.176-2.17.286-2.816 1.195-1.758 2.475-5.237 6.102-10.759 10.477-.197.156-.396.304-.6.445l-.143.106c-9.116 7.189-32.818 19.537-45.195 32.36-1.893 1.961-5.184 1.255-6.935-.834s-1.439-5.19.638-6.956c24.143-20.531 32.62-36.342 38.005-41.055h-.001l.315-.269c1.703-1.405 8.728-7.234 16.319-8.876 1.608-.347 5.986-1.425 8.264-3.646 3.49-3.404 8.97-11.991 14.812-18.675 3.166-3.623 5.552-4.916 8.228-6.592 2.656-1.664 5.58-3.636 9.581-7.911z" transform="matrix(.998521 .0558251 -.0529346 .998521 10.5435 -.97926)"/><path d="m125.165 146.149-24.084-27.404c1.701-1.585 6.944-5.888 9.789-9.408 3.903-4.831 7.991-14.81 13.63-19.575 5.633-4.76 17.62-7.969 20.204-9.016 0 0 5.672 16.234 17.98 29.776 0 0-5.226 4.678-13.067 11.19-3.64 3.022-7.686 8.891-11.381 12.804-4.801 5.085-9.181 8.238-13.071 11.633z" fill="#aaabaf" transform="translate(3.42106 -.566388)"/><path d="m125.165 146.149-24.084-27.404c1.701-1.585 6.944-5.888 9.789-9.408 3.903-4.831 7.991-14.81 13.63-19.575 5.633-4.76 17.62-7.969 20.204-9.016 0 0 5.672 16.234 17.98 29.776 0 0-5.226 4.678-13.067 11.19-3.64 3.022-7.686 8.891-11.381 12.804-4.801 5.085-9.181 8.238-13.071 11.633zm.296-4.139-20.217-23.005c2.384-2.107 5.764-5.143 7.874-7.753 2.022-2.503 4.108-6.327 6.403-10.155 2.039-3.401 4.239-6.825 6.835-9.019 4.222-3.568 12.195-6.164 16.659-7.607 2.047 4.929 7.097 15.773 15.502 25.772-2.235 1.952-6.007 5.209-10.737 9.137-3.715 3.085-7.868 9.053-11.641 13.048-3.843 4.071-7.417 6.878-10.678 9.582z" transform="translate(3.42106 -.566388)"/><g transform="matrix(.949033 .323667 -.306909 .949033 25.3901 -65.1177)"><path d="m219.495 3.925s-9.089 4.542-13.711 14.095c-4.492 9.283-6.327 16.598-6.379 25.522-.046 7.945 8.074-2.125 8.074-2.125s3.044-7.849 7.012-14.315c5.57-9.079 5.004-23.177 5.004-23.177z" fill="#996533"/><path d="m219.495 3.925s-9.089 4.542-13.711 14.095c-4.492 9.283-6.327 16.598-6.379 25.522-.046 7.945 8.074-2.125 8.074-2.125s3.044-7.849 7.012-14.315c5.57-9.079 5.004-23.177 5.004-23.177zm-3.064 5.602c-.349 4.554-1.396 11.062-4.411 15.976-3.516 5.731-6.333 12.511-7.067 14.334-.455.534-1.413 1.617-2.474 2.559-.043.038-.089.077-.137.117.184-7.998 1.973-14.718 6.057-23.159 2.163-4.47 5.408-7.727 8.032-9.827z"/><path d="m216.272 28.893c4.095-4.929-4.849-8.226 4.908-19.477 9.756-11.251 23.955 1.53 26.372 7.823.811 2.113.927 6.673.464 9.614-.464 2.941-2.031 2.822-2.631 5.188-.599 2.366 2.492 7.515 1.238 8.769s-3.82 1.022-3.82 1.022c-1.059 3.032-3.474 4.042-3.474 4.042.482 6.557-4.408 6.032-5.712 5.735s-9.381-5.229-9.381-5.229c-6.518 4.903-9.348 12.595-9.348 12.595l-12.107-18.94s9.396-6.214 13.491-11.142z" fill="#feefe7" transform="translate(1.5486 .483777)"/><path d="m216.272 28.893c4.095-4.929-4.849-8.226 4.908-19.477 9.756-11.251 23.955 1.53 26.372 7.823.811 2.113.927 6.673.464 9.614-.464 2.941-2.031 2.822-2.631 5.188-.599 2.366 2.492 7.515 1.238 8.769s-3.82 1.022-3.82 1.022c-1.059 3.032-3.474 4.042-3.474 4.042.482 6.557-4.408 6.032-5.712 5.735s-9.381-5.229-9.381-5.229c-6.518 4.903-9.348 12.595-9.348 12.595l-12.107-18.94s9.396-6.214 13.491-11.142zm27.448 9.938c-.379.033-.661.013-.661.013-1.323-.119-2.557.692-3.005 1.975-.58 1.659-1.827 2.277-1.827 2.277-1.174.491-1.906 1.704-1.81 3.003.091 1.249.057 2.025-.397 2.418-.522.452-1.272.284-1.653.192-.146-.07-1.155-.555-1.973-1.005-2.774-1.526-6.665-3.902-6.665-3.902-1.007-.615-2.274-.552-3.219.158-3.638 2.737-6.238 6.257-7.923 9.078 0 0-7.784-12.178-7.784-12.178 3.198-2.285 8.746-6.476 11.691-10.02 1.952-2.351 2.087-4.455 1.671-6.75-.305-1.684-1.261-3.539-.64-6.181.416-1.773 1.543-3.855 3.836-6.499 3.809-4.392 8.502-3.984 12.462-1.973 4.343 2.205 7.977 6.208 9.012 8.902.678 1.765.685 5.578.298 8.035-.212 1.345-.893 1.642-1.347 2.27-.49.678-.931 1.475-1.227 2.641-.294 1.16-.153 2.77.308 4.468.237.876.601 2.18.853 3.078z" transform="translate(1.5486 .483777)"/><path d="m249.726 20.913s2.19-2.766 1.402-5.564-7.59-9.565-12.541-11.671c-4.95-2.106-14.685-1.905-19.092.247-5.973 2.915-9.632 7.73-9.33 16.166.254 7.087-.033 10.537 3.291 13.712 3.802 3.632 7.175-3.393 8.701-4.624s4.979-.798 7.575-.859 3.579-2.391 3.579-2.391 2.647-.05 4.562-1.169c1.916-1.119 2.379-4.089 5.015-4.432 2.636-.344 6.838.585 6.838.585z" fill="#996533"/><path d="m233.311 25.929c-.792 1.609-2.164 2.358-3.579 2.391-2.596.061-6.049-.372-7.575.859s-4.899 8.256-8.701 4.624c-3.324-3.175-3.037-6.625-3.291-13.712-.302-8.436 3.357-13.251 9.33-16.166 4.407-2.152 14.142-2.353 19.092-.247 4.951 2.106 11.753 8.873 12.541 11.671s-1.402 5.564-1.402 5.564-4.202-.929-6.838-.585c-2.636.343-3.099 3.313-5.015 4.432-1.437.84-3.398 1.128-4.562 1.169l-.053-2.999s1.843-.001 3.171-.777c.337-.197.529-.56.765-.889.371-.519.737-1.05 1.147-1.529 1.042-1.218 2.321-2.14 4.179-2.383 1.74-.227 4.077.018 5.743.265.14-.434.202-.931.06-1.435-.237-.841-1.313-2.072-2.619-3.454-2.336-2.471-5.571-5.146-8.235-6.279-4.335-1.844-12.86-1.7-16.72.184-4.925 2.405-7.915 6.392-7.666 13.348.099 2.751.109 4.938.297 6.768.209 2.026.637 3.493 2.065 4.858.08.076.204.163.271.207.099-.049.334-.17.465-.269.415-.314.798-.724 1.159-1.144 1.254-1.461 2.323-3.024 3.012-3.58.985-.795 2.426-1.287 4.118-1.446 1.636-.153 3.576-.016 5.195-.054.659-.015.999-.66.999-.66s.607-.76.972-1.082c.677-.598 1.622-.649 1.622-.649z"/></g><path d="m145.451 81.102s5.829 17.507 18.526 30.731c0 0 8.937-8.076 16.654-13.669 3.855-2.794 7.335-5.782 10.702-9.189 1.269-1.284 10.468.418 14.734-1.127 2.863-1.037 4.26-8.648 5.067-16.192.721-6.739 2.905-9.964 2.775-14.59-.277-9.847-1.273-18.435-5.812-18.582-13.397-.435-20.995 7.272-29.966 15.708-7.694 7.235-16.063 16.04-19.824 19.103-4.469 3.639-12.856 7.807-12.856 7.807z" fill="#f7acb0"/><path d="m145.451 81.102s5.829 17.507 18.526 30.731c0 0 8.937-8.076 16.654-13.669 3.855-2.794 7.335-5.782 10.702-9.189 1.269-1.284 10.468.418 14.734-1.127 2.863-1.037 4.26-8.648 5.067-16.192.721-6.739 2.905-9.964 2.775-14.59-.277-9.847-1.273-18.435-5.812-18.582-13.397-.435-20.995 7.272-29.966 15.708-7.694 7.235-16.063 16.04-19.824 19.103-4.469 3.639-12.856 7.807-12.856 7.807zm59.537 3.953c-2.767.944-7.655.369-10.75.403-1.367.015-2.489.141-3.217.365-.788.242-1.352.625-1.738 1.016-3.252 3.29-6.613 6.176-10.336 8.874-5.501 3.987-11.614 9.217-14.763 11.975-8.276-9.406-13.175-20.366-15.066-25.134 2.929-1.57 7.881-4.367 11.003-6.909 3.79-3.086 12.23-11.951 19.982-19.241 8.389-7.888 15.375-15.329 27.901-14.922.225.007.374.173.523.361.308.389.55.898.771 1.488 1.207 3.217 1.537 8.312 1.692 13.821.055 1.992-.424 3.675-.957 5.592-.658 2.363-1.419 5.009-1.802 8.584-.457 4.271-1.089 8.569-2.125 11.531-.222.636-.459 1.2-.728 1.663-.112.192-.32.45-.39.533z"/><g transform="translate(-5.98261 1.4082)"><path d="m211.25 162.822c-4.059-6.139 2.816-7.171 4.656-7.445s3.314 5.33 6.386 5.803c11.035 1.697 20.55.721 20.419 5.139-.037 1.222-.995 2.728-3.164 2.877-7.067.486-17.041-.276-23.514-1.266-4.541-.695-2.929-2.092-4.198-3.635 0 0-.585-1.473-.585-1.473z" fill="#feefe7" transform="matrix(.882366 0 0 .820261 25.5536 5.16861)"/><path d="m211.25 162.822c-4.059-6.139 2.816-7.171 4.656-7.445s3.314 5.33 6.386 5.803c11.035 1.697 20.55.721 20.419 5.139-.037 1.222-.995 2.728-3.164 2.877-7.067.486-17.041-.276-23.514-1.266-4.541-.695-2.929-2.092-4.198-3.635 0 0-.585-1.473-.585-1.473zm3.995-3.631c.514.74 1.443 2.042 2.119 2.832 1.257 1.468 2.756 2.515 4.472 2.779 1.519.233 3.009.416 4.449.569-3.571-.254-7.017-.638-9.798-1.063-.365-.056-.759-.152-1.049-.23-.158-.456-.394-1.04-.698-1.571l-.458-1.153c-.097-.244-.217-.475-.359-.689-.177-.268-.339-.596-.453-.849.244-.131.566-.291.791-.365.339-.11.674-.195.984-.26z" transform="matrix(.882366 0 0 .820261 25.5536 5.16861)"/><path d="m199.475 84.393c-2.569-11.29-3.551-30.738-2.402-35.017 1.75-6.517 4.893-10.921 10.921-10.921 6.027 0 10.898 4.893 10.92 10.921.046 12.329-5.867 15.431-5.162 18.275 1.45 5.847 2.202 15.224.751 23.671-.861 5.005 2.502 12.701 2.841 21.107.301 7.476 1.289 19.364 2.783 24.666.855 3.033 3.132 6.547 6.183 7.148 11.22 2.212 21.015 1.865 20.464 6.192-.202 1.589-1.629 2.87-3.798 3.019-7.067.485-16.285.459-22.759-.532-4.541-.695-5.432-3.029-6.7-4.573-.001 0 0 0 0 0-3.203-7.243-10.149-22.993-11.484-34.853-.765-6.8-1.913-12.849-2.339-17.538-.273-3.016-.638-9.105-.219-11.565z" fill="#feefe7"/><path d="m199.475 84.393c-2.569-11.29-3.551-30.738-2.402-35.017 1.75-6.517 4.893-10.921 10.921-10.921 6.027 0 10.898 4.893 10.92 10.921.046 12.329-5.867 15.431-5.162 18.275 1.45 5.847 2.202 15.224.751 23.671-.861 5.005 2.502 12.701 2.841 21.107.301 7.476 1.289 19.364 2.783 24.666.855 3.033 3.132 6.547 6.183 7.148 11.22 2.212 21.015 1.865 20.464 6.192-.202 1.589-1.629 2.87-3.798 3.019-7.067.485-16.285.459-22.759-.532-4.541-.695-5.432-3.029-6.7-4.573-.001 0 0 0 0 0-3.203-7.243-10.149-22.993-11.484-34.853-.765-6.8-1.913-12.849-2.339-17.538-.273-3.016-.638-9.105-.219-11.565zm43.936 65.949c-.188.066-.4.104-.63.119-6.872.472-15.838.458-22.133-.505-3.02-.463-3.8-2.006-4.606-3.149-3.178-7.187-9.825-22.256-11.108-33.655-.762-6.775-1.908-12.801-2.332-17.472-.255-2.81-.64-8.48-.25-10.771.067-.398.056-.805-.033-1.198-2.461-10.816-3.531-29.439-2.431-33.538 1.348-5.018 3.464-8.719 8.106-8.719 4.397 0 7.983 3.536 8 7.933.029 7.792-2.611 11.491-3.96 13.896-1.12 1.998-1.482 3.614-1.112 5.108 1.372 5.535 2.079 14.413.704 22.409-.397 2.314-.082 5.13.546 8.292.787 3.966 2.057 8.588 2.254 13.461.31 7.693 1.358 19.92 2.896 25.376 1.133 4.022 4.391 8.462 8.438 9.26 6.646 1.31 12.788 1.696 16.519 2.73.365.101.788.272 1.132.423zm-27.567-.183-.046.061zm.312-.528-.029.064-.031.059-.014.029-.008.014.022-.043.06-.123c.103-.221.177-.453.224-.691-.05.262-.13.491-.224.691zm-.081-2.75.101.228c.195.442.28.919.256 1.389l.004-.058c.01-.342.033-.885-.361-1.559z"/></g></g><path d="m16.398 198.616v-9.238h50.766v-8.577l26.672 13.196-26.672 13.196v-8.577z" fill="#ec3237" transform="matrix(.10358041935 .38656644863 -.35066791529 .10375707473 308.524140611 41.9959105431)"/><path d="m242.087 178.183h16.878v62.85h-16.878z" fill="#d2d3d5" transform="matrix(0 -.58454624187 .86694181081 0 274.1218088539 463.68458983811)"/><path d="m258.966 178.183h-16.879v62.85h16.879zm-5.346 3.605v55.641h-6.187v-55.641z" transform="matrix(0 -.58454624187 .86694181081 0 274.1218088539 463.68458983811)"/><path d="m242.087 178.183h16.878v62.85h-16.878z" fill="#d2d3d5" transform="matrix(.45032618464 0 0 .58892722114 366.46477608842 180.22209148303)"/><path d="m258.966 178.183h-16.879v62.85h16.879zm-6.94 5.307v52.237h-3v-52.237z" transform="matrix(.45032618464 0 0 .58892722114 366.46477608842 180.22209148303)"/><path d="m242.087 178.183h16.878v62.85h-16.878z" fill="#d2d3d5" transform="matrix(.45032618464 0 0 .58892722114 319.57833927714 180.22209148303)"/><path d="m258.966 178.183h-16.879v62.85h16.879zm-6.94 5.307v52.237h-3v-52.237z" transform="matrix(.45032618464 0 0 .58892722114 319.57833927714 180.22209148303)"/><path d="m242.087 178.183h16.878v62.85h-16.878z" fill="#d2d3d5" transform="matrix(0 -.87058124249 1.33771521952 0 191.83191435979 591.5128298778)"/><path d="m258.966 178.183h-16.879v62.85h16.879zm-3.59 2.336v58.178h-9.699v-58.178z" transform="matrix(0 -.87058124249 1.33771521952 0 191.83191435979 591.5128298778)"/><path d="m242.087 178.183h16.878v62.85h-16.878z" fill="#d2d3d5" transform="matrix(.58236232872 0 0 1.5210429126 289.20860185418 14.1344346058)"/><path d="m258.966 178.183h-16.879v62.85h16.879zm-5.367 2.055v58.741h-6.146v-58.741z" transform="matrix(.58236232872 0 0 1.5210429126 289.20860185418 14.1344346058)"/><path d="m242.087 178.183h16.878v62.85h-16.878z" fill="#d2d3d5" transform="matrix(.58236232872 0 0 1.5210429126 363.45503865827 14.1344346058)"/><path d="m258.966 178.183h-16.879v62.85h16.879zm-5.367 2.055v58.741h-6.146v-58.741z" transform="matrix(.58236232872 0 0 1.5210429126 363.45503865827 14.1344346058)"/><path d="m290.287 177.304-32.895-18.836h-41.619l-6.058 21.121 80.977 1.619z" fill="#f68634" transform="matrix(1.24712949417 0 0 1.33306593184 159.22553598031 41.5450576401)"/><path d="m290.287 177.304-32.895-18.836h-41.619l-6.058 21.121 80.977 1.619zm-2.373 1.39.012.114s-74.963-1.499-74.963-1.499 4.732-16.497 4.732-16.497h38.991z" transform="matrix(1.24712949417 0 0 1.33306593184 159.22553598031 41.5450576401)"/><path d="m290.936 175.25c0-2.403-2.015-4.354-4.499-4.354h-71.648c-2.483 0-4.499 1.951-4.499 4.354v.072c0 2.402 2.016 4.353 4.499 4.353h71.648c2.484 0 4.499-1.951 4.499-4.353z" fill="#f68634" transform="matrix(1.28980179883 0 0 1.33306593184 149.13960725196 49.43970151982)"/><path d="m290.936 175.25c0-2.403-2.015-4.354-4.499-4.354h-71.648c-2.483 0-4.499 1.951-4.499 4.354v.072c0 2.402 2.016 4.353 4.499 4.353h71.648c2.484 0 4.499-1.951 4.499-4.353zm-2.422 0 .002.074-.002-.002c0 1.108-.931 2.009-2.077 2.009h-71.648c-1.146 0-2.076-.901-2.076-2.009l-.002.002.002-.074c0-1.109.93-2.009 2.076-2.009h71.648c1.146 0 2.077.9 2.077 2.009z" transform="matrix(1.28980179883 0 0 1.33306593184 149.13960725196 49.43970151982)"/><g transform="matrix(1.28071915629 .35860764521 -.34920023136 1.24712310618 250.08948323299 65.93050757355)"><path d="m23.241 191.079s-4.139-2.712-8.802-1.223c-2.737.874-5.245 2.644-5.245 2.644s-3.888.286-6.763 3.211c-1.576 1.604-.117 6.119 2.202 9.439s6.202 7.091 7.488 9.799c1.285 2.708 1.302 6.8 2.678 9.134 1.51 2.564 5.73 5.84 8.824 6.823s8.263.971 10.752-.31c3.835-1.973 5.693-5.186 5.338-8.013-.358-2.855-2.113-2.451-4.127-3.122s-6.363-5.111-5.705-10.085c.658-4.975 1.047-6.456 1.047-6.456z" fill="#4b4b4d"/><path d="m23.241 191.079s-4.139-2.712-8.802-1.223c-2.737.874-5.245 2.644-5.245 2.644s-3.888.286-6.763 3.211c-1.576 1.604-.117 6.119 2.202 9.439s6.202 7.091 7.488 9.799c1.285 2.708 1.302 6.8 2.678 9.134 1.51 2.564 5.73 5.84 8.824 6.823s8.263.971 10.752-.31c3.835-1.973 5.693-5.186 5.338-8.013-.358-2.855-2.113-2.451-4.127-3.122s-6.363-5.111-5.705-10.085c.658-4.975 1.047-6.456 1.047-6.456zm14.029 31.316c.031.105.091.325.113.497.253 2.02-1.319 4.137-4.061 5.547-2.084 1.072-6.414.985-9.004.162-2.627-.834-6.227-3.591-7.509-5.767-.568-.964-.805-2.307-1.083-3.672-.378-1.854-.773-3.751-1.493-5.27-1.327-2.795-5.297-6.721-7.691-10.148-.992-1.421-1.81-3.092-2.202-4.585-.128-.489-.21-.953-.217-1.37-.002-.141.028-.356.042-.442 2.236-2.212 5.197-2.44 5.197-2.44.417-.031.818-.175 1.162-.418 0 0 2.205-1.561 4.612-2.329 2.879-.92 5.501.223 6.458.732l.001.001 6.827 10.517c-.19.999-.488 2.76-.869 5.641-.492 3.717 1.176 7.226 3.199 9.594 1.432 1.676 3.044 2.756 4.109 3.111.674.224 1.32.347 1.908.487.154.036.389.114.501.152z"/><path d="m9.008 193.128s-7.259 7.455-.165 16.774c.399.524 1.138.617 1.649.207s.601-1.169.202-1.693c-5.748-7.551-.015-13.592-.015-13.592.456-.474.452-1.238-.009-1.706s-1.206-.464-1.662.01z"/></g><g transform="matrix(1.28071915629 .35860764521 -.34920023136 1.24712310618 239.00970639091 72.86577698354)"><path d="m22.087 189.894s-4.901-.877-7.648-.038-5.245 2.644-5.245 2.644-3.888.286-6.763 3.211c-1.576 1.604-.117 6.119 2.202 9.439s6.202 7.091 7.488 9.799c1.285 2.708 1.302 6.8 2.678 9.134 1.51 2.564 5.73 5.84 8.824 6.823s8.263.971 10.752-.31c3.835-1.973 5.693-5.186 5.338-8.013-.358-2.855-2.113-2.451-4.127-3.122s-6.363-5.111-5.705-10.085c.658-4.975 1.047-6.456 1.047-6.456z" fill="#4b4b4d"/><path d="m22.087 189.894s-4.901-.877-7.648-.038-5.245 2.644-5.245 2.644-3.888.286-6.763 3.211c-1.576 1.604-.117 6.119 2.202 9.439s6.202 7.091 7.488 9.799c1.285 2.708 1.302 6.8 2.678 9.134 1.51 2.564 5.73 5.84 8.824 6.823s8.263.971 10.752-.31c3.835-1.973 5.693-5.186 5.338-8.013-.358-2.855-2.113-2.451-4.127-3.122s-6.363-5.111-5.705-10.085c.658-4.975 1.047-6.456 1.047-6.456zm15.183 32.501c.031.105.091.325.113.497.253 2.02-1.319 4.137-4.061 5.547-2.084 1.072-6.414.985-9.004.162-2.627-.834-6.227-3.591-7.509-5.767-.568-.964-.805-2.307-1.083-3.672-.378-1.854-.773-3.751-1.493-5.27-1.327-2.795-5.297-6.721-7.691-10.148-.992-1.421-1.81-3.092-2.202-4.585-.128-.489-.21-.953-.217-1.37-.002-.141.028-.356.042-.442 2.236-2.212 5.197-2.44 5.197-2.44.425-.032.835-.181 1.184-.434 0 0 2.172-1.574 4.562-2.304 1.662-.508 4.24-.251 5.622-.054h.001l7.685 11.324c-.19 1.004-.486 2.759-.863 5.612-.492 3.717 1.176 7.226 3.199 9.594 1.432 1.676 3.044 2.756 4.109 3.111.674.224 1.32.347 1.908.487.154.036.389.114.501.152z"/><path d="m9.008 193.128s-7.259 7.455-.165 16.774c.399.524 1.138.617 1.649.207s.601-1.169.202-1.693c-5.748-7.551-.015-13.592-.015-13.592.456-.474.452-1.238-.009-1.706s-1.206-.464-1.662.01z"/></g><path d="m83.225 137.227c3.456-3.37 8.866-11.885 14.649-18.503 6.847-7.834 10.253-5.678 19.75-16.662.664-.768 17.236 19.235 15.949 20.089-5.208 3.457-2.732 12.301-7.692 15.629-17.61 11.816-32.597 21.702-37.424 21.702-.253 0-.509-.022-.77-.065-1.855 2.613-5.504 6.467-11.334 11.085-.245.194-.495.379-.748.555-9.051 7.138-32.61 19.361-44.9 32.093-3.053 3.163-8.399 2.381-11.223-.989s-2.36-8.374.989-11.223c24.125-20.516 32.592-36.319 37.974-41.028.124-.11.25-.218.379-.324 1.828-1.508 9.398-7.71 17.547-9.473 1.324-.286 4.978-1.056 6.854-2.886z" fill="#feefe7" transform="matrix(1.25933045758 .42769807077 -.41647847491 1.22629547958 252.85477252214 75.42548089588)"/><path d="m56.769 151.601c.596-.666 1.151-1.231 1.676-1.691l.379-.324c1.828-1.508 9.398-7.71 17.547-9.473 1.324-.286 4.978-1.056 6.854-2.886 3.456-3.37 8.866-11.885 14.649-18.503 6.847-7.834 10.253-5.678 19.75-16.662.664-.768 17.236 19.235 15.949 20.089-5.208 3.457-2.732 12.301-7.692 15.629-17.61 11.816-32.597 21.702-37.424 21.702-.253 0-.509-.022-.77-.065-1.855 2.613-5.504 6.467-11.334 11.085-.245.194-.495.379-.748.555-9.051 7.138-32.61 19.361-44.9 32.093-3.053 3.163-8.399 2.381-11.223-.989s-2.36-8.374.989-11.223c21.771-18.513 30.79-33.189 36.298-39.337zm61.091-46.23c3.287 3.591 10.554 13.165 12.81 16.157-1.911 2.107-2.7 5.009-3.331 7.97-.296 1.386-.57 2.772-1.066 3.996-.365.902-.85 1.711-1.678 2.266-12.231 8.207-23.182 15.483-30.298 19.105-2.624 1.336-4.603 2.204-5.84 2.204-.132 0-.266-.013-.403-.035-.871-.141-1.745.23-2.265.962-1.777 2.502-5.289 6.173-10.872 10.596-.205.163-.415.318-.628.466l-.116.085c-9.102 7.179-32.776 19.503-45.137 32.308-2.119 2.196-5.812 1.475-7.773-.864-1.96-2.34-1.619-5.813.707-7.79 24.139-20.528 32.614-36.338 37.999-41.05h-.001l.327-.28c1.728-1.425 8.859-7.327 16.56-8.992 1.552-.336 5.788-1.353 7.988-3.498 3.483-3.397 8.95-11.97 14.78-18.642 3.216-3.68 5.637-4.998 8.356-6.701 2.716-1.701 5.713-3.729 9.881-8.263z" transform="matrix(1.25933045758 .42769807077 -.41647847491 1.22629547958 252.85477252214 75.42548089588)"/><path d="m125.165 146.149-24.084-27.404c1.701-1.585 6.944-5.888 9.789-9.408 3.903-4.831 7.991-14.81 13.63-19.575 5.633-4.76 17.62-7.969 20.204-9.016 0 0 5.672 16.234 17.98 29.776 0 0-5.226 4.678-13.067 11.19-3.64 3.022-7.686 8.891-11.381 12.804-4.801 5.085-9.181 8.238-13.071 11.633z" fill="#aaabaf" transform="matrix(1.28071915629 .35860764521 -.34920023136 1.24712310618 243.58881904123 73.38623841772)"/><path d="m125.165 146.149-24.084-27.404c1.701-1.585 6.944-5.888 9.789-9.408 3.903-4.831 7.991-14.81 13.63-19.575 5.633-4.76 17.62-7.969 20.204-9.016 0 0 5.672 16.234 17.98 29.776 0 0-5.226 4.678-13.067 11.19-3.64 3.022-7.686 8.891-11.381 12.804-4.801 5.085-9.181 8.238-13.071 11.633zm.235-3.334-20.972-23.862c2.379-2.097 6.026-5.323 8.25-8.076 2.008-2.485 4.078-6.286 6.357-10.087 2.073-3.458 4.318-6.934 6.958-9.165 4.44-3.751 12.985-6.451 17.347-7.87 1.914 4.697 7.109 16.142 15.986 26.55-2.162 1.895-6.127 5.329-11.187 9.531-3.7 3.073-7.833 9.021-11.59 13.001-4.029 4.267-7.761 7.151-11.149 9.978z" transform="matrix(1.28071915629 .35860764521 -.34920023136 1.24712310618 243.58881904123 73.38623841772)"/><g transform="matrix(1.04014617001 .82881702323 -.80707425702 1.01286087278 306.25722745592 -14.03379881966)"><path d="m219.495 3.925s-9.089 4.542-13.711 14.095c-4.492 9.283-6.327 16.598-6.379 25.522-.046 7.945 8.074-2.125 8.074-2.125s3.044-7.849 7.012-14.315c5.57-9.079 5.004-23.177 5.004-23.177z" fill="#996533"/><path d="m219.495 3.925s-9.089 4.542-13.711 14.095c-4.492 9.283-6.327 16.598-6.379 25.522-.046 7.945 8.074-2.125 8.074-2.125s3.044-7.849 7.012-14.315c5.57-9.079 5.004-23.177 5.004-23.177zm-2.415 4.372c-.257 4.615-1.217 12.042-4.577 17.518-3.556 5.795-6.391 12.67-7.058 14.334-.41.484-1.333 1.54-2.385 2.503-.356.327-.867.69-1.303.981l-.002-.077c.05-8.555 1.827-15.563 6.133-24.462 2.49-5.147 6.385-8.718 9.192-10.797z"/><path d="m216.272 28.893c4.095-4.929-4.849-8.226 4.908-19.477 9.756-11.251 23.955 1.53 26.372 7.823.811 2.113.927 6.673.464 9.614-.464 2.941-2.031 2.822-2.631 5.188-.599 2.366 2.492 7.515 1.238 8.769s-3.82 1.022-3.82 1.022c-1.059 3.032-3.474 4.042-3.474 4.042.482 6.557-4.408 6.032-5.712 5.735s-7.921-4.761-7.921-4.761c-6.519 4.903-8.454 13.38-8.454 13.38l-13.423-18.715s8.358-7.692 12.453-12.62z" fill="#feefe7" transform="translate(1.5486 .483777)"/><path d="m216.272 28.893c4.095-4.929-4.849-8.226 4.908-19.477 9.756-11.251 23.955 1.53 26.372 7.823.811 2.113.927 6.673.464 9.614-.464 2.941-2.031 2.822-2.631 5.188-.599 2.366 2.492 7.515 1.238 8.769s-3.82 1.022-3.82 1.022c-1.059 3.032-3.474 4.042-3.474 4.042.482 6.557-4.408 6.032-5.712 5.735s-7.921-4.761-7.921-4.761c-6.519 4.903-8.454 13.38-8.454 13.38l-13.423-18.715s8.358-7.692 12.453-12.62zm28.182 10.417-.171.034c-.666.134-1.274.084-1.274.084-1.064-.096-2.057.557-2.418 1.589-.673 1.927-2.148 2.622-2.148 2.622-.945.395-1.534 1.371-1.457 2.416.111 1.515-.048 2.434-.598 2.91-.708.613-1.734.408-2.19.304-.124-.062-1.011-.507-1.695-.911-2.343-1.385-5.517-3.527-5.517-3.527-.82-.553-1.888-.525-2.679.07-3.949 2.971-6.38 7.127-7.769 10.275 0 .001-9.572-13.343-9.572-13.343 2.66-2.512 8.04-7.699 11.093-11.374 1.811-2.18 1.931-4.133 1.545-6.262-.317-1.75-1.279-3.68-.634-6.425.432-1.84 1.586-4.009 3.964-6.752 4.019-4.633 8.965-4.23 13.142-2.109 4.486 2.278 8.221 6.43 9.29 9.213.704 1.833.732 5.792.33 8.343-.177 1.128-.653 1.529-1.053 2.014-.613.744-1.179 1.56-1.531 2.952-.382 1.505.211 3.93.899 6.144.165.531.335 1.245.443 1.733z" transform="translate(1.5486 .483777)"/><path d="m249.726 20.913s2.19-2.766 1.402-5.564-7.59-9.565-12.541-11.671c-4.95-2.106-14.685-1.905-19.092.247-5.973 2.915-9.632 7.73-9.33 16.166.254 7.087-.033 10.537 3.291 13.712 3.802 3.632 7.175-3.393 8.701-4.624s4.979-.798 7.575-.859 3.579-2.391 3.579-2.391 2.647-.05 4.562-1.169c1.916-1.119 2.379-4.089 5.015-4.432 2.636-.344 6.838.585 6.838.585z" fill="#996533"/><path d="m249.726 20.913s2.19-2.766 1.402-5.564-7.59-9.565-12.541-11.671c-4.95-2.106-14.685-1.905-19.092.247-5.973 2.915-9.632 7.73-9.33 16.166.254 7.087-.033 10.537 3.291 13.712 3.802 3.632 7.175-3.393 8.701-4.624s4.979-.798 7.575-.859 3.579-2.391 3.579-2.391 2.647-.05 4.562-1.169c1.916-1.119 2.379-4.089 5.015-4.432 2.636-.344 6.838.585 6.838.585zm-1.118-2.652c-1.631-.261-4.169-.568-6.016-.327-1.701.222-2.868 1.073-3.822 2.188-.399.466-.755.984-1.116 1.489-.284.396-.537.815-.942 1.052-1.444.843-3.444.853-3.444.853-.921.017-1.747.586-2.114 1.454 0 0-.42.913-1.476.938-1.607.037-3.533-.101-5.156.051-1.566.147-2.906.587-3.817 1.323-.792.639-2.086 2.762-3.653 4.274-.435.419-.845.87-1.36.866-.217-.002-.405-.166-.636-.386-1.539-1.47-2.019-3.042-2.244-5.225-.189-1.841-.2-4.041-.299-6.809-.26-7.245 2.861-11.394 7.991-13.898 3.967-1.937 12.728-2.092 17.184-.196 2.723 1.158 6.037 3.885 8.425 6.412 1.39 1.47 2.506 2.804 2.758 3.699.23.818.02 1.623-.263 2.242z"/></g><path d="m211.25 162.822c-4.059-6.139 2.816-7.171 4.656-7.445s3.314 5.33 6.386 5.803c11.035 1.697 20.55.721 20.419 5.139-.037 1.222-.995 2.728-3.164 2.877-7.067.486-17.041-.276-23.514-1.266-4.541-.695-2.929-2.092-4.198-3.635 0 0-.585-1.473-.585-1.473z" fill="#feefe7" transform="matrix(1.17352695696 0 0 1.06231126865 182.40838949182 81.32959888649)"/><path d="m211.25 162.822c-4.059-6.139 2.816-7.171 4.656-7.445s3.314 5.33 6.386 5.803c11.035 1.697 20.55.721 20.419 5.139-.037 1.222-.995 2.728-3.164 2.877-7.067.486-17.041-.276-23.514-1.266-4.541-.695-2.929-2.092-4.198-3.635 0 0-.585-1.473-.585-1.473zm4.269-4.41c.271.358.706.942.999 1.368 1.408 2.044 3.205 3.975 5.407 4.314 6.558 1.008 12.574 1.052 16.309 1.88.313.07.654.181.963.298-6.896.449-16.528-.297-22.799-1.256-.572-.088-1.137-.25-1.449-.35-.142-.458-.408-1.199-.786-1.831l-.474-1.194c-.077-.196-.174-.382-.288-.554-.315-.476-.541-.896-.67-1.282-.028-.086-.053-.209-.066-.286.177-.115.945-.6 1.413-.753.511-.167 1.016-.278 1.441-.354z" transform="matrix(1.17352695696 0 0 1.06231126865 182.40838949182 81.32959888649)"/><path d="m146.059 81.284s5.665 16.531 18.323 30.194c0 0 8.459-7.664 16.249-13.314 3.024-2.193 5.865-4.432 8.523-7.02.73-.711 4.382.921 7.963.967 2.562.033 6.781-2.194 9.322-5.176 2-2.345 2.435-6.81 3.243-14.354.721-6.739 2.244-9.934 1.561-14.508-1.415-9.487-2.229-16.976-4.616-16.929-13.4.263-19.525 4.612-28.496 13.048-7.694 7.235-16.063 16.04-19.824 19.103-4.469 3.639-12.248 7.989-12.248 7.989z" fill="#f7acb0" transform="matrix(1.28071915629 .35860764521 -.34920023136 1.24712310618 239.00970639091 72.86577698354)"/><path d="m146.059 81.284s5.665 16.531 18.323 30.194c0 0 8.459-7.664 16.249-13.314 3.024-2.193 5.865-4.432 8.523-7.02.73-.711 4.382.921 7.963.967 2.562.033 6.781-2.194 9.322-5.176 2-2.345 2.435-6.81 3.243-14.354.721-6.739 2.244-9.934 1.561-14.508-1.415-9.487-2.229-16.976-4.616-16.929-13.4.263-19.525 4.612-28.496 13.048-7.694 7.235-16.063 16.04-19.824 19.103-4.469 3.639-12.248 7.989-12.248 7.989zm59.988-37.712c.161.345.425.945.576 1.466.865 2.985 1.469 7.843 2.298 13.4.653 4.379-.884 7.428-1.575 13.879-.394 3.685-.693 6.618-1.142 8.916-.359 1.836-.753 3.198-1.533 4.113-2.071 2.43-5.437 4.379-7.524 4.352-2.842-.037-5.728-1.087-7.139-1.142-1.181-.046-1.986.365-2.47.836-2.577 2.509-5.332 4.676-8.262 6.801-5.725 4.152-11.807 9.378-14.71 11.93-8.819-10.133-13.831-21.389-15.578-25.761 2.628-1.545 7.545-4.544 10.779-7.177 3.784-3.081 12.21-11.934 19.951-19.213 8.353-7.855 14.074-12.027 26.329-12.4z" transform="matrix(1.28071915629 .35860764521 -.34920023136 1.24712310618 239.00970639091 72.86577698354)"/><g transform="matrix(1.32997753422 0 0 1.29508932968 148.4226622736 74.63578722622)"><path d="m213.517 148.349c-1.138-5.631-.637-22.3-.36-28.607.226-5.161 1.16-8.707 1.696-11.546.634-3.365 1.374-6.107 2.112-8.644.382-1.308 1.08-2.682 1.949-3.594.866-.909 2.03-1.655 3.266-1.878 1.736-.313 4.099-.126 6.266-.245 1.96-.108 4.87-.353 6.731-.472 1.771-.114 3.554-.146 5.322 0 2.196.18 5.74.576 7.851 1.085 1.686.406 3.503 1.074 4.816 1.969 1.26.86 2.443 2.144 3.062 3.402.617 1.256.848 2.715.848 4.114 0 1.467-.351 3.203-.848 4.688-.529 1.58-1.693 3.474-2.703 4.586-.894.985-2.488 1.788-3.785 2.085-1.682.385-3.497.785-6.145 0-2.485-.737-6.146-3.405-8.418-4.116-2.714-.849-5.309-1.074-5.309-1.074-.782 4.937-2.657 13.365-3.64 17.729-.634 2.814-1.48 5.592-1.855 8.452-.379 2.892-1.096 7.934-.28 8.587 3.459 2.765 23.016 1.11 22.465 5.436-.202 1.589-1.648 3.609-3.817 3.757-7.067.486-16.285.459-22.759-.531-4.541-.695-5.919-2.475-6.465-5.183z" fill="#feefe7"/><path d="m213.517 148.349c-1.138-5.631-.637-22.3-.36-28.607.226-5.161 1.16-8.707 1.696-11.546.634-3.365 1.374-6.107 2.112-8.644.382-1.308 1.08-2.682 1.949-3.594.866-.909 2.03-1.655 3.266-1.878 1.736-.313 4.099-.126 6.266-.245 1.232-.068 2.219 4.179 2.231 8.975.007 2.836-.809 7.292-.809 7.292-.782 4.937-2.657 13.365-3.64 17.729-.634 2.814-1.48 5.592-1.855 8.452-.379 2.892-1.096 7.934-.28 8.587 3.459 2.765 23.016 1.11 22.465 5.436-.202 1.589-1.648 3.609-3.817 3.757-7.067.486-16.285.459-22.759-.531-4.541-.695-5.919-2.475-6.465-5.183z" fill="#feefe7"/><path d="m427.712 207.337c.355-1.312.718-2.56 1.081-3.772.506-1.695 1.436-3.474 2.592-4.655 1.152-1.177 2.699-2.143 4.342-2.432 2.31-.405 5.453-.163 8.334-.318 2.607-.14 6.477-.457 8.953-.611 2.355-.148 4.727-.189 7.078 0 2.92.234 7.634.746 10.441 1.405 2.243.527 4.659 1.391 6.405 2.551 1.677 1.113 3.25 2.776 4.073 4.406.821 1.626 1.128 3.515 1.128 5.327 0 1.9-.467 4.148-1.128 6.072-.703 2.045-2.252 4.499-3.595 5.939-1.189 1.275-3.309 2.315-5.034 2.7-2.237.499-4.651 1.017-8.173 0-3.305-.954-8.173-4.41-11.195-5.33-3.609-1.1-7.061-1.392-7.061-1.392-1.04 6.394-3.534 17.31-4.842 22.962-.843 3.644-1.968 7.242-2.467 10.946-.504 3.744-1.458 10.275-.371 11.121 4.6 3.581 30.61 1.437 29.877 7.04-.269 2.058-2.192 4.673-5.076 4.866-3.672.245-7.779.39-11.936.398h-.499c-6.322-.004-12.722-.325-17.834-1.087-6.04-.9-7.872-3.206-8.599-6.712-1.513-7.293-.848-28.881-.479-37.049.301-6.684 1.543-11.276 2.256-14.953l.079-.406.012-.061.009-.045.02-.099.039-.197.026-.127.017-.081.016-.076.023-.113.044-.214.02-.095.007-.036c.032-.149.064-.298.095-.446l.002-.008.011-.049.068-.317.015-.069.011-.049.021-.092.037-.17.03-.134.018-.081.015-.065.022-.095.051-.227.02-.084.006-.026c.032-.142.065-.284.098-.424l.004-.015.015-.066.063-.263.019-.078.012-.052.02-.082.036-.149.035-.143.019-.079.013-.053.02-.082.062-.249.015-.063.004-.016c.035-.137.069-.273.103-.408l.005-.018.017-.066.059-.231.023-.09.013-.05.018-.069.035-.135.042-.16.018-.069.01-.04.019-.072.079-.298.006-.02c.036-.135.072-.269.108-.403zm18.746 6.8c.282-1.943.576-4.434.571-6.353 0-.149-.002-.298-.004-.447h-3.125c.002.152.004.303.004.455.009 3.421-1.008 8.783-1.022 8.857v.001l-.013.076c-.469 2.881-1.236 6.688-2.055 10.509-.731 3.412-1.504 6.834-2.142 9.621-.22.96-.424 1.845-.606 2.628-.125.542-.256 1.083-.39 1.624-.319 1.284-.656 2.565-.972 3.85-.067.273-.134.547-.199.82l-.083.351c-.164.701-.319 1.403-.458 2.109-.163.823-.305 1.649-.417 2.48-.126.938-.273 2.038-.41 3.185-.026.217-.052.435-.077.653l-.042.378c-.022.2-.044.401-.064.601-.091.865-.168 1.727-.219 2.54-.08 1.252-.099 2.387-.014 3.237l.013.119c.004.039.009.077.014.115.008.06.017.119.026.178l.008.05.003.015c.051.301.12.58.203.837l.013.041.019.056c.142.416.319.774.513 1.076.259.406.548.711.82.922.049.038.099.076.151.113.059.042.121.085.185.127.119.077.244.153.378.228.175.099.362.195.562.288l.034.017.038.017c.152.07.311.138.477.206.217.088.445.173.684.256.126.043.255.086.387.128l.101.032.111.034c.261.08.531.156.812.229.083.022.166.043.251.064l.124.031c.139.034.28.067.423.099.593.133 1.222.253 1.884.357l.126.02c.174.027.351.054.531.079l.271.038c.478.066.973.127 1.48.185.53.061 1.075.118 1.63.173l.079.007.305.03c.355.033.713.066 1.075.098.368.033.739.065 1.112.096l.637.053c.763.063 1.533.124 2.302.187 1.593.129 3.183.263 4.701.42l.306.032c.792.085 1.563.176 2.302.277l.059.008.02.003c.845.117 1.647.247 2.393.394.381.075.792.185 1.186.306l.116.036c.053.017.107.034.16.05l.155.051c.206.068.401.136.579.2.091.033.177.064.258.094-.139.244-.319.476-.537.674l-.043.038c-.018.016-.037.031-.055.047l-.057.045-.02.015c-.095.071-.196.136-.302.193-.06.032-.122.062-.185.089-.062.025-.125.048-.19.068-.152.048-.314.079-.484.091-.143.009-.287.019-.433.028l-.436.027c-1.024.063-2.079.118-3.157.164l-.463.02c-.155.006-.31.012-.466.018l-.099.004c-2.305.086-4.7.133-7.106.133-1.012 0-2.026-.009-3.037-.026-.716-.012-1.432-.029-2.143-.05-.22-.007-.439-.014-.658-.021l-.481-.018-.416-.016c-2.356-.094-4.651-.243-6.806-.452-.634-.062-1.256-.129-1.863-.201l-.417-.051c-.137-.018-.274-.035-.412-.053l-.407-.054c-.271-.037-.537-.075-.799-.114-.081-.012-.161-.024-.239-.037l-.234-.037-.227-.039c-.074-.013-.148-.027-.222-.04l-.216-.041c-.07-.014-.141-.028-.211-.042l-.118-.026c-.172-.036-.339-.075-.5-.115-.405-.101-.774-.213-1.11-.338-.108-.04-.212-.082-.314-.125l-.052-.022c-.039-.017-.078-.035-.117-.053-.354-.162-.664-.345-.934-.553-.16-.123-.306-.254-.439-.396l-.045-.048-.034-.038c-.018-.02-.035-.041-.052-.061-.036-.042-.07-.085-.102-.129-.092-.121-.174-.248-.248-.379l-.026-.047c-.012-.022-.023-.044-.035-.066l-.034-.066-.031-.065c-.065-.138-.122-.28-.174-.426l-.024-.068c-.008-.024-.016-.048-.024-.073l-.007-.021c-.05-.154-.094-.312-.134-.475-.035-.14-.067-.283-.097-.43-.096-.459-.182-.977-.26-1.547l-.021-.157c-.009-.071-.019-.142-.028-.213l-.007-.059c-.031-.247-.06-.503-.088-.766-.022-.204-.043-.412-.063-.625l-.014-.155-.022-.245-.021-.249c-.007-.084-.014-.168-.02-.252l-.017-.22c-.055-.723-.103-1.488-.143-2.285-.018-.355-.034-.715-.05-1.081-.069-1.665-.112-3.454-.133-5.303-.017-1.547-.02-3.137-.012-4.731.013-2.609.057-5.231.116-7.703.034-1.397.072-2.745.112-4.016.04-1.259.082-2.441.123-3.519.046-1.189.09-2.251.131-3.147.042-.934.103-1.826.18-2.68l.019-.214.022-.231c.033-.335.067-.665.104-.988.051-.454.107-.896.166-1.328.144-1.067.308-2.067.48-3.01.422-2.322.89-4.293 1.23-6.048 0 0 .07-.353.07-.353l.019-.097.057-.284.014-.072.07-.342.017-.081.056-.271.019-.091.072-.335.007-.035.066-.301.02-.093.062-.28.012-.054.073-.324.019-.083.058-.255.019-.082.074-.317.012-.054.064-.266.021-.09.035-.146.086-.353.025-.103.108-.433.02-.083.091-.357.029-.113.11-.425.111-.423.028-.106.096-.356.017-.065.114-.417.021-.076.097-.352c.28-1.007.564-1.978.848-2.926.364-1.218 1-2.515 1.831-3.364.709-.725 1.638-1.362 2.65-1.54 2.205-.387 5.209-.127 7.961-.275 2.615-.141 6.497-.458 8.98-.614 2.207-.138 4.43-.18 6.633-.004 2.79.224 7.294.703 9.977 1.333 1.883.442 3.924 1.138 5.391 2.112 1.23.817 2.408 2.015 3.011 3.211.603 1.194.793 2.589.793 3.919 0 1.583-.407 3.453-.958 5.056-.572 1.662-1.834 3.654-2.925 4.824-.805.862-2.263 1.521-3.43 1.781-1.813.404-3.77.872-6.625.048-3.293-.951-8.141-4.401-11.152-5.318-3.349-1.02-6.575-1.401-7.466-1.492z" transform="matrix(.751892 0 0 .772148 -105.44 -57.6298)"/></g><path d="m16.398 198.616v-9.238h50.766v-8.577l26.672 13.196-26.672 13.196v-8.577z" fill="#ec3237" transform="matrix(-.05989563039 -.49383120074 .44968344398 -.06638900691 376.800816448 210.664540462)"/></svg>