<svg clip-rule="evenodd" fill-rule="evenodd" stroke-linejoin="round" stroke-miterlimit="2" viewBox="0 0 568 385" xmlns="http://www.w3.org/2000/svg"><path d="m242.087 178.183h16.878v62.85h-16.878z" fill="#d2d3d5" transform="matrix(.715725 0 0 .661574 63.1506 55.4942)"/><path d="m258.966 178.183h-16.879v62.85h16.879zm-4.367 4.724v53.403h-8.146v-53.403z" transform="matrix(.715725 0 0 .661574 63.1506 55.4942)"/><path d="m296.498 243.326c0-2.731-2.756-4.947-6.15-4.947h-80.294c-3.395 0-6.15 2.216-6.15 4.947 0 2.73 2.755 4.946 6.15 4.946h80.294c3.394 0 6.15-2.216 6.15-4.946z" fill="#d2d3d5" transform="matrix(.717822 0 0 .892431 62.7993 -.680807)"/><path d="m296.498 243.326c0-2.731-2.756-4.947-6.15-4.947h-80.294c-3.395 0-6.15 2.216-6.15 4.947 0 2.73 2.755 4.946 6.15 4.946h80.294c3.394 0 6.15-2.216 6.15-4.946zm-4.353 0c0 .797-.805 1.445-1.797 1.445h-80.294c-.992 0-1.797-.648-1.797-1.445 0-.798.805-1.446 1.797-1.446h80.294c.992 0 1.797.648 1.797 1.446z" transform="matrix(.717822 0 0 .892431 62.7993 -.680807)"/><path d="m242.087 178.183h16.878v62.85h-16.878z" fill="#d2d3d5" transform="matrix(.991846 0 0 1.02292 2.04282 -5.52454)"/><path d="m258.966 178.183h-16.879v62.85h16.879zm-3.151 3.055v56.74h-10.577v-56.74z" transform="matrix(.991846 0 0 1.02292 2.04282 -5.52454)"/><path d="m296.498 243.326c0-2.731-2.313-4.947-5.162-4.947h-82.27c-2.849 0-5.162 2.216-5.162 4.947 0 2.73 2.313 4.946 5.162 4.946h82.27c2.849 0 5.162-2.216 5.162-4.946z" fill="#d2d3d5" transform="matrix(.994752 0 0 1.03811 1.55595 -9.46219)"/><path d="m296.498 243.326c0-2.731-2.313-4.947-5.162-4.947h-82.27c-2.849 0-5.162 2.216-5.162 4.947 0 2.73 2.313 4.946 5.162 4.946h82.27c2.849 0 5.162-2.216 5.162-4.946zm-3.141 0c0 1.068-.906 1.936-2.021 1.936h-82.27c-1.115 0-2.021-.868-2.021-1.936 0-1.069.906-1.937 2.021-1.937h82.27c1.115 0 2.021.868 2.021 1.937z" transform="matrix(.994752 0 0 1.03811 1.55595 -9.46219)"/><path d="m210.29 170.896h80.647v8.778h-80.647z" fill="#f68634" transform="matrix(.998205 0 0 1.09573 .522288 -17.0097)"/><path d="m290.936 170.896h-80.646v8.779h80.646zm-3.13 2.852v3.075h-74.385v-3.075z" transform="matrix(.998205 0 0 1.09573 .522288 -17.0097)"/><path d="m290.936 176.819-33.544-18.351h-47.102v21.207h80.646z" fill="#f68634" transform="matrix(.998205 0 0 1.09573 .522288 -23.4988)"/><path d="m290.936 176.819-33.544-18.351h-47.102v21.207h80.646zm-6.073.004h-71.442v-15.503h43.103z" transform="matrix(.998205 0 0 1.09573 .522288 -23.4988)"/><g transform="translate(6.61632 -7.46352)"><path d="m22.824 190.344s-4.678-1.738-8.385-.488c-2.722.917-5.245 2.644-5.245 2.644s-3.888.286-6.763 3.211c-1.576 1.604-.117 6.119 2.202 9.439s6.202 7.091 7.488 9.799c1.285 2.708 1.302 6.8 2.678 9.134 1.51 2.564 5.73 5.84 8.824 6.823s8.263.971 10.752-.31c3.835-1.973 5.693-5.186 5.338-8.013-.358-2.855-2.113-2.451-4.127-3.122s-6.363-5.111-5.705-10.085c.658-4.975 1.047-6.456 1.047-6.456z" fill="#4b4b4d"/><path d="m22.824 190.344s-4.678-1.738-8.385-.488c-2.722.917-5.245 2.644-5.245 2.644s-3.888.286-6.763 3.211c-1.576 1.604-.117 6.119 2.202 9.439s6.202 7.091 7.488 9.799c1.285 2.708 1.302 6.8 2.678 9.134 1.51 2.564 5.73 5.84 8.824 6.823s8.263.971 10.752-.31c3.835-1.973 5.693-5.186 5.338-8.013-.358-2.855-2.113-2.451-4.127-3.122s-6.363-5.111-5.705-10.085c.658-4.975 1.047-6.456 1.047-6.456zm13.784 32.604.004.025c.224 1.783-1.246 3.599-3.667 4.845-1.938.997-5.966.876-8.375.11-2.475-.786-5.871-3.381-7.079-5.431-.535-.909-.741-2.178-1.003-3.465-.389-1.908-.803-3.86-1.544-5.423-1.339-2.821-5.333-6.789-7.749-10.248-.945-1.354-1.728-2.945-2.101-4.367-.114-.436-.159-1.065-.174-1.342 1.993-1.833 4.503-2.035 4.503-2.035.55-.041 1.08-.227 1.536-.538 0 0 2.153-1.479 4.478-2.262 1.895-.639 4.126-.198 5.359.15h.001l6.814 10.574c-.194 1.048-.476 2.765-.828 5.425-.519 3.919 1.226 7.621 3.36 10.117 1.546 1.811 3.305 2.959 4.455 3.342.51.17 1.006.29 1.478.395z"/><path d="m8.718 192.892s-7.472 7.651-.193 17.213c.522.686 1.504.819 2.19.297.686-.523.819-1.504.297-2.19-5.562-7.306-.042-13.153-.042-13.153.598-.621.579-1.611-.042-2.209-.622-.598-1.612-.579-2.21.042z"/></g><path d="m21.849 189.758s-4.663-.741-7.41.098-5.245 2.644-5.245 2.644-3.888.286-6.763 3.211c-1.576 1.604-.117 6.119 2.202 9.439s6.202 7.091 7.488 9.799c1.285 2.708 1.302 6.8 2.678 9.134 1.51 2.564 5.73 5.84 8.824 6.823s8.263.971 10.752-.31c3.835-1.973 5.693-5.186 5.338-8.013-.358-2.855-2.113-2.451-4.127-3.122s-6.363-5.111-5.705-10.085c.658-4.975 1.047-6.456 1.047-6.456z" fill="#4b4b4d"/><path d="m21.849 189.758s-4.663-.741-7.41.098-5.245 2.644-5.245 2.644-3.888.286-6.763 3.211c-1.576 1.604-.117 6.119 2.202 9.439s6.202 7.091 7.488 9.799c1.285 2.708 1.302 6.8 2.678 9.134 1.51 2.564 5.73 5.84 8.824 6.823s8.263.971 10.752-.31c3.835-1.973 5.693-5.186 5.338-8.013-.358-2.855-2.113-2.451-4.127-3.122s-6.363-5.111-5.705-10.085c.658-4.975 1.047-6.456 1.047-6.456zm14.759 33.19.004.025c.224 1.783-1.246 3.599-3.667 4.845-1.938.997-5.966.876-8.375.11-2.475-.786-5.871-3.381-7.079-5.431-.535-.909-.741-2.178-1.003-3.465-.389-1.908-.803-3.86-1.544-5.423-1.339-2.821-5.333-6.789-7.749-10.248-.945-1.354-1.728-2.945-2.101-4.367-.114-.436-.159-1.065-.174-1.342 1.993-1.833 4.503-2.035 4.503-2.035.577-.043 1.132-.245 1.601-.584 0 0 2.06-1.496 4.327-2.189 1.397-.426 3.404-.318 4.707-.178h.001l7.541 10.933c-.193 1.053-.472 2.755-.817 5.367-.519 3.919 1.226 7.621 3.36 10.117 1.546 1.811 3.305 2.959 4.455 3.342.51.17 1.006.29 1.478.395z"/><path d="m8.716 192.895s-7.396 7.595-.115 17.159c.522.686 1.503.819 2.189.297.687-.522.82-1.503.297-2.19-5.56-7.304-.115-13.104-.115-13.104.597-.622.576-1.612-.047-2.209-.622-.597-1.612-.576-2.209.047z"/><path d="m83.225 137.227c3.456-3.37 8.866-11.885 14.649-18.503 6.847-7.834 9.899-10.625 19.396-21.609.664-.768 1.385-1.485 2.157-2.146.776-.724 1.308-1.143 1.543-1.196 3.267-2.288 6.424-4.113 10.711-4.113 11.109 0 20.128 9.019 20.128 20.127 0 6.365-2.38 11.303-6.997 14.992-.94.751-2.308 1.881-3.594 2.734-23.698 15.73-46.574 31.969-52.761 31.969-.253 0-.509-.022-.77-.065-1.855 2.613-5.504 6.467-11.334 11.085-.245.194-.495.379-.748.555-9.051 7.138-32.61 19.361-44.9 32.093-3.053 3.163-8.399 2.381-11.223-.989s-2.36-8.374.989-11.223c24.125-20.516 32.592-36.319 37.974-41.028.124-.11.25-.218.379-.324 1.828-1.508 9.398-7.71 17.547-9.473 1.324-.286 4.978-1.056 6.854-2.886z" fill="#feefe7"/><path d="m56.278 152.16c.786-.913 1.5-1.667 2.167-2.25l.379-.324c1.828-1.508 9.398-7.71 17.547-9.473 1.324-.286 4.978-1.056 6.854-2.886 3.456-3.37 8.866-11.885 14.649-18.503 6.847-7.834 9.899-10.625 19.396-21.609.664-.768 1.385-1.485 2.157-2.146.776-.724 1.308-1.143 1.543-1.196 3.267-2.288 6.424-4.113 10.711-4.113 11.109 0 20.128 9.019 20.128 20.127 0 6.365-2.38 11.303-6.997 14.992-.257.205-.545.438-.854.686l-1.096-3.128c3.86-3.084 5.822-7.227 5.822-12.55 0-9.384-7.619-17.002-17.003-17.002-3.586 0-6.185 1.634-8.918 3.548-.14.098-.287.184-.44.256-.142.117-.482.402-.762.664-.034.031-.068.061-.103.091-.653.559-1.263 1.166-1.824 1.815-9.503 10.99-12.556 13.783-19.407 21.621-5.844 6.688-11.328 15.279-14.821 18.685-2.31 2.252-6.745 3.35-8.375 3.703-7.546 1.632-14.526 7.432-16.219 8.828l-.31.266h.001c-5.386 4.713-13.863 20.525-38.007 41.057-2.041 1.735-2.339 4.782-.618 6.835 1.662 1.983 4.781 2.687 6.579.825 12.383-12.829 36.093-25.184 45.212-32.376l.743-.55c5.506-4.362 8.975-7.977 10.727-10.445.69-.972 1.873-1.466 3.049-1.275.091.015.181.024.269.024 1.579 0 4.354-1.435 8.124-3.537 10.292-5.738 26.398-16.951 42.909-27.91 1.207-.801 2.487-1.866 3.369-2.571-1.598 1.28-.901 2.8.08 3.927-.56.433-1.148.867-1.721 1.247-23.698 15.73-46.574 31.969-52.761 31.969-.253 0-.509-.022-.77-.065-1.855 2.613-5.504 6.467-11.334 11.085-.245.194-.495.379-.748.555-9.051 7.138-32.61 19.361-44.9 32.093-3.053 3.163-8.399 2.381-11.223-.989s-2.36-8.374.989-11.223c21.136-17.974 30.254-32.33 35.807-38.778z"/><path d="m114.658 146.625-21.467-25.179c1.701-1.586 12.361-11.552 18.105-19.09 4.918-6.455 8.151-9.83 11.807-11.823s17.051-4.854 19.635-5.901c0 0 7.638 12.348 19.946 25.89 0 0-22.225 20.845-48.026 36.103z" fill="#aaabaf"/><path d="m114.658 146.625-21.467-25.179c1.701-1.586 12.361-11.552 18.105-19.09 4.918-6.455 8.151-9.83 11.807-11.823s17.051-4.854 19.635-5.901c0 0 7.638 12.348 19.946 25.89 0 0-22.225 20.845-48.026 36.103zm.661-4.042-17.823-20.904c3.91-3.734 11.659-11.356 16.286-17.43 4.535-5.951 7.445-9.135 10.816-10.972 2.898-1.579 12.032-3.681 16.79-4.975 2.505 3.789 8.487 12.435 16.903 21.996-5.999 5.377-23.243 20.278-42.972 32.285z"/><path d="m219.495 3.925s-9.089 4.542-13.711 14.095c-4.492 9.283-6.327 16.598-6.379 25.522-.046 7.945 8.074-2.125 8.074-2.125s3.044-7.849 7.012-14.315c5.57-9.079 5.004-23.177 5.004-23.177z" fill="#996533"/><path d="m219.495 3.925s-9.089 4.542-13.711 14.095c-4.492 9.283-6.327 16.598-6.379 25.522-.046 7.945 8.074-2.125 8.074-2.125s3.044-7.849 7.012-14.315c5.57-9.079 5.004-23.177 5.004-23.177zm-2.644 4.754c-.287 4.623-1.281 11.773-4.54 17.085-3.546 5.78-6.377 12.634-7.059 14.333-.414.489-1.323 1.525-2.355 2.47-.303.278-.617.548-.932.79.075-8.451 1.855-15.408 6.121-24.223 2.367-4.894 6.012-8.355 8.765-10.455z"/><path d="m216.272 28.893c4.095-4.929-4.849-8.226 4.908-19.477 9.756-11.251 23.955 1.53 26.372 7.823.811 2.113.927 6.673.464 9.614-.464 2.941-2.031 2.822-2.631 5.188-.599 2.366 2.492 7.515 1.238 8.769s-3.82 1.022-3.82 1.022c-1.059 3.032-3.474 4.042-3.474 4.042.482 6.557-4.408 6.032-5.712 5.735s-7.563-4.619-7.563-4.619c-9.663 8.96-10.329 17.535-10.329 17.535l-9.794-26.543s6.246-4.161 10.341-9.089z" fill="#feefe7" transform="translate(1.5486 .483777)"/><path d="m216.272 28.893c4.095-4.929-4.849-8.226 4.908-19.477 9.756-11.251 23.955 1.53 26.372 7.823.811 2.113.927 6.673.464 9.614-.464 2.941-2.031 2.822-2.631 5.188-.599 2.366 2.492 7.515 1.238 8.769s-3.82 1.022-3.82 1.022c-1.059 3.032-3.474 4.042-3.474 4.042.482 6.557-4.408 6.032-5.712 5.735s-7.563-4.619-7.563-4.619c-9.663 8.96-10.329 17.535-10.329 17.535l-9.794-26.543s6.246-4.161 10.341-9.089zm27.951 10.313c-.623.125-1.19.079-1.19.079-1.168-.106-2.258.597-2.645 1.704-.645 1.849-2.046 2.525-2.046 2.525-1.015.424-1.644 1.45-1.564 2.547.108 1.464-.017 2.355-.549 2.816-.624.539-1.526.357-1.95.26-.129-.066-.937-.479-1.555-.85-2.229-1.337-5.216-3.402-5.216-3.402-.987-.681-2.314-.586-3.193.229-4.471 4.147-7.153 8.232-8.76 11.561 0 .001-6.548-17.743-6.548-17.743 2.233-1.646 6.267-4.836 9.232-8.405 1.835-2.209 1.962-4.187 1.571-6.344-.315-1.741-1.276-3.661-.635-6.392.429-1.826 1.576-3.978 3.937-6.7 3.928-4.53 8.764-4.136 12.848-2.063 4.443 2.257 8.146 6.371 9.204 9.128.701 1.823.725 5.761.326 8.299-.173 1.097-.638 1.486-1.027 1.958-.623.757-1.198 1.585-1.557 2.999-.384 1.517.208 3.96.901 6.19.152.487.308 1.129.416 1.604z" transform="translate(1.5486 .483777)"/><path d="m249.726 20.913s2.19-2.766 1.402-5.564-7.59-9.565-12.541-11.671c-4.95-2.106-14.685-1.905-19.092.247-5.973 2.915-9.632 7.73-9.33 16.166.254 7.087-.033 10.537 3.291 13.712 3.802 3.632 7.175-3.393 8.701-4.624s4.979-.798 7.575-.859 3.579-2.391 3.579-2.391 2.647-.05 4.562-1.169c1.916-1.119 2.379-4.089 5.015-4.432 2.636-.344 6.838.585 6.838.585z" fill="#996533"/><path d="m249.726 20.913s2.19-2.766 1.402-5.564-7.59-9.565-12.541-11.671c-4.95-2.106-14.685-1.905-19.092.247-5.973 2.915-9.632 7.73-9.33 16.166.254 7.087-.033 10.537 3.291 13.712 3.802 3.632 7.175-3.393 8.701-4.624s4.979-.798 7.575-.859 3.579-2.391 3.579-2.391 2.647-.05 4.562-1.169c1.916-1.119 2.379-4.089 5.015-4.432 2.636-.344 6.838.585 6.838.585zm-1.259-2.821c-1.653-.256-4.106-.535-5.91-.3-1.762.23-2.977 1.104-3.965 2.26-.402.47-.761.991-1.125 1.5-.268.375-.5.776-.884 1-1.391.812-3.32.82-3.32.82-1.011.018-1.916.631-2.309 1.563 0 0-.361.807-1.282.828-1.613.038-3.546-.099-5.175.053-1.621.151-3.003.612-3.946 1.373-.794.641-2.095 2.769-3.666 4.285-.389.375-.731.807-1.191.804-.167-.002-.294-.155-.472-.324-1.516-1.449-1.981-3-2.202-5.151-.19-1.84-.2-4.038-.299-6.804-.258-7.176 2.815-11.296 7.896-13.776 3.917-1.912 12.569-2.063 16.969-.191 2.702 1.149 5.985 3.857 8.355 6.364 1.37 1.45 2.477 2.763 2.726 3.646.208.739.045 1.467-.2 2.05z"/><path d="m140.739 86.381s6.491 12.228 19.924 25.986c0 0 11.91-8.988 19.968-14.203 8.059-5.215 22.151-15.454 28.133-22.309 5.983-6.855 9.197-13.955 10.076-22.747.879-8.793-6.603-16.436-11.038-15.434-2.494.562-19.26 9.28-28.491 16.89-8.135 6.706-17.296 15.423-21.057 18.485-4.469 3.639-17.515 13.332-17.515 13.332z" fill="#f7acb0"/><path d="m140.739 86.381s6.491 12.228 19.924 25.986c0 0 11.91-8.988 19.968-14.203 8.059-5.215 22.151-15.454 28.133-22.309 5.983-6.855 9.197-13.955 10.076-22.747.879-8.793-6.603-16.436-11.038-15.434-2.494.562-19.26 9.28-28.491 16.89-8.135 6.706-17.296 15.423-21.057 18.485-4.469 3.639-17.515 13.332-17.515 13.332zm4.099.842c3.947-2.949 12.049-9.031 15.389-11.751 3.763-3.064 12.931-11.786 21.071-18.497 8.829-7.278 24.806-15.715 27.191-16.253.322-.073.674.058 1.051.215.731.303 1.473.825 2.183 1.488 2.424 2.265 4.43 6.149 4.008 10.372-.812 8.121-3.796 14.672-9.321 21.003-5.838 6.69-19.613 16.652-27.477 21.74-5.982 3.872-14.068 9.802-17.925 12.668-8.505-9.058-13.851-17.169-16.17-20.985z"/><path d="m209.681 164.713c-4.06-6.139 6.669-8.727 8.719-9.63 1.686-.743.509 3.736 3.582 4.209 11.035 1.697 22.473 3.048 20.729 7.027-.303.691-1.124 1.934-3.293 2.083-7.067.485-16.912.518-23.385-.472-4.541-.695-5.084-1.673-6.352-3.217z" fill="#feefe7" transform="translate(-1.29225 -8.59028)"/><path d="m209.681 164.713c-4.06-6.139 6.669-8.727 8.719-9.63 1.686-.743.509 3.736 3.582 4.209 11.035 1.697 22.473 3.048 20.729 7.027-.303.691-1.124 1.934-3.293 2.083-7.067.485-16.912.518-23.385-.472-4.541-.695-5.084-1.673-6.352-3.217zm7.42-5.855.063.147c.74 1.639 1.996 3.015 4.343 3.376 5.403.83 10.906 1.567 14.844 2.593.421.11.86.253 1.283.407-6.691.376-15.312.35-21.128-.54-2.988-.458-3.5-1.004-4.303-1.981-.206-.315-.351-.573-.302-.832.126-.659.842-1.027 1.511-1.447 1.162-.731 2.515-1.292 3.689-1.723z" transform="translate(-1.29225 -8.59028)"/><path d="m197.924 84.537c-2.568-11.289-2-30.882-.851-35.161 1.75-6.517 4.893-10.921 10.921-10.921 6.027 0 10.92 4.893 10.92 10.921 0 3.771-.534 20.834-2.864 31.467 1.156 3.187 1.505 7.336 1.505 11.871 0 5.083-.317 9.681-1.778 12.982 1.324 6.801 1.4 15.471 1.707 22.058.349 7.475.167 22.072.916 27.329.26 1.823.509 3.736 3.582 4.209 11.035 1.697 22.473 3.048 20.729 7.027-.303.691-1.124 1.934-3.293 2.083-7.067.485-16.912.518-23.385-.472-4.541-.695-5.084-1.673-6.352-3.217-4.06-6.139-8.275-25.554-8.959-36.176-.534-8.295-.907-15.222-.656-20.6-1.578-3.734-2.706-10.514-2.706-15.223 0-2.939.146-5.717.564-8.177z" fill="#feefe7"/><path d="m197.924 84.537c-2.568-11.289-2-30.882-.851-35.161 1.75-6.517 4.893-10.921 10.921-10.921 6.027 0 10.92 4.893 10.92 10.921 0 3.771-.534 20.834-2.864 31.467 1.156 3.187 1.505 7.336 1.505 11.871 0 5.083-.317 9.681-1.778 12.982 1.324 6.801 1.4 15.471 1.707 22.058.349 7.475.167 22.072.916 27.329.26 1.823.509 3.736 3.582 4.209 11.035 1.697 22.473 3.048 20.729 7.027-.303.691-1.124 1.934-3.293 2.083-7.067.485-16.912.518-23.385-.472-4.541-.695-5.084-1.673-6.352-3.217-4.06-6.139-8.275-25.554-8.959-36.176-.534-8.295-.907-15.222-.656-20.6-1.578-3.734-2.706-10.514-2.706-15.223 0-2.939.146-5.717.564-8.177zm39.71 80.844c-6.691.376-15.312.35-21.128-.54-2.983-.457-3.498-1.002-4.298-1.976-3.86-6.007-7.718-24.433-8.368-34.529-.525-8.156-.899-14.965-.652-20.253.022-.467-.061-.933-.243-1.363-1.452-3.434-2.46-9.675-2.46-14.006 0-2.751.129-5.351.52-7.653.069-.404.057-.817-.034-1.217-2.459-10.807-1.98-29.562-.88-33.658 1.324-4.93 3.343-8.606 7.903-8.606 4.302 0 7.795 3.493 7.795 7.796 0 3.691-.511 20.392-2.791 30.798-.127.577-.087 1.179.114 1.734 1.052 2.9 1.318 6.681 1.318 10.806 0 4.582-.193 8.74-1.511 11.717-.259.584-.332 1.235-.21 1.862 1.298 6.662 1.352 15.155 1.654 21.607.352 7.556.186 22.311.944 27.624.245 1.719.665 3.42 1.86 4.721.885.965 2.192 1.805 4.34 2.136 5.403.83 10.906 1.567 14.844 2.593.421.11.86.253 1.283.407z"/><path d="m242.087 178.183h16.878v62.85h-16.878z" fill="#d2d3d5" transform="matrix(.87455869 0 0 .8083905 279.908981 145.197273)"/><path d="m258.966 178.183h-16.879v62.85h16.879zm-3.574 3.866v55.118h-9.732v-55.118z" transform="matrix(.87455869 0 0 .8083905 279.908981 145.197273)"/><path d="m296.498 243.326c0-2.731-2.756-4.947-6.15-4.947h-80.294c-3.395 0-6.15 2.216-6.15 4.947 0 2.73 2.755 4.946 6.15 4.946h80.294c3.394 0 6.15-2.216 6.15-4.946z" fill="#d2d3d5" transform="matrix(.87712106 0 0 1.09047929 279.479721 76.555908)"/><path d="m296.498 243.326c0-2.731-2.756-4.947-6.15-4.947h-80.294c-3.395 0-6.15 2.216-6.15 4.947 0 2.73 2.755 4.946 6.15 4.946h80.294c3.394 0 6.15-2.216 6.15-4.946zm-3.563 0c0 1.148-1.159 2.081-2.587 2.081h-80.294c-1.428 0-2.588-.933-2.588-2.081 0-1.149 1.16-2.082 2.588-2.082h80.294c1.428 0 2.587.933 2.587 2.082z" transform="matrix(.87712106 0 0 1.09047929 279.479721 76.555908)"/><path d="m242.087 178.183h16.878v62.85h-16.878z" fill="#d2d3d5" transform="matrix(1.21195646 0 0 1.24992641 205.240163 70.637254)"/><path d="m258.966 178.183h-16.879v62.85h16.879zm-2.579 2.5v57.85h-11.721v-57.85z" transform="matrix(1.21195646 0 0 1.24992641 205.240163 70.637254)"/><path d="m296.498 243.326c0-2.731-2.313-4.947-5.162-4.947h-82.27c-2.849 0-5.162 2.216-5.162 4.947 0 2.73 2.313 4.946 5.162 4.946h82.27c2.849 0 5.162-2.216 5.162-4.946z" fill="#d2d3d5" transform="matrix(1.21550736 0 0 1.26848737 204.645246 65.825761)"/><path d="m296.498 243.326c0-2.731-2.313-4.947-5.162-4.947h-82.27c-2.849 0-5.162 2.216-5.162 4.947 0 2.73 2.313 4.946 5.162 4.946h82.27c2.849 0 5.162-2.216 5.162-4.946zm-2.571 0c0 1.37-1.161 2.483-2.591 2.483h-82.27c-1.43 0-2.591-1.113-2.591-2.483 0-1.371 1.161-2.484 2.591-2.484h82.27c1.43 0 2.591 1.113 2.591 2.484z" transform="matrix(1.21550736 0 0 1.26848737 204.645246 65.825761)"/><path d="m210.29 170.896h80.647v8.778h-80.647z" fill="#f68634" transform="matrix(1.21972665 0 0 1.3388944 203.382194 56.603307)"/><path d="m290.936 170.896h-80.646v8.779h80.646zm-2.562 2.335v4.11h-75.522v-4.11z" transform="matrix(1.21972665 0 0 1.3388944 203.382194 56.603307)"/><path d="m290.936 176.819-33.544-18.351h-47.102v21.207h80.646z" fill="#f68634" transform="matrix(1.21972665 0 0 1.3388944 203.382194 48.674146)"/><path d="m290.936 176.819-33.544-18.351h-47.102v21.207h80.646zm-4.022.522h-74.062v-16.539h43.83z" transform="matrix(1.21972665 0 0 1.3388944 203.382194 48.674146)"/><g transform="matrix(1.000001 0 0 1.000001 .00059 -.000059)"><g transform="matrix(1.05821 .61096 -.61096 1.05821 455.86 64.5776)"><path d="m21.849 189.758s-4.663-.741-7.41.098-5.245 2.644-5.245 2.644-3.888.286-6.763 3.211c-1.576 1.604-.117 6.119 2.202 9.439s6.202 7.091 7.488 9.799c1.285 2.708 1.302 6.8 2.678 9.134 1.51 2.564 5.73 5.84 8.824 6.823s8.263.971 10.752-.31c3.835-1.973 5.693-5.186 5.338-8.013-.358-2.855-2.113-2.451-4.127-3.122s-6.363-5.111-5.705-10.085c.658-4.975.151-8.035.151-8.035z" fill="#4b4b4d"/><path d="m21.849 189.758s-4.663-.741-7.41.098-5.245 2.644-5.245 2.644-3.888.286-6.763 3.211c-1.576 1.604-.117 6.119 2.202 9.439s6.202 7.091 7.488 9.799c1.285 2.708 1.302 6.8 2.678 9.134 1.51 2.564 5.73 5.84 8.824 6.823s8.263.971 10.752-.31c3.835-1.973 5.693-5.186 5.338-8.013-.358-2.855-2.113-2.451-4.127-3.122s-6.363-5.111-5.705-10.085c.658-4.975.151-8.035.151-8.035zm15.24 32.738c.03.108.07.274.087.406.247 1.972-1.295 4.043-3.971 5.42-2.038 1.049-6.274.952-8.807.147-2.587-.822-6.133-3.541-7.396-5.684-.563-.956-.795-2.286-1.07-3.639-.38-1.862-.777-3.768-1.501-5.293-1.329-2.801-5.303-6.733-7.701-10.167-.984-1.41-1.796-3.068-2.185-4.548-.165-.629-.176-1.536-.176-1.746 2.169-2.117 5.012-2.341 5.012-2.341.473-.035.927-.201 1.311-.478 0 0 2.139-1.552 4.494-2.271 1.57-.48 3.881-.319 5.212-.165h.001l7.17 10.151c.094 1.008.22 3.4-.223 6.752-.497 3.75 1.187 7.286 3.228 9.675 1.463 1.711 3.116 2.809 4.203 3.172.491.163.968.278 1.422.378.273.061.689.175.89.231z"/><path d="m8.926 192.905s-7.462 7.753-.352 17.093c.428.562 1.231.671 1.792.243.562-.427.67-1.23.243-1.792-5.731-7.528.168-13.778.168-13.778.487-.511.468-1.321-.043-1.808-.51-.487-1.32-.468-1.808.042z"/></g><path d="m403.203 254.832c-1.334-.79-5.605-2.838-6.831-3.665-10.54-7.109-10.151-14.551-24.912-24.394-1.033-.688-6.249 2.713-7.167 1.878-.996-.83-1.585-1.412-1.685-1.689v-.001c-3.271-3.611-5.964-7.162-6.617-12.359-1.69-13.469 7.873-25.775 21.341-27.465 7.716-.969 14.066 1.166 19.24 6.201l.001.001c1.053 1.025.161 3.36 1.392 4.789 16.469 19.13 32.297 34.694 44.597 46.821 2.06 2.031 3.731 4.711 4.756 7.267v.001c.26.568.452 1.088.572 1.559 1.559 4.696 2.131 9.953-1.058 13.346-3.328 3.542-8.161 5.402-19.815 7.965-.373.082-7.148 3.355-7.509 3.463-13.223 4.851-35.956 7.418-55.066 17.536-4.748 2.514-8.21 1.583-10.422-3.313-2.882-6.381.598-13.65 5.57-15.686 23.088-9.452 29.549-19.574 43.613-22.255z" fill="#feefe7"/><path d="m360.641 224.682c-2.343-2.893-4.134-5.972-4.65-10.08-1.69-13.469 7.873-25.775 21.341-27.465 7.716-.969 14.066 1.166 19.24 6.201l.001.001c1.053 1.025.161 3.36 1.392 4.789 16.469 19.13 32.297 34.694 44.597 46.821 2.06 2.031 3.731 4.711 4.756 7.267v.001c.26.568.452 1.088.572 1.559.153.462.297.93.428 1.4-.317.108-.317.109 0 .002 1.207 4.311 1.388 8.885-1.486 11.944-3.328 3.542-8.161 5.402-19.815 7.965-.373.082-7.148 3.355-7.509 3.463-13.223 4.851-35.956 7.418-55.066 17.536-4.748 2.514-8.21 1.583-10.422-3.313-2.882-6.381.598-13.65 5.57-15.686 23.088-9.452 29.549-19.574 43.613-22.255-1.334-.79-5.605-2.838-6.831-3.665-10.54-7.109-10.151-14.551-24.912-24.394-1.033-.688-6.249 2.713-7.167 1.878-.996-.83-1.585-1.412-1.685-1.689v-.001c-.562-.62-1.107-1.24-1.627-1.867-.12-.212-.234-.359-.34-.412zm33.387-29.45c.032.42.104 1.29.189 1.818.184 1.136.595 2.206 1.38 3.117 16.534 19.206 32.422 34.832 44.771 47.007 1.757 1.733 3.175 4.024 4.049 6.205l.059.137c.172.377.306.719.385 1.032.019.071.04.143.063.213.664 2 1.145 4.114 1.093 6.095-.04 1.542-.405 3.001-1.462 4.126-3.044 3.238-7.553 4.709-18.21 7.053-.362.08-6.352 2.883-7.824 3.541l-.105.046c-13.322 4.883-36.196 7.514-55.436 17.702-1.475.781-2.708 1.225-3.787.896-1.012-.31-1.68-1.305-2.325-2.734-2.104-4.658.277-10.021 3.906-11.507 11.777-4.822 19.318-9.806 25.703-13.935 5.891-3.809 10.693-6.881 17.312-8.143 1.276-.243 2.269-1.251 2.493-2.531s-.368-2.565-1.487-3.227c-1.302-.772-5.479-2.759-6.675-3.566-4.933-3.327-7.276-6.764-10.145-10.489-3.227-4.189-7.012-8.734-14.782-13.915-.661-.441-1.715-.782-3.096-.521-1.04.197-3.548 1.201-4.786 1.713l-.044-.041c-.097-.163-.212-.316-.342-.46-2.834-3.129-5.268-6.149-5.833-10.651-1.475-11.757 6.872-22.5 18.629-23.976 6.503-.816 11.894.884 16.307 4.995z"/><path d="m403.379 257.986s9.739-1.731 22.087 1.323c.837.208 1.685-.304 1.892-1.141s-.304-1.685-1.141-1.892c-13.075-3.235-23.39-1.366-23.39-1.366-.849.152-1.415.965-1.262 1.814.152.849.965 1.414 1.814 1.262z"/><path d="m402.961 254.665s3.343 2.443 11.865 2.981c.861.054 1.604-.6 1.658-1.461.055-.861-.6-1.603-1.461-1.658-7.347-.464-10.266-2.42-10.266-2.42-.706-.495-1.681-.325-2.177.381-.495.706-.325 1.681.381 2.177z"/><g transform="matrix(-.0948548 -1.21823 1.21823 -.0948548 254.381 375.585)"><path d="m110.958 149.065-17.767-27.619c1.701-1.586 12.361-11.552 18.105-19.09 4.918-6.455 3.306 1.34 6.961-.653 3.656-1.992 1.708 8.942 4.292 7.895 0 0-3.526 9.514 8.782 23.056 0 0-16.372 14.204-20.373 16.411z" fill="#aaabaf"/><path d="m110.958 149.065-17.767-27.619c1.701-1.586 12.361-11.552 18.105-19.09 4.918-6.455 3.306 1.34 6.961-.653 3.656-1.992 1.708 8.942 4.292 7.895 0 0-3.526 9.514 8.782 23.056 0 0-16.372 14.204-20.373 16.411zm.753-3.557-15.218-23.657c3.642-3.457 11.972-11.56 16.838-17.945.228-.3.477-.591.708-.845.417.497.905.899 1.464 1.165.698.332 1.554.537 2.634.265.243 1.248.299 2.835.528 3.987.205 1.029.543 1.842.977 2.447-.488 3.636-.183 11.477 8.079 21.47-3.683 3.167-11.714 10.004-16.01 13.113z"/></g></g><g transform="matrix(1.22192 0 0 1.22192 202.744 77.3878)"><g><path d="m21.849 189.758s-4.663-.741-7.41.098-5.245 2.644-5.245 2.644-3.888.286-6.763 3.211c-1.576 1.604-.117 6.119 2.202 9.439s6.202 7.091 7.488 9.799c1.285 2.708 1.302 6.8 2.678 9.134 1.51 2.564 5.73 5.84 8.824 6.823s8.263.971 10.752-.31c3.835-1.973 5.693-5.186 5.338-8.013-.358-2.855-2.113-2.451-4.127-3.122s-6.363-5.111-5.705-10.085c.658-4.975 1.047-6.456 1.047-6.456z" fill="#4b4b4d"/><path d="m21.849 189.758s-4.663-.741-7.41.098-5.245 2.644-5.245 2.644-3.888.286-6.763 3.211c-1.576 1.604-.117 6.119 2.202 9.439s6.202 7.091 7.488 9.799c1.285 2.708 1.302 6.8 2.678 9.134 1.51 2.564 5.73 5.84 8.824 6.823s8.263.971 10.752-.31c3.835-1.973 5.693-5.186 5.338-8.013-.358-2.855-2.113-2.451-4.127-3.122s-6.363-5.111-5.705-10.085c.658-4.975 1.047-6.456 1.047-6.456zm15.24 32.738c.03.108.07.274.087.406.247 1.972-1.295 4.043-3.971 5.42-2.038 1.049-6.274.952-8.807.147-2.587-.822-6.133-3.541-7.396-5.684-.563-.956-.795-2.286-1.07-3.639-.38-1.862-.777-3.768-1.501-5.293-1.329-2.801-5.303-6.733-7.701-10.167-.984-1.41-1.796-3.068-2.185-4.548-.165-.629-.176-1.536-.176-1.746 2.169-2.117 5.012-2.341 5.012-2.341.473-.035.927-.201 1.311-.478 0 0 2.139-1.552 4.494-2.271 1.563-.478 3.862-.32 5.196-.167l7.819 11.336c-.191 1.013-.484 2.76-.855 5.569-.497 3.75 1.187 7.286 3.228 9.675 1.463 1.711 3.116 2.809 4.203 3.172.491.163.968.278 1.422.378.273.061.689.175.89.231z"/><path d="m9.006 192.772s-7.59 7.872-.483 17.207c.427.561 1.23.67 1.792.243.561-.428.67-1.231.243-1.792-5.735-7.534.295-13.889.295-13.889.488-.51.47-1.32-.039-1.808-.51-.488-1.32-.471-1.808.039z"/><path d="m83.225 137.227c3.456-3.37 8.866-11.885 14.649-18.503 6.847-7.834 9.899-10.625 19.396-21.609.664-.768 1.385-1.485 2.157-2.146.776-.724 1.308-1.143 1.543-1.196 3.267-2.288 6.424-4.113 10.711-4.113 11.109 0 20.128 9.019 20.128 20.127 0 6.365-2.38 11.303-6.997 14.992-.94.751-2.308 1.881-3.594 2.734-23.698 15.73-46.574 31.969-52.761 31.969-.253 0-.509-.022-.77-.065-1.855 2.613-5.504 6.467-11.334 11.085-.245.194-.495.379-.748.555-9.051 7.138-32.61 19.361-44.9 32.093-3.053 3.163-8.399 2.381-11.223-.989s-2.36-8.374.989-11.223c24.125-20.516 32.592-36.319 37.974-41.028.124-.11.25-.218.379-.324 1.828-1.508 9.398-7.71 17.547-9.473 1.324-.286 4.978-1.056 6.854-2.886z" fill="#feefe7"/><path d="m144.113 125.34-.897-2.559c3.998-3.195 6.035-7.482 6.035-12.994 0-9.697-7.873-17.57-17.57-17.57-3.714 0-6.414 1.669-9.243 3.651-.129.09-.265.168-.408.231-.137.111-.534.438-.857.739-.027.026-.055.051-.083.075-.675.577-1.305 1.204-1.886 1.875-9.501 10.989-12.554 13.781-19.404 21.619-5.833 6.675-11.304 15.252-14.79 18.651-2.231 2.176-6.524 3.215-8.099 3.555-7.656 1.656-14.742 7.529-16.46 8.946l-.322.276c-5.385 4.712-13.86 20.523-38.001 41.052-2.278 1.937-2.606 5.339-.685 7.631 1.872 2.235 5.397 2.954 7.422.856 12.366-12.812 36.049-25.143 45.156-32.325l.126-.093c.209-.145.415-.298.618-.458 5.564-4.409 9.066-8.067 10.837-10.561.565-.796 1.533-1.2 2.495-1.044.122.02.242.031.36.031 1.629 0 4.511-1.44 8.401-3.608 10.3-5.743 26.421-16.965 42.946-27.933 1.221-.811 2.517-1.888 3.41-2.601-1.31 1.049-.736 2.295.068 3.218-.658.516-1.373 1.055-2.064 1.513-23.698 15.73-46.574 31.969-52.761 31.969-.253 0-.509-.022-.77-.065-1.855 2.613-5.504 6.467-11.334 11.085-.245.194-.495.379-.748.555-9.051 7.138-32.61 19.361-44.9 32.093-3.053 3.163-8.399 2.381-11.223-.989s-2.36-8.374.989-11.223c21.616-18.382 30.662-32.981 36.182-39.206.639-.723 1.233-1.332 1.792-1.822l.379-.324c1.828-1.508 9.398-7.71 17.547-9.473 1.324-.286 4.978-1.056 6.854-2.886 3.456-3.37 8.866-11.885 14.649-18.503 6.847-7.834 9.899-10.625 19.396-21.609.664-.768 1.385-1.485 2.157-2.146.776-.724 1.308-1.143 1.543-1.196 3.267-2.288 6.424-4.113 10.711-4.113 11.109 0 20.128 9.019 20.128 20.127 0 6.365-2.38 11.303-6.997 14.992z"/><path d="m114.658 146.625-21.467-25.179c1.701-1.586 12.361-11.552 18.105-19.09 4.918-6.455 8.151-9.83 11.807-11.823s17.051-4.854 19.635-5.901c0 0 7.638 12.348 19.946 25.89 0 0-22.225 20.845-48.026 36.103z" fill="#aaabaf"/><path d="m114.658 146.625-21.467-25.179c1.701-1.586 12.361-11.552 18.105-19.09 4.918-6.455 8.151-9.83 11.807-11.823s17.051-4.854 19.635-5.901c0 0 7.638 12.348 19.946 25.89 0 0-22.225 20.845-48.026 36.103zm.543-3.306-18.485-21.681c3.75-3.566 11.846-11.474 16.615-17.732 4.604-6.043 7.573-9.262 10.996-11.127 3.005-1.639 12.697-3.844 17.311-5.13 2.38 3.626 8.595 12.692 17.451 22.695-5.634 5.074-23.47 20.612-43.888 32.975z"/></g><g><path d="m219.495 3.925s-9.089 4.542-13.711 14.095c-4.492 9.283-6.327 16.598-6.379 25.522-.046 7.945 8.074-2.125 8.074-2.125s3.044-7.849 7.012-14.315c5.57-9.079 5.004-23.177 5.004-23.177z" fill="#996533"/><path d="m219.495 3.925s-9.089 4.542-13.711 14.095c-4.492 9.283-6.327 16.598-6.379 25.522-.046 7.945 8.074-2.125 8.074-2.125s3.044-7.849 7.012-14.315c5.57-9.079 5.004-23.177 5.004-23.177zm-2.644 4.754c-.287 4.623-1.281 11.773-4.54 17.085-3.546 5.78-6.377 12.634-7.059 14.333-.414.489-1.323 1.525-2.355 2.47-.303.278-.617.548-.932.79.075-8.451 1.855-15.408 6.121-24.223 2.367-4.894 6.012-8.355 8.765-10.455z"/><path d="m216.272 28.893c4.095-4.929-4.849-8.226 4.908-19.477 9.756-11.251 23.955 1.53 26.372 7.823.811 2.113.927 6.673.464 9.614-.464 2.941-2.031 2.822-2.631 5.188-.599 2.366 2.492 7.515 1.238 8.769s-3.82 1.022-3.82 1.022c-1.059 3.032-3.474 4.042-3.474 4.042.482 6.557-4.408 6.032-5.712 5.735s-7.563-4.619-7.563-4.619c-9.663 8.96-10.329 17.535-10.329 17.535l-9.794-26.543s6.246-4.161 10.341-9.089z" fill="#feefe7" transform="translate(1.5486 .483777)"/><path d="m216.272 28.893c4.095-4.929-4.849-8.226 4.908-19.477 9.756-11.251 23.955 1.53 26.372 7.823.811 2.113.927 6.673.464 9.614-.464 2.941-2.031 2.822-2.631 5.188-.599 2.366 2.492 7.515 1.238 8.769s-3.82 1.022-3.82 1.022c-1.059 3.032-3.474 4.042-3.474 4.042.482 6.557-4.408 6.032-5.712 5.735s-7.563-4.619-7.563-4.619c-9.663 8.96-10.329 17.535-10.329 17.535l-9.794-26.543s6.246-4.161 10.341-9.089zm27.951 10.313c-.623.125-1.19.079-1.19.079-1.168-.106-2.258.597-2.645 1.704-.645 1.849-2.046 2.525-2.046 2.525-1.015.424-1.644 1.45-1.564 2.547.108 1.464-.017 2.355-.549 2.816-.624.539-1.526.357-1.95.26-.129-.066-.937-.479-1.555-.85-2.229-1.337-5.216-3.402-5.216-3.402-.987-.681-2.314-.586-3.193.229-4.471 4.147-7.153 8.232-8.76 11.561 0 .001-6.548-17.743-6.548-17.743 2.233-1.646 6.267-4.836 9.232-8.405 1.835-2.209 1.962-4.187 1.571-6.344-.315-1.741-1.276-3.661-.635-6.392.429-1.826 1.576-3.978 3.937-6.7 3.928-4.53 8.764-4.136 12.848-2.063 4.443 2.257 8.146 6.371 9.204 9.128.701 1.823.725 5.761.326 8.299-.173 1.097-.638 1.486-1.027 1.958-.623.757-1.198 1.585-1.557 2.999-.384 1.517.208 3.96.901 6.19.152.487.308 1.129.416 1.604z" transform="translate(1.5486 .483777)"/><path d="m249.726 20.913s2.19-2.766 1.402-5.564-7.59-9.565-12.541-11.671c-4.95-2.106-14.685-1.905-19.092.247-5.973 2.915-9.632 7.73-9.33 16.166.254 7.087-.033 10.537 3.291 13.712 3.802 3.632 7.175-3.393 8.701-4.624s4.979-.798 7.575-.859 3.579-2.391 3.579-2.391 2.647-.05 4.562-1.169c1.916-1.119 2.379-4.089 5.015-4.432 2.636-.344 6.838.585 6.838.585z" fill="#996533"/><path d="m249.726 20.913s2.19-2.766 1.402-5.564-7.59-9.565-12.541-11.671c-4.95-2.106-14.685-1.905-19.092.247-5.973 2.915-9.632 7.73-9.33 16.166.254 7.087-.033 10.537 3.291 13.712 3.802 3.632 7.175-3.393 8.701-4.624s4.979-.798 7.575-.859 3.579-2.391 3.579-2.391 2.647-.05 4.562-1.169c1.916-1.119 2.379-4.089 5.015-4.432 2.636-.344 6.838.585 6.838.585zm-1.259-2.821c-1.653-.256-4.106-.535-5.91-.3-1.762.23-2.977 1.104-3.965 2.26-.402.47-.761.991-1.125 1.5-.268.375-.5.776-.884 1-1.391.812-3.32.82-3.32.82-1.011.018-1.916.631-2.309 1.563 0 0-.361.807-1.282.828-1.613.038-3.546-.099-5.175.053-1.621.151-3.003.612-3.946 1.373-.794.641-2.095 2.769-3.666 4.285-.389.375-.731.807-1.191.804-.167-.002-.294-.155-.472-.324-1.516-1.449-1.981-3-2.202-5.151-.19-1.84-.2-4.038-.299-6.804-.258-7.176 2.815-11.296 7.896-13.776 3.917-1.912 12.569-2.063 16.969-.191 2.702 1.149 5.985 3.857 8.355 6.364 1.37 1.45 2.477 2.763 2.726 3.646.208.739.045 1.467-.2 2.05z"/></g><g><path d="m140.739 86.381s6.491 12.228 19.924 25.986c0 0 11.91-8.988 19.968-14.203 8.059-5.215 22.151-15.454 28.133-22.309 5.983-6.855 9.197-13.955 10.076-22.747.879-8.793-6.603-16.436-11.038-15.434-2.494.562-19.26 9.28-28.491 16.89-8.135 6.706-17.296 15.423-21.057 18.485-4.469 3.639-17.515 13.332-17.515 13.332z" fill="#f7acb0"/><path d="m140.739 86.381s6.491 12.228 19.924 25.986c0 0 11.91-8.988 19.968-14.203 8.059-5.215 22.151-15.454 28.133-22.309 5.983-6.855 9.197-13.955 10.076-22.747.879-8.793-6.603-16.436-11.038-15.434-2.494.562-19.26 9.28-28.491 16.89-8.135 6.706-17.296 15.423-21.057 18.485-4.469 3.639-17.515 13.332-17.515 13.332zm3.348.695c3.762-2.809 12.325-9.229 15.782-12.044 3.763-3.064 12.929-11.785 21.068-18.495 8.902-7.338 25.023-15.826 27.428-16.369.423-.095.896.038 1.392.244.788.327 1.589.884 2.354 1.599 2.534 2.366 4.625 6.428 4.184 10.842-.824 8.243-3.849 14.894-9.458 21.321-5.864 6.719-19.696 16.731-27.595 21.843-6.191 4.006-14.637 10.221-18.301 12.948-9.084-9.606-14.65-18.209-16.854-21.889z"/></g><g><path d="m209.681 164.713c-4.06-6.139 6.669-8.727 8.719-9.63 1.686-.743.509 3.736 3.582 4.209 11.035 1.697 22.473 3.048 20.729 7.027-.303.691-1.124 1.934-3.293 2.083-7.067.485-16.912.518-23.385-.472-4.541-.695-5.084-1.673-6.352-3.217z" fill="#feefe7" transform="translate(-1.29225 -8.59028)"/><path d="m209.681 164.713c-4.06-6.139 6.669-8.727 8.719-9.63 1.686-.743.509 3.736 3.582 4.209 11.035 1.697 22.473 3.048 20.729 7.027-.303.691-1.124 1.934-3.293 2.083-7.067.485-16.912.518-23.385-.472-4.541-.695-5.084-1.673-6.352-3.217zm7.756-6.574c.078.229.161.449.244.632.668 1.479 1.796 2.723 3.912 3.049 6.441.99 13.028 1.832 16.897 3.205.479.171 1.027.452 1.422.672-.17.077-.39.134-.669.153-6.897.474-16.506.518-22.823-.448-3.263-.5-3.787-1.121-4.669-2.198-.311-.486-.481-.895-.407-1.283.153-.799.954-1.311 1.766-1.821 1.379-.866 3.021-1.5 4.327-1.961z" transform="translate(-1.29225 -8.59028)"/><path d="m197.924 84.537c-2.568-11.289-2-30.882-.851-35.161 1.75-6.517 4.893-10.921 10.921-10.921 6.027 0 10.92 4.893 10.92 10.921 0 3.771-.534 20.834-2.864 31.467 1.156 3.187 1.505 7.336 1.505 11.871 0 5.083-.317 9.681-1.778 12.982 1.324 6.801 1.4 15.471 1.707 22.058.349 7.475.167 22.072.916 27.329.26 1.823.509 3.736 3.582 4.209 11.035 1.697 22.473 3.048 20.729 7.027-.303.691-1.124 1.934-3.293 2.083-7.067.485-16.912.518-23.385-.472-4.541-.695-5.084-1.673-6.352-3.217-4.06-6.139-8.275-25.554-8.959-36.176-.534-8.295-.907-15.222-.656-20.6-1.578-3.734-2.706-10.514-2.706-15.223 0-2.939.146-5.717.564-8.177z" fill="#feefe7"/><path d="m197.924 84.537c-2.568-11.289-2-30.882-.851-35.161 1.75-6.517 4.893-10.921 10.921-10.921 6.027 0 10.92 4.893 10.92 10.921 0 3.771-.534 20.834-2.864 31.467 1.156 3.187 1.505 7.336 1.505 11.871 0 5.083-.317 9.681-1.778 12.982 1.324 6.801 1.4 15.471 1.707 22.058.349 7.475.167 22.072.916 27.329.26 1.823.509 3.736 3.582 4.209 11.035 1.697 22.473 3.048 20.729 7.027-.303.691-1.124 1.934-3.293 2.083-7.067.485-16.912.518-23.385-.472-4.541-.695-5.084-1.673-6.352-3.217-4.06-6.139-8.275-25.554-8.959-36.176-.534-8.295-.907-15.222-.656-20.6-1.578-3.734-2.706-10.514-2.706-15.223 0-2.939.146-5.717.564-8.177zm41.988 81.16c-.17.077-.39.134-.669.153-6.897.474-16.506.518-22.823-.448-3.264-.5-3.787-1.122-4.67-2.199-3.897-6.03-7.82-24.638-8.476-34.831-.527-8.18-.901-15.011-.653-20.316.018-.382-.05-.763-.199-1.115-1.475-3.489-2.505-9.827-2.505-14.227 0-2.785.132-5.417.529-7.748.056-.331.046-.669-.028-.996-2.479-10.895-1.984-29.802-.875-33.931 1.401-5.217 3.625-9.027 8.451-9.027 4.615 0 8.363 3.748 8.363 8.364 0 3.705-.516 20.472-2.805 30.92-.104.472-.071.964.094 1.419 1.07 2.951 1.351 6.8 1.351 10.999 0 4.673-.215 8.911-1.559 11.946-.212.479-.272 1.011-.172 1.525 1.303 6.687 1.361 15.212 1.663 21.688.353 7.541.183 22.268.939 27.571.229 1.605.601 3.202 1.717 4.417.817.89 2.027 1.654 4.008 1.959 6.441.99 13.028 1.832 16.897 3.205.479.171 1.027.452 1.422.672z"/></g></g><path d="m16.398 198.616v-9.238h50.766v-8.577l26.672 13.196-26.672 13.196v-8.577z" fill="#ec3237" transform="matrix(.538373 -.426709 .426379 .537956 -44.2725 110.415)"/><path d="m16.398 189.378h49.508v9.237h-49.508z" fill="#ec3237" transform="matrix(.574174 -.377162 .37687 .573729 71.6908 19.2853)"/><path d="m47.459 198.616v-9.238h19.705v-8.577l26.672 13.196-26.672 13.196v-8.577z" fill="#ec3237" transform="matrix(-.538373 .426709 -.426379 -.537956 436.759 393.208)"/></svg>