<svg clip-rule="evenodd" fill-rule="evenodd" stroke-linejoin="round" stroke-miterlimit="2" viewBox="0 0 568 388" xmlns="http://www.w3.org/2000/svg"><g transform="scale(1.24835)"><path d="m0 0h455v310.388h-455z" fill="none"/><path d="m170.381 296.333h12.004v80.189h-12.004z" fill="#d2d3d5" transform="matrix(.77843642 -.00000037 .00000033 .74500952 113.675376 5.874773)"/><path d="m182.385 296.333h-12.004v80.19h12.004zm-3.909 4.085v72.02h-4.185v-72.02z" transform="matrix(.77843642 -.00000037 .00000033 .74500952 113.675376 5.874773)"/><path d="m170.381 296.333h12.004v80.189h-12.004z" fill="#d2d3d5" transform="matrix(.77843642 -.00000037 .00000033 .74500952 106.235882 28.158704)"/><path d="m182.385 296.333h-12.004v80.19h12.004zm-3.909 4.085v72.02h-4.185v-72.02z" transform="matrix(.77843642 -.00000037 .00000033 .74500952 106.235882 28.158704)"/><path d="m170.381 296.333h12.004v80.189h-12.004z" fill="#d2d3d5" transform="matrix(.77843642 -.00000037 .00000033 .74500952 205.819925 5.886262)"/><path d="m182.385 296.333h-12.004v80.19h12.004zm-3.909 4.085v72.02h-4.185v-72.02z" transform="matrix(.77843642 -.00000037 .00000033 .74500952 205.819925 5.886262)"/><path d="m170.381 296.333h12.004v80.189h-12.004z" fill="#d2d3d5" transform="matrix(.77843642 -.00000037 .00000033 .74500952 198.380431 28.170194)"/><path d="m182.385 296.333h-12.004v80.19h12.004zm-3.909 4.085v72.02h-4.185v-72.02z" transform="matrix(.77843642 -.00000037 .00000033 .74500952 198.380431 28.170194)"/><path d="m352.601 230.354-6.942 28.094h-3.361v-41.226h10.303z" fill="#f68634" transform="matrix(1.00000053 -.00000048 .00000039 .88042922 -.000572 35.409178)"/><path d="m352.601 230.354-6.942 28.094h-3.361v-41.226h10.303zm-7.633 19.667v-29.766h4.963v9.681z" transform="matrix(1.00000053 -.00000048 .00000039 .88042922 -.000572 35.409178)"/><path d="m187.59 316.367h-81.725l5.092 65.771h81.726v-7.57z" fill="#f68634" transform="matrix(-1.37463074 .00000066 .00000017 .38288106 498.126726 105.526059)"/><path d="m187.59 316.367h-81.725l5.092 65.771h81.726v-7.57zm3.109 58.797-4.535-51.823h-77.743s4.012 51.823 4.012 51.823z" transform="matrix(-1.37463074 .00000066 .00000017 .38288106 498.126726 105.526059)"/><g transform="matrix(1.29467069 -.00000062 .00000007 .15053403 96.199754 201.317831)"><path d="m105.865 316.367h86.818v93.087h-86.818z" fill="#f68634"/><path d="m192.683 316.367h-86.818v93.087h86.818zm-2.063 17.738v57.611h-82.693v-57.611z"/></g><g transform="matrix(.625268 -.774573 .774573 .625268 -10.197264 182.522434)"><g transform="matrix(1.00006 -.095035 .095035 1.00006 71.8953 12.1503)"><path d="m23.609 190.399s-4.612-1.935-9.17-.543c-2.747.839-5.245 2.644-5.245 2.644s-3.888.286-6.763 3.211c-1.576 1.604-.117 6.119 2.202 9.439s5.991 7.202 7.488 9.799c1.573 2.732 2.406 5.296 3.944 7.755 1.867 2.981 4.954 7.253 7.254 10.136 2.268 2.842 5.984 6.369 8.056 5.696 5.446-1.769 4.099-6.388 3.262-9.37-.724-2.582-2.044-5.042-2.424-7.709-.441-3.093-.343-5.501-.22-10.853.115-5.017.109-7.142.109-7.142z" fill="#4b4b4d"/><path d="m23.609 190.399s-4.612-1.935-9.17-.543c-2.747.839-5.245 2.644-5.245 2.644s-3.888.286-6.763 3.211c-1.576 1.604-.117 6.119 2.202 9.439s5.991 7.202 7.488 9.799c1.573 2.732 2.406 5.296 3.944 7.755 1.867 2.981 4.954 7.253 7.254 10.136 2.268 2.842 5.984 6.369 8.056 5.696 5.446-1.769 4.099-6.388 3.262-9.37-.724-2.582-2.044-5.042-2.424-7.709-.441-3.093-.343-5.501-.22-10.853.115-5.017.109-7.142.109-7.142zm7.171 45.696c-.178-.072-.751-.311-1.106-.545-1.538-1.014-3.192-2.76-4.398-4.271-2.247-2.817-5.265-6.99-7.089-9.904-1.522-2.432-2.341-4.973-3.897-7.675-1.523-2.643-5.245-6.605-7.605-9.983-.988-1.415-1.802-3.079-2.192-4.565-.128-.487-.21-.948-.217-1.364-.002-.131.025-.328.039-.418 2.185-2.146 5.062-2.373 5.062-2.373.463-.035.907-.196 1.283-.468 0 0 2.147-1.557 4.51-2.279 2.72-.831 5.319-.255 6.489.101l7.937 11.867c-.007.999-.03 3.035-.106 6.328-.128 5.555-.212 8.054.245 11.264.395 2.776 1.738 5.346 2.492 8.032.255.907.578 1.985.669 3.073.058.694.047 1.406-.347 2.003-.331.503-.914.877-1.769 1.177z"/><path d="m8.8 192.932s-7.239 8.022-.167 17.311c.418.55 1.204.657 1.754.238.55-.418.656-1.204.238-1.754-5.77-7.579.04-14.125.04-14.125.46-.515.417-1.306-.098-1.767-.514-.461-1.306-.418-1.767.097z"/></g><path d="m53.604 293.666c.586-6.18 2.588-8.747 2.588-8.747s-6.204 5.588-31.223-1.301l-.969-34.682s15.44 4.568 23.285 6.352c8.109 1.843 18.125 3.972 23.66 6.586 3.977 1.879 8.273 4.894 9.553 9.102 1.448 4.762.065 13.037-.865 19.465-1.777 12.293-9.962 36.597-9.802 54.292.04 4.396-4.321 7.585-8.697 7.161s-7.554-4.318-7.161-8.697c2.825-31.543-1.781-34.646-.369-49.531z" fill="#feefe7" transform="matrix(.676078 .74302 -.74302 .676078 331.809 -71.5823)"/><path d="m226.179 159.785c.397.091.92.211 1.551.355 5.098 1.164 17.153 3.872 25.11 5.302l.51.091c.504.089.989.173 1.454.25 10.242 1.699 22.88 3.613 29.971 6.463 5.095 2.048 10.671 5.489 12.576 10.638.458 1.239.769 2.685.967 4.273.491 3.929.294 8.722-.052 13.37l-.085 1.113-.052.65c-.138 1.692-.287 3.347-.42 4.914-1.309 15.45-9.715 46.34-8.211 68.38.354 5.176-4.273 9.297-9.413 9.559l-.511.014-.386-.007c-5.484-.206-9.731-4.824-9.565-10.31 1.193-39.516-4.775-43.044-4.113-61.697l.033-.745.044-.695.054-.66.062-.632.112-.919.071-.488.118-.722.117-.62.135-.637.065-.283c.344-1.458.739-2.555 1.068-3.321l.363-.777.338-.592 4.06-.519s-.446.84-1.486 2.291c-1.581 2.204-1.852 4.384-2.031 9.429-.661 18.648 5.307 22.176 4.113 61.681-.114 3.769 2.792 6.952 6.559 7.093 3.677.137 7.326-2.56 7.075-6.23-1.514-22.191 6.898-53.3 8.215-68.856.647-7.631 1.861-17.47-.175-22.973-1.614-4.362-6.495-7.088-10.81-8.823-6.935-2.787-19.302-4.618-29.317-6.279-7.104-1.179-19.146-3.842-25.488-5.277 0 0 3.191 36.55 3.191 36.55 24.911 4.886 33.941-.355 33.941-.355l1.768-1.33.385 3.598-.462.366-.51.325c-1.194.705-3.613 1.778-7.923 2.376l-.999.126-.781.081-1.173.098-1.158.069-1.207.045-.922.019-1.119.004-1.056-.014-1.34-.038-1.014-.045-.919-.052-1.066-.072-.986-.077-1.12-.101-1.056-.107-1.172-.131-1.131-.138-1.222-.162-1.211-.172-1.269-.194-1.296-.21-1.31-.226-1.391-.252-1.34-.255-1.499-.3-1.353-.282s-3.766-43.147-3.766-43.147z" transform="matrix(.505463 .62616 -.62616 .505463 149.106 -107.2)"/><path d="m303.083 215.362s-2.926 2.682-5.874 4.776c-.601.427-.742 1.261-.315 1.862.426.6 1.261.742 1.861.315 3.077-2.186 6.132-4.984 6.132-4.984.543-.498.58-1.344.083-1.887-.498-.543-1.344-.58-1.887-.082z" transform="matrix(.630996 .781668 -.781668 .630996 143.602 -210.779)"/><path d="m300.817 223.287s1.256-2.099 4.243-6.148c.437-.593.311-1.43-.282-1.867-.593-.438-1.43-.311-1.867.282-3.091 4.19-4.386 6.364-4.386 6.364-.378.632-.171 1.453.462 1.831.632.377 1.453.17 1.83-.462z" transform="matrix(.630996 .781668 -.781668 .630996 143.602 -210.779)"/><path d="m116.702 148.915-23.511-27.469c1.701-1.586 14.601-10.83 20.345-18.368 4.917-6.455 30.731 26.775 30.657 26.865 0 0-5.135 6.577-27.491 18.972z" fill="#aaabaf" transform="matrix(.0847369 -1.00099 1.00099 .0847369 13.9381 237.076)"/><path d="m116.702 148.915-23.511-27.469c1.701-1.586 14.601-10.83 20.345-18.368 4.917-6.455 30.731 26.775 30.657 26.865 0 0-5.135 6.577-27.491 18.972zm24.201-19.16c-2.494 2.351-9.025 7.741-23.632 15.975l-20.516-23.97c4.195-3.313 13.781-10.713 18.635-16.987.213.043.678.147.994.283.977.419 2.08 1.133 3.275 2.036 7.421 5.608 17.664 18.11 21.244 22.663z" transform="matrix(.0847369 -1.00099 1.00099 .0847369 13.9381 237.076)"/><g transform="matrix(.994667 .103141 -.103141 .994667 10.2812 -22.8886)"><path d="m23.278 190.268s-4.281-1.804-8.839-.412c-2.747.839-5.245 2.644-5.245 2.644s-3.888.286-6.763 3.211c-1.576 1.604-.117 6.119 2.202 9.439s5.991 7.202 7.488 9.799c1.573 2.732 2.406 5.296 3.944 7.755 1.867 2.981 4.954 7.253 7.254 10.136 2.268 2.842 5.984 6.369 8.056 5.696 5.446-1.769 4.099-6.388 3.262-9.37-.724-2.582-2.044-5.042-2.424-7.709-.441-3.093-.343-5.501-.22-10.853.115-5.017.109-7.142.109-7.142z" fill="#4b4b4d"/><path d="m23.278 190.268s-4.281-1.804-8.839-.412c-2.747.839-5.245 2.644-5.245 2.644s-3.888.286-6.763 3.211c-1.576 1.604-.117 6.119 2.202 9.439s5.991 7.202 7.488 9.799c1.573 2.732 2.406 5.296 3.944 7.755 1.867 2.981 4.954 7.253 7.254 10.136 2.268 2.842 5.984 6.369 8.056 5.696 5.446-1.769 4.099-6.388 3.262-9.37-.724-2.582-2.044-5.042-2.424-7.709-.441-3.093-.343-5.501-.22-10.853.115-5.017.109-7.142.109-7.142zm7.502 45.815c-.179-.073-.747-.311-1.099-.543-1.538-1.013-3.191-2.758-4.396-4.268-2.247-2.817-5.265-6.99-7.088-9.903-1.522-2.432-2.341-4.973-3.897-7.675-1.523-2.643-5.246-6.605-7.605-9.984-.987-1.413-1.801-3.076-2.191-4.561-.127-.486-.209-.946-.216-1.361-.002-.129.023-.322.037-.413 2.182-2.14 5.053-2.367 5.053-2.367.465-.034.911-.197 1.289-.47 0 0 2.145-1.556 4.506-2.277 2.715-.829 5.309-.256 6.478.1h.001l7.932 11.86c-.007 1.002-.03 3.036-.105 6.325-.128 5.556-.213 8.055.245 11.266.395 2.776 1.738 5.346 2.492 8.033.254.906.577 1.983.668 3.071.058.691.048 1.401-.344 1.995-.33.501-.911.874-1.76 1.172z"/><path d="m8.765 192.957s-7.434 7.719-.335 17.045c.421.553 1.21.66 1.762.239.553-.42.66-1.21.239-1.762-5.741-7.542.153-13.786.153-13.786.479-.502.461-1.298-.041-1.777-.502-.48-1.299-.461-1.778.041z"/></g><path d="m87.513 219.199c.599-.912-4.473-5.167-10.518-27.326-2.727-9.992 3.542-7.294.973-21.518-.18-.995 28.152-5.987 28.61-4.52 7.616 24.401 8.595 53.494 4.727 58.286-.245.303.114 5.624-.9 13.753-.038.309-.086.614-.143.916-1.445 11.382-9.643 36.499-9.483 54.114.039 4.376-4.301 7.55-8.658 7.129-4.356-.422-7.519-4.299-7.129-8.658 2.812-31.399-2.204-48.527-1.669-55.625.011-.165.026-.33.043-.494.245-2.347-.408-9.12 4.147-16.057z" fill="#feefe7" transform="matrix(.464845 .89055 -.89055 .464845 233.869 -42.403)"/><path d="m87.513 219.199c.599-.912-4.473-5.167-10.518-27.326-2.727-9.992 3.542-7.294.973-21.518-.18-.995 28.152-5.987 28.61-4.52 7.616 24.401 8.595 53.494 4.727 58.286-.245.303.114 5.624-.9 13.753-.038.309-.086.614-.143.916-1.445 11.382-9.643 36.499-9.483 54.114.039 4.376-4.301 7.55-8.658 7.129-4.356-.422-7.519-4.299-7.129-8.658 2.812-31.399-2.204-48.527-1.669-55.625l.043-.494c.245-2.347-.408-9.12 4.147-16.057zm17.129-51.129c4.901 16.402 6.819 34.656 6.286 45.841-.133 2.805-.416 5.142-.865 6.85-.208.793-.406 1.415-.706 1.788-.164.203-.501.674-.598 1.533-.129 1.154.073 6.183-.838 13.482-.032.256-.071.509-.119.759l-.024.155c-1.455 11.454-9.663 36.728-9.503 54.448.027 2.927-2.999 4.897-5.913 4.615-2.986-.289-5.144-2.954-4.876-5.942 2.814-31.42-2.202-48.558-1.667-55.661l.037-.422c.228-2.18-.482-8.498 3.75-14.943.391-.596.811-1.748-.158-3.599-1.163-2.222-5.294-8.371-10.038-25.76-1.132-4.148-.403-5.662.349-7.614.912-2.371 1.898-5.225 1.001-11.645 5.151-1.357 19.012-3.76 23.882-3.885zm-20.983 70.16.013-.001zm-.174.017.042-.002zm-.103.005h.001-.055z" transform="matrix(.464845 .89055 -.89055 .464845 233.869 -42.403)"/><path d="m50.965 148.327c-1.758-9.819-.711-21.595 1.33-26.344 2.379-5.536 6.7-9.271 12.067-8.873 5.368.399 8.541 7.459 8.434 12.84-.228 11.429-1.392 15.94-5.734 22.807 0 0 1.656 5.044 1.344 9.437-.221 3.1-.875 5.849-1.72 7.194 4.763-.818 9.849-1.271 14.091-1.622 2.468-.204 7.269-.309 7.269-.309 14.983 0 14.547-4.238 21.771-4.238 5.927 0 12.725.407 12.649 10.329-.054 7.073-6.722 11.149-12.649 11.149-8.796 0-10.885-5.189-20.763-3.126 0 0-4.794 1.15-7.327 1.45-18.006 2.132-28.047 2.988-30.328-2.119v-.002c-3.389-7.399-3.286-12.095-3.295-15.922-.009-4.011 1.061-10.32 2.861-12.651z" fill="#feefe7" transform="matrix(-.0267543 1.00421 -1.00421 -.0267543 320.556 -11.9542)"/><path d="m52.88 178.759c-.657-.503-1.15-1.117-1.481-1.857v-.002c-3.389-7.399-3.286-12.095-3.295-15.922-.009-4.011 1.061-10.32 2.861-12.651-1.758-9.819-.711-21.595 1.33-26.344 2.379-5.536 6.7-9.271 12.067-8.873 5.368.399 8.541 7.459 8.434 12.84-.228 11.429-1.392 15.94-5.734 22.807 0 0 1.656 5.044 1.344 9.437-.221 3.1-.875 5.849-1.72 7.194 4.763-.818 9.849-1.271 14.091-1.622 2.468-.204 7.269-.309 7.269-.309 14.983 0 14.547-4.238 21.771-4.238 5.927 0 12.725.407 12.649 10.329-.054 7.073-6.722 11.149-12.649 11.149-8.796 0-10.885-5.189-20.763-3.126 0 0-4.794 1.15-7.327 1.45-15.276 1.809-24.819 2.699-28.754-.192l.047-.022h.003l-.003-.001-.11-.024-.001-.002.1.023.011.003.002-.001-.013-.002zm.066-28.902c.432-.559.608-1.275.483-1.971-1.662-9.284-.764-20.424 1.166-24.915 1.92-4.466 5.251-7.686 9.582-7.364 1.444.107 2.607 1.006 3.532 2.188 1.723 2.202 2.638 5.409 2.584 8.105-.215 10.776-1.253 15.045-5.347 21.519-.4.632-.496 1.409-.263 2.119 0 0 1.507 4.531 1.226 8.478-.185 2.594-.636 4.916-1.343 6.041-.525.837-.509 1.904.04 2.724.55.821 1.531 1.242 2.504 1.074 4.69-.806 9.697-1.248 13.873-1.594 2.293-.19 6.641-.291 7.081-.301 9.556-.003 13.208-1.648 16.262-2.945 1.628-.692 3.036-1.293 5.491-1.293 2.938 0 6.187-.103 8.261 1.764 1.265 1.139 1.908 3.043 1.885 6.043-.043 5.597-5.456 8.665-10.146 8.665-4.025 0-6.505-1.235-9.12-2.186-3.218-1.171-6.59-2.05-12.155-.887-.024.005-.048.01-.072.016 0 0-4.604 1.11-7.038 1.398-10.527 1.247-18.259 2.085-23.241 1.45-2.293-.292-3.892-.73-4.506-2.104l-.662 2.926.641-2.971c-3.157-6.904-3.048-11.29-3.057-14.864-.005-2.225.352-5.215.995-7.716.364-1.414.78-2.668 1.344-3.399z" transform="matrix(-.0267543 1.00421 -1.00421 -.0267543 320.556 -11.9542)"/><path d="m267.027 62.199c1.197-7.341 4.886-10.905 10.905-10.905s10.209 3.746 10.906 10.905c.719 6.171 1 18.779 1 18.779h-23.811s.142-13.518 1-18.779z" fill="#4b6097" transform="matrix(-.157219 .992191 -.992191 -.157219 302.866 -217.916)"/><path d="m267.027 62.199c1.197-7.341 4.886-10.905 10.905-10.905s10.209 3.746 10.906 10.905c.719 6.171 1 18.779 1 18.779h-23.811s.142-13.518 1-18.779zm16.494-6.221c1.495 1.451 3.45 18.317 3.573 22.33h-18.354c.085-4.146.32-11.989.922-15.679.575-3.525 1.723-6.036 3.706-7.422 1.233-.862 2.766-1.243 4.564-1.243 2.25 0 4.178.645 5.589 2.014z" transform="matrix(-.157219 .992191 -.992191 -.157219 302.866 -217.916)"/><path d="m115.84 149.226-23.254-28.653c1.701-1.586 10.41-7.993 16.154-15.532 4.918-6.454 4.97-9.629 14.295-17.157 7.173-5.79 17.328-7.559 17.328-7.559l21.783 27.231s-12.286 9.569-15.016 12.879c-.075.09-.149.18-.223.271-6.193 7.52-13.437 14.288-31.067 28.52z" fill="#aaabaf"/><path d="m115.84 149.226-23.254-28.653c1.701-1.586 10.41-7.993 16.154-15.532 4.918-6.454 4.97-9.629 14.295-17.157 7.173-5.79 17.328-7.559 17.328-7.559l21.783 27.231s-12.286 9.569-15.016 12.879c-.075.09-.149.18-.223.271-6.193 7.52-13.437 14.288-31.067 28.52zm.37-3.535-20.119-24.79c3.334-2.744 9.957-8.176 14.65-14.336 4.785-6.28 4.8-9.399 13.874-16.724 5.112-4.127 11.85-6.055 14.751-6.736 0 0 19.237 24.048 19.237 24.048-3.67 2.928-11.306 9.127-13.413 11.682-.075.09-.15.181-.225.272-5.884 7.146-12.742 13.592-28.755 26.584z"/><g transform="matrix(.916636 .399724 -.399724 .916636 33.3649 -81.6576)"><path d="m212.579 29.938c3.653-5.264-1.156-9.271 8.601-20.522 9.756-11.251 23.955 1.53 26.372 7.823.811 2.113.927 6.673.464 9.614-.464 2.941-2.031 2.822-2.631 5.188-.599 2.366 2.492 7.515 1.238 8.769s-3.82 1.022-3.82 1.022c-1.059 3.032-3.474 4.042-3.474 4.042.482 6.557-4.408 6.032-5.712 5.735s-7.563-4.619-7.563-4.619c-7.542 10.322-8.551 12.716-8.551 12.716l-11.637-21.34s2.998-3.074 6.713-8.428z" fill="#feefe7" transform="matrix(.999258 -.0385184 .0385184 .999258 -1.64277 10.0664)"/><path d="m212.579 29.938c3.653-5.264-1.156-9.271 8.601-20.522 9.756-11.251 23.955 1.53 26.372 7.823.811 2.113.927 6.673.464 9.614-.464 2.941-2.031 2.822-2.631 5.188-.599 2.366 2.492 7.515 1.238 8.769s-3.82 1.022-3.82 1.022c-1.059 3.032-3.474 4.042-3.474 4.042.482 6.557-4.408 6.032-5.712 5.735s-7.563-4.619-7.563-4.619c-7.542 10.322-8.551 12.716-8.551 12.716l-11.637-21.34s2.998-3.074 6.713-8.428zm31.694 9.302-.034.006c-.632.128-1.21.081-1.21.081-1.148-.103-2.22.587-2.6 1.676-.653 1.868-2.07 2.551-2.07 2.551-.998.417-1.617 1.425-1.538 2.504.109 1.483-.026 2.385-.564 2.851-.639.552-1.562.367-1.992.268-.127-.065-.941-.48-1.563-.853-2.23-1.338-5.219-3.404-5.219-3.404-1.121-.774-2.655-.514-3.459.586-3.065 4.195-5.085 7.132-6.408 9.153 0 .001-8.684-15.925-8.684-15.925 1.261-1.438 3.348-3.954 5.713-7.362 1.365-1.967 1.813-3.783 2.055-5.755.415-3.38.127-7.344 6.38-14.554 3.944-4.548 8.799-4.155 12.899-2.073 4.454 2.262 8.164 6.387 9.225 9.15.702 1.828.729 5.777.328 8.321-.175 1.109-.643 1.503-1.036 1.98-.62.752-1.192 1.575-1.548 2.982-.383 1.511.209 3.944.9 6.166.156.502.317 1.17.425 1.651z" transform="matrix(.999258 -.0385184 .0385184 .999258 -1.64277 10.0664)"/><path d="m247.373 24.104s4.032-3.731 1.32-8.659c-1.787-3.246-8.059-8.143-13.009-10.249-4.951-2.106-10.35-2.547-14.757-.395-5.973 2.916-8.699 8.036-10.762 15.29-1.078 3.788-.899 13.018 2.593 14.838 1.992 1.038 4.486-6.788 6.763-7.962 1.763-.91 3.64.33 5.941 1.188 2.682 1 5.252-1.78 5.252-1.78s2.27-3.572 4.185-4.691c1.916-1.119 4.007-.79 5.872-.192 2.113.677 6.602 2.612 6.602 2.612z" fill="#996533"/><path d="m247.373 24.104s4.032-3.731 1.32-8.659c-1.787-3.246-8.059-8.143-13.009-10.249-4.951-2.106-10.35-2.547-14.757-.395-5.973 2.916-8.699 8.036-10.762 15.29-1.078 3.788-.899 13.018 2.593 14.838 1.992 1.038 4.486-6.788 6.763-7.962 1.763-.91 3.64.33 5.941 1.188 2.682 1 5.252-1.78 5.252-1.78s2.27-3.572 4.185-4.691c1.916-1.119 4.007-.79 5.872-.192 2.113.677 6.602 2.612 6.602 2.612zm-34.232 7.516c-.284-.615-.492-1.34-.652-2.116-.617-3.003-.474-6.726.095-8.725 1.838-6.461 4.125-11.121 9.446-13.718 3.785-1.848 8.418-1.36 12.669.449 4.461 1.898 10.181 6.223 11.791 9.148.993 1.804.596 3.362.065 4.373-1.545-.641-3.716-1.517-5.017-1.934-2.513-.806-5.325-1.093-7.907.416-1.933 1.129-4.218 4.317-4.863 5.252-.158.148-.497.444-.941.703-.406.236-.93.538-1.487.331-1.507-.562-2.858-1.248-4.106-1.514-1.346-.286-2.619-.196-3.866.447-.59.305-1.222.829-1.824 1.56-.885 1.074-1.8 2.712-2.681 4.214-.202.346-.469.748-.722 1.114z"/></g><path d="m140.674 85.714 21.749 27.168s7.892-5.608 15.498-11.435c3.844-2.944 26.585-12.337 34.814-22.682 4.074-5.122 6.226-14.733 5.343-19.053-2.903-14.193-8.131-19.793-8.131-19.793-7.671-1.25-21.654 5.628-30.885 13.237-8.135 6.706-13.869 12.446-21.591 18.923-4.416 3.703-16.797 13.635-16.797 13.635z" fill="#4b6097" transform="translate(-2.73359 -3.38633)"/><path d="m140.674 85.714 21.749 27.168s7.892-5.608 15.498-11.435c3.844-2.944 26.585-12.337 34.814-22.682 4.074-5.122 6.226-14.733 5.343-19.053-2.903-14.193-8.131-19.793-8.131-19.793-7.671-1.25-21.654 5.628-30.885 13.237-8.135 6.706-13.869 12.446-21.591 18.923-4.416 3.703-16.797 13.635-16.797 13.635zm3.532.388c3.678-2.958 11.546-9.299 14.881-12.096 7.717-6.472 13.446-12.208 21.574-18.909 5.333-4.396 12.31-8.542 18.635-10.893 3.481-1.293 6.736-2.069 9.338-1.904 1.319 1.789 4.809 7.3 6.98 17.916.788 3.856-1.211 12.412-4.847 16.984-3.946 4.96-11.408 9.64-18.308 13.485-7.34 4.09-14.107 7.264-16.067 8.766-5.281 4.045-10.701 7.985-13.496 9.999z" transform="translate(-2.73359 -3.38633)"/><path d="m50.965 148.327c-1.758-9.819-.711-21.595 1.33-26.344 2.379-5.536 6.7-9.271 12.067-8.873 5.368.399 8.541 7.459 8.434 12.84-.228 11.429-1.392 15.94-5.734 22.807 0 0 1.656 5.044 1.344 9.437-.221 3.1-.875 5.849-1.72 7.194 4.763-.818 9.849-1.271 14.091-1.622 2.468-.204 7.269-.309 7.269-.309 14.983 0 14.547-4.238 21.771-4.238 5.927 0 12.725.407 12.649 10.329-.054 7.073-6.722 11.149-12.649 11.149-8.796 0-10.885-5.189-20.763-3.126 0 0-4.794 1.15-7.327 1.45-18.006 2.132-28.047 2.988-30.328-2.119v-.002c-3.389-7.399-3.286-12.095-3.295-15.922-.009-4.011 1.061-10.32 2.861-12.651z" fill="#feefe7" transform="matrix(1.00298 -.0565115 .0565115 1.00298 130.369 -65.0397)"/><path d="m50.965 148.327c-1.758-9.819-.711-21.595 1.33-26.344 2.379-5.536 6.7-9.271 12.067-8.873 5.368.399 8.541 7.459 8.434 12.84-.228 11.429-1.392 15.94-5.734 22.807 0 0 1.656 5.044 1.344 9.437-.221 3.1-.875 5.849-1.72 7.194 4.763-.818 9.849-1.271 14.091-1.622 2.468-.204 7.269-.309 7.269-.309 14.983 0 14.547-4.238 21.771-4.238 5.927 0 12.725.407 12.649 10.329-.054 7.073-6.722 11.149-12.649 11.149-8.796 0-10.885-5.189-20.763-3.126 0 0-4.794 1.15-7.327 1.45-18.006 2.132-28.047 2.988-30.328-2.119v-.002c-3.389-7.399-3.286-12.095-3.295-15.922-.009-4.011 1.061-10.32 2.861-12.651zm2.714 27.558c-.002-.017-.007-.033-.015-.049-.001-.003-.003-.007-.004-.01-3.153-6.899-3.044-11.283-3.053-14.854-.005-2.225.352-5.215.995-7.716.364-1.414.78-2.668 1.344-3.399.432-.559.608-1.275.483-1.971-1.662-9.284-.764-20.424 1.166-24.915 1.92-4.466 5.251-7.686 9.582-7.364 1.444.107 2.607 1.006 3.532 2.188 1.723 2.202 2.638 5.409 2.584 8.105-.215 10.776-1.253 15.045-5.347 21.519-.4.632-.496 1.409-.263 2.119 0 0 1.507 4.531 1.226 8.478-.185 2.594-.636 4.916-1.343 6.041-.525.837-.509 1.904.04 2.724.55.821 1.531 1.242 2.504 1.074 4.69-.806 9.697-1.248 13.873-1.594 2.293-.19 6.641-.291 7.081-.301 9.556-.003 13.208-1.648 16.262-2.945 1.628-.692 3.036-1.293 5.491-1.293 2.938 0 6.187-.103 8.261 1.764 1.265 1.139 1.908 3.043 1.885 6.043-.043 5.597-5.456 8.665-10.146 8.665-4.025 0-6.505-1.235-9.12-2.186-3.218-1.171-6.59-2.05-12.155-.887-.024.005-.048.01-.072.016 0 0-4.604 1.11-7.038 1.398-10.527 1.247-18.259 2.085-23.241 1.45-2.293-.292-3.892-.73-4.506-2.104z" transform="matrix(1.00298 -.0565115 .0565115 1.00298 130.369 -65.0397)"/><g transform="matrix(1.0018 .0745008 -.0745008 1.0018 -73.42 -30.3521)"><path d="m267.027 62.199c1.197-7.341 4.886-10.905 10.905-10.905s10.209 3.746 10.906 10.905c.719 6.171 1 18.779 1 18.779h-23.811s.142-13.518 1-18.779z" fill="#4b6097"/><path d="m289.093 64.857c.531 6.545.745 16.121.745 16.121h-23.811s.142-13.518 1-18.779c1.197-7.341 4.886-10.905 10.905-10.905s10.209 3.746 10.906 10.905c.033.287.066.588.097.901zm-19.431-2.228c.575-3.525 1.723-6.036 3.706-7.422 1.233-.862 2.766-1.243 4.564-1.243 2.25 0 4.178.645 5.589 2.014 1.495 1.451 2.383 3.644 2.659 6.48 0 0 .072.618.006.05.501 4.306.785 11.787.908 15.8h-18.354c.085-4.146.32-11.989.922-15.679z"/></g></g><g fill="#ec3237"><path d="m35.314 198.616v-9.238h31.85v-8.577l26.672 13.196-26.672 13.196v-8.577z" transform="matrix(-.48576045 .48576058 -.48538474 -.48538451 314.172827 305.19631)"/><path d="m35.314 198.616v-9.238h31.85v-8.577l26.672 13.196-26.672 13.196v-8.577z" transform="matrix(.48576045 -.48576058 .48538474 .48538451 63.110873 215.861041)"/></g></g></svg>