<svg clip-rule="evenodd" fill-rule="evenodd" stroke-linecap="round" stroke-linejoin="round" stroke-miterlimit="1.5" viewBox="0 0 569 385" xmlns="http://www.w3.org/2000/svg"><path d="m0 0h569v385h-569z" fill="none"/><g transform="matrix(.51895678125 0 0 .51895678125 1.94741795986 8.76677571816)"><g transform="matrix(1.42379 0 0 1.48228 -229.48237991495 -179.033)"><path d="m170.381 304.335h12.004v72.188h-12.004z" fill="#d2d3d5"/><path d="m182.385 304.335h-12.004v72.188h12.004zm-4.511 4.333v63.522h-2.982c.001 0 .001-63.522.001-63.522z"/></g><g transform="matrix(1.42379 0 0 1.48228 -119.70901807 -179.033)"><path d="m170.381 304.335h12.004v72.188h-12.004z" fill="#d2d3d5"/><path d="m182.385 304.335h-12.004v72.188h12.004zm-4.511 4.333v63.522h-2.982c.001 0 .001-63.522.001-63.522z"/></g><g transform="matrix(1.08231817293 0 0 .64130695972 -84.36058374 76.9048762)"><path d="m167.295 304.335h15.09v72.188h-15.09z" fill="#d2d3d5"/><path d="m182.385 304.335h-15.09v72.188h15.09zm-5.934 10.016v52.156h-3.221v-52.156z"/></g><g transform="matrix(1.08231817293 0 0 .64130695972 -144.37048466 76.9048762)"><path d="m170.381 304.335h15.09v72.188h-15.09z" fill="#d2d3d5"/><path d="m185.471 304.335h-15.09v72.188h15.09zm-5.935 10.016v52.156h-3.22v-52.156z"/></g><g transform="matrix(1.435465078 0 0 .37522732376 -231.3968720195 148.08099724)"><path d="m265.016 295.482-15.988-114.795h-73.139l-11.869 114.795v54.929h100.996z" fill="#f68634"/><path d="m265.016 295.482-15.988-114.795h-73.139l-11.869 114.795v54.929h100.996zm-4.475 4.276v33.535h-92.046v-34.549s10.436-100.939 10.436-100.939h67.411z"/></g><g transform="matrix(1.435465078 0 0 1.5437056832 -231.3968720195 -197.18129518)"><path d="m164.02 295.482h100.996v13.352h-100.996z" fill="#f68634"/><path d="m265.016 295.482h-100.996v13.351h100.996zm-4.475 4.161v5.03h-92.046v-5.03z"/></g><path d="m264.064 257.271s19.409 10.051 26.479 13.315c5.249 2.424 11.37 5.179 14.945 6.57 1.778.692 5.124 1.161 6.976 1.662 2.15.581 4.244 1.629 6.377 3.061 3.027 2.032 7.438 5.891 11.338 8.619 4.685 3.278 11.261 7.875 16.954 11.39 6.922 4.272 17.025 10.695 24.045 14.448 5.618 3.003 12.236 5.742 18.183 8.026 6.077 2.333 12.5 4.559 18.184 6.104 5.179 1.408 11.518 3.151 15.197 4.302 2.478.776 5.589 1.728 7.618 2.527 1.651.651 3.459 1.506 4.948 2.472 1.611 1.044 2.967 2.231 4.504 3.648 1.544 1.423 4.65 4.838 4.65 4.838l5.29 1.73 13.5-19.846-1.025-5.286s-6.043-2.306-8.219-3.412c-2.764-1.406-7.188-2.56-10.664-4.121-3.717-1.67-7.801-3.846-11.636-5.895-4.019-2.146-8.556-4.273-12.475-6.984-4.205-2.91-9.269-7.429-12.756-10.471-2.833-2.471-5.44-5.19-8.164-7.78-3.098-2.946-6.808-6.307-9.589-8.433-1.826-1.394-5.5-2.994-7.739-3.508-2.497-.574-5.394-1.423-8.227-2.087-3.15-.738-7.101-2.603-10.242-4.211-3.092-1.584-5.349-3.049-7.878-5.431-2.719-2.562-5.77-6.133-8.228-8.882-2.203-2.462-4.57-4.789-7.094-6.922-3.245-2.742-8.22-6.392-12.374-9.529-4.592-3.468-10.362-7.214-15.18-11.279-4.927-4.157-14.38-13.663-14.38-13.663l-4.031-4.752-24.75 9.081-22.272 15.761 13.692 22.721z" fill="#feefe7"/><path d="m264.064 257.271s19.409 10.051 26.479 13.315c5.249 2.424 11.37 5.179 14.945 6.57 1.778.692 5.124 1.161 6.976 1.662 2.15.581 4.244 1.629 6.377 3.061 3.027 2.032 7.438 5.891 11.338 8.619 4.685 3.278 11.261 7.875 16.954 11.39 6.922 4.272 17.025 10.695 24.045 14.448 5.618 3.003 12.236 5.742 18.183 8.026 6.077 2.333 12.5 4.559 18.184 6.104 5.179 1.408 11.518 3.151 15.197 4.302 2.478.776 5.589 1.728 7.618 2.527 1.651.651 3.459 1.506 4.948 2.472 1.611 1.044 2.967 2.231 4.504 3.648 1.544 1.423 4.65 4.838 4.65 4.838l5.29 1.73 13.5-19.846-1.025-5.286s-6.043-2.306-8.219-3.412c-2.764-1.406-7.188-2.56-10.664-4.121-3.717-1.67-7.801-3.846-11.636-5.895-4.019-2.146-8.556-4.273-12.475-6.984-4.205-2.91-9.269-7.429-12.756-10.471-2.833-2.471-5.44-5.19-8.164-7.78-3.098-2.946-6.808-6.307-9.589-8.433-1.826-1.394-5.5-2.994-7.739-3.508-2.497-.574-5.394-1.423-8.227-2.087-3.15-.738-7.101-2.603-10.242-4.211-3.092-1.584-5.349-3.049-7.878-5.431-2.719-2.562-5.77-6.133-8.228-8.882-2.203-2.462-4.57-4.789-7.094-6.922-3.245-2.742-8.22-6.392-12.374-9.529-4.592-3.468-10.362-7.214-15.18-11.279-4.927-4.157-14.38-13.663-14.38-13.663l-4.031-4.752-24.75 9.081-22.272 15.761 13.692 22.721zm191.981 72.041-8.628 12.685c-1.072-1.14-2.388-2.509-3.251-3.305-1.825-1.682-3.451-3.075-5.364-4.315-1.834-1.189-4.054-2.257-6.088-3.058-2.146-.845-5.433-1.861-8.054-2.681-3.736-1.169-10.171-2.94-15.429-4.37-5.492-1.493-11.696-3.648-17.568-5.903-5.708-2.191-12.065-4.811-17.456-7.693-6.921-3.7-16.876-10.038-23.7-14.25-5.591-3.451-12.045-7.968-16.646-11.187-3.934-2.752-8.386-6.639-11.439-8.689-2.764-1.855-5.495-3.176-8.282-3.929-1.675-.452-4.714-.821-6.322-1.447-3.489-1.357-9.46-4.05-14.583-6.415-6.753-3.119-24.877-12.494-26.147-13.151l-2.46-1.349c.001 0-9.718-16.126-9.718-16.126s16.705-11.821 16.705-11.821 19.739-7.242 19.739-7.242 1.13 1.332 1.13 1.332c.109.129.224.254.344.374 0 0 9.726 9.769 14.792 14.043 4.906 4.14 10.775 7.964 15.451 11.496 4.061 3.067 8.928 6.629 12.099 9.309 2.296 1.94 4.449 4.058 6.452 6.299 2.57 2.873 5.769 6.596 8.612 9.274 3.006 2.832 5.678 4.59 9.354 6.473 3.583 1.834 8.112 3.906 11.704 4.748 2.843.666 5.75 1.518 8.256 2.093 1.522.349 4.035 1.404 5.276 2.352 2.631 2.01 6.133 5.197 9.062 7.983 2.791 2.654 5.466 5.435 8.368 7.967 3.639 3.174 8.936 7.876 13.325 10.912 4.12 2.851 8.877 5.111 13.102 7.368 3.965 2.117 8.189 4.362 12.031 6.088 3.383 1.519 7.696 2.62 10.385 3.987 1.1.56 3.117 1.407 4.948 2.148z"/><path d="m443.835 347.289c.707 1.297 2.717 3.564 4.356 5.076 2.024 1.868 6.01 4.261 7.787 6.133 1.343 1.416 1.776 3.487 2.873 5.1 1.263 1.857 3.122 4.606 4.706 6.043 1.345 1.221 3.038 2.135 4.798 2.583 1.964.498 4.936.674 6.981.41 1.868-.241 3.731-.934 5.289-1.993 1.919-1.304 4.316-3.723 6.225-5.83 2.312-2.552 6.138-7.182 7.652-9.485.835-1.272 1.317-2.818 1.429-4.335.122-1.641-.17-4.069-.701-5.512-.461-1.254-1.379-2.394-2.482-3.148-1.604-1.097-4.792-2.226-7.143-3.43-2.601-1.333-5.684-2.969-8.464-4.565-3.002-1.723-7.209-4.218-9.546-5.773-1.586-1.056-3.167-3.049-4.473-3.557l-2.668-.843s-1.761 1.534-2.186 2.665c-.218.577-.731 2.111-1.236 2.466-.516.363-1.786-.043-2.475.433-1.122.773-3.103 2.806-4.256 4.205-1.052 1.277-2.19 2.766-2.662 4.189-.457 1.378.059 3.331-.171 4.35-.157.695-.621 1.412-1.207 1.765-.586.352-2.128.971-2.532 1.48-.405.509-.326.781.106 1.573z" fill="#4b4b4d"/><path d="m443.835 347.289c.707 1.297 2.717 3.564 4.356 5.076 2.024 1.868 6.01 4.261 7.787 6.133 1.343 1.416 1.776 3.487 2.873 5.1 1.263 1.857 3.122 4.606 4.706 6.043 1.345 1.221 3.038 2.135 4.798 2.583 1.964.498 4.936.674 6.981.41 1.868-.241 3.731-.934 5.289-1.993 1.919-1.304 4.316-3.723 6.225-5.83 2.312-2.552 6.138-7.182 7.652-9.485.835-1.272 1.317-2.818 1.429-4.335.122-1.641-.17-4.069-.701-5.512-.461-1.254-1.379-2.394-2.482-3.148-1.604-1.097-4.792-2.226-7.143-3.43-2.601-1.333-5.684-2.969-8.464-4.565-3.002-1.723-7.209-4.218-9.546-5.773-1.586-1.056-3.167-3.049-4.473-3.557l-2.668-.843s-1.761 1.534-2.186 2.665c-.218.577-.731 2.111-1.236 2.466-.516.363-1.786-.043-2.475.433-1.122.773-3.103 2.806-4.256 4.205-1.052 1.277-2.19 2.766-2.662 4.189-.457 1.378.059 3.331-.171 4.35-.157.695-.621 1.412-1.207 1.765-.586.352-2.128.971-2.532 1.48-.405.509-.326.781.106 1.573zm18.239-17.045c.837.749 2.046 1.793 2.852 2.329 2.403 1.599 6.729 4.168 9.816 5.941 2.847 1.634 6.003 3.31 8.667 4.675 2.171 1.112 5.139 2.106 6.621 3.119.295.202.555.497.678.833.337.914.496 2.455.419 3.494-.053.714-.258 1.447-.651 2.045-1.421 2.163-5.025 6.5-7.196 8.897-1.653 1.824-3.7 3.95-5.362 5.079-.942.64-2.069 1.055-3.198 1.201-1.517.195-3.722.068-5.178-.302-1.008-.257-1.977-.782-2.748-1.481-1.349-1.225-2.883-3.603-3.959-5.185-.534-.784-.838-1.719-1.259-2.575-.563-1.145-1.231-2.213-2.104-3.132-1.833-1.932-5.925-4.429-8.014-6.357-.466-.43-.978-.933-1.467-1.447 1.048-1.036 1.86-2.443 2.177-3.848.146-.65.205-1.476.165-2.397l-.064-1.654c.342-.863 1.11-1.707 1.75-2.483.728-.885 1.859-2.118 2.727-2.868 1.006-.179 2.493-.497 3.055-.892.495-.348 1.05-.873 1.536-1.6.253-.378.509-.884.737-1.392z"/><path d="m458.798 325.922c-.229.306-.422.619-.53.906-.218.577-.731 2.111-1.236 2.466-.516.363-1.786-.043-2.475.433-1.122.773-3.103 2.806-4.256 4.205-1.052 1.277-2.19 2.766-2.662 4.189-.457 1.378.059 3.331-.171 4.35-.082.366-.25.737-.475 1.058 0 0 3.001.339 4.268 1.079 3.827 2.233 15.016 10.283 18.689 12.319.977.541 2.452.558 3.351-.106 1.566-1.157 4.936-5.248 6.05-6.838.53-.757 1.002-1.801.966-2.696s-.519-2.017-1.181-2.674c-1.45-1.438-5.561-3.496-8.229-5.411-2.902-2.083-7.105-4.964-9.187-7.087-1.598-1.63-2.922-6.193-2.922-6.193z" fill="#aaabaf"/><path d="m458.798 325.922c-.229.306-.422.619-.53.906-.218.577-.731 2.111-1.236 2.466-.516.363-1.786-.043-2.475.433-1.122.773-3.103 2.806-4.256 4.205-1.052 1.277-2.19 2.766-2.662 4.189-.457 1.378.059 3.331-.171 4.35-.082.366-.25.737-.475 1.058 0 0 3.001.339 4.268 1.079 3.827 2.233 15.016 10.283 18.689 12.319.977.541 2.452.558 3.351-.106 1.566-1.157 4.936-5.248 6.05-6.838.53-.757 1.002-1.801.966-2.696s-.519-2.017-1.181-2.674c-1.45-1.438-5.561-3.496-8.229-5.411-2.902-2.083-7.105-4.964-9.187-7.087-1.598-1.63-2.922-6.193-2.922-6.193zm-1.996 8.197.384-.074c.352.564.721 1.062 1.095 1.443 2.231 2.275 6.708 5.396 9.818 7.628 2.171 1.558 5.417 3.16 7.071 4.428-.861 1.182-2.572 3.324-3.845 4.605-4.352-2.651-14.118-9.649-17.635-11.702-.382-.223-.871-.426-1.407-.608l-.014-.36c.342-.863 1.11-1.707 1.75-2.483.728-.885 1.859-2.118 2.727-2.868z"/><path d="m489.333 340.602s-.151 6.277-.823 8.323c-.452 1.378-2.023 2.965-2.876 3.606-.641.483-2.195 1.019-3.495 2.103-1.179.984-2.45 2.601-3.174 4.021-.412.809-.869 3.129-1.517 3.765-2.074 2.037-11.33 8.967-11.33 8.967.717.359 1.471.642 2.237.837 1.964.498 4.936.674 6.981.41 1.868-.241 3.731-.934 5.289-1.993 1.919-1.304 4.316-3.723 6.225-5.83 2.312-2.552 6.138-7.182 7.652-9.485.835-1.272 1.317-2.818 1.429-4.335.122-1.641-.17-4.069-.701-5.512-.461-1.254-1.379-2.394-2.482-3.148-.828-.566-2.077-1.14-3.415-1.729z" fill="#aaabaf"/><path d="m489.333 340.602s-.151 6.277-.823 8.323c-.452 1.378-2.023 2.965-2.876 3.606-.641.483-2.195 1.019-3.495 2.103-1.179.984-2.45 2.601-3.174 4.021-.412.809-.869 3.129-1.517 3.765-2.074 2.037-11.33 8.967-11.33 8.967.717.359 1.471.642 2.237.837 1.964.498 4.936.674 6.981.41 1.868-.241 3.731-.934 5.289-1.993 1.919-1.304 4.316-3.723 6.225-5.83 2.312-2.552 6.138-7.182 7.652-9.485.835-1.272 1.317-2.818 1.429-4.335.122-1.641-.17-4.069-.701-5.512-.461-1.254-1.379-2.394-2.482-3.148-.828-.566-2.077-1.14-3.415-1.729z"/><g transform="matrix(.731823 .681495 .681495 -.731823 -50.2209 144.596)"><path d="m268.703 260.407s14.77 6.915 21.84 10.179c5.249 2.424 11.37 5.179 14.945 6.57 1.778.692 5.124 1.161 6.976 1.662 2.15.581 4.244 1.629 6.377 3.061 3.027 2.032 7.438 5.891 11.338 8.619 4.685 3.278 11.261 7.875 16.954 11.39 6.922 4.272 17.025 10.695 24.045 14.448 5.618 3.003 12.236 5.742 18.183 8.026 6.077 2.333 12.5 4.559 18.184 6.104 5.179 1.408 11.518 3.151 15.197 4.302 2.478.776 5.589 1.728 7.618 2.527 1.651.651 3.459 1.506 4.948 2.472 1.611 1.044 2.967 2.231 4.504 3.648 1.544 1.423 4.65 4.838 4.65 4.838l5.29 1.73 13.5-19.846-1.025-5.286s-6.043-2.306-8.219-3.412c-2.764-1.406-7.188-2.56-10.664-4.121-3.717-1.67-7.801-3.846-11.636-5.895-4.019-2.146-8.556-4.273-12.475-6.984-4.205-2.91-9.269-7.429-12.756-10.471-2.833-2.471-5.44-5.19-8.164-7.78-3.098-2.946-6.808-6.307-9.589-8.433-1.826-1.394-5.5-2.994-7.739-3.508-2.497-.574-5.394-1.423-8.227-2.087-3.15-.738-7.101-2.603-10.242-4.211-3.092-1.584-5.349-3.049-7.878-5.431-2.719-2.562-5.77-6.133-8.228-8.882-2.203-2.462-4.57-4.789-7.094-6.922-3.245-2.742-8.22-6.392-12.374-9.529-4.592-3.468-9.888-7.815-14.706-11.881-4.927-4.157-13.419-12.496-13.419-12.496l-5.773-4.682-24.443 8.446-10.073 30.224 5.926 11.173z" fill="#feefe7"/><path d="m268.703 260.407s14.77 6.915 21.84 10.179c5.249 2.424 11.37 5.179 14.945 6.57 1.778.692 5.124 1.161 6.976 1.662 2.15.581 4.244 1.629 6.377 3.061 3.027 2.032 7.438 5.891 11.338 8.619 4.685 3.278 11.261 7.875 16.954 11.39 6.922 4.272 17.025 10.695 24.045 14.448 5.618 3.003 12.236 5.742 18.183 8.026 6.077 2.333 12.5 4.559 18.184 6.104 5.179 1.408 11.518 3.151 15.197 4.302 2.478.776 5.589 1.728 7.618 2.527 1.651.651 3.459 1.506 4.948 2.472 1.611 1.044 2.967 2.231 4.504 3.648 1.544 1.423 4.65 4.838 4.65 4.838l5.29 1.73 13.5-19.846-1.025-5.286s-6.043-2.306-8.219-3.412c-2.764-1.406-7.188-2.56-10.664-4.121-3.717-1.67-7.801-3.846-11.636-5.895-4.019-2.146-8.556-4.273-12.475-6.984-4.205-2.91-9.269-7.429-12.756-10.471-2.833-2.471-5.44-5.19-8.164-7.78-3.098-2.946-6.808-6.307-9.589-8.433-1.826-1.394-5.5-2.994-7.739-3.508-2.497-.574-5.394-1.423-8.227-2.087-3.15-.738-7.101-2.603-10.242-4.211-3.092-1.584-5.349-3.049-7.878-5.431-2.719-2.562-5.77-6.133-8.228-8.882-2.203-2.462-4.57-4.789-7.094-6.922-3.245-2.742-8.22-6.392-12.374-9.529-4.592-3.468-9.888-7.815-14.706-11.881-4.927-4.157-13.419-12.496-13.419-12.496l-5.773-4.682-24.443 8.446-10.073 30.224 5.926 11.173zm178.714 81.59 8.628-12.685c-1.831-.741-3.848-1.588-4.948-2.148-2.689-1.367-7.002-2.468-10.385-3.987-3.842-1.726-8.066-3.971-12.031-6.088-4.225-2.257-8.982-4.517-13.102-7.368-4.389-3.036-9.686-7.738-13.325-10.912-2.902-2.532-5.577-5.313-8.368-7.967-2.929-2.786-6.431-5.973-9.062-7.983-1.241-.948-3.754-2.003-5.276-2.352-2.506-.575-5.413-1.427-8.256-2.093-3.592-.842-8.121-2.914-11.704-4.748-3.676-1.883-6.348-3.641-9.354-6.473-2.843-2.678-6.042-6.401-8.612-9.274-2.003-2.241-4.156-4.359-6.452-6.299-3.171-2.68-8.038-6.242-12.099-9.309-4.677-3.532-10.071-7.958-14.977-12.098-4.583-3.866-12.173-11.254-13.557-12.606.003.002-2.768-2.245-2.768-2.245s-18.076 6.247-18.076 6.247-8.202 24.608-8.202 24.608 3.768 7.104 3.768 7.104l2.408 1.382c1.938.906 15.041 7.038 21.568 10.052 5.123 2.365 11.094 5.058 14.583 6.415 1.608.626 4.647.995 6.322 1.447 2.787.753 5.518 2.074 8.282 3.929 3.053 2.05 7.505 5.937 11.439 8.689 4.601 3.219 11.055 7.736 16.646 11.187 6.824 4.212 16.779 10.55 23.7 14.25 5.391 2.882 11.748 5.502 17.456 7.693 5.872 2.255 12.076 4.41 17.568 5.903 5.258 1.43 11.693 3.201 15.429 4.37 2.621.82 5.908 1.836 8.054 2.681 2.034.801 4.254 1.869 6.088 3.058 1.913 1.24 3.539 2.633 5.364 4.315.863.796 2.179 2.165 3.251 3.305z"/><path d="m443.835 347.289c.707 1.297 2.717 3.564 4.356 5.076 2.024 1.868 6.01 4.261 7.787 6.133 1.343 1.416 1.776 3.487 2.873 5.1 1.263 1.857 3.122 4.606 4.706 6.043 1.345 1.221 3.038 2.135 4.798 2.583 1.964.498 4.936.674 6.981.41 1.868-.241 3.731-.934 5.289-1.993 1.919-1.304 4.316-3.723 6.225-5.83 2.312-2.552 6.138-7.182 7.652-9.485.835-1.272 1.317-2.818 1.429-4.335.122-1.641-.17-4.069-.701-5.512-.461-1.254-1.379-2.394-2.482-3.148-1.604-1.097-4.792-2.226-7.143-3.43-2.601-1.333-5.684-2.969-8.464-4.565-3.002-1.723-7.209-4.218-9.546-5.773-1.586-1.056-3.167-3.049-4.473-3.557l-2.668-.843s-1.761 1.534-2.186 2.665c-.218.577-.731 2.111-1.236 2.466-.516.363-1.786-.043-2.475.433-1.122.773-3.103 2.806-4.256 4.205-1.052 1.277-2.19 2.766-2.662 4.189-.457 1.378.059 3.331-.171 4.35-.157.695-.621 1.412-1.207 1.765-.586.352-2.128.971-2.532 1.48-.405.509-.326.781.106 1.573z" fill="#4b4b4d"/><path d="m443.835 347.289c.707 1.297 2.717 3.564 4.356 5.076 2.024 1.868 6.01 4.261 7.787 6.133 1.343 1.416 1.776 3.487 2.873 5.1 1.263 1.857 3.122 4.606 4.706 6.043 1.345 1.221 3.038 2.135 4.798 2.583 1.964.498 4.936.674 6.981.41 1.868-.241 3.731-.934 5.289-1.993 1.919-1.304 4.316-3.723 6.225-5.83 2.312-2.552 6.138-7.182 7.652-9.485.835-1.272 1.317-2.818 1.429-4.335.122-1.641-.17-4.069-.701-5.512-.461-1.254-1.379-2.394-2.482-3.148-1.604-1.097-4.792-2.226-7.143-3.43-2.601-1.333-5.684-2.969-8.464-4.565-3.002-1.723-7.209-4.218-9.546-5.773-1.586-1.056-3.167-3.049-4.473-3.557l-2.668-.843s-1.761 1.534-2.186 2.665c-.218.577-.731 2.111-1.236 2.466-.516.363-1.786-.043-2.475.433-1.122.773-3.103 2.806-4.256 4.205-1.052 1.277-2.19 2.766-2.662 4.189-.457 1.378.059 3.331-.171 4.35-.157.695-.621 1.412-1.207 1.765-.586.352-2.128.971-2.532 1.48-.405.509-.326.781.106 1.573zm18.239-17.045c-.228.508-.484 1.014-.737 1.392-.486.727-1.041 1.252-1.536 1.6-.562.395-2.049.713-3.055.892-.868.75-1.999 1.983-2.727 2.868-.64.776-1.408 1.62-1.75 2.483l.064 1.654c.04.921-.019 1.747-.165 2.397-.317 1.405-1.129 2.812-2.177 3.848.489.514 1.001 1.017 1.467 1.447 2.089 1.928 6.181 4.425 8.014 6.357.873.919 1.541 1.987 2.104 3.132.421.856.725 1.791 1.259 2.575 1.076 1.582 2.61 3.96 3.959 5.185.771.699 1.74 1.224 2.748 1.481 1.456.37 3.661.497 5.178.302 1.129-.146 2.256-.561 3.198-1.201 1.662-1.129 3.709-3.255 5.362-5.079 2.171-2.397 5.775-6.734 7.196-8.897.393-.598.598-1.331.651-2.045.077-1.039-.082-2.58-.419-3.494-.123-.336-.383-.631-.678-.833-1.482-1.013-4.45-2.007-6.621-3.119-2.664-1.365-5.82-3.041-8.667-4.675-3.087-1.773-7.413-4.342-9.816-5.941-.806-.536-2.015-1.58-2.852-2.329z"/><path d="m458.798 325.922c-.229.306-.422.619-.53.906-.218.577-.731 2.111-1.236 2.466-.516.363-1.786-.043-2.475.433-1.122.773-3.103 2.806-4.256 4.205-1.052 1.277-2.19 2.766-2.662 4.189-.457 1.378.059 3.331-.171 4.35-.082.366-.25.737-.475 1.058 0 0 3.001.339 4.268 1.079 3.827 2.233 15.016 10.283 18.689 12.319.977.541 2.452.558 3.351-.106 1.566-1.157 4.936-5.248 6.05-6.838.53-.757 1.002-1.801.966-2.696s-.519-2.017-1.181-2.674c-1.45-1.438-5.179-4.042-7.847-5.956-2.902-2.083-7.487-4.419-9.569-6.542-1.598-1.63-2.922-6.193-2.922-6.193z" fill="#aaabaf"/><path d="m458.798 325.922c-.229.306-.422.619-.53.906-.218.577-.731 2.111-1.236 2.466-.516.363-1.786-.043-2.475.433-1.122.773-3.103 2.806-4.256 4.205-1.052 1.277-2.19 2.766-2.662 4.189-.457 1.378.059 3.331-.171 4.35-.082.366-.25.737-.475 1.058 0 0 3.001.339 4.268 1.079 3.827 2.233 15.016 10.283 18.689 12.319.977.541 2.452.558 3.351-.106 1.566-1.157 4.936-5.248 6.05-6.838.53-.757 1.002-1.801.966-2.696s-.519-2.017-1.181-2.674c-1.45-1.438-5.179-4.042-7.847-5.956-2.902-2.083-7.487-4.419-9.569-6.542-1.598-1.63-2.922-6.193-2.922-6.193zm-6.515 13.917c.536.182 1.025.385 1.407.608 3.517 2.053 13.283 9.051 17.635 11.702 1.281-1.289 3.004-3.449 3.86-4.626-1.583-1.368-4.534-3.395-6.704-4.952-3.11-2.232-7.97-4.809-10.2-7.083-.374-.381-.743-.879-1.095-1.443l-.44.083c-.868.75-1.999 1.983-2.727 2.868-.64.776-1.408 1.62-1.75 2.483z"/><path d="m489.333 340.602s-.151 6.277-.823 8.323c-.452 1.378-2.023 2.965-2.876 3.606-.641.483-2.195 1.019-3.495 2.103-1.179.984-2.45 2.601-3.174 4.021-.412.809-.869 3.129-1.517 3.765-2.074 2.037-11.33 8.967-11.33 8.967.717.359 1.471.642 2.237.837 1.964.498 4.936.674 6.981.41 1.868-.241 3.731-.934 5.289-1.993 1.919-1.304 4.316-3.723 6.225-5.83 2.312-2.552 6.138-7.182 7.652-9.485.835-1.272 1.317-2.818 1.429-4.335.122-1.641-.17-4.069-.701-5.512-.461-1.254-1.379-2.394-2.482-3.148-.828-.566-2.077-1.14-3.415-1.729z" fill="#aaabaf"/><path d="m489.333 340.602s-.151 6.277-.823 8.323c-.452 1.378-2.023 2.965-2.876 3.606-.641.483-2.195 1.019-3.495 2.103-1.179.984-2.45 2.601-3.174 4.021-.412.809-.869 3.129-1.517 3.765-2.074 2.037-11.33 8.967-11.33 8.967.717.359 1.471.642 2.237.837 1.964.498 4.936.674 6.981.41 1.868-.241 3.731-.934 5.289-1.993 1.919-1.304 4.316-3.723 6.225-5.83 2.312-2.552 6.138-7.182 7.652-9.485.835-1.272 1.317-2.818 1.429-4.335.122-1.641-.17-4.069-.701-5.512-.461-1.254-1.379-2.394-2.482-3.148-.828-.566-2.077-1.14-3.415-1.729z"/></g><path d="m193.168 200.154s20.072 23.452 31.888 32.972c11.816 9.519 39.008 24.145 39.008 24.145s.063-8.054 2.257-13.201c2.019-4.734 6.226-10.842 9.785-14.961 2.818-3.262 7.523-8.203 11.528-10.999 3.474-2.424 9.748-5.867 9.748-5.867s-15.184-18.903-18.221-23.051c-.516-.705-.4-1.174 0-1.835.401-.66.808-.449 1.641-.311 2.702.446 10.319 2.762 15.078 3.841 12.011 2.722 17.608 1.613 17.608 1.613s-1.588-7.515-1.606-11.386c-.021-4.523.458-11.021 1.481-15.754.934-4.321 2.545-9.205 4.09-13.347 1.754-4.702 6.435-14.87 6.435-14.87s-16.946-3.986-24.608-5.497c-7.083-1.396-14.302-2.789-21.363-3.565-6.97-.766-16.179-1.067-20.871-1.768-2.571-.384-7.281-2.438-7.281-2.438l-24.625 33.142-25.202 30.029z" fill="#aaabaf"/><path d="m193.168 200.154s20.072 23.452 31.888 32.972c11.816 9.519 39.008 24.145 39.008 24.145s.063-8.054 2.257-13.201c2.019-4.734 6.226-10.842 9.785-14.961 2.818-3.262 7.523-8.203 11.528-10.999 3.474-2.424 9.748-5.867 9.748-5.867s-15.184-18.903-18.221-23.051c-.516-.705-.4-1.174 0-1.835.401-.66.808-.449 1.641-.311 2.702.446 10.319 2.762 15.078 3.841 12.011 2.722 17.608 1.613 17.608 1.613s-1.588-7.515-1.606-11.386c-.021-4.523.458-11.021 1.481-15.754.934-4.321 2.545-9.205 4.09-13.347 1.754-4.702 6.435-14.87 6.435-14.87s-16.946-3.986-24.608-5.497c-7.083-1.396-14.302-2.789-21.363-3.565-6.97-.766-16.179-1.067-20.871-1.768-2.571-.384-7.281-2.438-7.281-2.438l-24.625 33.142-25.202 30.029zm7.705-.921 4.444-8.605s24.743-29.482 24.743-29.482c.082-.097.161-.196.236-.298l21.741-29.262c1.432.479 2.92.91 4.059 1.08 4.748.709 14.067 1.025 21.119 1.8 6.883.756 13.918 2.121 20.823 3.482 4.238.835 11.343 2.436 16.793 3.687-1.273 2.896-2.615 6.041-3.396 8.134-1.647 4.416-3.354 9.626-4.35 14.233-1.113 5.151-1.649 12.22-1.626 17.142.006 1.368.184 3.144.424 4.933-2.24-.228-5.091-.663-8.583-1.454-4.875-1.106-12.682-3.457-15.45-3.915-2.404-.397-3.929-.114-5.205.528-1.01.509-2.064 1.285-2.978 2.794-1.122 1.854-1.412 3.483-1.226 5.123.131 1.161.513 2.434 1.538 3.834 1.963 2.681 8.949 11.467 13.725 17.444-1.342.818-2.67 1.662-3.746 2.412-4.406 3.076-9.612 8.478-12.712 12.066-3.954 4.576-8.591 11.383-10.833 16.642-.705 1.654-1.232 3.559-1.624 5.459-8.772-4.96-22.321-12.939-29.703-18.886-8.832-7.116-22.384-22.238-28.213-28.89z"/><path d="m72.713 167.875s-.656 5.625-.778 8.025c-.078 1.524-.607 5.478-.826 6.988-.358 2.47-.674 6.232-1.479 9.612-.853 3.583-2.809 7.93-3.64 11.13-.681 2.622-1.157 6.183-1.267 8.889-.119 2.971-.075 6.165.548 8.937.563 2.509 2.34 5.198 3.499 6.875.89 1.289 3.181 3.965 3.181 3.965s-1.098 3.516-1.509 5.617c-.354 1.815-.175 4.529.667 6.175.902 1.763 2.749 3.227 5.014 4.259 2.757 1.256 7.482 2.12 11.021 2.501 3.386.365 8.089.419 10.215-.213 1.402-.418 2.232-2.151 2.537-3.582.509-2.393.612-7.796.258-10.445-.255-1.903-1.312-3.936-2.383-5.446-1.054-1.486-3.627-4.298-3.627-4.298s1.393-2.358 1.766-3.853c.509-2.042 1-5.34 1.136-8.045.176-3.492-.57-9.071-.08-12.907.447-3.49 2.141-6.708 3.025-10.114.937-3.608 2.594-11.536 2.594-11.536l2.552-14.21-24.113-4.648z" fill="#feefe7"/><path d="m72.713 167.875s-.656 5.625-.778 8.025c-.078 1.524-.607 5.478-.826 6.988-.358 2.47-.674 6.232-1.479 9.612-.853 3.583-2.809 7.93-3.64 11.13-.681 2.622-1.157 6.183-1.267 8.889-.119 2.971-.075 6.165.548 8.937.563 2.509 2.34 5.198 3.499 6.875.89 1.289 3.181 3.965 3.181 3.965s-1.098 3.516-1.509 5.617c-.354 1.815-.175 4.529.667 6.175.902 1.763 2.749 3.227 5.014 4.259 2.757 1.256 7.482 2.12 11.021 2.501 3.386.365 8.089.419 10.215-.213 1.402-.418 2.232-2.151 2.537-3.582.509-2.393.612-7.796.258-10.445-.255-1.903-1.312-3.936-2.383-5.446-1.054-1.486-3.627-4.298-3.627-4.298s1.393-2.358 1.766-3.853c.509-2.042 1-5.34 1.136-8.045.176-3.492-.57-9.071-.08-12.907.447-3.49 2.141-6.708 3.025-10.114.937-3.608 2.594-11.536 2.594-11.536l2.552-14.21-24.113-4.648zm21.056 76.854c-1.768.098-4.108-.07-5.937-.267-2.899-.313-6.789-.932-9.047-1.96-.816-.372-1.632-.703-1.957-1.339-.274-.535-.197-1.428-.082-2.018.361-1.846 1.336-4.933 1.336-4.933.66-2.111.187-4.413-1.251-6.093 0 0-2.002-2.318-2.776-3.438-.792-1.146-2.132-2.918-2.517-4.632-.506-2.254-.494-4.855-.397-7.271.093-2.293.489-5.312 1.066-7.533.84-3.236 2.808-7.635 3.671-11.257.853-3.58 1.209-7.562 1.588-10.179.237-1.638.8-5.929.884-7.583.061-1.196.263-3.237.441-4.904l3.837-2.92s15.066 2.903 15.066 2.903-1.415 7.877-1.415 7.877c-.18.86-1.65 7.855-2.505 11.15-.952 3.667-2.698 7.154-3.179 10.912-.509 3.982.219 9.773.036 13.398-.115 2.291-.522 5.085-.953 6.814-.211.843-1.064 2.141-1.064 2.141-1.437 2.433-1.116 5.519.792 7.603 0 0 2.221 2.402 3.125 3.677.518.73 1.133 1.663 1.256 2.582.239 1.783.237 5.144-.018 7.27z"/><g fill="none" stroke="#000"><path d="m97.131 248.525s-3.194-1.58-3.528-3.268-.074-4.767-.074-4.767" stroke-width="4.82" transform="translate(-4.13057 -.783898)"/><path d="m92.88 227.963-3.751-3.647" stroke-width="3.32" transform="matrix(1.23099 .224567 .224567 1.21833 -74.5926 -69.2983)"/><path d="m95.29 202.059s-4.354-3.287-11.253-4.995" stroke-width="5.27" transform="matrix(.924175 0 0 .904665 6.37213 18.7871)"/></g><path d="m116.127 74.395 10.367-13.215s7.535-6.912 11.141-9.796c4.298-3.439 11.118-8.479 14.814-10.891 2.038-1.331 5.044-2.887 7.419-3.42 3.129-.702 6.269-.533 9.048.225 3.751 1.023 7.648 3.357 11.358 5.339 2.965 1.585 7.639 4.846 10.393 6.773 4.819 3.372 12.569 10.22 20.771 18.792 0 0-12.757 3.724-18.27 8.025-6.332 4.939-7.271 7.99-7.271 7.99s4.955 4.869 8.967 7.855c4.129 3.072 8.708 6.115 13.342 8.709 6.269 3.508 16.787 8.816 24.271 12.342 6.765 3.188 23.751 13.031 23.751 13.031s-12.962 16.823-30.841 40.868c-15.947 21.446-28.574 37.313-28.574 37.313s-19.23-20.659-28.95-28.252c-9.721-7.594-21.901-13.852-32.046-18.479-3.908-1.783-11.574-3.588-16.699-5.631-7.435-2.963-12.002-5.437-12.002-5.437s-.626 3.491-.762 5.437c-.248 3.543-.425 10.762-.907 15.607-.456 4.572-2.862 12.829-2.862 12.829s-12.191-5.822-17.472-7.281c-6.381-1.764-12.741-2.165-12.741-2.165s.757-12.222 1.25-18.368c.566-7.041.427-18.741.877-23.919.214-2.449.767-4.928 1.827-7.147 1.45-3.036 3.853-7.139 5.818-9.8 1.374-1.862 4.249-5.886 5.228-7.983 2.964-6.346 13.146-18.944 13.146-18.944z" fill="#4b6097"/><path d="m190.61 88.578c1.368 1.205 2.867 2.462 4.254 3.494 4.129 3.072 8.708 6.115 13.342 8.709 6.269 3.508 16.787 8.816 24.271 12.342 6.765 3.188 23.751 13.031 23.751 13.031s-12.962 16.823-30.841 40.868c-15.947 21.446-28.574 37.313-28.574 37.313s-19.23-20.659-28.95-28.252c-9.721-7.594-21.901-13.852-32.046-18.479-3.908-1.783-11.574-3.588-16.699-5.631-7.435-2.963-12.002-5.437-12.002-5.437s-.626 3.491-.762 5.437c-.248 3.543-.425 10.762-.907 15.607-.456 4.572-2.862 12.829-2.862 12.829s-12.191-5.822-17.472-7.281c-6.381-1.764-12.741-2.165-12.741-2.165s.757-12.222 1.25-18.368c.566-7.041.427-18.741.877-23.919.214-2.449.767-4.928 1.827-7.147 1.45-3.036 3.853-7.139 5.818-9.8 1.374-1.862 4.249-5.886 5.228-7.983 2.964-6.346 13.146-18.944 13.146-18.944l15.609-10.407 10.367-13.215s7.535-6.912 11.141-9.796c4.298-3.439 11.118-8.479 14.814-10.891 2.038-1.331 5.044-2.887 7.419-3.42 3.129-.702 6.269-.533 9.048.225 3.751 1.023 7.648 3.357 11.358 5.339 2.965 1.585 7.639 4.846 10.393 6.773 4.819 3.372 12.569 10.22 20.771 18.792 0 0-12.757 3.724-18.27 8.025-6.332 4.939-7.271 7.99-7.271 7.99s1.675 1.646 3.868 3.608l-3.868 2.815c1.824 0 3.521-.771 4.713-2.062zm-70.92-8.839c.567-.378 1.07-.844 1.491-1.38l10.04-12.799c1.558-1.423 7.408-6.746 10.426-9.161 4.154-3.322 10.741-8.197 14.312-10.527 1.469-.959 3.604-2.148 5.315-2.532 2.058-.461 4.124-.344 5.952.155 3.321.906 6.735 3.052 10.021 4.808 2.782 1.486 7.154 4.562 9.738 6.37 3.184 2.227 7.696 6.056 12.768 10.914-3.828 1.571-7.91 3.527-10.536 5.575-8.577 6.69-9.459 11.167-9.459 11.167-.705 2.293-.074 4.788 1.637 6.47 0 0 5.327 5.22 9.635 8.426 4.343 3.232 9.163 6.432 14.039 9.161 6.372 3.566 17.063 8.963 24.67 12.548 3.962 1.867 11.502 6.067 16.926 9.145-5.278 6.918-14.821 19.494-26.433 35.11-10.084 13.562-18.834 24.882-23.876 31.337-6.543-6.81-17.785-18.229-24.539-23.505-10.117-7.903-22.776-14.446-33.334-19.261-3.978-1.815-11.771-3.675-16.987-5.754-7.01-2.793-11.321-5.118-11.321-5.118-1.812-.982-3.986-1.034-5.844-.14s-3.174 2.625-3.538 4.654c0 0-.694 3.932-.847 6.123-.245 3.5-.414 10.632-.891 15.419-.127 1.274-.423 2.862-.774 4.453-3.952-1.737-8.636-3.681-11.456-4.46-2.685-.742-5.366-1.265-7.656-1.628.257-3.939.594-8.934.856-12.2.564-7.028.424-18.707.873-23.876.147-1.688.493-3.406 1.224-4.936 1.295-2.71 3.435-6.377 5.189-8.753 1.558-2.111 4.771-6.703 5.881-9.08 2.339-5.009 9.546-14.166 11.704-16.86.004-.004 14.794-9.865 14.794-9.865z"/><path d="m179.282 84.814c-2.802-2.308-11.218-12.556-11.218-12.556" fill="none" stroke="#000" stroke-width="4.82" transform="translate(.798093 -.275732)"/><path d="m189.385 190.341c-1.688 2.831-4.011 6.346-6.215 7.691-1.621.988-4.554 1.145-6.431.86-1.917-.291-3.864-.719-5.561-1.808-2.062-1.321-4.907-3.434-6.414-4.584 0 0-2.019-1.716-2.63-2.316-1.38-1.356-4.825-5.357-5.801-7.459-.723-1.557-.551-3.719-.053-5.15.498-1.432 1.884-2.532 2.722-3.199.538-.428 1.977-1.367 1.977-1.367.515-.926 2.679-1.346 4.073-1.864 2.267-.844 7.038-.733 9.86-2.632 2.849-1.919 5.086-5.725 7.239-8.88 2.345-3.438 4.884-7.89 6.835-11.749 1.866-3.689 3.553-7.487 4.874-11.404 2.352-6.977 9.463-31.093 9.463-31.093s-6.888-4.026-13.405-9.012c-4.19-3.207-12.423-10.933-12.423-10.933s3.882-6.965 7.867-10.957c2.823-2.829 5.485-4.848 9.782-6.933 4.096-1.989 11.263-4.56 11.263-4.56l2.615 2.688s7.866 8.123 11.751 12.745c4.689 5.579 9.911 13.922 11.948 18.842 1.445 3.491 2.11 7.207 2.279 9.867.13 2.029-.466 4.124-.958 5.847-.428 1.501-1.176 3.892-1.899 5.275-.87 1.664-1.936 4.925-3.047 7.325-1.478 3.191-3.751 8.226-5.822 11.826-1.962 3.407-4.202 6.661-6.609 9.77-3.366 4.35-10.232 11.588-13.589 16.33-2.654 3.749-4.466 8.03-6.553 12.121-2.282 4.472-4.913 10.979-7.138 14.713z" fill="#feefe7"/><path d="m189.385 190.341c-1.688 2.831-4.011 6.346-6.215 7.691-1.621.988-4.554 1.145-6.431.86-1.917-.291-3.864-.719-5.561-1.808-2.062-1.321-4.907-3.434-6.414-4.584 0 0-2.019-1.716-2.63-2.316-1.38-1.356-4.825-5.357-5.801-7.459-.723-1.557-.551-3.719-.053-5.15.498-1.432 1.884-2.532 2.722-3.199.538-.428 1.977-1.367 1.977-1.367.515-.926 2.679-1.346 4.073-1.864 2.267-.844 7.038-.733 9.86-2.632 2.849-1.919 5.086-5.725 7.239-8.88 2.345-3.438 4.884-7.89 6.835-11.749 1.866-3.689 3.553-7.487 4.874-11.404 2.352-6.977 9.463-31.093 9.463-31.093s-6.888-4.026-13.405-9.012c-4.19-3.207-12.423-10.933-12.423-10.933s3.882-6.965 7.867-10.957c2.823-2.829 5.485-4.848 9.782-6.933 4.096-1.989 11.263-4.56 11.263-4.56l2.615 2.688s7.866 8.123 11.751 12.745c4.689 5.579 9.911 13.922 11.948 18.842 1.445 3.491 2.11 7.207 2.279 9.867.13 2.029-.466 4.124-.958 5.847-.428 1.501-1.176 3.892-1.899 5.275-.87 1.664-1.936 4.925-3.047 7.325-1.478 3.191-3.751 8.226-5.822 11.826-1.962 3.407-4.202 6.661-6.609 9.77-3.366 4.35-10.232 11.588-13.589 16.33-2.654 3.749-4.466 8.03-6.553 12.121-2.282 4.472-4.913 10.979-7.138 14.713zm15.338-119.865c1.481 1.535 7.807 8.124 11.133 12.082 4.277 5.088 9.072 12.678 10.93 17.166 1.145 2.766 1.67 5.712 1.804 7.82.082 1.282-.413 2.584-.724 3.673-.329 1.152-.86 3.002-1.415 4.064-.904 1.728-2.029 5.108-3.184 7.6-1.414 3.054-3.578 7.877-5.56 11.322-1.816 3.155-3.894 6.164-6.122 9.043-3.409 4.406-10.352 11.747-13.752 16.55-2.832 4-4.804 8.547-7.032 12.912-2.223 4.358-4.766 10.707-6.934 14.345-1.12 1.878-2.418 4.369-3.87 5.378-.315.039-1.707.2-2.295.111-1.042-.158-2.135-.274-3.058-.865-1.865-1.195-4.414-3.088-5.85-4.181-.435-.369-1.719-1.463-2.159-1.895-.994-.977-3.482-3.709-4.354-5.343l.014-.243c.213-.191.547-.486.706-.612.403-.321 1.488-1.015 1.488-1.015.238-.155.464-.325.677-.511.574-.183 1.602-.517 2.126-.712 1.14-.425 3.051-.476 4.895-.86 2.308-.482 4.536-1.269 6.312-2.464 3.45-2.323 6.352-6.769 8.958-10.587 2.49-3.65 5.19-8.375 7.261-12.471 2.004-3.962 3.81-8.044 5.228-12.251 2.37-7.03 9.537-31.329 9.537-31.329.836-2.833-.369-5.871-2.919-7.362 0 0-6.548-3.827-12.742-8.567-2.183-1.671-5.505-4.62-8.09-6.971 1.194-1.778 2.673-3.775 4.176-5.28 2.32-2.324 4.51-3.979 8.04-5.693 1.936-.939 4.599-2.014 6.775-2.854z"/><path d="m206.852 99.165-2.083 7.214" fill="none" stroke="#000" stroke-width="4.67" transform="matrix(1.00959 -.0332332 -.0332332 1.11511 3.95641 -5.0947)"/><path d="m158.255 182.714s5.174-1.765 5.847-4.165c.674-2.4-.85-4.911-.85-4.911" fill="none" stroke="#000" stroke-width="4.82" transform="translate(4.16245 2.67432)"/><path d="m89.145 74.128s6.657 7.658 8.883 11.265c1.136 1.842 3.069 3.854 4.523 5.111 2.108 1.822 5.746 3.267 8.989 3.737 3.147.456 8.215.275 11.11-.669 2.896-.943 5.716-3.433 7.831-5.623 2.074-2.146 3.846-4.932 4.863-7.517.987-2.508 1.475-5.306 1.238-7.991-.254-2.871-1.633-6.346-2.912-8.478-1.04-1.735-2.977-3.377-4.789-4.713-4.492-3.313-9.426-9.214-9.426-9.214l-21.333 14.32z" fill="#feefe7"/><path d="m89.145 74.128s6.657 7.658 8.883 11.265c1.136 1.842 3.069 3.854 4.523 5.111 2.108 1.822 5.746 3.267 8.989 3.737 3.147.456 8.215.275 11.11-.669 2.896-.943 5.716-3.433 7.831-5.623 2.074-2.146 3.846-4.932 4.863-7.517.987-2.508 1.475-5.306 1.238-7.991-.254-2.871-1.633-6.346-2.912-8.478-1.04-1.735-2.977-3.377-4.789-4.713-4.492-3.313-9.426-9.214-9.426-9.214l-21.333 14.32zm8.544.194 4.647-5.059s16.11-10.814 16.11-10.814c1.929 1.989 4.33 4.279 6.623 5.97 1.133.837 2.442 1.762 3.093 2.848.868 1.447 1.849 3.79 2.021 5.739.151 1.707-.189 3.48-.816 5.075-.732 1.86-2.013 3.861-3.505 5.406-1.437 1.487-3.235 3.337-5.202 3.979-2.136.696-5.877.755-8.198.418-2.043-.296-4.382-1.091-5.71-2.239-1.038-.898-2.447-2.31-3.258-3.625-1.225-1.984-3.692-5.117-5.805-7.698z"/><g transform="matrix(.751719 -.659483 .659483 .751719 -13.3081 82.1437)"><path d="m90.354 12.002c3.03 0 19.464-1.934 27.634 2.156 8.455 4.233 10.984 12.956 13.458 14.432 2.748 1.639-.812 13.947-2.553 20.728-.383 1.493-2.42 2.566-2.615 3.564-.864 4.419-1.83 7.715-4.088 13.021-2.787 6.549-12.359 11.67-19.749 11.714-8.022.046-15.811-3.503-19.094-10.64-2.534-5.507-4.117-9.223-5.746-13.658-.788-2.144-1.534-1.041-2.512-4.736-1.917-7.245-3.356-22.658.785-24.105 4.008-1.401 10.412-12.476 14.48-12.476z" fill="#feefe7"/><path d="m90.354 12.002c3.03 0 19.464-1.934 27.634 2.156 8.455 4.233 10.984 12.956 13.458 14.432 2.748 1.639-.812 13.947-2.553 20.728-.383 1.493-2.42 2.566-2.615 3.564-.864 4.419-1.83 7.715-4.088 13.021-2.787 6.549-12.359 11.67-19.749 11.714-8.022.046-15.811-3.503-19.094-10.64-2.534-5.507-4.117-9.223-5.746-13.658-.788-2.144-1.534-1.041-2.512-4.736-1.917-7.245-3.356-22.658.785-24.105 4.008-1.401 10.412-12.476 14.48-12.476zm35.527 20.106c-.448 2.415-1.942 10.357-2.988 14.716-.415.424-1.061 1.101-1.346 1.466-.877 1.125-1.363 2.286-1.573 3.36-.779 3.985-1.658 6.954-3.695 11.738-.692 1.626-2.156 3.023-3.839 4.221-2.985 2.122-6.784 3.566-10.036 3.584-5.474.032-10.982-2.031-13.222-6.901-2.447-5.318-3.979-8.905-5.552-13.188-.383-1.041-.784-1.755-1.163-2.321-.266-.397-.694-.898-.976-1.214-.057-.168-.136-.414-.193-.629-1.126-4.259-1.203-15.111-1.206-17.526 2.367-1.615 5.184-4.481 7.805-7.438 1.1-1.24 2.944-2.984 3.6-3.596 2.646-.145 8.171-.603 13.799-.332 3.577.172 7.234.56 9.817 1.854 4.649 2.327 6.845 6.547 8.515 9.169.764 1.201 1.524 2.217 2.253 3.037z"/></g><g transform="translate(-9.32725 -8.77552)"><path d="m99.691 14.118c3.849 1.038 8.292 3.861 11.716 6.806 3.594 3.091 7.429 8.027 9.848 11.74 2.096 3.218 3.847 7.721 4.665 10.536.592 2.036 1.675 4.788.247 6.355 0 0-4.466-8.289-6.701-10.669-1.285-1.368-5.049-3.049-6.711-3.612s-3.041-2.954-4.342-3.527c-1.056-.466-2.454-.476-3.463.085-3.765 2.095-14.66 10.365-19.126 12.482-2.31 1.096-6.061-.31-7.533 1.47s-1.948 5.889-1.299 9.209c.648 3.32 4.359 7.125 5.056 9.464.443 1.488-.501 3.805.293 5.138 1.614 2.713 9.396 11.138 9.396 11.138-2.376 1.598-5.678-1.168-8.224-2.478-3.036-1.562-7.439-4.694-9.99-6.895-2.082-1.797-3.844-3.986-5.315-6.31-2.606-4.117-4.25-8.547-5.195-12.612-.89-3.827-1.115-8.413-.475-11.779.589-3.097 3.001-6.435 4.315-8.415 1.693-2.55 4.94-6.064 7.946-8.523 3.577-2.925 9.365-7.426 13.514-9.026 3.543-1.367 7.711-1.566 11.378-.577z" fill="#996533"/><path d="m99.691 14.118c3.849 1.038 8.292 3.861 11.716 6.806 3.594 3.091 7.429 8.027 9.848 11.74 2.096 3.218 3.847 7.721 4.665 10.536.592 2.036 1.675 4.788.247 6.355 0 0-4.466-8.289-6.701-10.669-1.285-1.368-5.049-3.049-6.711-3.612s-3.041-2.954-4.342-3.527c-1.056-.466-2.454-.476-3.463.085-3.765 2.095-14.66 10.365-19.126 12.482-2.31 1.096-6.061-.31-7.533 1.47s-1.948 5.889-1.299 9.209c.648 3.32 4.359 7.125 5.056 9.464.443 1.488-.501 3.805.293 5.138 1.614 2.713 9.396 11.138 9.396 11.138-2.376 1.598-5.678-1.168-8.224-2.478-3.036-1.562-7.439-4.694-9.99-6.895-2.082-1.797-3.844-3.986-5.315-6.31-2.606-4.117-4.25-8.547-5.195-12.612-.89-3.827-1.115-8.413-.475-11.779.589-3.097 3.001-6.435 4.315-8.415 1.693-2.55 4.94-6.064 7.946-8.523 3.577-2.925 9.365-7.426 13.514-9.026 3.543-1.367 7.711-1.566 11.378-.577zm6.607 10.91c-1.586.063-3.153.458-4.471 1.192-3.6 2.003-13.82 9.792-18.401 12.116-.623.003-3.103.027-4.259.202-2.432.369-4.396 1.424-5.825 3.152-2.191 2.648-3.51 8.46-2.822 13.52-.521-1.434-.932-2.855-1.251-4.226-.689-2.966-.917-6.517-.421-9.125.431-2.269 2.394-4.612 3.357-6.063 1.414-2.131 4.148-5.048 6.661-7.102 3.13-2.561 8.127-6.605 11.759-8.007 2.302-.888 5.011-1.01 7.393-.368 2.706.73 5.739 2.653 8.28 4.709z"/></g><path d="m522.598 194.71-251.731-50.664 279.546-10.497" fill="none" stroke="#ec3237" stroke-dasharray="4.82 4.82" stroke-linecap="butt" stroke-width="4.82"/><g transform="matrix(1.92694 0 0 1.92694 -3.7525 -16.8931)"><path d="m255.451 92.783-3.191-10.715 10.487 3.876z" fill="#ec3237"/><path d="m262.562 102.556c.049-1.54-.076-2.717-.318-4.34-.645-4.319-2.338-7.528-4.513-10.312" fill="none" stroke="#ec3237" stroke-linecap="square" stroke-width="3.33"/></g></g><g transform="matrix(.57177454985 0 0 .57177454985 244.082499287 159.551987184)"><path d="m170.381 304.335h12.004v72.188h-12.004z" fill="#d2d3d5" transform="matrix(1.42379 0 0 1.48228 -229.48237991495 -179.033)"/><path d="m182.385 304.335h-12.004v72.188h12.004zm-4.094 3.933v64.322h-3.815v-64.322z" transform="matrix(1.42379 0 0 1.48228 -229.48237991495 -179.033)"/><path d="m170.381 304.335h12.004v72.188h-12.004z" fill="#d2d3d5" transform="matrix(1.42379 0 0 1.48228 -119.70901807 -179.033)"/><path d="m182.385 304.335h-12.004v72.188h12.004zm-4.094 3.933v64.322h-3.815v-64.322z" transform="matrix(1.42379 0 0 1.48228 -119.70901807 -179.033)"/><path d="m167.295 304.335h15.09v72.188h-15.09z" fill="#d2d3d5" transform="matrix(1.08231817293 0 0 .64130695972 -84.36058374 76.9048762)"/><path d="m182.385 304.335h-15.09v72.188h15.09zm-5.386 9.09v54.007h-4.317v-54.007z" transform="matrix(1.08231817293 0 0 .64130695972 -84.36058374 76.9048762)"/><path d="m170.381 304.335h15.09v72.188h-15.09z" fill="#d2d3d5" transform="matrix(1.08231817293 0 0 .64130695972 -144.37048466 76.9048762)"/><path d="m185.471 304.335h-15.09v72.188h15.09zm-5.387 9.09v54.007h-4.316v-54.007z" transform="matrix(1.08231817293 0 0 .64130695972 -144.37048466 76.9048762)"/><path d="m265.016 295.482-15.988-114.795h-73.139l-11.869 114.795v54.929h100.996z" fill="#f68634" transform="matrix(1.435465078 0 0 .37522732376 -231.3968720195 148.08099724)"/><path d="m265.016 295.482-15.988-114.795h-73.139l-11.869 114.795v54.929h100.996zm-4.061 3.881v35.511h-92.874v-36.431s10.569-102.219 10.569-102.219h67.94z" transform="matrix(1.435465078 0 0 .37522732376 -231.3968720195 148.08099724)"/><path d="m164.02 295.482h100.996v13.352h-100.996z" fill="#f68634" transform="matrix(1.435465078 0 0 1.5437056832 -231.3968720195 -197.18129518)"/><path d="m265.016 295.482h-100.996v13.351h100.996zm-4.061 3.776v5.799h-92.874v-5.799z" transform="matrix(1.435465078 0 0 1.5437056832 -231.3968720195 -197.18129518)"/><path d="m264.064 257.271s19.409 10.051 26.479 13.315c5.249 2.424 11.37 5.179 14.945 6.57 1.778.692 5.124 1.161 6.976 1.662 2.15.581 4.244 1.629 6.377 3.061 3.027 2.032 7.438 5.891 11.338 8.619 4.685 3.278 11.261 7.875 16.954 11.39 6.922 4.272 17.025 10.695 24.045 14.448 5.618 3.003 12.236 5.742 18.183 8.026 6.077 2.333 12.5 4.559 18.184 6.104 5.179 1.408 11.518 3.151 15.197 4.302 2.478.776 5.589 1.728 7.618 2.527 1.651.651 3.459 1.506 4.948 2.472 1.611 1.044 2.967 2.231 4.504 3.648 1.544 1.423 4.65 4.838 4.65 4.838l5.29 1.73 13.5-19.846-1.025-5.286s-6.043-2.306-8.219-3.412c-2.764-1.406-7.188-2.56-10.664-4.121-3.717-1.67-7.801-3.846-11.636-5.895-4.019-2.146-8.556-4.273-12.475-6.984-4.205-2.91-9.269-7.429-12.756-10.471-2.833-2.471-5.44-5.19-8.164-7.78-3.098-2.946-6.808-6.307-9.589-8.433-1.826-1.394-5.5-2.994-7.739-3.508-2.497-.574-5.394-1.423-8.227-2.087-3.15-.738-7.101-2.603-10.242-4.211-3.092-1.584-5.349-3.049-7.878-5.431-2.719-2.562-5.77-6.133-8.228-8.882-2.203-2.462-4.57-4.789-7.094-6.922-3.245-2.742-8.22-6.392-12.374-9.529-4.592-3.468-10.362-7.214-15.18-11.279-4.927-4.157-14.38-13.663-14.38-13.663l-4.031-4.752-24.75 9.081-10.073 30.224 1.493 8.258z" fill="#feefe7"/><path d="m264.064 257.271s19.409 10.051 26.479 13.315c5.249 2.424 11.37 5.179 14.945 6.57 1.778.692 5.124 1.161 6.976 1.662 2.15.581 4.244 1.629 6.377 3.061 3.027 2.032 7.438 5.891 11.338 8.619 4.685 3.278 11.261 7.875 16.954 11.39 6.922 4.272 17.025 10.695 24.045 14.448 5.618 3.003 12.236 5.742 18.183 8.026 6.077 2.333 12.5 4.559 18.184 6.104 5.179 1.408 11.518 3.151 15.197 4.302 2.478.776 5.589 1.728 7.618 2.527 1.651.651 3.459 1.506 4.948 2.472 1.611 1.044 2.967 2.231 4.504 3.648 1.544 1.423 4.65 4.838 4.65 4.838l5.29 1.73 13.5-19.846-1.025-5.286s-6.043-2.306-8.219-3.412c-2.764-1.406-7.188-2.56-10.664-4.121-3.717-1.67-7.801-3.846-11.636-5.895-4.019-2.146-8.556-4.273-12.475-6.984-4.205-2.91-9.269-7.429-12.756-10.471-2.833-2.471-5.44-5.19-8.164-7.78-3.098-2.946-6.808-6.307-9.589-8.433-1.826-1.394-5.5-2.994-7.739-3.508-2.497-.574-5.394-1.423-8.227-2.087-3.15-.738-7.101-2.603-10.242-4.211-3.092-1.584-5.349-3.049-7.878-5.431-2.719-2.562-5.77-6.133-8.228-8.882-2.203-2.462-4.57-4.789-7.094-6.922-3.245-2.742-8.22-6.392-12.374-9.529-4.592-3.468-10.362-7.214-15.18-11.279-4.927-4.157-14.38-13.663-14.38-13.663l-4.031-4.752-24.75 9.081-10.073 30.224 1.493 8.258zm192.885 71.767-9.459 13.906c-1.123-1.206-2.729-2.896-3.726-3.816-1.799-1.657-3.4-3.031-5.285-4.253-1.802-1.169-3.984-2.217-5.982-3.004-2.136-.841-5.407-1.851-8.014-2.667-3.731-1.167-10.157-2.936-15.408-4.363-5.51-1.498-11.734-3.66-17.625-5.922-5.729-2.2-12.111-4.831-17.523-7.724-6.93-3.705-16.899-10.051-23.732-14.268-5.6-3.457-12.066-7.982-16.675-11.206-3.93-2.75-8.379-6.634-11.429-8.682-2.705-1.817-5.378-3.112-8.106-3.849-1.691-.457-4.759-.835-6.382-1.467-3.497-1.36-9.482-4.059-14.616-6.429-6.771-3.127-24.96-12.536-26.178-13.167l-1.546-.847s-.733-4.055-.733-4.055 8.715-26.146 8.715-26.146 18.293-6.713 18.293-6.713 1.398 1.648 1.398 1.648c.1.118.204.231.313.34 0 0 9.701 9.744 14.754 14.008 4.898 4.133 10.757 7.95 15.426 11.475 4.069 3.074 8.946 6.644 12.124 9.33 2.317 1.958 4.49 4.095 6.512 6.356 2.559 2.862 5.745 6.571 8.576 9.238 2.961 2.79 5.596 4.522 9.218 6.377 3.541 1.813 8.017 3.866 11.569 4.698 2.842.666 5.748 1.518 8.253 2.093 1.588.364 4.208 1.469 5.503 2.459 2.645 2.02 6.166 5.224 9.111 8.024 2.784 2.648 5.454 5.423 8.349 7.949 3.625 3.163 8.901 7.848 13.272 10.872 4.102 2.838 8.839 5.086 13.045 7.332 3.952 2.112 8.164 4.35 11.994 6.071 3.391 1.523 7.715 2.629 10.411 3.999 1.229.625 3.609 1.612 5.583 2.403z"/><path d="m443.835 347.289c.707 1.297 2.717 3.564 4.356 5.076 2.024 1.868 6.01 4.261 7.787 6.133 1.343 1.416 1.776 3.487 2.873 5.1 1.263 1.857 3.122 4.606 4.706 6.043 1.345 1.221 3.038 2.135 4.798 2.583 1.964.498 4.936.674 6.981.41 1.868-.241 3.731-.934 5.289-1.993 1.919-1.304 4.316-3.723 6.225-5.83 2.312-2.552 6.138-7.182 7.652-9.485.835-1.272 1.317-2.818 1.429-4.335.122-1.641-.17-4.069-.701-5.512-.461-1.254-1.379-2.394-2.482-3.148-1.604-1.097-4.792-2.226-7.143-3.43-2.601-1.333-5.684-2.969-8.464-4.565-3.002-1.723-7.209-4.218-9.546-5.773-1.586-1.056-3.167-3.049-4.473-3.557l-2.668-.843s-1.761 1.534-2.186 2.665c-.218.577-.731 2.111-1.236 2.466-.516.363-1.786-.043-2.475.433-1.122.773-3.103 2.806-4.256 4.205-1.052 1.277-2.19 2.766-2.662 4.189-.457 1.378.059 3.331-.171 4.35-.157.695-.621 1.412-1.207 1.765-.586.352-2.128.971-2.532 1.48-.405.509-.326.781.106 1.573z" fill="#4b4b4d"/><path d="m458.798 325.922c-.229.306-.422.619-.53.906-.218.577-.731 2.111-1.236 2.466-.516.363-1.786-.043-2.475.433-1.122.773-3.103 2.806-4.256 4.205-1.052 1.277-2.19 2.766-2.662 4.189-.457 1.378.059 3.331-.171 4.35-.082.366-.25.737-.475 1.058 0 0 3.001.339 4.268 1.079 3.827 2.233 15.016 10.283 18.689 12.319.977.541 2.452.558 3.351-.106 1.566-1.157 4.936-5.248 6.05-6.838.53-.757 1.002-1.801.966-2.696s-.519-2.017-1.181-2.674c-1.45-1.438-5.179-4.042-7.847-5.956-2.902-2.083-7.487-4.419-9.569-6.542-1.598-1.63-2.922-6.193-2.922-6.193z" fill="#aaabaf"/><path d="m489.333 340.602s-.151 6.277-.823 8.323c-.452 1.378-2.023 2.965-2.876 3.606-.641.483-2.195 1.019-3.495 2.103-1.179.984-2.45 2.601-3.174 4.021-.412.809-.869 3.129-1.517 3.765-2.074 2.037-11.33 8.967-11.33 8.967.717.359 1.471.642 2.237.837 1.964.498 4.936.674 6.981.41 1.868-.241 3.731-.934 5.289-1.993 1.919-1.304 4.316-3.723 6.225-5.83 2.312-2.552 6.138-7.182 7.652-9.485.835-1.272 1.317-2.818 1.429-4.335.122-1.641-.17-4.069-.701-5.512-.461-1.254-1.379-2.394-2.482-3.148-.828-.566-2.077-1.14-3.415-1.729z" fill="#aaabaf"/><path d="m506.389 345.937-.007.009-.023.032-.023.033-.022.033-.022.032-.02.033-.021.032-.019.032-.019.032-.018.032-.016.032-.017.032-.015.031-.014.031-.013.03c-.004.011-.008.021-.012.031-.124.33-.417 1.208-.706 1.41-.295.208-1.021-.024-1.416.248-.641.442-1.774 1.604-2.433 2.404-.601.73-1.252 1.582-1.522 2.396-.261.787.034 1.904-.098 2.487l-.009.038-.01.038-.011.038-.012.037-.006.018-.008.022-.006.017-.008.021-.007.017-.009.021-.006.016-.01.022-.007.016-.01.022-.007.015-.011.022-.008.015-.012.023-.007.013-.013.024-.007.012-.014.025-.006.01-.022.035-.022.034-.023.034c-.116.166-.26.308-.419.404-.335.201-1.217.555-1.448.846s-.186.446.061.899c.404.742 1.554 2.038 2.491 2.903 1.157 1.068 3.436 2.436 4.452 3.507.768.809 1.016 1.993 1.643 2.916.722 1.061 1.785 2.633 2.691 3.455.475.431 1.026.796 1.615 1.071l.021.01.044.02.045.021.046.02c.015.006.03.013.045.019l.045.019.046.019.045.019.046.018.046.018.048.018.044.016.046.017.046.016.047.016.046.016.055.018.039.012.046.015.047.014.047.013.047.014.047.013.053.014.041.01c.772.197 1.816.305 2.774.305h.065c.411-.002.805-.025 1.152-.07 1.069-.138 2.134-.534 3.025-1.139 1.097-.746 2.467-2.129 3.559-3.334 1.322-1.459 3.51-4.106 4.375-5.423.478-.727.753-1.611.817-2.479.07-.938-.097-2.326-.4-3.152-.264-.717-.789-1.368-1.42-1.8l-.045-.03-.046-.03-.048-.031-.049-.03-.043-.026-.049-.029-.051-.03-.052-.03-.054-.029-.054-.03-.055-.03-.056-.029-.057-.03-.058-.03-.059-.03-.06-.03-.06-.03-.062-.029-.062-.03-.063-.03-.016-.008c-.033-.016-.066-.031-.099-.047l-.012-.006-.046-.021-.027-.012-.058-.027-.05-.023-.021-.01-.061-.027-.068-.031c-.829-.374-1.766-.758-2.543-1.156-1.487-.762-3.25-1.697-4.84-2.61-1.716-.985-4.122-2.412-5.457-3.301-.907-.603-1.811-1.743-2.558-2.034l-1.526-.482s-.583.509-.969 1.037zm17.336 11.024c-.909-.453-2.155-.911-3.126-1.409-1.519-.778-3.32-1.734-4.944-2.667-1.761-1.01-4.228-2.476-5.599-3.388-.541-.36-1.401-1.119-1.865-1.54-.142.341-.315.718-.49.999.123.19.251.358.381.491 1.191 1.214 3.812 2.55 5.472 3.741 1.525 1.094 3.658 2.583 4.486 3.405.379.376.655 1.018.676 1.529.02.512-.249 1.109-.553 1.542-.637.909-2.563 3.248-3.459 3.91-.514.379-1.357.37-1.916.06-2.088-1.157-8.421-5.712-10.646-7.02-.256.588-.654 1.138-1.123 1.548.332.362.697.725 1.023 1.027 1.191 1.099 3.525 2.521 4.571 3.623.481.507.848 1.096 1.159 1.727.246.5.426 1.046.737 1.504.625.919 1.52 2.298 2.304 3.01.471.427 1.063.748 1.679.904.161.041.337.077.523.108 1.561-1.2 3.416-2.658 4.06-3.29.371-.364.632-1.69.868-2.153.413-.812 1.14-1.736 1.815-2.299.743-.62 1.631-.926 1.998-1.202.488-.367 1.386-1.274 1.644-2.062.149-.453.253-1.269.325-2.098zm-18.111-6.687c.219.363.449.685.684.924 1.267 1.292 4.031 2.753 5.798 4.021 1.33.954 3.167 2.216 4.026 3l-.006.011c-.458.653-1.683 2.199-2.506 2.991-2.401-1.436-8.191-5.59-10.248-6.79-.245-.143-.57-.272-.922-.384l-.014-.439c.197-.531.664-1.055 1.056-1.532.438-.53 1.123-1.273 1.636-1.711.065-.01.136-.023.209-.036l.013-.002c.026-.005.053-.01.08-.015.063-.012.128-.024.194-.038z" transform="matrix(1.74894 0 0 1.74894 -426.886 -279.047)"/><g transform="matrix(.887586 .460642 .460642 -.887586 -46.8447 226.571)"><path d="m272.378 263.02s10.386 4.617 17.455 7.882c5.25 2.424 12.08 4.863 15.655 6.254 1.778.692 5.124 1.161 6.976 1.662 2.15.581 4.244 1.629 6.377 3.061 3.027 2.032 7.438 5.891 11.338 8.619 4.685 3.278 11.261 7.875 16.954 11.39 6.922 4.272 17.025 10.695 24.045 14.448 5.618 3.003 12.236 5.742 18.183 8.026 6.077 2.333 12.5 4.559 18.184 6.104 5.179 1.408 11.518 3.151 15.197 4.302 2.478.776 5.589 1.728 7.618 2.527 1.651.651 3.459 1.506 4.948 2.472 1.611 1.044 2.967 2.231 4.504 3.648 1.544 1.423 4.65 4.838 4.65 4.838l5.29 1.73 13.5-19.846-1.025-5.286s-6.043-2.306-8.219-3.412c-2.764-1.406-7.188-2.56-10.664-4.121-3.717-1.67-7.801-3.846-11.636-5.895-4.019-2.146-8.556-4.273-12.475-6.984-4.205-2.91-9.269-7.429-12.756-10.471-2.833-2.471-5.44-5.19-8.164-7.78-3.098-2.946-6.808-6.307-9.589-8.433-1.826-1.394-5.5-2.994-7.739-3.508-2.497-.574-5.394-1.423-8.227-2.087-3.15-.738-7.101-2.603-10.242-4.211-3.092-1.584-5.349-3.049-7.878-5.431-2.719-2.562-5.77-6.133-8.228-8.882-2.203-2.462-4.57-4.789-7.094-6.922-3.245-2.742-8.22-6.392-12.374-9.529-4.592-3.468-9.986-7.702-14.706-11.881-4.784-4.236-11.313-10.831-11.313-10.831l-4.733-4.369-27.589 6.468-10.073 30.224 2.827 9.326z" fill="#feefe7" transform="translate(1.22554 .636035)"/><path d="m272.378 263.02s10.386 4.617 17.455 7.882c5.25 2.424 12.08 4.863 15.655 6.254 1.778.692 5.124 1.161 6.976 1.662 2.15.581 4.244 1.629 6.377 3.061 3.027 2.032 7.438 5.891 11.338 8.619 4.685 3.278 11.261 7.875 16.954 11.39 6.922 4.272 17.025 10.695 24.045 14.448 5.618 3.003 12.236 5.742 18.183 8.026 6.077 2.333 12.5 4.559 18.184 6.104 5.179 1.408 11.518 3.151 15.197 4.302 2.478.776 5.589 1.728 7.618 2.527 1.651.651 3.459 1.506 4.948 2.472 1.611 1.044 2.967 2.231 4.504 3.648 1.544 1.423 4.65 4.838 4.65 4.838l5.29 1.73 13.5-19.846-1.025-5.286s-6.043-2.306-8.219-3.412c-2.764-1.406-7.188-2.56-10.664-4.121-3.717-1.67-7.801-3.846-11.636-5.895-4.019-2.146-8.556-4.273-12.475-6.984-4.205-2.91-9.269-7.429-12.756-10.471-2.833-2.471-5.44-5.19-8.164-7.78-3.098-2.946-6.808-6.307-9.589-8.433-1.826-1.394-5.5-2.994-7.739-3.508-2.497-.574-5.394-1.423-8.227-2.087-3.15-.738-7.101-2.603-10.242-4.211-3.092-1.584-5.349-3.049-7.878-5.431-2.719-2.562-5.77-6.133-8.228-8.882-2.203-2.462-4.57-4.789-7.094-6.922-3.245-2.742-8.22-6.392-12.374-9.529-4.592-3.468-9.986-7.702-14.706-11.881-4.784-4.236-11.313-10.831-11.313-10.831l-4.733-4.369-27.589 6.468-10.073 30.224 2.827 9.326zm175.113 79.923 9.458-13.906c-1.974-.791-4.354-1.777-5.583-2.402-2.696-1.37-7.02-2.476-10.411-3.999-3.83-1.721-8.042-3.959-11.994-6.071-4.206-2.246-8.943-4.494-13.045-7.332-4.371-3.024-9.647-7.709-13.272-10.872-2.895-2.526-5.565-5.301-8.349-7.949-2.945-2.8-6.466-6.004-9.111-8.024-1.295-.99-3.915-2.095-5.503-2.459-2.505-.575-5.411-1.427-8.253-2.093-3.552-.832-8.028-2.885-11.569-4.698-3.622-1.855-6.257-3.587-9.218-6.377-2.831-2.667-6.017-6.376-8.576-9.238-2.022-2.261-4.195-4.398-6.512-6.356-3.178-2.686-8.055-6.256-12.124-9.33-4.703-3.551-10.224-7.889-15.057-12.168-4.573-4.048-10.702-10.199-11.504-11.006.008.008-2.359-2.177-2.359-2.177s-21.407 5.019-21.407 5.019-8.457 25.375-8.457 25.375 1.655 5.459 1.655 5.459l8.823 5.522c1.929.859 10.853 4.838 17.154 7.748 5.138 2.372 11.826 4.753 15.326 6.114 1.623.632 4.691 1.01 6.382 1.467 2.728.737 5.401 2.032 8.106 3.849 3.05 2.048 7.499 5.932 11.429 8.682 4.609 3.224 11.075 7.749 16.675 11.206 6.833 4.217 16.802 10.563 23.732 14.268 5.412 2.893 11.794 5.524 17.523 7.724 5.891 2.262 12.115 4.424 17.625 5.922 5.251 1.427 11.677 3.196 15.408 4.363 2.607.816 5.878 1.826 8.014 2.667 1.998.787 4.18 1.835 5.982 3.004 1.885 1.222 3.486 2.596 5.285 4.253.997.92 2.603 2.61 3.727 3.815z" transform="translate(1.22554 .636035)"/><path d="m443.835 347.289c.707 1.297 2.717 3.564 4.356 5.076 2.024 1.868 6.01 4.261 7.787 6.133 1.343 1.416 1.776 3.487 2.873 5.1 1.263 1.857 3.122 4.606 4.706 6.043 1.345 1.221 3.038 2.135 4.798 2.583 1.964.498 4.936.674 6.981.41 1.868-.241 3.731-.934 5.289-1.993 1.919-1.304 4.316-3.723 6.225-5.83 2.312-2.552 6.138-7.182 7.652-9.485.835-1.272 1.317-2.818 1.429-4.335.122-1.641-.17-4.069-.701-5.512-.461-1.254-1.379-2.394-2.482-3.148-1.604-1.097-4.792-2.226-7.143-3.43-2.601-1.333-5.684-2.969-8.464-4.565-3.002-1.723-7.209-4.218-9.546-5.773-1.586-1.056-3.307-2.93-4.613-3.438l-2.669-.842s-1.62 1.414-2.045 2.545c-.218.577-.731 2.111-1.236 2.466-.516.363-1.786-.043-2.475.433-1.122.773-3.103 2.806-4.256 4.205-1.052 1.277-2.19 2.766-2.662 4.189-.457 1.378.059 3.331-.171 4.35-.157.695-.621 1.412-1.207 1.765-.586.352-2.128.971-2.532 1.48-.405.509-.326.781.106 1.573z" fill="#4b4b4d"/><path d="m458.798 325.922c-.229.306-.422.619-.53.906-.218.577-.731 2.111-1.236 2.466-.516.363-1.786-.043-2.475.433-1.122.773-3.103 2.806-4.256 4.205-1.052 1.277-2.19 2.766-2.662 4.189-.457 1.378.059 3.331-.171 4.35-.082.366-.25.737-.475 1.058 0 0 3.001.339 4.268 1.079 3.827 2.233 15.016 10.283 18.689 12.319.977.541 2.452.558 3.351-.106 1.566-1.157 4.936-5.248 6.05-6.838.53-.757 1.002-1.801.966-2.696s-.519-2.017-1.181-2.674c-1.45-1.438-5.179-4.042-7.847-5.956-2.902-2.083-7.487-4.419-9.569-6.542-1.598-1.63-2.922-6.193-2.922-6.193z" fill="#aaabaf"/><path d="m489.333 340.602s-.151 6.277-.823 8.323c-.452 1.378-2.023 2.965-2.876 3.606-.641.483-2.195 1.019-3.495 2.103-1.179.984-2.45 2.601-3.174 4.021-.412.809-.869 3.129-1.517 3.765-2.074 2.037-11.33 8.967-11.33 8.967.717.359 1.471.642 2.237.837 1.964.498 4.936.674 6.981.41 1.868-.241 3.731-.934 5.289-1.993 1.919-1.304 4.316-3.723 6.225-5.83 2.312-2.552 6.138-7.182 7.652-9.485.835-1.272 1.317-2.818 1.429-4.335.122-1.641-.17-4.069-.701-5.512-.461-1.254-1.379-2.394-2.482-3.148-.828-.566-2.077-1.14-3.415-1.729z" fill="#aaabaf"/><path d="m534.626 232.49c-.026-.201-.088-.394-.185-.552-.205-.333-.824-1.053-.895-1.418s.04-.482.468-.77c.7-.472 2.318-1.093 3.547-1.429 1.52-.415 4.173-.579 5.568-1.062 1.054-.364 1.82-1.301 2.801-1.831 1.131-.61 2.797-1.515 3.98-1.827.62-.164 1.278-.234 1.928-.207l.022.001.049.002.05.003.049.003c.016.001.033.002.049.003l.049.004.049.004.049.005.049.005.049.005.052.006.046.006.048.006.049.007.049.007.048.008.056.009.042.007.047.009.048.009.048.009.048.01.047.01.054.012.041.01c1.128.264 2.683.957 3.651 1.63.885.614 1.648 1.457 2.16 2.405.63 1.167 1.209 3.026 1.623 4.598.501 1.904 1.224 5.261 1.385 6.829.089.865-.074 1.777-.416 2.576-.371.865-1.158 2.02-1.808 2.613-.564.515-1.33.852-2.089.944l-.035.004-.046.005-.056.005-.057.005-.024.002-.064.004-.048.003-.059.002-.06.003-.061.001-.062.002-.062.001h-.064-.064-.065-.066l-.067-.001-.068-.002-.068-.001-.069-.002-.069-.003-.047-.001c-1.016-.038-2.224-.162-3.247-.168-1.671-.009-3.667.01-5.498.088-1.977.084-4.77.242-6.365.415-1.083.118-2.45.616-3.246.53l-1.577-.275s-.244-.623-.343-1.269l-.002-.011-.005-.04-.006-.039-.004-.039-.005-.039-.003-.038-.003-.042-.003-.034-.001-.037-.001-.037-.001-.036v-.035l.002-.035.001-.034.002-.017.001-.016.002-.016c0-.006.001-.011.001-.017.042-.35.186-1.264.023-1.577-.166-.32-.918-.449-1.142-.871-.366-.688-.836-2.242-1.053-3.256-.197-.925-.382-1.98-.247-2.827.131-.819.907-1.675 1.059-2.252l.006-.026.005-.02.005-.02.006-.031.005-.028.004-.02.003-.02.003-.02.002-.02.003-.02.002-.02.002-.02.002-.021.001-.02.001-.02.001-.021c.005-.105 0-.211-.014-.315zm18.344-6.356c.833 1.784 1.808 3.932 2.088 4.79.161.493-.218 1.791-.222 2.31-.007.912.213 2.067.552 2.877.374.892 1.022 1.574 1.22 1.988.264.55.643 1.769.51 2.587-.077.471-.36 1.243-.679 2.012-1.015-.016-2.332-.184-3.423-.19-1.707-.009-3.746.011-5.617.09-2.028.086-4.893.25-6.53.428-.647.071-1.759.348-2.365.508.031-.368.051-.783.025-1.112.197-.112.388-.203.565-.261 1.616-.529 4.558-.507 6.579-.799 1.859-.269 4.437-.609 5.551-.956.51-.16 1.05-.602 1.304-1.046.254-.445.29-1.099.22-1.623-.147-1.101-.779-4.064-1.27-5.064-.281-.574-1.034-.954-1.672-.936-2.386.065-10.106 1.19-12.683 1.327.043-.64-.056-1.312-.284-1.891.462-.169.953-.323 1.381-.44 1.563-.427 4.291-.615 5.726-1.111.66-.228 1.258-.582 1.824-.999.449-.331.86-.732 1.347-.995.979-.528 2.408-1.34 3.432-1.61.614-.163 1.288-.175 1.907-.03.161.038.335.087.514.146zm-15.686 14.156c-.088-.071-.175-.139-.257-.202l-.012-.009-.044-.034-.041-.031c-.015-.011-.03-.022-.044-.033-.254-.625-.52-1.6-.664-2.272-.129-.604-.302-1.284-.232-1.846l.215-.383c.364.062.712.097.996.083 2.377-.118 9.43-1.138 12.223-1.306.365 1.082.74 3.019.846 3.81l.001.012c-1.124.3-3.336.574-4.956.808-2.152.312-5.279.335-6.999.898-.318.105-.671.284-1.032.505z" transform="matrix(1.55233 .805636 .805636 -1.55233 -570.228 273.717)"/></g><path d="m193.168 200.154s20.072 23.452 31.888 32.972c11.816 9.519 39.008 24.145 39.008 24.145s.063-8.054 2.257-13.201c2.019-4.734 6.226-10.842 9.785-14.961 2.818-3.262 7.523-8.203 11.528-10.999 3.474-2.424 9.748-5.867 9.748-5.867s-15.184-18.917-18.221-23.064c-.516-.706.957-1.8 1.732-2.133 3.298-1.419 9.822-3.682 14.829-5.235 7.817-2.424 24.704-6.985 24.704-6.985s-9.944-15.134-10.822-29.861c-1.021-17.111 7.849-26.378 7.849-26.378s-13.392 1.014-20.071 1.7c-7.046.723-15.484 1.635-22.207 2.639-6.08.909-18.129 3.387-18.129 3.387-2.571-.384-7.281-2.438-7.281-2.438l-24.625 33.142-25.202 30.029z" fill="#aaabaf"/><path d="m193.168 200.154s20.072 23.452 31.888 32.972c11.816 9.519 39.008 24.145 39.008 24.145s.063-8.054 2.257-13.201c2.019-4.734 6.226-10.842 9.785-14.961 2.818-3.262 7.523-8.203 11.528-10.999 3.474-2.424 9.748-5.867 9.748-5.867s-15.184-18.917-18.221-23.064c-.516-.706.957-1.8 1.732-2.133 3.298-1.419 9.822-3.682 14.829-5.235 7.817-2.424 24.704-6.985 24.704-6.985s-9.944-15.134-10.822-29.861c-1.021-17.111 7.849-26.378 7.849-26.378s-13.392 1.014-20.071 1.7c-7.046.723-15.484 1.635-22.207 2.639-6.08.909-18.129 3.387-18.129 3.387-2.571-.384-7.281-2.438-7.281-2.438l-24.625 33.142-25.202 30.029zm6.992-.834 4.66-9.023s24.786-29.532 24.786-29.532c.074-.088.145-.179.214-.271l21.997-29.606c1.519.522 3.146 1.009 4.367 1.191.677.101 1.366.082 2.036-.056 0 0 11.841-2.438 17.816-3.331 6.643-.992 14.98-1.892 21.941-2.606 2.391-.245 5.649-.533 8.836-.801-1.978 5.009-3.524 11.72-3.029 20.027.578 9.681 4.706 19.532 7.912 25.858-5.605 1.547-13.166 3.667-17.701 5.073-5.202 1.613-11.979 3.973-15.406 5.447-1.489.641-3.762 2.482-4.598 4.085-1.264 2.426-1.034 4.798.467 6.848 2.019 2.758 9.362 11.991 14.132 17.964-1.522.918-3.071 1.89-4.292 2.743-4.37 3.05-9.529 8.409-12.603 11.967-3.917 4.534-8.515 11.276-10.736 16.487-.79 1.851-1.351 4.023-1.75 6.143-8.755-4.933-22.89-13.214-30.495-19.341-8.993-7.245-22.867-22.767-28.554-29.266z"/><path d="m72.713 167.875s-.656 5.625-.778 8.025c-.078 1.524-.607 5.478-.826 6.988-.358 2.47-.674 6.232-1.479 9.612-.853 3.583-2.809 7.93-3.64 11.13-.681 2.622-1.157 6.183-1.267 8.889-.119 2.971-.075 6.165.548 8.937.563 2.509 2.34 5.198 3.499 6.875.89 1.289 3.181 3.965 3.181 3.965s-1.098 3.516-1.509 5.617c-.354 1.815-.175 4.529.667 6.175.902 1.763 2.749 3.227 5.014 4.259 2.757 1.256 7.482 2.12 11.021 2.501 3.386.365 8.089.419 10.215-.213 1.402-.418 2.232-2.151 2.537-3.582.509-2.393.612-7.796.258-10.445-.255-1.903-1.312-3.936-2.383-5.446-1.054-1.486-3.627-4.298-3.627-4.298s1.393-2.358 1.766-3.853c.509-2.042 1-5.34 1.136-8.045.176-3.492-.57-9.071-.08-12.907.447-3.49 2.141-6.708 3.025-10.114.937-3.608 2.594-11.536 2.594-11.536l2.552-14.21-24.113-4.648z" fill="#feefe7"/><path d="m285.658 255.539s-.375 3.216-.445 4.588c-.044.872-.347 3.133-.472 3.996-.205 1.412-.386 3.564-.846 5.496-.488 2.048-1.606 4.534-2.081 6.364-.389 1.499-.662 3.535-.724 5.082-.069 1.699-.043 3.526.313 5.11.322 1.435 1.338 2.972 2 3.931.509.737 1.819 2.268 1.819 2.268s-.628 2.01-.862 3.211c-.203 1.038-.1 2.59.381 3.531.515 1.008 1.571 1.845 2.867 2.435 1.576.718 4.277 1.212 6.301 1.43 1.936.208 4.626.24 5.841-.122.802-.239 1.276-1.23 1.45-2.048.292-1.368.35-4.458.148-5.972-.146-1.088-.75-2.25-1.363-3.114-.602-.85-2.073-2.458-2.073-2.458s.796-1.348 1.009-2.203c.292-1.167.572-3.053.65-4.6.101-1.996-.326-5.186-.046-7.38.256-1.995 1.225-3.835 1.73-5.782.535-2.063 1.483-6.596 1.483-6.596l1.459-8.125-13.787-2.658zm11.034 17.021c.416-1.37.977-2.71 1.336-4.095.492-1.896 1.339-5.925 1.437-6.396 0 0 .869-4.838.869-4.838s-9.092-1.753-9.092-1.753l-2.43 1.85c-.106.983-.233 2.245-.27 2.969-.048.939-.368 3.374-.502 4.304-.216 1.488-.417 3.754-.902 5.79-.493 2.069-1.618 4.582-2.098 6.43-.335 1.291-.566 3.046-.62 4.379-.057 1.411-.061 2.929.235 4.245.23 1.022 1.019 2.084 1.491 2.767.449.649 1.609 1.994 1.609 1.994.746.872.991 2.066.649 3.162 0 0-.564 1.787-.773 2.856-.079.402-.109 1.009.078 1.374.216.422.737.672 1.28.919 1.318.6 3.586.967 5.277 1.15.101.011.205.021.31.032-.136-1.116-.01-2.746-.01-2.746.058-.687.663-1.198 1.351-1.14.687.058 1.198.663 1.14 1.35 0 0-.139 1.493.017 2.342.029.035.171.205.296.325.221-.005.431-.016.626-.033.184-1.214.198-3.397.048-4.516-.077-.578-.453-1.17-.778-1.628-.525-.74-1.813-2.135-1.813-2.135-.05-.054-.097-.109-.143-.166-.027-.022-.053-.046-.079-.071l-2.899-2.818c-.494-.481-.505-1.273-.024-1.768.48-.494 1.273-.505 1.767-.025l.952.926c.005-.008.01-.016.015-.024 0 0 .516-.798.645-1.315.251-1.005.488-2.629.555-3.96.097-1.935-.263-4.953-.07-7.193-.952-.517-2.449-1.205-4.333-1.66-.671-.162-1.084-.838-.921-1.509.162-.671.838-1.083 1.508-.921 1.736.42 3.188 1.014 4.266 1.546z" transform="matrix(1.74894 0 0 1.74894 -426.886 -279.047)"/><path d="m116.127 74.395 10.367-13.215s7.535-6.912 11.141-9.796c4.298-3.439 11.118-8.479 14.814-10.891 2.038-1.331 5.044-2.887 7.419-3.42 3.129-.702 6.269-.533 9.048.225 3.751 1.023 7.648 3.357 11.358 5.339 2.965 1.585 7.639 4.846 10.393 6.773 4.819 3.372 12.214 9.847 20.416 18.419 0 0-12.79 3.525-18.304 7.826-6.331 4.939-7.469 9.147-7.469 9.147s6.111 5.663 10.123 8.649c4.128 3.072 8.823 5.695 13.457 8.289 6.269 3.509 15.145 9.897 22.628 13.424 6.765 3.188 23.815 10.757 23.815 10.757s-12.067 17.056-29.946 41.101c-15.947 21.446-28.918 36.923-28.918 36.923s-18.886-20.269-28.606-27.862c-9.721-7.594-21.901-13.852-32.046-18.479-3.908-1.783-11.574-3.588-16.699-5.631-7.435-2.963-12.002-5.437-12.002-5.437s-.573 3.491-.709 5.437c-.248 3.543-.478 10.762-.96 15.607-.456 4.572-2.862 12.829-2.862 12.829s-12.191-5.822-17.472-7.281c-6.381-1.764-12.741-2.165-12.741-2.165s.757-12.222 1.25-18.368c.566-7.041.427-18.741.877-23.919.214-2.449.767-4.928 1.827-7.147 1.45-3.036 3.853-7.139 5.818-9.8 1.374-1.862 4.249-5.886 5.228-7.983 2.964-6.346 13.146-18.944 13.146-18.944z" fill="#4b6097"/><path d="m352.519 210.263c1.07.935 2.303 1.975 3.307 2.722 2.361 1.757 5.045 3.257 7.695 4.74 3.584 2.006 8.659 5.659 12.938 7.675 3.868 1.823 13.616 6.151 13.616 6.151s-6.899 9.752-17.122 23.5c-9.118 12.263-16.534 21.112-16.534 21.112s-10.799-11.589-16.357-15.931-12.522-7.92-18.323-10.566c-2.235-1.019-6.617-2.051-9.548-3.219-4.251-1.694-6.862-3.109-6.862-3.109s-.328 1.996-.406 3.109c-.141 2.025-.273 6.153-.549 8.924-.26 2.614-1.636 7.335-1.636 7.335s-6.97-3.329-9.99-4.164c-3.649-1.008-7.285-1.237-7.285-1.237s.433-6.989.715-10.503c.323-4.026.244-10.715.501-13.676.122-1.401.439-2.818 1.045-4.087.829-1.735 2.203-4.081 3.326-5.603.786-1.064 2.43-3.365 2.99-4.564 1.694-3.629 7.516-10.832 7.516-10.832l8.925-5.951 5.928-7.556s4.308-3.951 6.37-5.601c2.457-1.966 6.357-4.848 8.47-6.227 1.165-.761 2.884-1.651 4.242-1.955 1.789-.402 3.584-.305 5.174.128 2.144.585 4.372 1.92 6.494 3.053 1.695.906 4.367 2.771 5.942 3.873 2.756 1.928 6.984 5.63 11.673 10.531 0 0-7.313 2.016-10.465 4.475-3.62 2.824-4.271 5.23-4.271 5.23s.859.796 2.005 1.807zm-5.44-3.859c.488-1.184 1.815-3.598 5.18-6.222 1.583-1.235 4.1-2.385 6.389-3.275-2.97-2.858-5.571-5.052-7.458-6.372-1.486-1.04-4.002-2.809-5.602-3.664-1.901-1.015-3.879-2.253-5.801-2.777-1.095-.299-2.333-.369-3.566-.092-1.014.228-2.28.927-3.15 1.495-2.049 1.336-5.828 4.132-8.21 6.038-1.744 1.396-5.14 4.486-5.999 5.272l-5.758 7.34c-.219.278-.48.52-.774.716 0 0-8.5 5.667-8.501 5.668-1.196 1.493-5.409 6.84-6.769 9.751-.628 1.344-2.447 3.94-3.328 5.134-1.014 1.374-2.252 3.493-3 5.06-.436.911-.644 1.934-.732 2.939-.257 2.956-.177 9.635-.499 13.654-.157 1.956-.361 4.994-.51 7.29 1.361.207 3.002.516 4.645.97 1.692.468 4.563 1.673 6.881 2.699.242-1.053.456-2.141.54-2.988.273-2.74.401-6.823.541-8.826.086-1.222.441-3.416.441-3.416.175-1.064.854-1.978 1.822-2.453.969-.475 2.107-.452 3.055.062 0 0 2.478 1.337 6.509 2.943 2.978 1.187 7.427 2.248 9.698 3.283 6.015 2.744 13.228 6.47 18.991 10.972 3.952 3.087 10.499 9.751 14.125 13.527 2.88-3.544 8.095-10.076 14.039-18.07 6.638-8.927 11.871-16.164 14.714-20.128-3.192-1.428-7.63-3.423-9.954-4.519-4.345-2.047-9.506-5.744-13.145-7.782-2.776-1.553-5.584-3.133-8.057-4.974-2.402-1.787-6.064-5.174-6.064-5.174-.323-.3-1.192-1.163-1.376-1.315-1.631-1.344-7.148-7.467-7.148-7.467-.461-.513-.419-1.304.094-1.765s1.304-.419 1.765.094c0 0 3.861 4.303 5.972 6.372z" transform="matrix(1.74894 0 0 1.74894 -426.886 -279.047)"/><path d="m189.385 190.341c-1.688 2.831-4.011 6.346-6.215 7.691-1.621.988-4.554 1.145-6.431.86-1.917-.291-3.864-.719-5.561-1.808-2.062-1.321-4.907-3.434-6.414-4.584 0 0-2.019-1.716-2.63-2.316-1.38-1.356-4.825-5.357-5.801-7.459-.723-1.557-.551-3.719-.053-5.15.498-1.432 1.884-2.532 2.722-3.199.538-.428 2.17-1.342 2.17-1.342.897-.887 2.486-1.371 3.88-1.889 2.267-.844 7.038-.733 9.86-2.632 2.849-1.919 5.086-5.725 7.239-8.88 2.345-3.438 4.884-7.89 6.835-11.749 1.866-3.689 3.553-7.487 4.874-11.404 2.352-6.977 9.463-31.093 9.463-31.093s-6.888-4.026-13.405-9.012c-4.19-3.207-12.423-10.933-12.423-10.933s3.882-6.965 7.867-10.957c2.823-2.829 5.485-4.848 9.782-6.933 4.096-1.989 11.263-4.56 11.263-4.56l2.615 2.688s7.866 8.123 11.751 12.745c4.689 5.579 9.911 13.922 11.948 18.842 1.445 3.491 2.11 7.207 2.279 9.867.13 2.029-.466 4.124-.958 5.847-.428 1.501-1.176 3.892-1.899 5.275-.87 1.664-1.936 4.925-3.047 7.325-1.478 3.191-3.751 8.226-5.822 11.826-1.962 3.407-4.202 6.661-6.609 9.77-3.366 4.35-10.232 11.588-13.589 16.33-2.654 3.749-4.466 8.03-6.553 12.121-2.282 4.472-4.913 10.979-7.138 14.713z" fill="#feefe7"/><path d="m352.368 268.385c-.965 1.618-2.293 3.628-3.553 4.397-.927.565-2.605.655-3.678.492-1.096-.166-2.209-.412-3.18-1.034-1.178-.755-2.805-1.963-3.667-2.621 0 0-1.154-.981-1.503-1.324-.789-.776-2.759-3.063-3.317-4.265-.413-.89-.315-2.126-.031-2.945.285-.819 1.078-1.448 1.557-1.829.308-.245 1.24-.767 1.24-.767.513-.508 1.422-.784 2.219-1.08 1.296-.483 4.024-.419 5.638-1.505 1.629-1.097 2.908-3.274 4.139-5.077 1.341-1.966 2.792-4.512 3.908-6.718 1.067-2.11 2.031-4.281 2.786-6.521 1.345-3.989 5.411-17.778 5.411-17.778s-3.938-2.302-7.664-5.153c-2.396-1.834-7.103-6.251-7.103-6.251s2.22-3.983 4.498-6.265c1.614-1.617 3.136-2.772 5.593-3.964 2.342-1.137 6.44-2.607 6.44-2.607l1.495 1.537s4.498 4.644 6.719 7.287c2.681 3.189 5.667 7.96 6.831 10.773.827 1.996 1.207 4.121 1.304 5.642.074 1.16-.267 2.358-.548 3.343-.245.858-.672 2.225-1.086 3.016-.497.952-1.107 2.816-1.742 4.188-.846 1.825-2.145 4.704-3.329 6.762-1.122 1.948-2.403 3.809-3.779 5.587-1.925 2.487-5.851 6.625-7.77 9.337-1.517 2.143-2.553 4.591-3.747 6.93-1.304 2.557-2.809 6.278-4.081 8.413zm-13.645-2.88c.155.165.292.306.4.412.258.253 1.017.9 1.263 1.108.826.629 2.296 1.72 3.37 2.409.569.364 1.239.447 1.881.544.399.061 1.35-.063 1.504-.084.882-.582 1.686-2.08 2.363-3.216 1.243-2.085 2.702-5.724 3.976-8.221 1.266-2.482 2.386-5.068 3.995-7.341 1.942-2.743 5.908-6.935 7.855-9.451 1.283-1.659 2.48-3.393 3.526-5.21 1.138-1.977 2.381-4.746 3.193-6.5.658-1.42 1.298-3.346 1.813-4.331.326-.624.641-1.71.835-2.388.187-.655.476-1.442.426-2.215-.079-1.234-.386-2.959-1.057-4.579-1.071-2.589-3.836-6.968-6.303-9.904-2.072-2.465-6.174-6.712-6.536-7.086-1.287.493-2.933 1.152-4.111 1.723-2.059 1-3.336 1.965-4.689 3.321-.944.945-1.872 2.224-2.591 3.314 1.511 1.378 3.547 3.193 4.863 4.2 3.559 2.723 7.32 4.922 7.32 4.922l.015.009.286-.991c.191-.663.885-1.046 1.547-.854.663.191 1.046.885.855 1.547l-1.191 4.125c-.006.019-.011.037-.018.055-.315 1.07-4.13 13.981-5.428 17.83-.806 2.39-1.832 4.709-2.97 6.96-1.179 2.33-2.714 5.017-4.13 7.092-1.466 2.149-3.09 4.657-5.031 5.964-.981.66-2.213 1.092-3.489 1.358-.66.138-1.335.204-1.911.292.271.738.532 1.848.229 2.928-.179.638-.669 1.264-1.335 1.774-.227.174-.475.336-.725.484zm-.491-4.346c-.117.087-.24.167-.367.239 0 0-.6.312-.794.467-.119.094-.389.34-.512.454l-.024.39c.125.247.319.541.547.852.163-.085.329-.178.49-.28.229-.144.45-.302.626-.479.075-.076.154-.144.179-.231.146-.523.001-1.058-.145-1.412z" transform="matrix(1.74894 0 0 1.74894 -426.886 -279.047)"/><path d="m89.145 74.128s6.657 7.658 8.883 11.265c1.136 1.842 3.069 3.854 4.523 5.111 2.108 1.822 5.746 3.267 8.989 3.737 3.147.456 8.215.275 11.11-.669 2.896-.943 5.716-3.433 7.831-5.623 2.074-2.146 3.846-4.932 4.863-7.517.987-2.508 1.475-5.306 1.238-7.991-.254-2.871-1.633-6.346-2.912-8.478-1.04-1.735-2.977-3.377-4.789-4.713-4.492-3.313-9.426-9.214-9.426-9.214l-21.333 14.32z" fill="#feefe7"/><path d="m89.145 74.128s6.657 7.658 8.883 11.265c1.136 1.842 3.069 3.854 4.523 5.111 2.108 1.822 5.746 3.267 8.989 3.737 3.147.456 8.215.275 11.11-.669 2.896-.943 5.716-3.433 7.831-5.623 2.074-2.146 3.846-4.932 4.863-7.517.987-2.508 1.475-5.306 1.238-7.991-.254-2.871-1.633-6.346-2.912-8.478-1.04-1.735-2.977-3.377-4.789-4.713-4.492-3.313-9.426-9.214-9.426-9.214l-21.333 14.32zm7.759.171 5.043-5.489s16.579-11.13 16.579-11.13c1.964 2.046 4.489 4.488 6.895 6.262 1.196.882 2.563 1.874 3.25 3.019.906 1.511 1.924 3.959 2.103 5.992.159 1.798-.195 3.666-.855 5.345-.758 1.927-2.085 4.001-3.631 5.601-1.499 1.552-3.392 3.462-5.444 4.131-2.206.719-6.07.789-8.467.441-2.154-.312-4.613-1.167-6.013-2.377-1.077-.931-2.534-2.399-3.375-3.762-1.278-2.072-3.92-5.401-6.085-8.033z"/><path d="m90.354 12.002c3.03 0 19.464-1.934 27.634 2.156 8.455 4.233 8.641 14.519 11.115 15.995 2.748 1.639 1.531 12.384-.21 19.165-.383 1.493-2.42 2.566-2.615 3.564-.864 4.419-1.83 7.715-4.088 13.021-2.787 6.549-12.359 11.67-19.749 11.714-8.022.046-15.811-3.503-19.094-10.64-2.534-5.507-4.117-9.223-5.746-13.658-.788-2.144-1.534-1.041-2.512-4.736-1.917-7.245-3.487-20.024.654-21.471 4.008-1.401 10.543-15.11 14.611-15.11z" fill="#feefe7" transform="matrix(.751719 -.659483 .659483 .751719 -13.3081 82.1437)"/><path d="m90.354 12.002c3.03 0 19.464-1.934 27.634 2.156 8.455 4.233 8.641 14.519 11.115 15.995 2.748 1.639 1.531 12.384-.21 19.165-.383 1.493-2.42 2.566-2.615 3.564-.864 4.419-1.83 7.715-4.088 13.021-2.787 6.549-12.359 11.67-19.749 11.714-8.022.046-15.811-3.503-19.094-10.64-2.534-5.507-4.117-9.223-5.746-13.658-.788-2.144-1.534-1.041-2.512-4.736-1.917-7.245-3.487-20.024.654-21.471 4.008-1.401 10.543-15.11 14.611-15.11zm34.316 21.943c-.053 1.54-.351 8.962-1.253 13.189-.406.412-1.104 1.139-1.402 1.521-.812 1.041-1.264 2.114-1.459 3.109-.786 4.025-1.674 7.024-3.731 11.857-.731 1.717-2.263 3.206-4.041 4.471-3.085 2.194-7.015 3.675-10.377 3.695-5.709.033-11.427-2.168-13.764-7.247-2.455-5.335-3.992-8.935-5.57-13.231-.362-.984-.74-1.66-1.099-2.196-.346-.517-.816-.385-1.249-2.021-.827-3.125-1.588-7.395-1.738-11.135-.054-1.342.155-3.197.272-4.098.806-.473 1.652-1.114 2.497-1.933 1.815-1.758 3.908-4.636 5.97-7.445 1.24-1.69 3.2-3.921 3.895-4.701 2.696-.152 8.15-.592 13.703-.325 3.665.176 7.408.591 10.054 1.916 4.33 2.168 5.328 6.761 6.378 9.539.84 2.219 1.871 3.906 2.914 5.035z" transform="matrix(.751719 -.659483 .659483 .751719 -13.3081 82.1437)"/><path d="m99.691 14.118c3.849 1.038 8.292 3.861 11.716 6.806 3.594 3.091 7.429 8.027 9.848 11.74 2.096 3.218 3.847 7.721 4.665 10.536.592 2.036 1.675 4.788.247 6.355 0 0-4.466-8.289-6.701-10.669-1.285-1.368-5.049-3.049-6.711-3.612s-3.041-2.954-4.342-3.527c-1.056-.466-2.454-.476-3.463.085-3.765 2.095-14.66 10.365-19.126 12.482-2.31 1.096-6.061-.31-7.533 1.47s-1.948 5.889-1.299 9.209c.648 3.32 4.359 7.125 5.056 9.464.443 1.488-.501 3.805.293 5.138 1.614 2.713 9.396 11.138 9.396 11.138-2.376 1.598-5.678-1.168-8.224-2.478-3.036-1.562-7.439-4.694-9.99-6.895-2.082-1.797-3.844-3.986-5.315-6.31-2.606-4.117-4.25-8.547-5.195-12.612-.89-3.827-1.115-8.413-.475-11.779.589-3.097 3.001-6.435 4.315-8.415 1.693-2.55 4.94-6.064 7.946-8.523 3.577-2.925 9.365-7.426 13.514-9.026 3.543-1.367 7.711-1.566 11.378-.577z" fill="#996533" transform="translate(-9.32725 -8.77552)"/><path d="m99.691 14.118c3.849 1.038 8.292 3.861 11.716 6.806 3.594 3.091 7.429 8.027 9.848 11.74 2.096 3.218 3.847 7.721 4.665 10.536.592 2.036 1.675 4.788.247 6.355 0 0-4.466-8.289-6.701-10.669-1.285-1.368-5.049-3.049-6.711-3.612s-3.041-2.954-4.342-3.527c-1.056-.466-2.454-.476-3.463.085-3.765 2.095-14.66 10.365-19.126 12.482-2.31 1.096-6.061-.31-7.533 1.47s-1.948 5.889-1.299 9.209c.648 3.32 4.359 7.125 5.056 9.464.443 1.488-.501 3.805.293 5.138 1.614 2.713 9.396 11.138 9.396 11.138-2.376 1.598-5.678-1.168-8.224-2.478-3.036-1.562-7.439-4.694-9.99-6.895-2.082-1.797-3.844-3.986-5.315-6.31-2.606-4.117-4.25-8.547-5.195-12.612-.89-3.827-1.115-8.413-.475-11.779.589-3.097 3.001-6.435 4.315-8.415 1.693-2.55 4.94-6.064 7.946-8.523 3.577-2.925 9.365-7.426 13.514-9.026 3.543-1.367 7.711-1.566 11.378-.577zm8.29 11.56c-2.023-.234-4.164.114-5.865 1.06-3.632 2.021-13.99 9.915-18.53 12.18-.53.003-3.134.025-4.33.207-2.277.345-4.119 1.325-5.457 2.943-2.258 2.731-3.524 8.949-2.529 14.043.382 1.955 1.388 4.068 2.64 6.068.851 1.359 1.955 2.582 2.41 3.578l-.017.225c-1.207-1.218-2.255-2.605-3.169-4.05-2.234-3.529-3.633-7.33-4.443-10.814-.708-3.045-.936-6.692-.426-9.37.446-2.345 2.45-4.78 3.445-6.28 1.441-2.169 4.222-5.142 6.78-7.234 3.172-2.594 8.242-6.681 11.921-8.1 2.417-.933 5.261-1.062 7.762-.388 3.115.841 6.66 3.214 9.432 5.598z" transform="translate(-9.32725 -8.77552)"/><path d="m523.03 192.567s-1.507-.303-4.287-.863l-.863 4.287c2.78.559 4.287.863 4.287.863zm-8.573-1.725c-1.298-.261-2.73-.55-4.287-.863l-.862 4.286c1.557.314 2.989.602 4.286.863zm-8.573-1.726c-1.36-.273-2.79-.561-4.286-.862l-.863 4.286c1.496.301 2.926.589 4.286.863zm-8.573-1.725c-1.384-.279-2.813-.566-4.286-.863l-.863 4.287c1.473.296 2.903.584 4.287.862zm-8.573-1.725c-1.396-.281-2.826-.569-4.286-.863l-.863 4.286c1.461.294 2.89.582 4.287.863zm-8.573-1.726c-1.404-.282-2.833-.57-4.286-.863l-.863 4.287c1.453.292 2.882.58 4.287.863zm-8.573-1.725c-1.41-.284-2.839-.572-4.286-.863l-.863 4.286c1.448.292 2.877.579 4.287.863zm-8.573-1.726c-1.413-.284-2.843-.572-4.286-.862l-.863 4.286c1.444.291 2.873.578 4.287.863zm-8.573-1.725c-1.416-.285-2.845-.573-4.286-.863l-.863 4.287c1.441.29 2.87.577 4.287.862zm-8.572-1.725c-1.42-.286-2.849-.574-4.287-.863l-.863 4.286c1.438.29 2.867.577 4.287.863zm-8.573-1.726c-1.422-.286-2.851-.574-4.287-.863l-.863 4.287c1.436.289 2.865.576 4.287.863zm-8.573-1.725c-1.424-.287-2.853-.574-4.287-.863l-.862 4.286c1.434.289 2.863.577 4.286.863zm-8.573-1.726c-1.425-.286-2.854-.574-4.286-.862l-.863 4.286c1.432.288 2.861.576 4.286.863zm-8.573-1.725c-1.426-.287-2.855-.575-4.286-.863l-.863 4.287c1.431.288 2.86.575 4.287.862zm-8.572-1.725c-1.428-.288-2.857-.575-4.287-.863l-.862 4.286c1.429.288 2.858.576 4.286.863zm-8.573-1.726c-1.43-.287-2.859-.575-4.287-.862l-.862 4.286c1.427.287 2.857.575 4.286.863zm-8.573-1.725c-1.431-.288-2.86-.576-4.287-.863l-.862 4.287c1.426.287 2.855.574 4.286.862zm-8.573-1.725c-1.433-.289-2.862-.576-4.286-.863l-.863 4.286c1.425.287 2.854.575 4.286.863zm-8.573-1.726c-1.434-.289-2.863-.576-4.286-.863l-.863 4.287c1.423.286 2.852.574 4.287.863zm-8.573-1.725c-1.436-.289-2.865-.577-4.286-.863l-.863 4.286c1.421.286 2.85.574 4.287.863zm-8.572-1.726c-1.439-.289-2.868-.577-4.287-.862l-.862 4.286c1.419.286 2.848.573 4.286.863zm-8.573-1.725c-1.441-.29-2.87-.578-4.286-.863l-.863 4.287c1.416.285 2.845.572 4.286.862zm-8.573-1.725c-1.444-.291-2.873-.579-4.286-.863l-.863 4.286c1.413.285 2.843.572 4.287.863zm-8.572-1.726c-1.448-.291-2.878-.579-4.287-.862l-.863 4.286c1.41.284 2.839.571 4.287.863zm-8.573-1.725c-1.454-.293-2.883-.58-4.287-.863l-.862 4.287c1.403.282 2.833.57 4.286.862zm-8.573-1.725c-1.462-.295-2.891-.582-4.286-.863l-.863 4.286c1.395.281 2.825.569 4.286.863zm-8.573-1.726c-1.475-.297-2.904-.584-4.286-.863l-.863 4.287c1.382.278 2.812.566 4.286.863zm-12.958-2.096-.764 3.795c1.356.272 2.786.56 4.287.862l.862-4.286-2.249-.453.302-.011-.167-4.37c-1.54.059-2.998.115-4.369.167l.167 4.37zm-6.378-1.795-.089-2.334c-1.648.063-3.109.119-4.369.167l.167 4.37 1.68-.065-.348 1.726c1.28.258 2.713.546 4.287.863l.863-4.287zm-8.819-1.775-.009-.225c-.704.027-1.177.045-1.177.045s.072 4.372.072 4.372c-.145 0-.29-.015-.432-.043 0 0 1.088.218 3.12.627l.863-4.286zm22.004 3.31c1.404-.054 2.861-.11 4.37-.167l-.167-4.37c-1.509.058-2.966.114-4.37.167zm8.739-.334c1.418-.055 2.875-.11 4.369-.167l-.167-4.369c-1.493.057-2.951.112-4.369.167zm8.738-.334c1.428-.055 2.885-.111 4.369-.167l-.167-4.369c-1.484.056-2.941.112-4.369.167zm8.738-.334c1.435-.055 2.892-.111 4.37-.167l-.167-4.369c-1.478.056-2.935.112-4.37.167zm8.739-.334c1.438-.055 2.895-.111 4.369-.167l-.167-4.369c-1.474.056-2.931.112-4.369.167zm8.738-.334c1.442-.055 2.898-.111 4.369-.167l-.167-4.369c-1.471.056-2.927.112-4.369.167zm8.738-.334c1.445-.055 2.901-.111 4.369-.167l-.167-4.369c-1.468.056-2.924.112-4.369.167zm8.738-.334c1.447-.055 2.904-.111 4.369-.167l-.167-4.369c-1.465.056-2.922.111-4.369.167zm8.738-.334c1.449-.055 2.906-.111 4.369-.167l-.167-4.369c-1.463.056-2.92.111-4.369.167zm8.738-.334c1.451-.055 2.908-.111 4.37-.167l-.167-4.369c-1.462.056-2.919.111-4.37.167zm8.739-.334c1.452-.055 2.909-.111 4.369-.167l-.167-4.369c-1.46.056-2.917.111-4.369.167zm8.738-.334c1.454-.055 2.91-.111 4.369-.167l-.167-4.369c-1.459.056-2.915.111-4.369.167zm8.738-.334c1.455-.055 2.912-.111 4.37-.167l-.167-4.369c-1.458.056-2.915.111-4.37.167zm8.739-.334c1.456-.055 2.912-.111 4.369-.167l-.167-4.369c-1.457.056-2.913.111-4.369.167zm8.738-.334c1.457-.055 2.914-.111 4.369-.167l-.167-4.369c-1.455.056-2.912.111-4.369.167zm8.739-.334c1.458-.055 2.914-.111 4.369-.167l-.167-4.369c-1.455.056-2.911.111-4.369.167zm8.738-.334c1.46-.055 2.916-.111 4.369-.167l-.167-4.369c-1.453.056-2.909.111-4.369.167zm8.738-.334c1.461-.055 2.918-.111 4.369-.167l-.167-4.369c-1.451.056-2.908.111-4.369.167zm8.738-.334c1.463-.055 2.92-.111 4.37-.167l-.167-4.369c-1.45.056-2.907.111-4.37.167zm8.739-.334c1.464-.055 2.92-.111 4.369-.166l-.167-4.37c-1.448.056-2.905.111-4.369.167zm8.738-.333c1.466-.056 2.923-.112 4.369-.167l-.167-4.37c-1.446.056-2.903.111-4.369.167zm8.738-.334c1.469-.057 2.926-.112 4.37-.167l-.167-4.37c-1.444.056-2.901.111-4.37.167zm8.739-.334c1.471-.057 2.928-.112 4.369-.167l-.167-4.37c-1.441.056-2.898.111-4.369.167zm8.738-.334c1.475-.057 2.932-.112 4.369-.167l-.167-4.369c-1.437.054-2.894.11-4.369.167zm8.738-.334c1.48-.057 2.937-.113 4.369-.167l-.166-4.369c-1.433.054-2.89.11-4.37.167zm8.739-.334c1.486-.057 2.943-.113 4.369-.167l-.167-4.369c-1.426.054-2.883.11-4.369.167zm8.738-.334c1.497-.057 2.954-.113 4.369-.167l-.167-4.369c-1.415.054-2.872.109-4.369.167zm8.738-.334c1.517-.058 2.974-.114 4.369-.167l-.167-4.369c-1.395.053-2.852.109-4.369.167zm8.738-.334c1.561-.06 3.02-.115 4.37-.167l-.167-4.369c-1.35.051-2.809.107-4.369.167zm8.739-.334c1.782-.068 3.248-.124 4.369-.167l-.167-4.369c-1.121.043-2.587.099-4.369.167z" fill="#ec3237"/><g transform="matrix(1.74894 0 0 1.74894 -426.8858 -279.048)"><path d="m530.132 260.944-10.515 3.8 3.269-10.691z" fill="#ec3237"/><path d="m532.135 240.358c.039 1.532-.036 3.26-.314 5.124-.796 5.321-3.525 9.714-6.69 13.466" fill="none" stroke="#ec3237" stroke-linecap="square" stroke-width="3.33"/></g></g></svg>