<svg clip-rule="evenodd" fill-rule="evenodd" stroke-linejoin="round" stroke-miterlimit="2" viewBox="0 0 569 385" xmlns="http://www.w3.org/2000/svg"><g transform="matrix(.628125 -.778112 .778112 .628125 -99.1453 240.479)"><path d="m170.381 304.335h12.004v72.188h-12.004z" fill="#d2d3d5" transform="matrix(.535553 .663435 -.634947 .512556 170.685756 -54.040012)"/><path d="m182.385 304.335h-12.004v72.188h12.004zm-3.909 4.085v64.018h-4.185v-64.018z" transform="matrix(.535553 .663435 -.634947 .512556 170.685756 -54.040012)"/><path d="m170.381 304.335h12.004v72.188h-12.004z" fill="#d2d3d5" transform="matrix(.535553 .663435 -.634947 .512556 211.976574 -2.889568)"/><path d="m182.385 304.335h-12.004v72.188h12.004zm-3.909 4.085v64.018h-4.185v-64.018z" transform="matrix(.535553 .663435 -.634947 .512556 211.976574 -2.889568)"/><path d="m167.295 304.335h15.09v72.188h-15.09z" fill="#d2d3d5" transform="matrix(.40710972 .50432139 -.27470918 .22175684 115.639624 102.082015)"/><path d="m182.385 304.335h-15.09v72.188h15.09zm-5.143 9.442v53.304h-4.804v-53.304z" transform="matrix(.40710972 .50432139 -.27470918 .22175684 115.639624 102.082015)"/><path d="m170.381 304.335h15.09v72.188h-15.09z" fill="#d2d3d5" transform="matrix(.40710972 .50432139 -.27470918 .22175684 93.067136 74.119556)"/><path d="m185.471 304.335h-15.09v72.188h15.09zm-5.143 9.442v53.304h-4.804v-53.304z" transform="matrix(.40710972 .50432139 -.27470918 .22175684 93.067136 74.119556)"/><path d="m265.016 295.482-15.988-114.795h-73.139l-11.869 114.795v16.342h100.996z" fill="#f68634" transform="matrix(.53994453 .66887517 -.16073175 .12974945 29.843619 58.1803)"/><path d="m265.016 295.482-15.988-114.795h-73.139l-11.869 114.795v16.342h100.996zm-96.796.205 10.222-98.863h68.352l13.769 98.863z" transform="matrix(.53994453 .66887517 -.16073175 .12974945 29.843619 58.1803)"/><path d="m164.02 295.482h100.996v13.352h-100.996z" fill="#f68634" transform="matrix(.53994453 .66887517 -.6612592 .53379632 177.739601 -61.207576)"/><path d="m265.016 295.482h-100.996v13.351h100.996zm-3.878 3.922v5.507h-93.24v-5.507z" transform="matrix(.53994453 .66887517 -.6612592 .53379632 177.739601 -61.207576)"/><g transform="matrix(.995515 -.0946027 .0946027 .995515 -18.3368 -9.71427)"><path d="m24.199 191.212s-5.202-2.748-9.76-1.356c-2.747.839-5.245 2.644-5.245 2.644s-3.888.286-6.763 3.211c-1.576 1.604-.117 6.119 2.202 9.439s5.991 7.202 7.488 9.799c1.573 2.732 2.406 5.296 3.944 7.755 1.867 2.981 4.954 7.253 7.254 10.136 2.268 2.842 5.984 6.369 8.056 5.696 5.446-1.769 4.099-6.388 3.262-9.37-.724-2.582-2.044-5.042-2.424-7.709-.441-3.093-.343-5.501-.22-10.853.115-5.017.109-7.142.109-7.142z" fill="#4b4b4d"/><path d="m24.199 191.212s-5.202-2.748-9.76-1.356c-2.747.839-5.245 2.644-5.245 2.644s-3.888.286-6.763 3.211c-1.576 1.604-.117 6.119 2.202 9.439s5.991 7.202 7.488 9.799c1.573 2.732 2.406 5.296 3.944 7.755 1.867 2.981 4.954 7.253 7.254 10.136 2.268 2.842 5.984 6.369 8.056 5.696 5.446-1.769 4.099-6.388 3.262-9.37-.724-2.582-2.044-5.042-2.424-7.709-.441-3.093-.343-5.501-.22-10.853.115-5.017.109-7.142.109-7.142zm6.588 44.217c-.298-.156-.997-.536-1.439-.883-1.289-1.01-2.593-2.41-3.586-3.655-2.234-2.8-5.235-6.949-7.048-9.846-1.518-2.425-2.333-4.96-3.886-7.655-1.529-2.655-5.263-6.636-7.633-10.029-.945-1.354-1.728-2.945-2.101-4.367-.114-.436-.159-1.065-.174-1.342 1.993-1.833 4.503-2.035 4.503-2.035.577-.043 1.132-.245 1.601-.584 0 0 2.06-1.496 4.327-2.189 2.575-.786 5.413.226 6.693.794h.001l6.928 10.738c-.008 1.047-.033 3.036-.104 6.156-.129 5.605-.211 8.126.25 11.366.4 2.802 1.748 5.4 2.509 8.112.216.77.481 1.664.607 2.583.095.698.194 1.443-.241 2.035-.25.34-.655.589-1.207.801z"/><path d="m8.718 192.892s-7.472 7.651-.193 17.213c.522.686 1.504.819 2.19.297.686-.523.819-1.504.297-2.19-5.562-7.306-.042-13.153-.042-13.153.598-.621.579-1.611-.042-2.209-.622-.598-1.612-.579-2.21.042z"/></g><g transform="matrix(.995515 -.0946027 .0946027 .995515 -24.9968 -3.49992)"><path d="m23.278 190.268s-4.281-1.804-8.839-.412c-2.747.839-5.245 2.644-5.245 2.644s-3.888.286-6.763 3.211c-1.576 1.604-.117 6.119 2.202 9.439s5.991 7.202 7.488 9.799c1.573 2.732 2.406 5.296 3.944 7.755 1.867 2.981 4.954 7.253 7.254 10.136 2.268 2.842 5.984 6.369 8.056 5.696 5.446-1.769 4.099-6.388 3.262-9.37-.724-2.582-2.044-5.042-2.424-7.709-.441-3.093-.343-5.501-.22-10.853.115-5.017.109-7.142.109-7.142z" fill="#4b4b4d"/><path d="m23.278 190.268s-4.281-1.804-8.839-.412c-2.747.839-5.245 2.644-5.245 2.644s-3.888.286-6.763 3.211c-1.576 1.604-.117 6.119 2.202 9.439s5.991 7.202 7.488 9.799c1.573 2.732 2.406 5.296 3.944 7.755 1.867 2.981 4.954 7.253 7.254 10.136 2.268 2.842 5.984 6.369 8.056 5.696 5.446-1.769 4.099-6.388 3.262-9.37-.724-2.582-2.044-5.042-2.424-7.709-.441-3.093-.343-5.501-.22-10.853.115-5.017.109-7.142.109-7.142zm7.509 45.161c-.298-.156-.997-.536-1.439-.883-1.289-1.01-2.593-2.41-3.586-3.655-2.234-2.8-5.235-6.949-7.048-9.846-1.518-2.425-2.333-4.96-3.886-7.655-1.529-2.655-5.263-6.636-7.633-10.029-.945-1.354-1.728-2.945-2.101-4.367-.114-.436-.159-1.065-.174-1.342 1.993-1.833 4.503-2.035 4.503-2.035.577-.043 1.132-.245 1.601-.584 0 0 2.06-1.496 4.327-2.189 2.422-.739 4.74-.295 5.915.038h.001l7.706 11.522c-.009 1.055-.033 3.036-.104 6.128-.129 5.605-.211 8.126.25 11.366.4 2.802 1.748 5.4 2.509 8.112.216.77.481 1.664.607 2.583.095.698.194 1.443-.241 2.035-.25.34-.655.589-1.207.801z"/><path d="m8.718 192.892s-7.472 7.651-.193 17.213c.522.686 1.504.819 2.19.297.686-.523.819-1.504.297-2.19-5.562-7.306-.042-13.153-.042-13.153.598-.621.579-1.611-.042-2.209-.622-.598-1.612-.579-2.21.042z"/></g><path d="m59.297 265.624c.512-8.747-3.1-18.256-4.584-26.729-1.796-10.248-2.05-14.375-4.632-28.664-.18-.999-.285-2.011-.314-3.027-.077-1.058-.068-1.736.038-1.952h.001c.271-3.979.833-7.582 3.526-10.918 6.978-8.644 19.661-9.996 28.304-3.019 4.953 3.998-.194 10.199-.224 16.108l2.072 1.018c-.006 1.203-1.292 3.498-.13 4.514 11.68 10.215 2.54 52.022-.268 58.862-1.198 2.919-3.67 4.873-3.67 4.873.44 3.084.793 4.72.086 12.761-.028.312-.087.617-.145.92-1.451 11.435-9.686 36.667-9.526 54.362.04 4.396-4.321 7.585-8.697 7.161s-7.554-4.318-7.161-8.697c2.825-31.543-2.214-48.748-1.677-55.88.011-.165.025-.33.043-.496.246-2.357 1.201-11.667 5.778-18.636.601-.916 1.129-1.701 1.18-2.561z" fill="#feefe7" transform="matrix(.628125 .778112 -.778112 .628125 249.395 -73.9049)"/><path d="m59.297 265.624c.512-8.747-3.1-18.256-4.584-26.729-1.796-10.248-2.05-14.375-4.632-28.664-.18-.999-.285-2.011-.314-3.027-.077-1.058-.068-1.736.038-1.952h.001c.271-3.979.833-7.582 3.526-10.918 6.978-8.644 19.661-9.996 28.304-3.019 4.953 3.998-.194 10.199-.224 16.108l2.072 1.018c-.006 1.203-1.292 3.498-.13 4.514 11.68 10.215 2.54 52.022-.268 58.862-1.198 2.919-3.67 4.873-3.67 4.873.44 3.084.793 4.72.086 12.761-.028.312-.087.617-.145.92-1.451 11.435-9.686 36.667-9.526 54.362.04 4.396-4.321 7.585-8.697 7.161s-7.554-4.318-7.161-8.697c2.825-31.543-2.214-48.748-1.677-55.88l.043-.496c.246-2.357 1.201-11.667 5.778-18.636.601-.916 1.129-1.701 1.18-2.561zm20.62-55.459c-.114.567-.182 1.13-.173 1.652.026 1.394.521 2.588 1.553 3.49 3.014 2.636 4.142 7.812 4.564 13.794 1.104 15.692-3.765 36.899-5.666 41.53-.887 2.16-2.717 3.608-2.717 3.608-.872.689-1.312 1.791-1.155 2.892.414 2.911.734 4.455.066 12.046-.018.208-.064.41-.102.612l-.03.189c-1.462 11.521-9.712 36.953-9.551 54.783.024 2.588-2.695 4.272-5.271 4.023-2.666-.258-4.589-2.641-4.35-5.308 2.827-31.568-2.211-48.787-1.673-55.924l.035-.406c.228-2.179 1.051-10.804 5.282-17.246.944-1.438 1.608-2.743 1.687-4.094.526-8.978-3.102-18.753-4.625-27.45-1.797-10.254-2.052-14.384-4.634-28.681-.153-.845-.242-1.701-.266-2.56-.002-.045-.004-.091-.007-.137-.028-.381-.036-.822-.038-1.007.04-.164.065-.333.077-.506.227-3.329.588-6.377 2.841-9.168 5.894-7.302 16.608-8.444 23.91-2.55 1.388 1.12 1.057 2.611.68 4.174-.725 3.011-2.051 6.296-2.067 9.486-.006 1.153.623 2.211 1.63 2.758z" transform="matrix(.628125 .778112 -.778112 .628125 249.395 -73.9049)"/><path d="m116.702 148.915-23.511-27.469c1.701-1.586 12.361-11.552 18.105-19.09 4.918-6.455 8.151-9.83 11.807-11.823s14.085-6.943 16.67-7.99c0 0 6.617 13.882 18.926 27.424 0 0-8.839 7.158-11.569 10.468-.075.09-.149.18-.223.271-6.193 7.52-12.156 15.448-30.205 28.209z" fill="#aaabaf"/><path d="m116.702 148.915-23.511-27.469c1.701-1.586 12.361-11.552 18.105-19.09 4.918-6.455 8.151-9.83 11.807-11.823s14.085-6.943 16.67-7.99c0 0 6.617 13.882 18.926 27.424 0 0-8.839 7.158-11.569 10.468-.075.09-.149.18-.223.271-6.193 7.52-12.156 15.448-30.205 28.209zm.51-4.209-19.711-23.031c3.91-3.736 11.655-11.355 16.281-17.426 4.535-5.951 7.445-9.135 10.816-10.972 2.805-1.529 9.675-4.834 13.747-6.692 2.379 4.406 7.769 13.607 15.879 23.037-2.93 2.47-7.617 6.536-9.505 8.825-.075.09-.15.181-.225.272-5.795 7.038-11.384 14.442-27.282 25.987z"/><g transform="matrix(.916636 .399724 -.399724 .916636 26.545 -82.9694)"><path d="m219.495 3.925s-9.089 4.542-13.711 14.095c-4.492 9.283-6.327 16.598-6.379 25.522-.046 7.945 8.074-2.125 8.074-2.125s3.044-7.849 7.012-14.315c5.57-9.079 5.004-23.177 5.004-23.177z" fill="#996533" transform="matrix(.984868 .173308 -.173308 .984868 4.1051 -37.974)"/><path d="m219.495 3.925s-9.089 4.542-13.711 14.095c-4.492 9.283-6.327 16.598-6.379 25.522-.046 7.945 8.074-2.125 8.074-2.125s3.044-7.849 7.012-14.315c5.57-9.079 5.004-23.177 5.004-23.177zm-3.298 5.995c-.379 4.523-1.448 10.785-4.37 15.547-3.526 5.748-6.35 12.55-7.078 14.36-.427.518-1.264 1.49-2.194 2.334.229-7.835 2.023-14.474 6.042-22.78 2.046-4.229 5.065-7.367 7.6-9.461z" transform="matrix(.984868 .173308 -.173308 .984868 4.1051 -37.974)"/><path d="m216.272 28.893c4.095-4.929-4.849-8.226 4.908-19.477 9.756-11.251 23.955 1.53 26.372 7.823.811 2.113.927 6.673.464 9.614-.464 2.941-2.031 2.822-2.631 5.188-.599 2.366 2.492 7.515 1.238 8.769s-3.82 1.022-3.82 1.022c-1.059 3.032-3.474 4.042-3.474 4.042.482 6.557-4.408 6.032-5.712 5.735s-7.563-4.619-7.563-4.619c-9.663 8.96-10.329 17.535-10.329 17.535l-13.009-24.536s9.461-6.168 13.556-11.096z" fill="#feefe7" transform="translate(1.5486 .483777)"/><path d="m216.272 28.893c4.095-4.929-4.849-8.226 4.908-19.477 9.756-11.251 23.955 1.53 26.372 7.823.811 2.113.927 6.673.464 9.614-.464 2.941-2.031 2.822-2.631 5.188-.599 2.366 2.492 7.515 1.238 8.769s-3.82 1.022-3.82 1.022c-1.059 3.032-3.474 4.042-3.474 4.042.482 6.557-4.408 6.032-5.712 5.735s-7.563-4.619-7.563-4.619c-9.663 8.96-10.329 17.535-10.329 17.535l-13.009-24.536s9.461-6.168 13.556-11.096zm27.211 9.826c-.238.011-.399.001-.399.001-1.427-.129-2.759.729-3.231 2.081-.555 1.587-1.73 2.189-1.73 2.189-1.24.519-2.009 1.772-1.911 3.112.089 1.211.085 1.965-.355 2.345-.429.371-1.036.243-1.382.155-.15-.077-.912-.474-1.459-.802-2.216-1.329-5.186-3.382-5.186-3.382-1.205-.832-2.827-.716-3.901.28-4.563 4.232-7.292 8.403-8.922 11.801 0 .001-8.224-15.51-8.224-15.51 3.213-2.264 8.904-6.502 11.893-10.099 1.97-2.371 2.112-4.493 1.693-6.808-.304-1.679-1.26-3.528-.641-6.161.414-1.763 1.535-3.831 3.813-6.458 3.717-4.287 8.298-3.891 12.162-1.928 4.304 2.185 7.906 6.154 8.932 8.824.675 1.759.68 5.559.294 8.007-.209 1.324-.883 1.617-1.331 2.235-.495.686-.943 1.492-1.242 2.672-.296 1.167-.155 2.786.308 4.494.227.835.57 2.063.819 2.952z" transform="translate(1.5486 .483777)"/><path d="m249.726 20.913s2.19-2.766 1.402-5.564-7.59-9.565-12.541-11.671c-4.95-2.106-14.685-1.905-19.092.247-5.973 2.915-9.632 7.73-9.33 16.166.254 7.087-.033 10.537 3.291 13.712 3.802 3.632 7.175-3.393 8.701-4.624s4.979-.798 7.575-.859 3.579-2.391 3.579-2.391 2.647-.05 4.562-1.169c1.916-1.119 2.379-4.089 5.015-4.432 2.636-.344 6.838.585 6.838.585z" fill="#996533"/><path d="m476.836 30.739c-.307.473-.753.931-1.398 1.286-2.274 1.254-5.536 2.466-6.32 4.263-.784 1.796-.528 9.585-5.579 8.121-4.415-1.279-5.755-4.471-9.256-10.638-4.166-7.341-3.146-13.302.803-18.649 2.914-3.944 11.453-8.621 16.817-9.042 5.363-.42 14.523 2.437 16.515 4.554s1.327 5.582 1.327 5.582-4.155 1.118-6.334 2.641c-2.178 1.523-1.216 4.37-2.398 6.248s-3.506 3.145-3.506 3.145.07.866-.329 1.834c0 0-.108.246-.165.355-.054.103-.177.3-.177.3zm-3.782-21.579h.036c2.768-.002 6.326.802 9.177 1.789 1.774.613 3.283 1.197 3.875 1.826.315.334.485.738.57 1.135-1.591.56-3.691 1.407-5.091 2.386-1.587 1.109-2.327 2.561-2.7 4.174-.142.618-.223 1.263-.313 1.898-.053.376-.045.763-.24 1.073-.786 1.249-1.76 1.526-2.357 2.065-.42.38-.956.689-1.227 1.174-.268.481-.428 1.13-.398 1.724l.001.014s.017.609-.457.87c-1.424.785-3.214 1.564-4.599 2.459-1.474.953-2.555 2.094-3.077 3.291-.356.817-.587 2.71-1.027 4.597-.123.527-.269 1.055-.487 1.515-.04.086-.114.205-.172.293-.054-.01-.113-.022-.159-.035-1.874-.543-2.911-1.638-4.018-3.317-1.013-1.536-2.031-3.47-3.39-5.863-3.407-6.002-2.63-10.878.598-15.249 2.518-3.409 9.913-7.42 14.548-7.783.291-.023.594-.034.907-.036z" transform="matrix(.886792 .462169 -.462169 .886792 -177.082 -219.812)"/></g><path d="m140.42 87.448s5.949 13.551 19.383 27.308c0 0 12.982-8.703 20.629-14.512 2.258-1.715 7.003-6.056 7.003-6.056 4.455 6.282 14.503 2.687 17.362-3.753 1.941-4.371 2.234-6.951 2.486-12.133.318-6.538 2.799-16.495 1.722-20.771-2.166-8.605-4.169-18.575-4.169-18.575-7.671-1.249-16.543 6.591-25.774 14.2-8.135 6.706-13.086 13.416-20.808 19.893-4.416 3.703-17.834 14.399-17.834 14.399z" fill="#f7acb0" transform="translate(-2.73359 -3.38633)"/><path d="m140.42 87.448s5.949 13.551 19.383 27.308c0 0 12.982-8.703 20.629-14.512 2.258-1.715 7.003-6.056 7.003-6.056 4.455 6.282 14.503 2.687 17.362-3.753 1.941-4.371 2.234-6.951 2.486-12.133.318-6.538 2.799-16.495 1.722-20.771-2.166-8.605-4.169-18.575-4.169-18.575-7.671-1.249-16.543 6.591-25.774 14.2-8.135 6.706-13.086 13.416-20.808 19.893-4.416 3.703-17.834 14.399-17.834 14.399zm3.906.88c3.9-3.117 12.552-10.047 15.936-12.885 7.715-6.47 12.66-13.176 20.788-19.875 5.366-4.424 10.589-8.953 15.529-11.587 1.968-1.05 3.863-1.806 5.691-1.992.732 3.504 2.178 10.241 3.705 16.305.364 1.446.166 3.661-.123 6.152-.521 4.487-1.496 9.721-1.69 13.704-.229 4.702-.46 7.05-2.221 11.016-1.062 2.392-3.491 4.216-6.036 4.898-2.169.581-4.51.305-5.92-1.684-.519-.731-1.326-1.204-2.217-1.3-.891-.095-1.781.197-2.442.802 0 0-4.595 4.211-6.784 5.874-5.671 4.307-14.297 10.217-18.299 12.932-8.73-9.4-13.864-18.385-15.917-22.36z" transform="translate(-2.73359 -3.38633)"/><path d="m50.965 148.327c-1.758-9.819-.711-21.595 1.33-26.344 2.379-5.536 6.7-9.271 12.067-8.873 5.368.399 8.541 7.459 8.434 12.84-.228 11.429-1.392 15.94-5.734 22.807 0 0 1.656 5.044 1.344 9.437-.221 3.1-.875 5.849-1.72 7.194 4.763-.818 9.849-1.271 14.091-1.622 2.468-.204 7.269-.309 7.269-.309 14.983 0 14.547-4.238 21.771-4.238 5.927 0 12.725.407 12.649 10.329-.054 7.073-6.722 11.149-12.649 11.149-8.796 0-10.885-5.189-20.763-3.126 0 0-4.794 1.15-7.327 1.45-18.006 2.132-28.047 2.988-30.328-2.119v-.002c-3.389-7.399-3.286-12.095-3.295-15.922-.009-4.011 1.061-10.32 2.861-12.651z" fill="#feefe7" transform="matrix(.62812501 .77811228 -.77811228 .62812501 249.395494 -73.904393)"/><path d="m50.965 148.327c-1.758-9.819-.711-21.595 1.33-26.344 2.379-5.536 6.7-9.271 12.067-8.873 5.368.399 8.541 7.459 8.434 12.84-.228 11.429-1.392 15.94-5.734 22.807 0 0 1.656 5.044 1.344 9.437-.221 3.1-.875 5.849-1.72 7.194 4.763-.818 9.849-1.271 14.091-1.622 2.468-.204 7.269-.309 7.269-.309 14.983 0 14.547-4.238 21.771-4.238 5.927 0 12.725.407 12.649 10.329-.054 7.073-6.722 11.149-12.649 11.149-8.796 0-10.885-5.189-20.763-3.126 0 0-4.794 1.15-7.327 1.45-18.006 2.132-28.047 2.988-30.328-2.119v-.002c-3.389-7.399-3.286-12.095-3.295-15.922-.009-4.011 1.061-10.32 2.861-12.651zm3.283 27.309c-.005-.023-.012-.045-.021-.064-.001-.003-.002-.006-.004-.009-3.095-6.777-2.986-11.084-2.994-14.592-.005-2.18.345-5.109.975-7.56.339-1.318.709-2.493 1.235-3.174.539-.698.758-1.592.602-2.461-1.638-9.151-.777-20.133 1.125-24.559 1.806-4.202 4.891-7.293 8.965-6.99 1.27.094 2.275.912 3.089 1.952 1.638 2.093 2.503 5.145 2.452 7.709-.212 10.613-1.219 14.822-5.252 21.199-.498.788-.618 1.758-.327 2.645 0 0 1.469 4.403 1.196 8.24-.176 2.468-.577 4.683-1.249 5.754-.656 1.045-.636 2.377.05 3.401.686 1.025 1.91 1.55 3.126 1.341 4.671-.803 9.659-1.243 13.818-1.587 2.271-.188 6.567-.288 7.038-.299 9.694-.004 13.398-1.678 16.498-2.995 1.555-.661 2.9-1.243 5.247-1.243 2.785 0 5.879-.166 7.845 1.604 1.164 1.048 1.7 2.816 1.679 5.576-.04 5.231-5.141 8.048-9.524 8.048-3.933 0-6.353-1.219-8.907-2.148-3.309-1.204-6.774-2.107-12.495-.912-.03.006-.06.013-.09.02 0 0-4.557 1.101-6.966 1.386-10.459 1.238-18.139 2.081-23.089 1.45-2.019-.257-3.477-.531-4.017-1.74z" transform="matrix(.62812501 .77811228 -.77811228 .62812501 249.395494 -73.904393)"/><g transform="translate(111.83 138.534)"><path d="m170.381 304.335h12.004v72.188h-12.004z" fill="#d2d3d5" transform="matrix(.535553 .663435 -.634947 .512556 170.685756 -54.040012)"/><path d="m182.385 304.335h-12.004v72.188h12.004zm-3.909 4.085v64.018h-4.185v-64.018z" transform="matrix(.535553 .663435 -.634947 .512556 170.685756 -54.040012)"/><path d="m170.381 304.335h12.004v72.188h-12.004z" fill="#d2d3d5" transform="matrix(.535553 .663435 -.634947 .512556 211.976574 -2.889568)"/><path d="m182.385 304.335h-12.004v72.188h12.004zm-3.909 4.085v64.018h-4.185v-64.018z" transform="matrix(.535553 .663435 -.634947 .512556 211.976574 -2.889568)"/><path d="m167.295 304.335h15.09v72.188h-15.09z" fill="#d2d3d5" transform="matrix(.40710972 .50432139 -.27470918 .22175684 115.639624 102.082015)"/><path d="m182.385 304.335h-15.09v72.188h15.09zm-5.143 9.442v53.304h-4.804v-53.304z" transform="matrix(.40710972 .50432139 -.27470918 .22175684 115.639624 102.082015)"/><path d="m170.381 304.335h15.09v72.188h-15.09z" fill="#d2d3d5" transform="matrix(.40710972 .50432139 -.27470918 .22175684 93.067136 74.119556)"/><path d="m185.471 304.335h-15.09v72.188h15.09zm-5.143 9.442v53.304h-4.804v-53.304z" transform="matrix(.40710972 .50432139 -.27470918 .22175684 93.067136 74.119556)"/><path d="m265.016 295.482-15.988-114.795h-73.139l-11.869 114.795v16.342h100.996z" fill="#f68634" transform="matrix(.53994453 .66887517 -.16073175 .12974945 29.843619 58.1803)"/><path d="m265.016 295.482-15.988-114.795h-73.139l-11.869 114.795v16.342h100.996zm-96.796.205 10.222-98.863h68.352l13.769 98.863z" transform="matrix(.53994453 .66887517 -.16073175 .12974945 29.843619 58.1803)"/><path d="m164.02 295.482h100.996v13.352h-100.996z" fill="#f68634" transform="matrix(.53994453 .66887517 -.6612592 .53379632 177.739601 -61.207576)"/><path d="m265.016 295.482h-100.996v13.351h100.996zm-3.878 3.922v5.507h-93.24v-5.507z" transform="matrix(.53994453 .66887517 -.6612592 .53379632 177.739601 -61.207576)"/><g transform="matrix(.995515 -.0946027 .0946027 .995515 -24.9968 -3.49992)"><path d="m23.278 190.268s-4.281-1.804-8.839-.412c-2.747.839-5.245 2.644-5.245 2.644s-3.888.286-6.763 3.211c-1.576 1.604-.117 6.119 2.202 9.439s5.991 7.202 7.488 9.799c1.573 2.732 2.406 5.296 3.944 7.755 1.867 2.981 4.954 7.253 7.254 10.136 2.268 2.842 5.984 6.369 8.056 5.696 5.446-1.769 4.099-6.388 3.262-9.37-.724-2.582-2.044-5.042-2.424-7.709-.441-3.093-.343-5.501-.22-10.853.115-5.017.109-7.142.109-7.142z" fill="#4b4b4d"/><path d="m23.278 190.268s-4.281-1.804-8.839-.412c-2.747.839-5.245 2.644-5.245 2.644s-3.888.286-6.763 3.211c-1.576 1.604-.117 6.119 2.202 9.439s5.991 7.202 7.488 9.799c1.573 2.732 2.406 5.296 3.944 7.755 1.867 2.981 4.954 7.253 7.254 10.136 2.268 2.842 5.984 6.369 8.056 5.696 5.446-1.769 4.099-6.388 3.262-9.37-.724-2.582-2.044-5.042-2.424-7.709-.441-3.093-.343-5.501-.22-10.853.115-5.017.109-7.142.109-7.142zm7.509 45.161c-.298-.156-.997-.536-1.439-.883-1.289-1.01-2.593-2.41-3.586-3.655-2.234-2.8-5.235-6.949-7.048-9.846-1.518-2.425-2.333-4.96-3.886-7.655-1.529-2.655-5.263-6.636-7.633-10.029-.945-1.354-1.728-2.945-2.101-4.367-.114-.436-.159-1.065-.174-1.342 1.993-1.833 4.503-2.035 4.503-2.035.577-.043 1.132-.245 1.601-.584 0 0 2.06-1.496 4.327-2.189 2.422-.739 4.74-.295 5.915.038h.001l7.706 11.522c-.009 1.055-.033 3.036-.104 6.128-.129 5.605-.211 8.126.25 11.366.4 2.802 1.748 5.4 2.509 8.112.216.77.481 1.664.607 2.583.095.698.194 1.443-.241 2.035-.25.34-.655.589-1.207.801z"/><path d="m8.718 192.892s-7.472 7.651-.193 17.213c.522.686 1.504.819 2.19.297.686-.523.819-1.504.297-2.19-5.562-7.306-.042-13.153-.042-13.153.598-.621.579-1.611-.042-2.209-.622-.598-1.612-.579-2.21.042z"/></g><path d="m50.965 148.327c-1.758-9.819-.711-21.595 1.33-26.344 2.379-5.536 6.7-9.271 12.067-8.873 5.368.399 8.541 7.459 8.434 12.84-.228 11.429-1.392 15.94-5.734 22.807 0 0 1.656 5.044 1.344 9.437-.221 3.1-.875 5.849-1.72 7.194 4.763-.818 9.849-1.271 14.091-1.622 2.468-.204 7.269-.309 7.269-.309 14.983 0 14.547-4.238 21.771-4.238 5.927 0 12.725.407 12.649 10.329-.054 7.073-6.722 11.149-12.649 11.149-8.796 0-10.885-5.189-20.763-3.126 0 0-4.794 1.15-7.327 1.45-18.006 2.132-28.047 2.988-30.328-2.119v-.002c-3.389-7.399-3.286-12.095-3.295-15.922-.009-4.011 1.061-10.32 2.861-12.651z" fill="#feefe7" transform="matrix(.38632411 .7820998 -.7820998 .38632411 261.990356 -38.765924)"/><path d="m50.965 148.327c-1.758-9.819-.711-21.595 1.33-26.344 2.379-5.536 6.7-9.271 12.067-8.873 5.368.399 8.541 7.459 8.434 12.84-.228 11.429-1.392 15.94-5.734 22.807 0 0 1.656 5.044 1.344 9.437-.221 3.1-.875 5.849-1.72 7.194 4.763-.818 9.849-1.271 14.091-1.622 2.468-.204 7.269-.309 7.269-.309 14.983 0 14.547-4.238 21.771-4.238 5.927 0 12.725.407 12.649 10.329-.054 7.073-6.722 11.149-12.649 11.149-8.796 0-10.885-5.189-20.763-3.126 0 0-4.794 1.15-7.327 1.45-18.006 2.132-28.047 2.988-30.328-2.119v-.002c-3.389-7.399-3.286-12.095-3.295-15.922-.009-4.011 1.061-10.32 2.861-12.651zm3.7 27.124c-.005-.027-.013-.051-.024-.074-.001-.002-.002-.004-.003-.006-3.054-6.69-2.943-10.94-2.951-14.401-.005-2.147.339-5.032.96-7.445.321-1.247.656-2.364 1.154-3.008.618-.801.869-1.826.69-2.821-1.621-9.054-.786-19.919 1.096-24.299 1.721-4.006 4.625-7.002 8.51-6.714 1.533.114 2.612 1.363 3.441 2.784 1.122 1.924 1.718 4.33 1.676 6.412-.209 10.494-1.193 14.658-5.18 20.963-.572.904-.71 2.016-.376 3.033 0 0 1.442 4.309 1.174 8.064-.169 2.376-.532 4.513-1.18 5.544-.751 1.197-.729 2.724.058 3.899.786 1.174 2.19 1.776 3.583 1.537 4.658-.801 9.632-1.239 13.779-1.582 2.256-.187 6.518-.287 7.006-.298 8.196-.004 12.167-1.212 15.086-2.372 2.233-.887 3.628-1.866 6.653-1.866 1.561 0 3.193.016 4.709.296 1.056.196 2.062.499 2.83 1.191 1.09.981 1.547 2.649 1.528 5.233-.038 4.961-4.91 7.594-9.067 7.594-3.865 0-6.24-1.208-8.751-2.121-3.375-1.228-6.909-2.149-12.744-.93-.035.007-.069.015-.104.023 0 0-4.522 1.094-6.913 1.377-10.409 1.232-18.051 2.079-22.978 1.45-.998-.127-1.855-.311-2.56-.606-.501-.209-.907-.442-1.097-.867z" transform="matrix(.38632411 .7820998 -.7820998 .38632411 261.990356 -38.765924)"/><path d="m59.297 265.624c.512-8.747-3.1-18.256-4.584-26.729-1.796-10.248-2.05-14.375-4.632-28.664-.18-.999-.285-2.011-.314-3.027-.077-1.058-.068-1.736.038-1.952h.001c.271-3.979.833-7.582 3.526-10.918 6.978-8.644 19.661-9.996 28.304-3.019 4.953 3.998-.194 10.199-.224 16.108l2.072 1.018c-.006 1.203-1.292 3.498-.13 4.514 11.68 10.215 2.54 52.022-.268 58.862-1.198 2.919-3.67 4.873-3.67 4.873.44 3.084.793 4.72.086 12.761-.028.312-.087.617-.145.92-1.451 11.435-9.686 36.667-9.526 54.362.04 4.396-4.321 7.585-8.697 7.161s-7.554-4.318-7.161-8.697c2.825-31.543-2.214-48.748-1.677-55.88.011-.165.025-.33.043-.496.246-2.357 1.201-11.667 5.778-18.636.601-.916 1.129-1.701 1.18-2.561z" fill="#feefe7" transform="matrix(.628125 .778112 -.778112 .628125 249.395 -73.9049)"/><path d="m59.297 265.624c.512-8.747-3.1-18.256-4.584-26.729-1.796-10.248-2.05-14.375-4.632-28.664-.18-.999-.285-2.011-.314-3.027-.077-1.058-.068-1.736.038-1.952h.001c.271-3.979.833-7.582 3.526-10.918 6.978-8.644 19.661-9.996 28.304-3.019 4.953 3.998-.194 10.199-.224 16.108l2.072 1.018c-.006 1.203-1.292 3.498-.13 4.514 11.68 10.215 2.54 52.022-.268 58.862-1.198 2.919-3.67 4.873-3.67 4.873.44 3.084.793 4.72.086 12.761-.028.312-.087.617-.145.92-1.451 11.435-9.686 36.667-9.526 54.362.04 4.396-4.321 7.585-8.697 7.161s-7.554-4.318-7.161-8.697c2.825-31.543-2.214-48.748-1.677-55.88l.043-.496c.246-2.357 1.201-11.667 5.778-18.636.601-.916 1.129-1.701 1.18-2.561zm20.62-55.459c-.114.567-.182 1.13-.173 1.652.026 1.394.521 2.588 1.553 3.49 3.014 2.636 4.142 7.812 4.564 13.794 1.104 15.692-3.765 36.899-5.666 41.53-.887 2.16-2.717 3.608-2.717 3.608-.872.689-1.312 1.791-1.155 2.892.414 2.911.734 4.455.066 12.046-.018.208-.064.41-.102.612l-.03.189c-1.462 11.521-9.712 36.953-9.551 54.783.024 2.588-2.695 4.272-5.271 4.023-2.666-.258-4.589-2.641-4.35-5.308 2.827-31.568-2.211-48.787-1.673-55.924l.035-.406c.228-2.179 1.051-10.804 5.282-17.246.944-1.438 1.608-2.743 1.687-4.094.526-8.978-3.102-18.753-4.625-27.45-1.797-10.254-2.052-14.384-4.634-28.681-.153-.845-.242-1.701-.266-2.56-.002-.045-.004-.091-.007-.137-.028-.381-.036-.822-.038-1.007.04-.164.065-.333.077-.506.227-3.329.588-6.377 2.841-9.168 5.894-7.302 16.608-8.444 23.91-2.55 1.388 1.12 1.057 2.611.68 4.174-.725 3.011-2.051 6.296-2.067 9.486-.006 1.153.623 2.211 1.63 2.758z" transform="matrix(.628125 .778112 -.778112 .628125 249.395 -73.9049)"/><g transform="matrix(.995515 -.0946027 .0946027 .995515 66.1849 9.47691)"><path d="m23.278 190.268s-4.281-1.804-8.839-.412c-2.747.839-5.245 2.644-5.245 2.644s-3.888.286-6.763 3.211c-1.576 1.604-.117 6.119 2.202 9.439s5.991 7.202 7.488 9.799c1.573 2.732 2.406 5.296 3.944 7.755 1.867 2.981 4.954 7.253 7.254 10.136 2.268 2.842 5.984 6.369 8.056 5.696 5.446-1.769 4.099-6.388 3.262-9.37-.724-2.582-2.044-5.042-2.424-7.709-.441-3.093-.343-5.501-.22-10.853.115-5.017.109-7.142.109-7.142z" fill="#4b4b4d"/><path d="m23.278 190.268s-4.281-1.804-8.839-.412c-2.747.839-5.245 2.644-5.245 2.644s-3.888.286-6.763 3.211c-1.576 1.604-.117 6.119 2.202 9.439s5.991 7.202 7.488 9.799c1.573 2.732 2.406 5.296 3.944 7.755 1.867 2.981 4.954 7.253 7.254 10.136 2.268 2.842 5.984 6.369 8.056 5.696 5.446-1.769 4.099-6.388 3.262-9.37-.724-2.582-2.044-5.042-2.424-7.709-.441-3.093-.343-5.501-.22-10.853.115-5.017.109-7.142.109-7.142zm7.509 45.161c-.298-.156-.997-.536-1.439-.883-1.289-1.01-2.593-2.41-3.586-3.655-2.234-2.8-5.235-6.949-7.048-9.846-1.518-2.425-2.333-4.96-3.886-7.655-1.529-2.655-5.263-6.636-7.633-10.029-.945-1.354-1.728-2.945-2.101-4.367-.114-.436-.159-1.065-.174-1.342 1.993-1.833 4.503-2.035 4.503-2.035.577-.043 1.132-.245 1.601-.584 0 0 2.06-1.496 4.327-2.189 2.422-.739 4.74-.295 5.915.038h.001l7.706 11.522c-.009 1.055-.033 3.036-.104 6.128-.129 5.605-.211 8.126.25 11.366.4 2.802 1.748 5.4 2.509 8.112.216.77.481 1.664.607 2.583.095.698.194 1.443-.241 2.035-.25.34-.655.589-1.207.801z"/><path d="m8.718 192.892s-7.472 7.651-.193 17.213c.522.686 1.504.819 2.19.297.686-.523.819-1.504.297-2.19-5.562-7.306-.042-13.153-.042-13.153.598-.621.579-1.611-.042-2.209-.622-.598-1.612-.579-2.21.042z"/></g><path d="m53.604 293.666c.586-6.18 2.588-8.747 2.588-8.747s-6.204 5.588-31.223-1.301l-.969-34.682s15.44 4.568 23.285 6.352c8.109 1.843 18.125 3.972 23.66 6.586 3.977 1.879 8.273 4.894 9.553 9.102 1.448 4.762.065 13.037-.865 19.465-1.777 12.293-9.962 36.597-9.802 54.292.04 4.396-4.321 7.585-8.697 7.161s-7.554-4.318-7.161-8.697c2.825-31.543-1.781-34.646-.369-49.531z" fill="#feefe7" transform="matrix(.673003 .73964 -.73964 .673003 324.917 -73.8748)"/><path d="m55.198 285.518c-2.56 1.232-10.609 3.502-30.229-1.9l-.969-34.682s15.44 4.568 23.285 6.352c8.109 1.843 18.125 3.972 23.66 6.586 3.977 1.879 8.273 4.894 9.553 9.102 1.448 4.762.065 13.037-.865 19.465-1.777 12.293-10.179 36.513-9.802 54.292.093 4.395-4.321 7.585-8.697 7.161s-7.554-4.318-7.161-8.697c2.825-31.543-1.781-34.646-.369-49.531.349-3.675 1.012-5.602 1.831-7.411.266-.588.71-1.706 1.344-2.285 1.011-.925 2.281-1.193 2.281-1.193s.669 2.484-.404 4.064c-1.447 2.133-1.467 2.12-1.941 7.12-1.411 14.88 3.194 17.983.37 49.515-.239 2.667 1.684 5.05 4.35 5.308 2.576.249 5.295-1.435 5.271-4.023-.161-17.847 8.042-42.369 9.835-54.767.865-5.982 2.315-13.677.967-18.108-1.035-3.405-4.679-5.666-7.898-7.186-5.382-2.543-15.132-4.573-23.018-6.365-5.341-1.214-14.175-3.708-19.349-5.199 0 0 .785 28.059.785 28.059 18.988 4.823 26.199 1.296 26.199 1.296l4.178-2.553-1.312 4.744z" transform="matrix(.673003 .73964 -.73964 .673003 324.917 -73.8748)"/><path d="m302.951 215.039s-3.16 2.552-6.139 4.668c-.75.533-.953 1.545-.42 2.295.532.75 1.574.927 2.324.394 3.045-2.164 6.304-4.743 6.304-4.743.721-.571.843-1.62.272-2.341-.571-.722-1.62-.844-2.341-.273z" transform="matrix(.628125 .778112 -.778112 .628125 137.565 -212.439)"/><path d="m301.373 223.481s1.045-2.202 3.953-6.146c.546-.74.389-1.784-.352-2.33-.74-.546-1.784-.388-2.33.352-3.169 4.296-4.289 6.709-4.289 6.709-.391.832-.032 1.826.801 2.216.833.391 1.826.032 2.217-.801z" transform="matrix(.628125 .778112 -.778112 .628125 137.565 -212.439)"/><path d="m116.702 148.915-23.511-27.469c1.701-1.586 14.601-10.83 20.345-18.368 4.917-6.455 30.731 26.775 30.657 26.865 0 0-5.135 6.577-27.491 18.972z" fill="#aaabaf" transform="matrix(.0843514 -.996436 .996436 .0843514 8.49129 233.38)"/><path d="m116.702 148.915-23.511-27.469c1.701-1.586 14.601-10.83 20.345-18.368 4.917-6.455 30.731 26.775 30.657 26.865 0 0-5.135 6.577-27.491 18.972zm23.358-19.223c-2.69 2.453-9.118 7.586-22.65 15.245l-19.764-23.093c4.338-3.421 13.223-10.371 17.99-16.379.238.073.56.182.805.301.865.418 1.82 1.049 2.843 1.822 7.152 5.405 16.935 17.25 20.776 22.104z" transform="matrix(.0843514 -.996436 .996436 .0843514 8.49129 233.38)"/><path d="m116.702 148.915-23.511-27.469c1.701-1.586 12.361-11.552 18.105-19.09 4.918-6.455 8.151-9.83 11.807-11.823s14.085-6.943 16.67-7.99c0 0 6.617 13.882 18.926 27.424 0 0-8.839 7.158-11.569 10.468-.075.09-.149.18-.223.271-6.193 7.52-12.156 15.448-30.205 28.209z" fill="#aaabaf"/><path d="m116.702 148.915-23.511-27.469c1.701-1.586 12.361-11.552 18.105-19.09 4.918-6.455 8.151-9.83 11.807-11.823s14.085-6.943 16.67-7.99c0 0 6.617 13.882 18.926 27.424 0 0-8.839 7.158-11.569 10.468-.075.09-.149.18-.223.271-6.193 7.52-12.156 15.448-30.205 28.209zm.51-4.209-19.711-23.031c3.91-3.736 11.655-11.355 16.281-17.426 4.535-5.951 7.445-9.135 10.816-10.972 2.805-1.529 9.675-4.834 13.747-6.692 2.379 4.406 7.769 13.607 15.879 23.037-2.93 2.47-7.617 6.536-9.505 8.825-.075.09-.15.181-.225.272-5.795 7.038-11.384 14.442-27.282 25.987z"/><g transform="matrix(.916636 .399724 -.399724 .916636 26.545 -82.9694)"><path d="m219.495 3.925s-9.089 4.542-13.711 14.095c-4.492 9.283-6.327 16.598-6.379 25.522-.046 7.945 8.074-2.125 8.074-2.125s3.044-7.849 7.012-14.315c5.57-9.079 5.004-23.177 5.004-23.177z" fill="#996533" transform="matrix(.984868 .173308 -.173308 .984868 4.1051 -37.974)"/><path d="m219.495 3.925s-9.089 4.542-13.711 14.095c-4.492 9.283-6.327 16.598-6.379 25.522-.046 7.945 8.074-2.125 8.074-2.125s3.044-7.849 7.012-14.315c5.57-9.079 5.004-23.177 5.004-23.177zm-3.298 5.995c-.379 4.523-1.448 10.785-4.37 15.547-3.526 5.748-6.35 12.55-7.078 14.36-.427.518-1.264 1.49-2.194 2.334.229-7.835 2.023-14.474 6.042-22.78 2.046-4.229 5.065-7.367 7.6-9.461z" transform="matrix(.984868 .173308 -.173308 .984868 4.1051 -37.974)"/><path d="m216.272 28.893c4.095-4.929-4.849-8.226 4.908-19.477 9.756-11.251 23.955 1.53 26.372 7.823.811 2.113.927 6.673.464 9.614-.464 2.941-2.031 2.822-2.631 5.188-.599 2.366 2.492 7.515 1.238 8.769s-3.82 1.022-3.82 1.022c-1.059 3.032-3.474 4.042-3.474 4.042.482 6.557-4.408 6.032-5.712 5.735s-7.563-4.619-7.563-4.619c-9.663 8.96-10.329 17.535-10.329 17.535l-13.009-24.536s9.461-6.168 13.556-11.096z" fill="#feefe7" transform="translate(1.5486 .483777)"/><path d="m216.272 28.893c4.095-4.929-4.849-8.226 4.908-19.477 9.756-11.251 23.955 1.53 26.372 7.823.811 2.113.927 6.673.464 9.614-.464 2.941-2.031 2.822-2.631 5.188-.599 2.366 2.492 7.515 1.238 8.769s-3.82 1.022-3.82 1.022c-1.059 3.032-3.474 4.042-3.474 4.042.482 6.557-4.408 6.032-5.712 5.735s-7.563-4.619-7.563-4.619c-9.663 8.96-10.329 17.535-10.329 17.535l-13.009-24.536s9.461-6.168 13.556-11.096zm27.211 9.826c-.238.011-.399.001-.399.001-1.427-.129-2.759.729-3.231 2.081-.555 1.587-1.73 2.189-1.73 2.189-1.24.519-2.009 1.772-1.911 3.112.089 1.211.085 1.965-.355 2.345-.429.371-1.036.243-1.382.155-.15-.077-.912-.474-1.459-.802-2.216-1.329-5.186-3.382-5.186-3.382-1.205-.832-2.827-.716-3.901.28-4.563 4.232-7.292 8.403-8.922 11.801 0 .001-8.224-15.51-8.224-15.51 3.213-2.264 8.904-6.502 11.893-10.099 1.97-2.371 2.112-4.493 1.693-6.808-.304-1.679-1.26-3.528-.641-6.161.414-1.763 1.535-3.831 3.813-6.458 3.717-4.287 8.298-3.891 12.162-1.928 4.304 2.185 7.906 6.154 8.932 8.824.675 1.759.68 5.559.294 8.007-.209 1.324-.883 1.617-1.331 2.235-.495.686-.943 1.492-1.242 2.672-.296 1.167-.155 2.786.308 4.494.227.835.57 2.063.819 2.952z" transform="translate(1.5486 .483777)"/><path d="m249.726 20.913s2.19-2.766 1.402-5.564-7.59-9.565-12.541-11.671c-4.95-2.106-14.685-1.905-19.092.247-5.973 2.915-9.632 7.73-9.33 16.166.254 7.087-.033 10.537 3.291 13.712 3.802 3.632 7.175-3.393 8.701-4.624s4.979-.798 7.575-.859 3.579-2.391 3.579-2.391 2.647-.05 4.562-1.169c1.916-1.119 2.379-4.089 5.015-4.432 2.636-.344 6.838.585 6.838.585z" fill="#996533"/><path d="m476.836 30.739c-.307.473-.753.931-1.398 1.286-2.274 1.254-5.536 2.466-6.32 4.263-.784 1.796-.528 9.585-5.579 8.121-4.415-1.279-5.755-4.471-9.256-10.638-4.166-7.341-3.146-13.302.803-18.649 2.914-3.944 11.453-8.621 16.817-9.042 5.363-.42 14.523 2.437 16.515 4.554s1.327 5.582 1.327 5.582-4.155 1.118-6.334 2.641c-2.178 1.523-1.216 4.37-2.398 6.248s-3.506 3.145-3.506 3.145.07.866-.329 1.834c0 0-.108.246-.165.355-.054.103-.177.3-.177.3zm-3.782-21.579h.036c2.768-.002 6.326.802 9.177 1.789 1.774.613 3.283 1.197 3.875 1.826.315.334.485.738.57 1.135-1.591.56-3.691 1.407-5.091 2.386-1.587 1.109-2.327 2.561-2.7 4.174-.142.618-.223 1.263-.313 1.898-.053.376-.045.763-.24 1.073-.786 1.249-1.76 1.526-2.357 2.065-.42.38-.956.689-1.227 1.174-.268.481-.428 1.13-.398 1.724l.001.014s.017.609-.457.87c-1.424.785-3.214 1.564-4.599 2.459-1.474.953-2.555 2.094-3.077 3.291-.356.817-.587 2.71-1.027 4.597-.123.527-.269 1.055-.487 1.515-.04.086-.114.205-.172.293-.054-.01-.113-.022-.159-.035-1.874-.543-2.911-1.638-4.018-3.317-1.013-1.536-2.031-3.47-3.39-5.863-3.407-6.002-2.63-10.878.598-15.249 2.518-3.409 9.913-7.42 14.548-7.783.291-.023.594-.034.907-.036z" transform="matrix(.886792 .462169 -.462169 .886792 -177.082 -219.812)"/></g><path d="m140.42 87.448s5.949 13.551 19.383 27.308c0 0 12.982-8.703 20.629-14.512 2.258-1.715 7.003-6.056 7.003-6.056 4.455 6.282 14.503 2.687 17.362-3.753 1.941-4.371 2.234-6.951 2.486-12.133.318-6.538 2.799-16.495 1.722-20.771-2.166-8.605-4.169-18.575-4.169-18.575-7.671-1.249-16.543 6.591-25.774 14.2-8.135 6.706-13.086 13.416-20.808 19.893-4.416 3.703-17.834 14.399-17.834 14.399z" fill="#f7acb0" transform="translate(-2.73359 -3.38633)"/><path d="m140.42 87.448s5.949 13.551 19.383 27.308c0 0 12.982-8.703 20.629-14.512 2.258-1.715 7.003-6.056 7.003-6.056 4.455 6.282 14.503 2.687 17.362-3.753 1.941-4.371 2.234-6.951 2.486-12.133.318-6.538 2.799-16.495 1.722-20.771-2.166-8.605-4.169-18.575-4.169-18.575-7.671-1.249-16.543 6.591-25.774 14.2-8.135 6.706-13.086 13.416-20.808 19.893-4.416 3.703-17.834 14.399-17.834 14.399zm3.906.88c3.9-3.117 12.552-10.047 15.936-12.885 7.715-6.47 12.66-13.176 20.788-19.875 5.366-4.424 10.589-8.953 15.529-11.587 1.968-1.05 3.863-1.806 5.691-1.992.732 3.504 2.178 10.241 3.705 16.305.364 1.446.166 3.661-.123 6.152-.521 4.487-1.496 9.721-1.69 13.704-.229 4.702-.46 7.05-2.221 11.016-1.062 2.392-3.491 4.216-6.036 4.898-2.169.581-4.51.305-5.92-1.684-.519-.731-1.326-1.204-2.217-1.3-.891-.095-1.781.197-2.442.802 0 0-4.595 4.211-6.784 5.874-5.671 4.307-14.297 10.217-18.299 12.932-8.73-9.4-13.864-18.385-15.917-22.36z" transform="translate(-2.73359 -3.38633)"/><g transform="matrix(.96330878 .26839453 -.26839453 .96330878 164.976969 -84.843255)"><path d="m50.965 148.327c-1.758-9.819-.711-21.595 1.33-26.344 2.379-5.536 6.7-9.271 12.067-8.873 5.368.399 8.541 7.459 8.434 12.84-.228 11.429-1.392 15.94-5.734 22.807 0 0 1.656 5.044 1.344 9.437-.221 3.1-.875 5.849-1.72 7.194 4.763-.818 9.849-1.271 14.091-1.622 2.468-.204 7.269-.309 7.269-.309 14.983 0 14.547-4.238 21.771-4.238 5.927 0 12.725.407 12.649 10.329-.054 7.073-6.722 11.149-12.649 11.149-8.796 0-10.885-5.189-20.763-3.126 0 0-4.794 1.15-7.327 1.45-18.006 2.132-28.047 2.988-30.328-2.119v-.002c-3.389-7.399-3.286-12.095-3.295-15.922-.009-4.011 1.061-10.32 2.861-12.651z" fill="#feefe7"/><path d="m50.965 148.327c-1.758-9.819-.711-21.595 1.33-26.344 2.379-5.536 6.7-9.271 12.067-8.873 5.368.399 8.541 7.459 8.434 12.84-.228 11.429-1.392 15.94-5.734 22.807 0 0 1.656 5.044 1.344 9.437-.221 3.1-.875 5.849-1.72 7.194 4.763-.818 9.849-1.271 14.091-1.622 2.468-.204 7.269-.309 7.269-.309 14.983 0 14.547-4.238 21.771-4.238 5.927 0 12.725.407 12.649 10.329-.054 7.073-6.722 11.149-12.649 11.149-8.796 0-10.885-5.189-20.763-3.126 0 0-4.794 1.15-7.327 1.45-18.006 2.132-28.047 2.988-30.328-2.119v-.002c-3.389-7.399-3.286-12.095-3.295-15.922-.009-4.011 1.061-10.32 2.861-12.651zm3.281 27.306c-.003-.021-.01-.042-.019-.061-.002-.004-.004-.008-.005-.012-3.094-6.773-2.985-11.081-2.993-14.589-.005-2.18.345-5.109.975-7.56.339-1.318.709-2.493 1.235-3.174.539-.698.758-1.592.602-2.461-1.638-9.151-.777-20.133 1.125-24.559 1.806-4.202 4.891-7.293 8.965-6.99 1.27.094 2.275.912 3.089 1.952 1.638 2.093 2.503 5.145 2.452 7.709-.212 10.613-1.219 14.822-5.252 21.199-.498.788-.618 1.758-.327 2.645 0 0 1.469 4.403 1.196 8.24-.176 2.468-.577 4.683-1.249 5.754-.656 1.045-.636 2.377.05 3.401.686 1.025 1.91 1.55 3.126 1.341 4.671-.803 9.659-1.243 13.818-1.587 2.271-.188 6.567-.288 7.038-.299 9.694-.004 13.398-1.678 16.498-2.995 1.555-.661 2.9-1.243 5.247-1.243 2.785 0 5.879-.166 7.845 1.604 1.164 1.048 1.7 2.816 1.679 5.576-.04 5.231-5.141 8.048-9.524 8.048-3.933 0-6.353-1.219-8.907-2.148-3.309-1.204-6.774-2.107-12.495-.912-.03.006-.06.013-.09.02 0 0-4.557 1.101-6.966 1.386-10.459 1.238-18.139 2.081-23.089 1.45-2.019-.257-3.477-.531-4.017-1.74z"/></g></g><path d="m170.381 304.335h12.004v72.188h-12.004z" fill="#d2d3d5" transform="matrix(.535553 .663435 -.634947 .512556 382.111756 207.870988)"/><path d="m182.385 304.335h-12.004v72.188h12.004zm-3.909 4.085v64.018h-4.185v-64.018z" transform="matrix(.535553 .663435 -.634947 .512556 382.111756 207.870988)"/><path d="m170.381 304.335h12.004v72.188h-12.004z" fill="#d2d3d5" transform="matrix(.535553 .663435 -.634947 .512556 423.402574 259.021432)"/><path d="m182.385 304.335h-12.004v72.188h12.004zm-3.909 4.085v64.018h-4.185v-64.018z" transform="matrix(.535553 .663435 -.634947 .512556 423.402574 259.021432)"/><path d="m167.295 304.335h15.09v72.188h-15.09z" fill="#d2d3d5" transform="matrix(.40710972 .50432139 -.27470918 .22175684 327.065624 363.993015)"/><path d="m182.385 304.335h-15.09v72.188h15.09zm-5.143 9.442v53.304h-4.804v-53.304z" transform="matrix(.40710972 .50432139 -.27470918 .22175684 327.065624 363.993015)"/><path d="m170.381 304.335h15.09v72.188h-15.09z" fill="#d2d3d5" transform="matrix(.40710972 .50432139 -.27470918 .22175684 304.493136 336.030556)"/><path d="m185.471 304.335h-15.09v72.188h15.09zm-5.143 9.442v53.304h-4.804v-53.304z" transform="matrix(.40710972 .50432139 -.27470918 .22175684 304.493136 336.030556)"/><path d="m265.016 295.482-15.988-114.795h-73.139l-11.869 114.795v16.342h100.996z" fill="#f68634" transform="matrix(.53994453 .66887517 -.16073175 .12974945 241.269619 320.0913)"/><path d="m265.016 295.482-15.988-114.795h-73.139l-11.869 114.795v16.342h100.996zm-96.796.205 10.222-98.863h68.352l13.769 98.863z" transform="matrix(.53994453 .66887517 -.16073175 .12974945 241.269619 320.0913)"/><path d="m164.02 295.482h100.996v13.352h-100.996z" fill="#f68634" transform="matrix(.53994453 .66887517 -.6612592 .53379632 389.165601 200.703424)"/><path d="m265.016 295.482h-100.996v13.351h100.996zm-3.878 3.922v5.507h-93.24v-5.507z" transform="matrix(.53994453 .66887517 -.6612592 .53379632 389.165601 200.703424)"/><g transform="matrix(.995515 -.0946027 .0946027 .995515 278.9697 271.62206)"><path d="m24.199 191.212s-5.202-2.748-9.76-1.356c-2.747.839-5.245 2.644-5.245 2.644s-3.888.286-6.763 3.211c-1.576 1.604-.117 6.119 2.202 9.439s5.991 7.202 7.488 9.799c1.573 2.732 2.406 5.296 3.944 7.755 1.867 2.981 4.954 7.253 7.254 10.136 2.268 2.842 5.984 6.369 8.056 5.696 5.446-1.769 4.099-6.388 3.262-9.37-.724-2.582-2.044-5.042-2.424-7.709-.441-3.093-.343-5.501-.22-10.853.115-5.017.109-7.142.109-7.142z" fill="#4b4b4d"/><path d="m24.199 191.212s-5.202-2.748-9.76-1.356c-2.747.839-5.245 2.644-5.245 2.644s-3.888.286-6.763 3.211c-1.576 1.604-.117 6.119 2.202 9.439s5.991 7.202 7.488 9.799c1.573 2.732 2.406 5.296 3.944 7.755 1.867 2.981 4.954 7.253 7.254 10.136 2.268 2.842 5.984 6.369 8.056 5.696 5.446-1.769 4.099-6.388 3.262-9.37-.724-2.582-2.044-5.042-2.424-7.709-.441-3.093-.343-5.501-.22-10.853.115-5.017.109-7.142.109-7.142zm6.588 44.217c-.298-.156-.997-.536-1.439-.883-1.289-1.01-2.593-2.41-3.586-3.655-2.234-2.8-5.235-6.949-7.048-9.846-1.518-2.425-2.333-4.96-3.886-7.655-1.529-2.655-5.263-6.636-7.633-10.029-.945-1.354-1.728-2.945-2.101-4.367-.114-.436-.159-1.065-.174-1.342 1.993-1.833 4.503-2.035 4.503-2.035.577-.043 1.132-.245 1.601-.584 0 0 2.06-1.496 4.327-2.189 2.575-.786 5.413.226 6.693.794h.001l6.928 10.738c-.008 1.047-.033 3.036-.104 6.156-.129 5.605-.211 8.126.25 11.366.4 2.802 1.748 5.4 2.509 8.112.216.77.481 1.664.607 2.583.095.698.194 1.443-.241 2.035-.25.34-.655.589-1.207.801z"/><path d="m8.718 192.892s-7.472 7.651-.193 17.213c.522.686 1.504.819 2.19.297.686-.523.819-1.504.297-2.19-5.562-7.306-.042-13.153-.042-13.153.598-.621.579-1.611-.042-2.209-.622-.598-1.612-.579-2.21.042z"/></g><g transform="matrix(.995515 -.0946027 .0946027 .995515 272.3096 277.8364)"><path d="m23.278 190.268s-4.281-1.804-8.839-.412c-2.747.839-5.245 2.644-5.245 2.644s-3.888.286-6.763 3.211c-1.576 1.604-.117 6.119 2.202 9.439s5.991 7.202 7.488 9.799c1.573 2.732 2.406 5.296 3.944 7.755 1.867 2.981 4.954 7.253 7.254 10.136 2.268 2.842 5.984 6.369 8.056 5.696 5.446-1.769 4.099-6.388 3.262-9.37-.724-2.582-2.044-5.042-2.424-7.709-.441-3.093-.343-5.501-.22-10.853.115-5.017.109-7.142.109-7.142z" fill="#4b4b4d"/><path d="m23.278 190.268s-4.281-1.804-8.839-.412c-2.747.839-5.245 2.644-5.245 2.644s-3.888.286-6.763 3.211c-1.576 1.604-.117 6.119 2.202 9.439s5.991 7.202 7.488 9.799c1.573 2.732 2.406 5.296 3.944 7.755 1.867 2.981 4.954 7.253 7.254 10.136 2.268 2.842 5.984 6.369 8.056 5.696 5.446-1.769 4.099-6.388 3.262-9.37-.724-2.582-2.044-5.042-2.424-7.709-.441-3.093-.343-5.501-.22-10.853.115-5.017.109-7.142.109-7.142zm7.509 45.161c-.298-.156-.997-.536-1.439-.883-1.289-1.01-2.593-2.41-3.586-3.655-2.234-2.8-5.235-6.949-7.048-9.846-1.518-2.425-2.333-4.96-3.886-7.655-1.529-2.655-5.263-6.636-7.633-10.029-.945-1.354-1.728-2.945-2.101-4.367-.114-.436-.159-1.065-.174-1.342 1.993-1.833 4.503-2.035 4.503-2.035.577-.043 1.132-.245 1.601-.584 0 0 2.06-1.496 4.327-2.189 2.422-.739 4.74-.295 5.915.038h.001l7.706 11.522c-.009 1.055-.033 3.036-.104 6.128-.129 5.605-.211 8.126.25 11.366.4 2.802 1.748 5.4 2.509 8.112.216.77.481 1.664.607 2.583.095.698.194 1.443-.241 2.035-.25.34-.655.589-1.207.801z"/><path d="m8.718 192.892s-7.472 7.651-.193 17.213c.522.686 1.504.819 2.19.297.686-.523.819-1.504.297-2.19-5.562-7.306-.042-13.153-.042-13.153.598-.621.579-1.611-.042-2.209-.622-.598-1.612-.579-2.21.042z"/></g><path d="m59.297 265.624c.512-8.747-3.1-18.256-4.584-26.729-1.796-10.248-2.05-14.375-4.632-28.664-.18-.999-.285-2.011-.314-3.027-.077-1.058-.068-1.736.038-1.952h.001c.271-3.979.833-7.582 3.526-10.918 6.978-8.644 19.661-9.996 28.304-3.019 4.953 3.998-.194 10.199-.224 16.108l2.072 1.018c-.006 1.203-1.292 3.498-.13 4.514 11.68 10.215 2.54 52.022-.268 58.862-1.198 2.919-3.67 4.873-3.67 4.873.44 3.084.793 4.72.086 12.761-.028.312-.087.617-.145.92-1.451 11.435-9.686 36.667-9.526 54.362.04 4.396-4.321 7.585-8.697 7.161s-7.554-4.318-7.161-8.697c2.825-31.543-2.214-48.748-1.677-55.88.011-.165.025-.33.043-.496.246-2.357 1.201-11.667 5.778-18.636.601-.916 1.129-1.701 1.18-2.561z" fill="#feefe7" transform="matrix(.628125 .778112 -.778112 .628125 546.702 207.4314)"/><path d="m59.297 265.624c.512-8.747-3.1-18.256-4.584-26.729-1.796-10.248-2.05-14.375-4.632-28.664-.18-.999-.285-2.011-.314-3.027-.077-1.058-.068-1.736.038-1.952h.001c.271-3.979.833-7.582 3.526-10.918 6.978-8.644 19.661-9.996 28.304-3.019 4.953 3.998-.194 10.199-.224 16.108l2.072 1.018c-.006 1.203-1.292 3.498-.13 4.514 11.68 10.215 2.54 52.022-.268 58.862-1.198 2.919-3.67 4.873-3.67 4.873.44 3.084.793 4.72.086 12.761-.028.312-.087.617-.145.92-1.451 11.435-9.686 36.667-9.526 54.362.04 4.396-4.321 7.585-8.697 7.161s-7.554-4.318-7.161-8.697c2.825-31.543-2.214-48.748-1.677-55.88l.043-.496c.246-2.357 1.201-11.667 5.778-18.636.601-.916 1.129-1.701 1.18-2.561zm20.62-55.459c-.114.567-.182 1.13-.173 1.652.026 1.394.521 2.588 1.553 3.49 3.014 2.636 4.142 7.812 4.564 13.794 1.104 15.692-3.765 36.899-5.666 41.53-.887 2.16-2.717 3.608-2.717 3.608-.872.689-1.312 1.791-1.155 2.892.414 2.911.734 4.455.066 12.046-.018.208-.064.41-.102.612l-.03.189c-1.462 11.521-9.712 36.953-9.551 54.783.024 2.588-2.695 4.272-5.271 4.023-2.666-.258-4.589-2.641-4.35-5.308 2.827-31.568-2.211-48.787-1.673-55.924l.035-.406c.228-2.179 1.051-10.804 5.282-17.246.944-1.438 1.608-2.743 1.687-4.094.526-8.978-3.102-18.753-4.625-27.45-1.797-10.254-2.052-14.384-4.634-28.681-.153-.845-.242-1.701-.266-2.56-.002-.045-.004-.091-.007-.137-.028-.381-.036-.822-.038-1.007.04-.164.065-.333.077-.506.227-3.329.588-6.377 2.841-9.168 5.894-7.302 16.608-8.444 23.91-2.55 1.388 1.12 1.057 2.611.68 4.174-.725 3.011-2.051 6.296-2.067 9.486-.006 1.153.623 2.211 1.63 2.758z" transform="matrix(.628125 .778112 -.778112 .628125 546.702 207.4314)"/><path d="m116.702 148.915-23.511-27.469c1.701-1.586 12.361-11.552 18.105-19.09 4.918-6.455 8.151-9.83 11.807-11.823s14.085-6.943 16.67-7.99c0 0 6.617 13.882 18.926 27.424 0 0-8.839 7.158-11.569 10.468-.075.09-.149.18-.223.271-6.193 7.52-12.156 15.448-30.205 28.209z" fill="#aaabaf" transform="translate(297.3064 281.3363)"/><path d="m116.702 148.915-23.511-27.469c1.701-1.586 12.361-11.552 18.105-19.09 4.918-6.455 8.151-9.83 11.807-11.823s14.085-6.943 16.67-7.99c0 0 6.617 13.882 18.926 27.424 0 0-8.839 7.158-11.569 10.468-.075.09-.149.18-.223.271-6.193 7.52-12.156 15.448-30.205 28.209zm.51-4.209-19.711-23.031c3.91-3.736 11.655-11.355 16.281-17.426 4.535-5.951 7.445-9.135 10.816-10.972 2.805-1.529 9.675-4.834 13.747-6.692 2.379 4.406 7.769 13.607 15.879 23.037-2.93 2.47-7.617 6.536-9.505 8.825-.075.09-.15.181-.225.272-5.795 7.038-11.384 14.442-27.282 25.987z" transform="translate(297.3064 281.3363)"/><g transform="matrix(.916636 .399724 -.399724 .916636 323.851 198.3669)"><path d="m219.495 3.925s-9.089 4.542-13.711 14.095c-4.492 9.283-6.327 16.598-6.379 25.522-.046 7.945 8.074-2.125 8.074-2.125s3.044-7.849 7.012-14.315c5.57-9.079 5.004-23.177 5.004-23.177z" fill="#996533" transform="matrix(.984868 .173308 -.173308 .984868 4.1051 -37.974)"/><path d="m219.495 3.925s-9.089 4.542-13.711 14.095c-4.492 9.283-6.327 16.598-6.379 25.522-.046 7.945 8.074-2.125 8.074-2.125s3.044-7.849 7.012-14.315c5.57-9.079 5.004-23.177 5.004-23.177zm-3.298 5.995c-.379 4.523-1.448 10.785-4.37 15.547-3.526 5.748-6.35 12.55-7.078 14.36-.427.518-1.264 1.49-2.194 2.334.229-7.835 2.023-14.474 6.042-22.78 2.046-4.229 5.065-7.367 7.6-9.461z" transform="matrix(.984868 .173308 -.173308 .984868 4.1051 -37.974)"/><path d="m216.272 28.893c4.095-4.929-4.849-8.226 4.908-19.477 9.756-11.251 23.955 1.53 26.372 7.823.811 2.113.927 6.673.464 9.614-.464 2.941-2.031 2.822-2.631 5.188-.599 2.366 2.492 7.515 1.238 8.769s-3.82 1.022-3.82 1.022c-1.059 3.032-3.474 4.042-3.474 4.042.482 6.557-4.408 6.032-5.712 5.735s-7.563-4.619-7.563-4.619c-9.663 8.96-10.329 17.535-10.329 17.535l-13.009-24.536s9.461-6.168 13.556-11.096z" fill="#feefe7" transform="translate(1.5486 .483777)"/><path d="m216.272 28.893c4.095-4.929-4.849-8.226 4.908-19.477 9.756-11.251 23.955 1.53 26.372 7.823.811 2.113.927 6.673.464 9.614-.464 2.941-2.031 2.822-2.631 5.188-.599 2.366 2.492 7.515 1.238 8.769s-3.82 1.022-3.82 1.022c-1.059 3.032-3.474 4.042-3.474 4.042.482 6.557-4.408 6.032-5.712 5.735s-7.563-4.619-7.563-4.619c-9.663 8.96-10.329 17.535-10.329 17.535l-13.009-24.536s9.461-6.168 13.556-11.096zm27.211 9.826c-.238.011-.399.001-.399.001-1.427-.129-2.759.729-3.231 2.081-.555 1.587-1.73 2.189-1.73 2.189-1.24.519-2.009 1.772-1.911 3.112.089 1.211.085 1.965-.355 2.345-.429.371-1.036.243-1.382.155-.15-.077-.912-.474-1.459-.802-2.216-1.329-5.186-3.382-5.186-3.382-1.205-.832-2.827-.716-3.901.28-4.563 4.232-7.292 8.403-8.922 11.801 0 .001-8.224-15.51-8.224-15.51 3.213-2.264 8.904-6.502 11.893-10.099 1.97-2.371 2.112-4.493 1.693-6.808-.304-1.679-1.26-3.528-.641-6.161.414-1.763 1.535-3.831 3.813-6.458 3.717-4.287 8.298-3.891 12.162-1.928 4.304 2.185 7.906 6.154 8.932 8.824.675 1.759.68 5.559.294 8.007-.209 1.324-.883 1.617-1.331 2.235-.495.686-.943 1.492-1.242 2.672-.296 1.167-.155 2.786.308 4.494.227.835.57 2.063.819 2.952z" transform="translate(1.5486 .483777)"/><path d="m249.726 20.913s2.19-2.766 1.402-5.564-7.59-9.565-12.541-11.671c-4.95-2.106-14.685-1.905-19.092.247-5.973 2.915-9.632 7.73-9.33 16.166.254 7.087-.033 10.537 3.291 13.712 3.802 3.632 7.175-3.393 8.701-4.624s4.979-.798 7.575-.859 3.579-2.391 3.579-2.391 2.647-.05 4.562-1.169c1.916-1.119 2.379-4.089 5.015-4.432 2.636-.344 6.838.585 6.838.585z" fill="#996533"/><path d="m476.836 30.739c-.307.473-.753.931-1.398 1.286-2.274 1.254-5.536 2.466-6.32 4.263-.784 1.796-.528 9.585-5.579 8.121-4.415-1.279-5.755-4.471-9.256-10.638-4.166-7.341-3.146-13.302.803-18.649 2.914-3.944 11.453-8.621 16.817-9.042 5.363-.42 14.523 2.437 16.515 4.554s1.327 5.582 1.327 5.582-4.155 1.118-6.334 2.641c-2.178 1.523-1.216 4.37-2.398 6.248s-3.506 3.145-3.506 3.145.07.866-.329 1.834c0 0-.108.246-.165.355-.054.103-.177.3-.177.3zm-3.782-21.579h.036c2.768-.002 6.326.802 9.177 1.789 1.774.613 3.283 1.197 3.875 1.826.315.334.485.738.57 1.135-1.591.56-3.691 1.407-5.091 2.386-1.587 1.109-2.327 2.561-2.7 4.174-.142.618-.223 1.263-.313 1.898-.053.376-.045.763-.24 1.073-.786 1.249-1.76 1.526-2.357 2.065-.42.38-.956.689-1.227 1.174-.268.481-.428 1.13-.398 1.724l.001.014s.017.609-.457.87c-1.424.785-3.214 1.564-4.599 2.459-1.474.953-2.555 2.094-3.077 3.291-.356.817-.587 2.71-1.027 4.597-.123.527-.269 1.055-.487 1.515-.04.086-.114.205-.172.293-.054-.01-.113-.022-.159-.035-1.874-.543-2.911-1.638-4.018-3.317-1.013-1.536-2.031-3.47-3.39-5.863-3.407-6.002-2.63-10.878.598-15.249 2.518-3.409 9.913-7.42 14.548-7.783.291-.023.594-.034.907-.036z" transform="matrix(.886792 .462169 -.462169 .886792 -177.082 -219.812)"/></g><path d="m140.42 87.448s5.949 13.551 19.383 27.308c0 0 12.982-8.703 20.629-14.512 2.258-1.715 7.003-6.056 7.003-6.056 4.455 6.282 14.503 2.687 17.362-3.753 1.941-4.371 2.234-6.951 2.486-12.133.318-6.538 2.799-16.495 1.722-20.771-2.166-8.605-4.169-18.575-4.169-18.575-7.671-1.249-16.543 6.591-25.774 14.2-8.135 6.706-13.086 13.416-20.808 19.893-4.416 3.703-17.834 14.399-17.834 14.399z" fill="#f7acb0" transform="translate(294.5728 277.95)"/><path d="m140.42 87.448s5.949 13.551 19.383 27.308c0 0 12.982-8.703 20.629-14.512 2.258-1.715 7.003-6.056 7.003-6.056 4.455 6.282 14.503 2.687 17.362-3.753 1.941-4.371 2.234-6.951 2.486-12.133.318-6.538 2.799-16.495 1.722-20.771-2.166-8.605-4.169-18.575-4.169-18.575-7.671-1.249-16.543 6.591-25.774 14.2-8.135 6.706-13.086 13.416-20.808 19.893-4.416 3.703-17.834 14.399-17.834 14.399zm3.906.88c3.9-3.117 12.552-10.047 15.936-12.885 7.715-6.47 12.66-13.176 20.788-19.875 5.366-4.424 10.589-8.953 15.529-11.587 1.968-1.05 3.863-1.806 5.691-1.992.732 3.504 2.178 10.241 3.705 16.305.364 1.446.166 3.661-.123 6.152-.521 4.487-1.496 9.721-1.69 13.704-.229 4.702-.46 7.05-2.221 11.016-1.062 2.392-3.491 4.216-6.036 4.898-2.169.581-4.51.305-5.92-1.684-.519-.731-1.326-1.204-2.217-1.3-.891-.095-1.781.197-2.442.802 0 0-4.595 4.211-6.784 5.874-5.671 4.307-14.297 10.217-18.299 12.932-8.73-9.4-13.864-18.385-15.917-22.36z" transform="translate(294.5728 277.95)"/><path d="m50.965 148.327c-1.758-9.819-.711-21.595 1.33-26.344 2.379-5.536 6.7-9.271 12.067-8.873 5.368.399 8.541 7.459 8.434 12.84-.228 11.429-1.392 15.94-5.734 22.807 0 0 1.656 5.044 1.344 9.437-.221 3.1-.875 5.849-1.72 7.194 4.763-.818 9.849-1.271 14.091-1.622 2.468-.204 7.269-.309 7.269-.309 14.983 0 14.547-4.238 21.771-4.238 5.927 0 12.725.407 12.649 10.329-.054 7.073-6.722 11.149-12.649 11.149-8.796 0-10.885-5.189-20.763-3.126 0 0-4.794 1.15-7.327 1.45-18.006 2.132-28.047 2.988-30.328-2.119v-.002c-3.389-7.399-3.286-12.095-3.295-15.922-.009-4.011 1.061-10.32 2.861-12.651z" fill="#feefe7" transform="matrix(.62812501 .77811228 -.77811228 .62812501 546.702194 207.431607)"/><path d="m50.965 148.327c-1.758-9.819-.711-21.595 1.33-26.344 2.379-5.536 6.7-9.271 12.067-8.873 5.368.399 8.541 7.459 8.434 12.84-.228 11.429-1.392 15.94-5.734 22.807 0 0 1.656 5.044 1.344 9.437-.221 3.1-.875 5.849-1.72 7.194 4.763-.818 9.849-1.271 14.091-1.622 2.468-.204 7.269-.309 7.269-.309 14.983 0 14.547-4.238 21.771-4.238 5.927 0 12.725.407 12.649 10.329-.054 7.073-6.722 11.149-12.649 11.149-8.796 0-10.885-5.189-20.763-3.126 0 0-4.794 1.15-7.327 1.45-18.006 2.132-28.047 2.988-30.328-2.119v-.002c-3.389-7.399-3.286-12.095-3.295-15.922-.009-4.011 1.061-10.32 2.861-12.651zm3.283 27.309c-.005-.023-.012-.045-.021-.064-.001-.003-.002-.006-.004-.009-3.095-6.777-2.986-11.084-2.994-14.592-.005-2.18.345-5.109.975-7.56.339-1.318.709-2.493 1.235-3.174.539-.698.758-1.592.602-2.461-1.638-9.151-.777-20.133 1.125-24.559 1.806-4.202 4.891-7.293 8.965-6.99 1.27.094 2.275.912 3.089 1.952 1.638 2.093 2.503 5.145 2.452 7.709-.212 10.613-1.219 14.822-5.252 21.199-.498.788-.618 1.758-.327 2.645 0 0 1.469 4.403 1.196 8.24-.176 2.468-.577 4.683-1.249 5.754-.656 1.045-.636 2.377.05 3.401.686 1.025 1.91 1.55 3.126 1.341 4.671-.803 9.659-1.243 13.818-1.587 2.271-.188 6.567-.288 7.038-.299 9.694-.004 13.398-1.678 16.498-2.995 1.555-.661 2.9-1.243 5.247-1.243 2.785 0 5.879-.166 7.845 1.604 1.164 1.048 1.7 2.816 1.679 5.576-.04 5.231-5.141 8.048-9.524 8.048-3.933 0-6.353-1.219-8.907-2.148-3.309-1.204-6.774-2.107-12.495-.912-.03.006-.06.013-.09.02 0 0-4.557 1.101-6.966 1.386-10.459 1.238-18.139 2.081-23.089 1.45-2.019-.257-3.477-.531-4.017-1.74z" transform="matrix(.62812501 .77811228 -.77811228 .62812501 546.702194 207.431607)"/><g fill="#ec3237"><path d="m20.765 198.616v-9.238h46.399v-8.577l26.672 13.196-26.672 13.196v-8.577z" transform="matrix(.683094 .0728577 -.0728013 .682565 213.56 -44.1419)"/><path d="m20.765 198.616v-9.238h46.399v-8.577l26.672 13.196-26.672 13.196v-8.577z" transform="matrix(.683094 .0728577 -.0728013 .682565 319.555 147.242)"/><path d="m20.765 198.616v-9.238h46.399v-8.577l26.672 13.196-26.672 13.196v-8.577z" transform="matrix(-.683094 -.0728577 .0728013 -.682565 423.195 486.826)"/></g></g></svg>