<?xml version="1.0" encoding="UTF-8" standalone="no"?>
<!DOCTYPE svg PUBLIC "-//W3C//DTD SVG 1.1//EN" "http://www.w3.org/Graphics/SVG/1.1/DTD/svg11.dtd">
<svg width="100%" height="100%" viewBox="0 0 123 154" version="1.1" xmlns="http://www.w3.org/2000/svg" xmlns:xlink="http://www.w3.org/1999/xlink" xml:space="preserve" xmlns:serif="http://www.serif.com/" style="fill-rule:evenodd;clip-rule:evenodd;stroke-linejoin:round;stroke-miterlimit:2;">
    <g transform="matrix(1,0,0,1,-1390.54,-1167.56)">
        <g transform="matrix(0.44765,0,0,0.44765,667.97,441.237)">
            <g id="pin" transform="matrix(1,0,0,1,1180.87,1063.83)">
                <path d="M567.951,899.63C498.651,828.206 433.273,769.651 433.273,695.003C433.273,619.769 494.354,558.687 569.589,558.687L570.47,558.69C645.299,559.164 705.905,620.062 705.905,695.003C705.905,770.238 639.495,829.126 569.589,901.319L567.951,899.63Z" style="fill:rgb(223,79,0);"/>
                <g transform="matrix(1.28657,0,0,1.28657,-166.583,-211.963)">
                    <circle cx="572.198" cy="704.956" r="84.973" style="fill:white;"/>
                </g>
                <g transform="matrix(139.618,0,0,139.618,526.238,743.899)">
                    <path d="M0.311,0.012C0.467,0.012 0.563,-0.085 0.563,-0.217L0.563,-0.219C0.563,-0.349 0.47,-0.399 0.375,-0.415L0.552,-0.584L0.552,-0.7L0.079,-0.7L0.079,-0.568L0.354,-0.568L0.187,-0.4L0.211,-0.302L0.275,-0.302C0.361,-0.302 0.412,-0.27 0.412,-0.213L0.412,-0.211C0.412,-0.159 0.371,-0.126 0.313,-0.126C0.242,-0.126 0.192,-0.156 0.144,-0.21L0.038,-0.109C0.098,-0.038 0.185,0.012 0.311,0.012Z" style="fill-rule:nonzero;"/>
                </g>
            </g>
        </g>
    </g>
</svg>
