<?xml version="1.0" encoding="UTF-8" standalone="no"?>
<!DOCTYPE svg PUBLIC "-//W3C//DTD SVG 1.1//EN" "http://www.w3.org/Graphics/SVG/1.1/DTD/svg11.dtd">
<svg width="100%" height="100%" viewBox="0 0 123 154" version="1.1" xmlns="http://www.w3.org/2000/svg" xmlns:xlink="http://www.w3.org/1999/xlink" xml:space="preserve" xmlns:serif="http://www.serif.com/" style="fill-rule:evenodd;clip-rule:evenodd;stroke-linejoin:round;stroke-miterlimit:2;">
    <g transform="matrix(1,0,0,1,-1931.84,-1077.5)">
        <g transform="matrix(0.44765,0,0,0.44765,667.97,441.237)">
            <g id="pin" transform="matrix(1,0,0,1,2390.08,862.644)">
                <path d="M567.951,899.63C498.651,828.206 433.273,769.651 433.273,695.003C433.273,619.769 494.354,558.687 569.589,558.687L570.47,558.69C645.299,559.164 705.905,620.062 705.905,695.003C705.905,770.238 639.495,829.126 569.589,901.319L567.951,899.63Z" style="fill:rgb(223,79,0);"/>
                <g transform="matrix(1.28657,0,0,1.28657,-166.583,-211.963)">
                    <circle cx="572.198" cy="704.956" r="84.973" style="fill:white;"/>
                </g>
                <g transform="matrix(139.618,0,0,139.618,525.609,743.899)">
                    <path d="M0.305,0.012C0.466,0.012 0.571,-0.082 0.571,-0.23L0.571,-0.232C0.571,-0.39 0.462,-0.456 0.326,-0.456C0.287,-0.456 0.262,-0.451 0.234,-0.444L0.242,-0.565L0.54,-0.565L0.54,-0.7L0.11,-0.7L0.09,-0.355L0.179,-0.296C0.212,-0.31 0.252,-0.322 0.296,-0.322C0.369,-0.322 0.42,-0.287 0.42,-0.227L0.42,-0.225C0.42,-0.163 0.375,-0.128 0.303,-0.128C0.241,-0.128 0.189,-0.156 0.136,-0.204L0.043,-0.093C0.111,-0.028 0.193,0.012 0.305,0.012Z" style="fill-rule:nonzero;"/>
                </g>
            </g>
        </g>
    </g>
</svg>
