<?xml version="1.0" encoding="UTF-8" standalone="no"?>
<!DOCTYPE svg PUBLIC "-//W3C//DTD SVG 1.1//EN" "http://www.w3.org/Graphics/SVG/1.1/DTD/svg11.dtd">
<svg width="100%" height="100%" viewBox="0 0 123 154" version="1.1" xmlns="http://www.w3.org/2000/svg" xmlns:xlink="http://www.w3.org/1999/xlink" xml:space="preserve" xmlns:serif="http://www.serif.com/" style="fill-rule:evenodd;clip-rule:evenodd;stroke-linejoin:round;stroke-miterlimit:2;">
    <g transform="matrix(1,0,0,1,-2862.23,-785.308)">
        <g transform="matrix(0.44765,0,0,0.44765,667.97,441.237)">
            <g id="pin" transform="matrix(1,0,0,1,4468.45,209.929)">
                <path d="M567.951,899.63C498.651,828.206 433.273,769.651 433.273,695.003C433.273,619.769 494.354,558.687 569.589,558.687L570.47,558.69C645.299,559.164 705.905,620.062 705.905,695.003C705.905,770.238 639.495,829.126 569.589,901.319L567.951,899.63Z" style="fill:rgb(223,79,0);"/>
                <g transform="matrix(1.28657,0,0,1.28657,-166.583,-211.963)">
                    <circle cx="572.198" cy="704.956" r="84.973" style="fill:white;"/>
                </g>
                <g transform="matrix(139.618,0,0,139.618,523.376,743.899)">
                    <path d="M0.339,0.012C0.491,0.012 0.606,-0.087 0.606,-0.23L0.606,-0.232C0.606,-0.378 0.499,-0.455 0.36,-0.455C0.296,-0.455 0.252,-0.435 0.215,-0.41C0.22,-0.471 0.251,-0.572 0.356,-0.572C0.416,-0.572 0.453,-0.551 0.499,-0.516L0.58,-0.635C0.518,-0.684 0.456,-0.712 0.361,-0.712C0.152,-0.712 0.054,-0.546 0.054,-0.33L0.054,-0.328C0.054,-0.189 0.086,-0.114 0.137,-0.063C0.186,-0.014 0.248,0.012 0.339,0.012ZM0.333,-0.12C0.257,-0.12 0.211,-0.165 0.211,-0.224L0.211,-0.226C0.211,-0.285 0.255,-0.327 0.331,-0.327C0.407,-0.327 0.453,-0.284 0.453,-0.225L0.453,-0.223C0.453,-0.163 0.409,-0.12 0.333,-0.12Z" style="fill-rule:nonzero;"/>
                </g>
            </g>
        </g>
    </g>
</svg>
