<?xml version="1.0" encoding="UTF-8" standalone="no"?>
<!DOCTYPE svg PUBLIC "-//W3C//DTD SVG 1.1//EN" "http://www.w3.org/Graphics/SVG/1.1/DTD/svg11.dtd">
<svg width="100%" height="100%" viewBox="0 0 123 154" version="1.1" xmlns="http://www.w3.org/2000/svg" xmlns:xlink="http://www.w3.org/1999/xlink" xml:space="preserve" xmlns:serif="http://www.serif.com/" style="fill-rule:evenodd;clip-rule:evenodd;stroke-linejoin:round;stroke-miterlimit:2;">
    <g transform="matrix(1,0,0,1,-1800.83,-926.028)">
        <g transform="matrix(0.44765,0,0,0.44765,667.97,441.237)">
            <g id="pin" transform="matrix(1,0,0,1,2097.41,524.281)">
                <path d="M567.951,899.63C498.651,828.206 433.273,769.651 433.273,695.003C433.273,619.769 494.354,558.687 569.589,558.687L570.47,558.69C645.299,559.164 705.905,620.062 705.905,695.003C705.905,770.238 639.495,829.126 569.589,901.319L567.951,899.63Z" style="fill:rgb(223,79,0);"/>
                <g transform="matrix(1.28657,0,0,1.28657,-166.583,-211.963)">
                    <circle cx="572.198" cy="704.956" r="84.973" style="fill:white;"/>
                </g>
                <g transform="matrix(139.618,0,0,139.618,525.609,743.899)">
                    <path d="M0.315,0.01C0.47,0.01 0.585,-0.066 0.585,-0.196L0.585,-0.198C0.585,-0.281 0.543,-0.326 0.472,-0.363C0.526,-0.396 0.561,-0.441 0.561,-0.516L0.561,-0.518C0.561,-0.626 0.463,-0.71 0.315,-0.71C0.167,-0.71 0.069,-0.625 0.069,-0.518L0.069,-0.516C0.069,-0.441 0.104,-0.396 0.158,-0.363C0.084,-0.329 0.045,-0.279 0.045,-0.194L0.045,-0.192C0.045,-0.07 0.16,0.01 0.315,0.01ZM0.315,-0.414C0.254,-0.414 0.215,-0.451 0.215,-0.5L0.215,-0.502C0.215,-0.545 0.252,-0.583 0.315,-0.583C0.378,-0.583 0.415,-0.544 0.415,-0.501L0.415,-0.499C0.415,-0.45 0.376,-0.414 0.315,-0.414ZM0.315,-0.117C0.239,-0.117 0.194,-0.156 0.194,-0.204L0.194,-0.206C0.194,-0.26 0.245,-0.292 0.315,-0.292C0.385,-0.292 0.436,-0.26 0.436,-0.206L0.436,-0.204C0.436,-0.155 0.391,-0.117 0.315,-0.117Z" style="fill-rule:nonzero;"/>
                </g>
            </g>
        </g>
    </g>
</svg>
