<?xml version="1.0" encoding="UTF-8" standalone="no"?>
<!DOCTYPE svg PUBLIC "-//W3C//DTD SVG 1.1//EN" "http://www.w3.org/Graphics/SVG/1.1/DTD/svg11.dtd">
<svg width="100%" height="100%" viewBox="0 0 123 154" version="1.1" xmlns="http://www.w3.org/2000/svg" xmlns:xlink="http://www.w3.org/1999/xlink" xml:space="preserve" xmlns:serif="http://www.serif.com/" style="fill-rule:evenodd;clip-rule:evenodd;stroke-linejoin:round;stroke-miterlimit:2;">
    <g transform="matrix(1,0,0,1,-1478.65,-933.334)">
        <g transform="matrix(0.44765,0,0,0.44765,667.97,441.237)">
            <g id="pin" transform="matrix(1,0,0,1,1377.7,540.602)">
                <path d="M567.951,899.63C498.651,828.206 433.273,769.651 433.273,695.003C433.273,619.769 494.354,558.687 569.589,558.687L570.47,558.69C645.299,559.164 705.905,620.062 705.905,695.003C705.905,770.238 639.495,829.126 569.589,901.319L567.951,899.63Z" style="fill:rgb(223,79,0);"/>
                <g transform="matrix(1.28657,0,0,1.28657,-166.583,-211.963)">
                    <circle cx="572.198" cy="704.956" r="84.973" style="fill:white;"/>
                </g>
                <g transform="matrix(139.618,0,0,139.618,523.376,743.899)">
                    <path d="M0.306,-0.128C0.247,-0.128 0.204,-0.147 0.153,-0.188L0.072,-0.071C0.131,-0.022 0.2,0.012 0.302,0.012C0.501,0.012 0.608,-0.143 0.608,-0.37L0.608,-0.372C0.608,-0.51 0.575,-0.586 0.525,-0.636C0.472,-0.689 0.417,-0.712 0.323,-0.712C0.165,-0.712 0.056,-0.608 0.056,-0.467L0.056,-0.465C0.056,-0.323 0.154,-0.239 0.306,-0.239C0.366,-0.239 0.412,-0.257 0.448,-0.287C0.442,-0.227 0.412,-0.128 0.306,-0.128ZM0.331,-0.367C0.255,-0.367 0.209,-0.41 0.209,-0.472L0.209,-0.474C0.209,-0.536 0.252,-0.58 0.328,-0.58C0.405,-0.58 0.451,-0.535 0.451,-0.473L0.451,-0.471C0.451,-0.411 0.407,-0.367 0.331,-0.367Z" style="fill-rule:nonzero;"/>
                </g>
            </g>
        </g>
    </g>
</svg>
